%TF.GenerationSoftware,KiCad,Pcbnew,5.1.6~rc1+dfsg1-1+b1*%
%TF.CreationDate,2020-05-13T20:21:58-07:00*%
%TF.ProjectId,target_board,74617267-6574-45f6-926f-6172642e6b69,rev?*%
%TF.SameCoordinates,Original*%
%TF.FileFunction,Copper,L2,Bot*%
%TF.FilePolarity,Positive*%
%FSLAX46Y46*%
G04 Gerber Fmt 4.6, Leading zero omitted, Abs format (unit mm)*
G04 Created by KiCad (PCBNEW 5.1.6~rc1+dfsg1-1+b1) date 2020-05-13 20:21:58*
%MOMM*%
%LPD*%
G01*
G04 APERTURE LIST*
%TA.AperFunction,ComponentPad*%
%ADD10O,1.100000X1.500000*%
%TD*%
%TA.AperFunction,ComponentPad*%
%ADD11O,1.350000X1.700000*%
%TD*%
%TA.AperFunction,ComponentPad*%
%ADD12R,1.700000X1.700000*%
%TD*%
%TA.AperFunction,ComponentPad*%
%ADD13O,1.700000X1.700000*%
%TD*%
%TA.AperFunction,ComponentPad*%
%ADD14R,1.000000X1.000000*%
%TD*%
%TA.AperFunction,ComponentPad*%
%ADD15O,1.000000X1.000000*%
%TD*%
%TA.AperFunction,ViaPad*%
%ADD16C,1.200000*%
%TD*%
%TA.AperFunction,ViaPad*%
%ADD17C,0.800000*%
%TD*%
%TA.AperFunction,ViaPad*%
%ADD18C,0.600000*%
%TD*%
%TA.AperFunction,Conductor*%
%ADD19C,0.250000*%
%TD*%
%TA.AperFunction,Conductor*%
%ADD20C,0.254000*%
%TD*%
G04 APERTURE END LIST*
D10*
%TO.P,J1,6*%
%TO.N,Net-(J1-Pad6)*%
X47445000Y-41885000D03*
X42605000Y-41885000D03*
D11*
X47755000Y-38885000D03*
X42295000Y-38885000D03*
%TD*%
D12*
%TO.P,J3,1*%
%TO.N,VCC*%
X44200000Y-96600000D03*
D13*
%TO.P,J3,2*%
%TO.N,/UART1_TX*%
X46740000Y-96600000D03*
%TO.P,J3,3*%
%TO.N,/UART1_RX*%
X49280000Y-96600000D03*
%TO.P,J3,4*%
%TO.N,/NRST*%
X51820000Y-96600000D03*
%TO.P,J3,5*%
%TO.N,GND*%
X54360000Y-96600000D03*
%TD*%
D14*
%TO.P,J5,1*%
%TO.N,VCC*%
X34000000Y-52000000D03*
D15*
%TO.P,J5,2*%
%TO.N,/SWDIO*%
X35270000Y-52000000D03*
%TO.P,J5,3*%
%TO.N,GND*%
X34000000Y-53270000D03*
%TO.P,J5,4*%
%TO.N,/SWCLK*%
X35270000Y-53270000D03*
%TO.P,J5,5*%
%TO.N,GND*%
X34000000Y-54540000D03*
%TO.P,J5,6*%
%TO.N,Net-(J5-Pad6)*%
X35270000Y-54540000D03*
%TO.P,J5,7*%
%TO.N,Net-(J5-Pad7)*%
X34000000Y-55810000D03*
%TO.P,J5,8*%
%TO.N,Net-(J5-Pad8)*%
X35270000Y-55810000D03*
%TO.P,J5,9*%
%TO.N,GND*%
X34000000Y-57080000D03*
%TO.P,J5,10*%
%TO.N,/NRST*%
X35270000Y-57080000D03*
%TD*%
D12*
%TO.P,J6,1*%
%TO.N,VCC*%
X38800000Y-44760000D03*
D13*
%TO.P,J6,2*%
%TO.N,/BOOT0*%
X38800000Y-47300000D03*
%TD*%
%TO.P,J2,8*%
%TO.N,/MOSI*%
X36540000Y-85620000D03*
%TO.P,J2,7*%
%TO.N,GND*%
X34000000Y-85620000D03*
%TO.P,J2,6*%
%TO.N,/SCK*%
X36540000Y-83080000D03*
%TO.P,J2,5*%
%TO.N,/~WP*%
X34000000Y-83080000D03*
%TO.P,J2,4*%
%TO.N,Net-(J2-Pad4)*%
X36540000Y-80540000D03*
%TO.P,J2,3*%
%TO.N,/MISO*%
X34000000Y-80540000D03*
%TO.P,J2,2*%
%TO.N,VCC*%
X36540000Y-78000000D03*
D12*
%TO.P,J2,1*%
%TO.N,/~CS*%
X34000000Y-78000000D03*
%TD*%
%TO.P,J4,1*%
%TO.N,Net-(J4-Pad1)*%
X34000000Y-90000000D03*
D13*
%TO.P,J4,2*%
%TO.N,VCC*%
X36540000Y-90000000D03*
%TO.P,J4,3*%
%TO.N,Net-(J4-Pad3)*%
X34000000Y-92540000D03*
%TO.P,J4,4*%
%TO.N,Net-(J4-Pad4)*%
X36540000Y-92540000D03*
%TO.P,J4,5*%
%TO.N,Net-(J4-Pad5)*%
X34000000Y-95080000D03*
%TO.P,J4,6*%
%TO.N,/SCL*%
X36540000Y-95080000D03*
%TO.P,J4,7*%
%TO.N,GND*%
X34000000Y-97620000D03*
%TO.P,J4,8*%
%TO.N,/SDA*%
X36540000Y-97620000D03*
%TD*%
D16*
%TO.N,GND*%
X49400000Y-46000000D03*
X43600000Y-43600000D03*
X55262500Y-48200000D03*
D17*
X43400000Y-56800000D03*
X50400000Y-41800000D03*
X38400000Y-55400000D03*
X44800000Y-60575010D03*
X52800000Y-73200000D03*
X43800000Y-69600000D03*
X45800000Y-92000000D03*
X45795652Y-82062510D03*
D18*
X58000000Y-89600000D03*
D17*
X52800000Y-52225000D03*
X48436655Y-52261655D03*
D18*
X35600000Y-46400000D03*
%TO.N,/NRST*%
X44000000Y-53425000D03*
X41900000Y-57800000D03*
X45800000Y-75900000D03*
X55000000Y-76000000D03*
%TO.N,/~CS*%
X52254442Y-56945558D03*
X31225000Y-62200000D03*
X31175030Y-78000000D03*
%TO.N,/MISO*%
X45400000Y-79800000D03*
X53800000Y-57400000D03*
X32723868Y-63046437D03*
X34875000Y-76400000D03*
%TO.N,/MOSI*%
X54600003Y-57400000D03*
X32225050Y-64000000D03*
%TO.N,/SCK*%
X53011566Y-57203947D03*
X31930885Y-62825000D03*
X31775040Y-84200000D03*
D17*
%TO.N,/UART1_TX*%
X32200000Y-50525000D03*
D18*
X46194492Y-51689393D03*
D17*
%TO.N,/UART1_RX*%
X33200000Y-49800000D03*
D18*
X45300000Y-51700001D03*
%TO.N,/SCL*%
X39600000Y-53149981D03*
X31600000Y-60600000D03*
X30400000Y-74400000D03*
X40900000Y-74500000D03*
%TO.N,/SDA*%
X38800001Y-53599989D03*
X31600000Y-61400000D03*
X30725020Y-75200000D03*
X41565642Y-74943761D03*
%TO.N,/SWDIO*%
X44400000Y-51600000D03*
X41800000Y-50400000D03*
%TO.N,/BOOT0*%
X41916300Y-49567584D03*
%TO.N,Net-(Q1-Pad2)*%
X65000000Y-45000000D03*
X76000000Y-45200000D03*
X55600000Y-60400000D03*
X65000000Y-60200000D03*
X68446943Y-44746943D03*
%TO.N,Net-(Q2-Pad2)*%
X87000000Y-45000000D03*
X87000000Y-38800000D03*
X57175010Y-48600000D03*
X87000000Y-48700000D03*
%TO.N,/B0*%
X37714762Y-63375030D03*
X72200000Y-60200000D03*
%TO.N,/B1*%
X37800000Y-64400000D03*
X73400000Y-60400000D03*
X72400000Y-61400000D03*
%TO.N,/B2*%
X37800000Y-65600000D03*
X77800000Y-60200000D03*
X75800000Y-62324999D03*
%TO.N,/B3*%
X37800000Y-66800000D03*
X79800000Y-60200000D03*
X76800000Y-63000000D03*
%TO.N,/B4*%
X37600000Y-67800000D03*
X81400000Y-45575000D03*
X101800000Y-45600000D03*
X81100000Y-60000000D03*
%TO.N,/B5*%
X37619084Y-68743700D03*
X79975000Y-45575000D03*
X99800000Y-46200000D03*
X81792821Y-60400001D03*
X81831244Y-46250001D03*
%TO.N,/B6*%
X37564308Y-70235692D03*
X74200000Y-45600000D03*
X96000000Y-46825000D03*
X92100010Y-46825000D03*
X83200000Y-59500000D03*
%TO.N,/B7*%
X37600000Y-71800000D03*
X73400000Y-46200000D03*
X94200000Y-47450000D03*
X83500000Y-60300000D03*
%TO.N,/A0*%
X62850001Y-60800000D03*
X61400000Y-60800000D03*
X64000000Y-49800000D03*
X83200000Y-50000000D03*
%TO.N,/A1*%
X64200000Y-50800000D03*
X85000000Y-50400000D03*
%TO.N,/A2*%
X61600000Y-62125030D03*
X66800000Y-62125030D03*
X88800000Y-51575000D03*
X67200000Y-52575000D03*
%TO.N,/A3*%
X60800000Y-62750030D03*
X68800000Y-62600000D03*
X68800000Y-52400000D03*
X90800000Y-52200000D03*
%TO.N,/A5*%
X88800000Y-39400000D03*
X88800000Y-45000000D03*
%TO.N,/A6*%
X85000000Y-38800000D03*
X85000000Y-45000000D03*
%TO.N,/A7*%
X83200000Y-38000000D03*
X83200000Y-45000000D03*
%TO.N,/COL1*%
X49700000Y-67800000D03*
X64000000Y-68800003D03*
%TO.N,/ROW1*%
X55239492Y-54688020D03*
X101400000Y-61800000D03*
%TO.N,/ROW2*%
X53200000Y-54074980D03*
D17*
X99600000Y-74800000D03*
D18*
%TO.N,/ROW3*%
X51800000Y-53375000D03*
D17*
X100200000Y-83800000D03*
D18*
%TO.N,/ROW4*%
X50400000Y-68300000D03*
X62600000Y-69900000D03*
D17*
X61600000Y-93000000D03*
X63600000Y-93000000D03*
D18*
%TO.N,/COL2*%
X49124990Y-67200000D03*
X64000000Y-68000000D03*
D17*
X82000000Y-71200000D03*
X81950000Y-80650000D03*
X81950000Y-90050000D03*
X81950000Y-99250000D03*
D18*
%TO.N,/COL3*%
X49200000Y-53000000D03*
X100400000Y-48100000D03*
X100500000Y-54500000D03*
X100500000Y-69700000D03*
%TD*%
D19*
%TO.N,/NRST*%
X44000000Y-53425000D02*
X41425000Y-53425000D01*
X41425000Y-53425000D02*
X40000000Y-52000000D01*
X40000000Y-52000000D02*
X38600000Y-52000000D01*
X38600000Y-52000000D02*
X36200000Y-54400000D01*
X36200000Y-56150000D02*
X35270000Y-57080000D01*
X36200000Y-54400000D02*
X36200000Y-56150000D01*
X41900000Y-55525000D02*
X41900000Y-57800000D01*
X44000000Y-53425000D02*
X41900000Y-55525000D01*
X54900000Y-75900000D02*
X55000000Y-76000000D01*
X45800000Y-75900000D02*
X54900000Y-75900000D01*
%TO.N,/~CS*%
X36836410Y-61400000D02*
X36586400Y-61650010D01*
X36586400Y-61650010D02*
X32600000Y-61650010D01*
X32050010Y-62200000D02*
X31225000Y-62200000D01*
X32600000Y-61650010D02*
X32050010Y-62200000D01*
X31175030Y-78000000D02*
X34000000Y-78000000D01*
X52500000Y-61400000D02*
X47700000Y-61400000D01*
X52561556Y-61338444D02*
X52500000Y-61400000D01*
X52561556Y-58061556D02*
X52561556Y-61338444D01*
X52254442Y-57754442D02*
X52561556Y-58061556D01*
X52254442Y-56945558D02*
X52254442Y-57754442D01*
X47700000Y-61400000D02*
X36836410Y-61400000D01*
X48000000Y-61400000D02*
X47700000Y-61400000D01*
%TO.N,/MISO*%
X35175001Y-79364999D02*
X34000000Y-80540000D01*
X44964999Y-79364999D02*
X35175001Y-79364999D01*
X45400000Y-79800000D02*
X44964999Y-79364999D01*
X53800000Y-57400000D02*
X53800000Y-57340515D01*
X35175001Y-76700001D02*
X35175001Y-79364999D01*
X34875000Y-76400000D02*
X35175001Y-76700001D01*
X33220275Y-62550030D02*
X32723868Y-63046437D01*
X36959200Y-62550030D02*
X33220275Y-62550030D01*
X37209210Y-62300020D02*
X36959200Y-62550030D01*
X53299980Y-62300020D02*
X37209210Y-62300020D01*
X53800000Y-61800000D02*
X53299980Y-62300020D01*
X53800000Y-57400000D02*
X53800000Y-61800000D01*
%TO.N,/MOSI*%
X37145601Y-63000039D02*
X37395610Y-62750030D01*
X33695267Y-63000040D02*
X37145601Y-63000039D01*
X32695307Y-64000000D02*
X33695267Y-63000040D01*
X32225050Y-64000000D02*
X32695307Y-64000000D01*
X54600003Y-57400000D02*
X54600003Y-62499997D01*
X54349970Y-62750030D02*
X49549970Y-62750030D01*
X54600003Y-62499997D02*
X54349970Y-62750030D01*
X49549970Y-62750030D02*
X49674237Y-62750030D01*
X37395610Y-62750030D02*
X49549970Y-62750030D01*
%TO.N,/SCK*%
X37022810Y-61850010D02*
X36772800Y-62100020D01*
X36772800Y-62100020D02*
X32786400Y-62100020D01*
X32061420Y-62825000D02*
X31930885Y-62825000D01*
X32786400Y-62100020D02*
X32061420Y-62825000D01*
X31775040Y-84200000D02*
X31975040Y-84400000D01*
X35220000Y-84400000D02*
X36540000Y-83080000D01*
X31975040Y-84400000D02*
X35220000Y-84400000D01*
X53011566Y-57203947D02*
X53011566Y-61538444D01*
X52700000Y-61850010D02*
X48049990Y-61850010D01*
X53011566Y-61538444D02*
X52700000Y-61850010D01*
X48049990Y-61850010D02*
X37022810Y-61850010D01*
X48186400Y-61850010D02*
X48049990Y-61850010D01*
%TO.N,/UART1_TX*%
X45083886Y-52799999D02*
X42490587Y-52799999D01*
X46194492Y-51689393D02*
X45083886Y-52799999D01*
X42490587Y-52799999D02*
X40215588Y-50525000D01*
X39225000Y-50525000D02*
X32200000Y-50525000D01*
X40215588Y-50525000D02*
X39225000Y-50525000D01*
X39488590Y-50525000D02*
X39225000Y-50525000D01*
%TO.N,/UART1_RX*%
X39400000Y-49800000D02*
X33200000Y-49800000D01*
X40126998Y-49800000D02*
X39400000Y-49800000D01*
X42651999Y-52325001D02*
X40126998Y-49800000D01*
X44748001Y-52325001D02*
X42651999Y-52325001D01*
X45125001Y-51875000D02*
X45125001Y-51948001D01*
X45125001Y-51948001D02*
X44748001Y-52325001D01*
X45300000Y-51700001D02*
X45125001Y-51875000D01*
%TO.N,/SCL*%
X39300001Y-52849982D02*
X38550018Y-52849982D01*
X39600000Y-53149981D02*
X39300001Y-52849982D01*
X36800000Y-60163590D02*
X36213600Y-60749990D01*
X36800000Y-54600000D02*
X36800000Y-60163590D01*
X38550018Y-52849982D02*
X36800000Y-54600000D01*
X36213600Y-60749990D02*
X31800000Y-60749990D01*
X31749990Y-60749990D02*
X31600000Y-60600000D01*
X31800000Y-60749990D02*
X31749990Y-60749990D01*
X30400000Y-74400000D02*
X36600000Y-74400000D01*
X36700000Y-74500000D02*
X36600000Y-74400000D01*
X40900000Y-74500000D02*
X36700000Y-74500000D01*
%TO.N,/SDA*%
X38800001Y-53599989D02*
X37400000Y-54999990D01*
X37400000Y-54999990D02*
X37400000Y-60200000D01*
X37400000Y-60200000D02*
X36400000Y-61200000D01*
X36400000Y-61200000D02*
X31800000Y-61200000D01*
X36400000Y-75200003D02*
X33400003Y-75200003D01*
X31800000Y-61200000D02*
X31600000Y-61400000D01*
X33400003Y-75200003D02*
X31400003Y-75200003D01*
X31400000Y-75200000D02*
X31400003Y-75200003D01*
X30725020Y-75200000D02*
X31400000Y-75200000D01*
X41309400Y-75200003D02*
X41565642Y-74943761D01*
X36400000Y-75200003D02*
X41309400Y-75200003D01*
%TO.N,/SWDIO*%
X43000000Y-51600000D02*
X41800000Y-50400000D01*
X44400000Y-51600000D02*
X43000000Y-51600000D01*
%TO.N,/BOOT0*%
X39648716Y-47300000D02*
X38800000Y-47300000D01*
X41916300Y-49567584D02*
X39648716Y-47300000D01*
%TO.N,Net-(Q1-Pad2)*%
X75500001Y-44700001D02*
X76000000Y-45200000D01*
X65299999Y-44700001D02*
X75500001Y-44700001D01*
X65000000Y-45000000D02*
X65299999Y-44700001D01*
X64900001Y-60100001D02*
X65000000Y-60200000D01*
X55899999Y-60100001D02*
X64900001Y-60100001D01*
X55600000Y-60400000D02*
X55899999Y-60100001D01*
%TO.N,Net-(Q2-Pad2)*%
X87000000Y-45000000D02*
X87000000Y-38800000D01*
X57175010Y-48600000D02*
X86800000Y-48600000D01*
%TO.N,/B0*%
X69024970Y-63375030D02*
X72200000Y-60200000D01*
X37714762Y-63375030D02*
X69024970Y-63375030D01*
%TO.N,/B1*%
X37800000Y-64400000D02*
X38374960Y-63825040D01*
X38374960Y-63825040D02*
X69974960Y-63825040D01*
X72300000Y-61500000D02*
X72400000Y-61400000D01*
X69974960Y-63825040D02*
X72300000Y-61500000D01*
X72300000Y-61500000D02*
X73400000Y-60400000D01*
%TO.N,/B2*%
X37800000Y-65600000D02*
X39124950Y-64275050D01*
X39124950Y-64275050D02*
X73724950Y-64275050D01*
X75800000Y-62200000D02*
X75800000Y-62324999D01*
X73724950Y-64275050D02*
X75800000Y-62200000D01*
X75800000Y-62200000D02*
X77800000Y-60200000D01*
%TO.N,/B3*%
X37800000Y-66800000D02*
X39874940Y-64725060D01*
X39874940Y-64725060D02*
X75274940Y-64725060D01*
X76900000Y-63100000D02*
X76800000Y-63000000D01*
X75274940Y-64725060D02*
X76900000Y-63100000D01*
X76900000Y-63100000D02*
X79800000Y-60200000D01*
%TO.N,/B4*%
X38024264Y-67800000D02*
X40649194Y-65175070D01*
X37600000Y-67800000D02*
X38024264Y-67800000D01*
X40649194Y-65175070D02*
X75749932Y-65175070D01*
X81450001Y-45625001D02*
X98374999Y-45625001D01*
X81400000Y-45575000D02*
X81450001Y-45625001D01*
X101774999Y-45574999D02*
X101800000Y-45600000D01*
X98425001Y-45574999D02*
X101774999Y-45574999D01*
X98374999Y-45625001D02*
X98425001Y-45574999D01*
X75924930Y-65175070D02*
X81100000Y-60000000D01*
X75749932Y-65175070D02*
X75924930Y-65175070D01*
%TO.N,/B5*%
X38043348Y-68743700D02*
X41161968Y-65625080D01*
X37619084Y-68743700D02*
X38043348Y-68743700D01*
X41161968Y-65625080D02*
X75936333Y-65625079D01*
X79975000Y-45575000D02*
X80600000Y-46200000D01*
X80600000Y-46200000D02*
X98600000Y-46200000D01*
X98600000Y-46200000D02*
X99800000Y-46200000D01*
X75936333Y-65625079D02*
X76399923Y-65625079D01*
X76567743Y-65625079D02*
X81792821Y-60400001D01*
X76399923Y-65625079D02*
X76567743Y-65625079D01*
%TO.N,/B6*%
X37564308Y-70235692D02*
X41724912Y-66075088D01*
X41724912Y-66075088D02*
X76122734Y-66075088D01*
X75300000Y-46700000D02*
X75425000Y-46825000D01*
X74200000Y-45600000D02*
X75300000Y-46700000D01*
X82700000Y-60417824D02*
X82700000Y-60300000D01*
X77042736Y-66075088D02*
X82700000Y-60417824D01*
X76122734Y-66075088D02*
X77042736Y-66075088D01*
X92524274Y-46825000D02*
X92100010Y-46825000D01*
X96000000Y-46825000D02*
X92524274Y-46825000D01*
X75475002Y-46875002D02*
X74200000Y-45600000D01*
X92050008Y-46875002D02*
X75475002Y-46875002D01*
X92100010Y-46825000D02*
X92050008Y-46875002D01*
X82700000Y-60417824D02*
X82700000Y-60000000D01*
X82700000Y-60000000D02*
X83200000Y-59500000D01*
%TO.N,/B7*%
X37600000Y-71800000D02*
X37600000Y-71325098D01*
X37600000Y-71325098D02*
X42400000Y-66525098D01*
X42400000Y-66525098D02*
X76309135Y-66525097D01*
X74650000Y-47450000D02*
X94200000Y-47450000D01*
X73400000Y-46200000D02*
X74650000Y-47450000D01*
X83454234Y-60300000D02*
X83500000Y-60300000D01*
X77229137Y-66525097D02*
X83454234Y-60300000D01*
X76309135Y-66525097D02*
X77229137Y-66525097D01*
%TO.N,/A0*%
X62850001Y-60800000D02*
X61400000Y-60800000D01*
X83000000Y-49800000D02*
X83200000Y-50000000D01*
X64000000Y-49800000D02*
X83000000Y-49800000D01*
%TO.N,/A1*%
X64200000Y-50800000D02*
X85025000Y-50800000D01*
X85025000Y-50425000D02*
X85000000Y-50400000D01*
X85025000Y-50800000D02*
X85025000Y-50425000D01*
%TO.N,/A2*%
X61600000Y-62125030D02*
X66800000Y-62125030D01*
X88775000Y-51600000D02*
X88800000Y-51575000D01*
X67200000Y-52575000D02*
X68025010Y-51749990D01*
X88625010Y-51749990D02*
X88800000Y-51575000D01*
X68025010Y-51749990D02*
X88625010Y-51749990D01*
%TO.N,/A3*%
X68649970Y-62750030D02*
X68800000Y-62600000D01*
X60800000Y-62750030D02*
X68649970Y-62750030D01*
X69000000Y-52200000D02*
X90800000Y-52200000D01*
X68800000Y-52400000D02*
X69000000Y-52200000D01*
%TO.N,/A5*%
X88800000Y-39400000D02*
X88800000Y-45000000D01*
%TO.N,/A6*%
X85000000Y-38800000D02*
X85000000Y-45000000D01*
%TO.N,/A7*%
X83200000Y-38000000D02*
X83200000Y-45000000D01*
%TO.N,/COL1*%
X49700000Y-67800000D02*
X50074884Y-67425116D01*
X60563593Y-68800003D02*
X64000000Y-68800003D01*
X59188706Y-67425116D02*
X60563593Y-68800003D01*
X50074884Y-67425116D02*
X59188706Y-67425116D01*
%TO.N,/ROW1*%
X69400013Y-52724989D02*
X68925002Y-53200000D01*
X56800000Y-53200000D02*
X55311980Y-54688020D01*
X101400000Y-61800000D02*
X101400000Y-53200000D01*
X55311980Y-54688020D02*
X55239492Y-54688020D01*
X101400000Y-53200000D02*
X81434232Y-53200000D01*
X81434232Y-53200000D02*
X80959221Y-52724989D01*
X80959221Y-52724989D02*
X69400013Y-52724989D01*
X68925002Y-53200000D02*
X56800000Y-53200000D01*
%TO.N,/ROW2*%
X57938589Y-51425001D02*
X66574999Y-51425001D01*
X67713589Y-51425001D02*
X67888580Y-51250010D01*
X66574999Y-51425001D02*
X67713589Y-51425001D01*
X67888580Y-51250010D02*
X84400000Y-51250010D01*
X84400000Y-51250010D02*
X87949990Y-51250010D01*
X88250001Y-50949999D02*
X101149999Y-50949999D01*
X87949990Y-51250010D02*
X88250001Y-50949999D01*
X101149999Y-50949999D02*
X102000000Y-51800000D01*
X102025001Y-61499999D02*
X102025001Y-72574999D01*
X102000000Y-61474998D02*
X102025001Y-61499999D01*
X102000000Y-51800000D02*
X102000000Y-61474998D01*
X53200000Y-54074980D02*
X54925020Y-54074980D01*
X55300571Y-54063019D02*
X55781795Y-53581795D01*
X54936981Y-54063019D02*
X55300571Y-54063019D01*
X54925020Y-54074980D02*
X54936981Y-54063019D01*
X55781795Y-53581795D02*
X57938589Y-51425001D01*
X55463600Y-53899990D02*
X55781795Y-53581795D01*
X102025001Y-72574999D02*
X102025001Y-73174999D01*
X100400000Y-74800000D02*
X99600000Y-74800000D01*
X102025001Y-73174999D02*
X100400000Y-74800000D01*
%TO.N,/ROW3*%
X51800000Y-53375000D02*
X51975000Y-53375000D01*
X102450010Y-53000000D02*
X102475011Y-53025001D01*
X102475011Y-53025001D02*
X102475011Y-82724989D01*
X102450010Y-51613600D02*
X102450010Y-53000000D01*
X51874980Y-53449980D02*
X55277200Y-53449980D01*
X100011409Y-49174999D02*
X102450010Y-51613600D01*
X51800000Y-53375000D02*
X51874980Y-53449980D01*
X86025001Y-49325001D02*
X85750010Y-49050010D01*
X87300001Y-49325001D02*
X86025001Y-49325001D01*
X87450003Y-49174999D02*
X87300001Y-49325001D01*
X100011409Y-49174999D02*
X87450003Y-49174999D01*
X59677170Y-49050010D02*
X59463590Y-49263590D01*
X59463590Y-49263590D02*
X59552181Y-49174999D01*
X85750010Y-49050010D02*
X59677170Y-49050010D01*
X55277200Y-53449980D02*
X59463590Y-49263590D01*
X101400000Y-83800000D02*
X100200000Y-83800000D01*
X102475011Y-82724989D02*
X101400000Y-83800000D01*
%TO.N,/ROW4*%
X50400000Y-68300000D02*
X50800000Y-67900000D01*
X50800000Y-67900000D02*
X59027180Y-67900000D01*
X61027180Y-69900000D02*
X62600000Y-69900000D01*
X59027180Y-67900000D02*
X61027180Y-69900000D01*
X61600000Y-93000000D02*
X63600000Y-93000000D01*
%TO.N,/COL2*%
X49124990Y-67200000D02*
X49349884Y-66975106D01*
X49349884Y-66975106D02*
X59375106Y-66975106D01*
X59375106Y-66975106D02*
X60400000Y-68000000D01*
X60400000Y-68000000D02*
X64000000Y-68000000D01*
X82000000Y-80600000D02*
X81950000Y-80650000D01*
X82000000Y-71200000D02*
X82000000Y-80600000D01*
X81950000Y-80650000D02*
X81950000Y-90050000D01*
X81950000Y-90050000D02*
X81950000Y-99250000D01*
%TO.N,/COL3*%
X52201999Y-52700001D02*
X52501968Y-52999970D01*
X49499999Y-52700001D02*
X52201999Y-52700001D01*
X49200000Y-53000000D02*
X49499999Y-52700001D01*
X52501968Y-52999970D02*
X55090800Y-52999970D01*
X55090800Y-52999970D02*
X55545385Y-52545385D01*
X56875009Y-47974999D02*
X58174999Y-47974999D01*
X55545385Y-49304623D02*
X56875009Y-47974999D01*
X55545385Y-52545385D02*
X55545385Y-49304623D01*
X58174999Y-47974999D02*
X58249998Y-47900000D01*
X58249998Y-47900000D02*
X86000000Y-47900000D01*
X86000000Y-47900000D02*
X93100000Y-47900000D01*
X93275001Y-48075001D02*
X100475001Y-48075001D01*
X93100000Y-47900000D02*
X93275001Y-48075001D01*
X100424999Y-48075001D02*
X100400000Y-48100000D01*
X100475001Y-48075001D02*
X100424999Y-48075001D01*
X100500000Y-54500000D02*
X100500000Y-69700000D01*
%TD*%
D20*
%TO.N,GND*%
G36*
X82596506Y-37677426D02*
G01*
X82545171Y-37801360D01*
X82519000Y-37932927D01*
X82519000Y-38067073D01*
X82545171Y-38198640D01*
X82596506Y-38322574D01*
X82671033Y-38434112D01*
X82694000Y-38457079D01*
X82694001Y-44542920D01*
X82671033Y-44565888D01*
X82596506Y-44677426D01*
X82545171Y-44801360D01*
X82519000Y-44932927D01*
X82519000Y-45067073D01*
X82529329Y-45119001D01*
X81907080Y-45119001D01*
X81834112Y-45046033D01*
X81722574Y-44971506D01*
X81598640Y-44920171D01*
X81467073Y-44894000D01*
X81332927Y-44894000D01*
X81201360Y-44920171D01*
X81077426Y-44971506D01*
X80965888Y-45046033D01*
X80871033Y-45140888D01*
X80796506Y-45252426D01*
X80745171Y-45376360D01*
X80719000Y-45507927D01*
X80719000Y-45603408D01*
X80656000Y-45540408D01*
X80656000Y-45507927D01*
X80629829Y-45376360D01*
X80578494Y-45252426D01*
X80503967Y-45140888D01*
X80409112Y-45046033D01*
X80297574Y-44971506D01*
X80173640Y-44920171D01*
X80042073Y-44894000D01*
X79907927Y-44894000D01*
X79776360Y-44920171D01*
X79652426Y-44971506D01*
X79540888Y-45046033D01*
X79446033Y-45140888D01*
X79371506Y-45252426D01*
X79320171Y-45376360D01*
X79294000Y-45507927D01*
X79294000Y-45642073D01*
X79320171Y-45773640D01*
X79371506Y-45897574D01*
X79446033Y-46009112D01*
X79540888Y-46103967D01*
X79652426Y-46178494D01*
X79776360Y-46229829D01*
X79907927Y-46256000D01*
X79940408Y-46256000D01*
X80053410Y-46369002D01*
X75684594Y-46369002D01*
X75193018Y-45877426D01*
X74881000Y-45565409D01*
X74881000Y-45532927D01*
X74854829Y-45401360D01*
X74803494Y-45277426D01*
X74755770Y-45206001D01*
X75290410Y-45206001D01*
X75319000Y-45234591D01*
X75319000Y-45267073D01*
X75345171Y-45398640D01*
X75396506Y-45522574D01*
X75471033Y-45634112D01*
X75565888Y-45728967D01*
X75677426Y-45803494D01*
X75801360Y-45854829D01*
X75932927Y-45881000D01*
X76067073Y-45881000D01*
X76198640Y-45854829D01*
X76322574Y-45803494D01*
X76434112Y-45728967D01*
X76528967Y-45634112D01*
X76603494Y-45522574D01*
X76654829Y-45398640D01*
X76681000Y-45267073D01*
X76681000Y-45132927D01*
X76654829Y-45001360D01*
X76603494Y-44877426D01*
X76528967Y-44765888D01*
X76434112Y-44671033D01*
X76322574Y-44596506D01*
X76198640Y-44545171D01*
X76067073Y-44519000D01*
X76034591Y-44519000D01*
X75875377Y-44359786D01*
X75859528Y-44340474D01*
X75782480Y-44277242D01*
X75694576Y-44230256D01*
X75599194Y-44201323D01*
X75524855Y-44194001D01*
X75524847Y-44194001D01*
X75500001Y-44191554D01*
X75475155Y-44194001D01*
X68845174Y-44194001D01*
X68769517Y-44143449D01*
X68645583Y-44092114D01*
X68514016Y-44065943D01*
X68379870Y-44065943D01*
X68248303Y-44092114D01*
X68124369Y-44143449D01*
X68048712Y-44194001D01*
X65324853Y-44194001D01*
X65299999Y-44191553D01*
X65275145Y-44194001D01*
X65200806Y-44201323D01*
X65105424Y-44230256D01*
X65017520Y-44277242D01*
X64966638Y-44319000D01*
X64932927Y-44319000D01*
X64801360Y-44345171D01*
X64677426Y-44396506D01*
X64565888Y-44471033D01*
X64471033Y-44565888D01*
X64396506Y-44677426D01*
X64345171Y-44801360D01*
X64319000Y-44932927D01*
X64319000Y-45067073D01*
X64345171Y-45198640D01*
X64396506Y-45322574D01*
X64471033Y-45434112D01*
X64565888Y-45528967D01*
X64677426Y-45603494D01*
X64801360Y-45654829D01*
X64932927Y-45681000D01*
X65067073Y-45681000D01*
X65198640Y-45654829D01*
X65322574Y-45603494D01*
X65434112Y-45528967D01*
X65528967Y-45434112D01*
X65603494Y-45322574D01*
X65651780Y-45206001D01*
X67942922Y-45206001D01*
X68012831Y-45275910D01*
X68124369Y-45350437D01*
X68248303Y-45401772D01*
X68379870Y-45427943D01*
X68514016Y-45427943D01*
X68645583Y-45401772D01*
X68769517Y-45350437D01*
X68881055Y-45275910D01*
X68950964Y-45206001D01*
X73644230Y-45206001D01*
X73596506Y-45277426D01*
X73545171Y-45401360D01*
X73519688Y-45529466D01*
X73467073Y-45519000D01*
X73332927Y-45519000D01*
X73201360Y-45545171D01*
X73077426Y-45596506D01*
X72965888Y-45671033D01*
X72871033Y-45765888D01*
X72796506Y-45877426D01*
X72745171Y-46001360D01*
X72719000Y-46132927D01*
X72719000Y-46267073D01*
X72745171Y-46398640D01*
X72796506Y-46522574D01*
X72871033Y-46634112D01*
X72965888Y-46728967D01*
X73077426Y-46803494D01*
X73201360Y-46854829D01*
X73332927Y-46881000D01*
X73365409Y-46881000D01*
X73878408Y-47394000D01*
X58274852Y-47394000D01*
X58249998Y-47391552D01*
X58225144Y-47394000D01*
X58150805Y-47401322D01*
X58055423Y-47430255D01*
X57982939Y-47468999D01*
X56899854Y-47468999D01*
X56875008Y-47466552D01*
X56850162Y-47468999D01*
X56850155Y-47468999D01*
X56785703Y-47475347D01*
X56775815Y-47476321D01*
X56764251Y-47479829D01*
X56680434Y-47505254D01*
X56592530Y-47552240D01*
X56515482Y-47615472D01*
X56499638Y-47634778D01*
X55205165Y-48929252D01*
X55185859Y-48945096D01*
X55122627Y-49022144D01*
X55116230Y-49034112D01*
X55075640Y-49110049D01*
X55046707Y-49205431D01*
X55036938Y-49304623D01*
X55039386Y-49329479D01*
X55039385Y-52335793D01*
X54881209Y-52493970D01*
X52711559Y-52493970D01*
X52577375Y-52359786D01*
X52561526Y-52340474D01*
X52484478Y-52277242D01*
X52396574Y-52230256D01*
X52301192Y-52201323D01*
X52226853Y-52194001D01*
X52226845Y-52194001D01*
X52201999Y-52191554D01*
X52177153Y-52194001D01*
X49524853Y-52194001D01*
X49499999Y-52191553D01*
X49475145Y-52194001D01*
X49400806Y-52201323D01*
X49305424Y-52230256D01*
X49217520Y-52277242D01*
X49166638Y-52319000D01*
X49132927Y-52319000D01*
X49001360Y-52345171D01*
X48877426Y-52396506D01*
X48765888Y-52471033D01*
X48671033Y-52565888D01*
X48596506Y-52677426D01*
X48545171Y-52801360D01*
X48519000Y-52932927D01*
X48519000Y-53067073D01*
X48545171Y-53198640D01*
X48596506Y-53322574D01*
X48671033Y-53434112D01*
X48765888Y-53528967D01*
X48877426Y-53603494D01*
X49001360Y-53654829D01*
X49132927Y-53681000D01*
X49267073Y-53681000D01*
X49398640Y-53654829D01*
X49522574Y-53603494D01*
X49634112Y-53528967D01*
X49728967Y-53434112D01*
X49803494Y-53322574D01*
X49851780Y-53206001D01*
X51139275Y-53206001D01*
X51119000Y-53307927D01*
X51119000Y-53442073D01*
X51145171Y-53573640D01*
X51196506Y-53697574D01*
X51271033Y-53809112D01*
X51365888Y-53903967D01*
X51477426Y-53978494D01*
X51601360Y-54029829D01*
X51732927Y-54056000D01*
X51867073Y-54056000D01*
X51998640Y-54029829D01*
X52122574Y-53978494D01*
X52156269Y-53955980D01*
X52529329Y-53955980D01*
X52519000Y-54007907D01*
X52519000Y-54142053D01*
X52545171Y-54273620D01*
X52596506Y-54397554D01*
X52671033Y-54509092D01*
X52765888Y-54603947D01*
X52877426Y-54678474D01*
X53001360Y-54729809D01*
X53132927Y-54755980D01*
X53267073Y-54755980D01*
X53398640Y-54729809D01*
X53522574Y-54678474D01*
X53634112Y-54603947D01*
X53657079Y-54580980D01*
X54566442Y-54580980D01*
X54558492Y-54620947D01*
X54558492Y-54755093D01*
X54584663Y-54886660D01*
X54635998Y-55010594D01*
X54710525Y-55122132D01*
X54805380Y-55216987D01*
X54916918Y-55291514D01*
X55040852Y-55342849D01*
X55172419Y-55369020D01*
X55306565Y-55369020D01*
X55438132Y-55342849D01*
X55562066Y-55291514D01*
X55673604Y-55216987D01*
X55768459Y-55122132D01*
X55842986Y-55010594D01*
X55894321Y-54886660D01*
X55910558Y-54805033D01*
X57009592Y-53706000D01*
X68900156Y-53706000D01*
X68925002Y-53708447D01*
X68949848Y-53706000D01*
X68949856Y-53706000D01*
X69024195Y-53698678D01*
X69119577Y-53669745D01*
X69207481Y-53622759D01*
X69284529Y-53559527D01*
X69300378Y-53540215D01*
X69609605Y-53230989D01*
X80749630Y-53230989D01*
X81058860Y-53540220D01*
X81074705Y-53559527D01*
X81151753Y-53622759D01*
X81239657Y-53669745D01*
X81335039Y-53698678D01*
X81409378Y-53706000D01*
X81409386Y-53706000D01*
X81434232Y-53708447D01*
X81459078Y-53706000D01*
X100894001Y-53706000D01*
X100894001Y-53944232D01*
X100822574Y-53896506D01*
X100698640Y-53845171D01*
X100567073Y-53819000D01*
X100432927Y-53819000D01*
X100301360Y-53845171D01*
X100177426Y-53896506D01*
X100065888Y-53971033D01*
X99971033Y-54065888D01*
X99896506Y-54177426D01*
X99845171Y-54301360D01*
X99819000Y-54432927D01*
X99819000Y-54567073D01*
X99845171Y-54698640D01*
X99896506Y-54822574D01*
X99971033Y-54934112D01*
X99994000Y-54957079D01*
X99994001Y-69242920D01*
X99971033Y-69265888D01*
X99896506Y-69377426D01*
X99845171Y-69501360D01*
X99819000Y-69632927D01*
X99819000Y-69767073D01*
X99845171Y-69898640D01*
X99896506Y-70022574D01*
X99971033Y-70134112D01*
X100065888Y-70228967D01*
X100177426Y-70303494D01*
X100301360Y-70354829D01*
X100432927Y-70381000D01*
X100567073Y-70381000D01*
X100698640Y-70354829D01*
X100822574Y-70303494D01*
X100934112Y-70228967D01*
X101028967Y-70134112D01*
X101103494Y-70022574D01*
X101154829Y-69898640D01*
X101181000Y-69767073D01*
X101181000Y-69632927D01*
X101154829Y-69501360D01*
X101103494Y-69377426D01*
X101028967Y-69265888D01*
X101006000Y-69242921D01*
X101006000Y-62355769D01*
X101077426Y-62403494D01*
X101201360Y-62454829D01*
X101332927Y-62481000D01*
X101467073Y-62481000D01*
X101519001Y-62470671D01*
X101519002Y-72550136D01*
X101519001Y-72550146D01*
X101519002Y-72965406D01*
X100194455Y-74289954D01*
X100097859Y-74193358D01*
X99969942Y-74107887D01*
X99827809Y-74049013D01*
X99676922Y-74019000D01*
X99523078Y-74019000D01*
X99372191Y-74049013D01*
X99230058Y-74107887D01*
X99102141Y-74193358D01*
X98993358Y-74302141D01*
X98907887Y-74430058D01*
X98849013Y-74572191D01*
X98819000Y-74723078D01*
X98819000Y-74876922D01*
X98849013Y-75027809D01*
X98907887Y-75169942D01*
X98993358Y-75297859D01*
X99102141Y-75406642D01*
X99230058Y-75492113D01*
X99372191Y-75550987D01*
X99523078Y-75581000D01*
X99676922Y-75581000D01*
X99827809Y-75550987D01*
X99969942Y-75492113D01*
X100097859Y-75406642D01*
X100198501Y-75306000D01*
X100375154Y-75306000D01*
X100400000Y-75308447D01*
X100424846Y-75306000D01*
X100424854Y-75306000D01*
X100499193Y-75298678D01*
X100594575Y-75269745D01*
X100682479Y-75222759D01*
X100759527Y-75159527D01*
X100775376Y-75140215D01*
X101969012Y-73946580D01*
X101969012Y-82515396D01*
X101190409Y-83294000D01*
X100798501Y-83294000D01*
X100697859Y-83193358D01*
X100569942Y-83107887D01*
X100427809Y-83049013D01*
X100276922Y-83019000D01*
X100123078Y-83019000D01*
X99972191Y-83049013D01*
X99830058Y-83107887D01*
X99702141Y-83193358D01*
X99593358Y-83302141D01*
X99507887Y-83430058D01*
X99449013Y-83572191D01*
X99419000Y-83723078D01*
X99419000Y-83876922D01*
X99449013Y-84027809D01*
X99507887Y-84169942D01*
X99593358Y-84297859D01*
X99702141Y-84406642D01*
X99830058Y-84492113D01*
X99972191Y-84550987D01*
X100123078Y-84581000D01*
X100276922Y-84581000D01*
X100427809Y-84550987D01*
X100569942Y-84492113D01*
X100697859Y-84406642D01*
X100798501Y-84306000D01*
X101375154Y-84306000D01*
X101400000Y-84308447D01*
X101424846Y-84306000D01*
X101424854Y-84306000D01*
X101499193Y-84298678D01*
X101594575Y-84269745D01*
X101682479Y-84222759D01*
X101759527Y-84159527D01*
X101775376Y-84140215D01*
X102815231Y-83100361D01*
X102834538Y-83084516D01*
X102897770Y-83007468D01*
X102944756Y-82919564D01*
X102973689Y-82824182D01*
X102981011Y-82749843D01*
X102981011Y-82749836D01*
X102983458Y-82724990D01*
X102981011Y-82700144D01*
X102981011Y-53049855D01*
X102983459Y-53025001D01*
X102976293Y-52952242D01*
X102973689Y-52925808D01*
X102956010Y-52867527D01*
X102956010Y-51638454D01*
X102958458Y-51613600D01*
X102948688Y-51514407D01*
X102919755Y-51419025D01*
X102918952Y-51417523D01*
X102872769Y-51331121D01*
X102809537Y-51254073D01*
X102790230Y-51238228D01*
X100386785Y-48834784D01*
X100370936Y-48815472D01*
X100327654Y-48779951D01*
X100332927Y-48781000D01*
X100467073Y-48781000D01*
X100598640Y-48754829D01*
X100722574Y-48703494D01*
X100834112Y-48628967D01*
X100928967Y-48534112D01*
X101003494Y-48422574D01*
X101054829Y-48298640D01*
X101081000Y-48167073D01*
X101081000Y-48032927D01*
X101054829Y-47901360D01*
X101003494Y-47777426D01*
X100928967Y-47665888D01*
X100834112Y-47571033D01*
X100722574Y-47496506D01*
X100598640Y-47445171D01*
X100467073Y-47419000D01*
X100332927Y-47419000D01*
X100201360Y-47445171D01*
X100077426Y-47496506D01*
X99968929Y-47569001D01*
X94870671Y-47569001D01*
X94881000Y-47517073D01*
X94881000Y-47382927D01*
X94870671Y-47331000D01*
X95542921Y-47331000D01*
X95565888Y-47353967D01*
X95677426Y-47428494D01*
X95801360Y-47479829D01*
X95932927Y-47506000D01*
X96067073Y-47506000D01*
X96198640Y-47479829D01*
X96322574Y-47428494D01*
X96434112Y-47353967D01*
X96528967Y-47259112D01*
X96603494Y-47147574D01*
X96654829Y-47023640D01*
X96681000Y-46892073D01*
X96681000Y-46757927D01*
X96670671Y-46706000D01*
X99342921Y-46706000D01*
X99365888Y-46728967D01*
X99477426Y-46803494D01*
X99601360Y-46854829D01*
X99732927Y-46881000D01*
X99867073Y-46881000D01*
X99998640Y-46854829D01*
X100122574Y-46803494D01*
X100234112Y-46728967D01*
X100328967Y-46634112D01*
X100403494Y-46522574D01*
X100454829Y-46398640D01*
X100481000Y-46267073D01*
X100481000Y-46132927D01*
X100470671Y-46080999D01*
X101317920Y-46080999D01*
X101365888Y-46128967D01*
X101477426Y-46203494D01*
X101601360Y-46254829D01*
X101732927Y-46281000D01*
X101867073Y-46281000D01*
X101998640Y-46254829D01*
X102122574Y-46203494D01*
X102234112Y-46128967D01*
X102328967Y-46034112D01*
X102403494Y-45922574D01*
X102454829Y-45798640D01*
X102481000Y-45667073D01*
X102481000Y-45532927D01*
X102454829Y-45401360D01*
X102403494Y-45277426D01*
X102328967Y-45165888D01*
X102234112Y-45071033D01*
X102122574Y-44996506D01*
X101998640Y-44945171D01*
X101867073Y-44919000D01*
X101732927Y-44919000D01*
X101601360Y-44945171D01*
X101477426Y-44996506D01*
X101368932Y-45068999D01*
X98449855Y-45068999D01*
X98425001Y-45066551D01*
X98400147Y-45068999D01*
X98325808Y-45076321D01*
X98230426Y-45105254D01*
X98204707Y-45119001D01*
X89470671Y-45119001D01*
X89481000Y-45067073D01*
X89481000Y-44932927D01*
X89454829Y-44801360D01*
X89403494Y-44677426D01*
X89328967Y-44565888D01*
X89306000Y-44542921D01*
X89306000Y-39857079D01*
X89328967Y-39834112D01*
X89403494Y-39722574D01*
X89454829Y-39598640D01*
X89481000Y-39467073D01*
X89481000Y-39332927D01*
X89454829Y-39201360D01*
X89403494Y-39077426D01*
X89328967Y-38965888D01*
X89234112Y-38871033D01*
X89122574Y-38796506D01*
X88998640Y-38745171D01*
X88867073Y-38719000D01*
X88732927Y-38719000D01*
X88601360Y-38745171D01*
X88477426Y-38796506D01*
X88365888Y-38871033D01*
X88271033Y-38965888D01*
X88196506Y-39077426D01*
X88145171Y-39201360D01*
X88119000Y-39332927D01*
X88119000Y-39467073D01*
X88145171Y-39598640D01*
X88196506Y-39722574D01*
X88271033Y-39834112D01*
X88294000Y-39857079D01*
X88294001Y-44542920D01*
X88271033Y-44565888D01*
X88196506Y-44677426D01*
X88145171Y-44801360D01*
X88119000Y-44932927D01*
X88119000Y-45067073D01*
X88129329Y-45119001D01*
X87670671Y-45119001D01*
X87681000Y-45067073D01*
X87681000Y-44932927D01*
X87654829Y-44801360D01*
X87603494Y-44677426D01*
X87528967Y-44565888D01*
X87506000Y-44542921D01*
X87506000Y-39257079D01*
X87528967Y-39234112D01*
X87603494Y-39122574D01*
X87654829Y-38998640D01*
X87681000Y-38867073D01*
X87681000Y-38732927D01*
X87654829Y-38601360D01*
X87603494Y-38477426D01*
X87528967Y-38365888D01*
X87434112Y-38271033D01*
X87322574Y-38196506D01*
X87198640Y-38145171D01*
X87067073Y-38119000D01*
X86932927Y-38119000D01*
X86801360Y-38145171D01*
X86677426Y-38196506D01*
X86565888Y-38271033D01*
X86471033Y-38365888D01*
X86396506Y-38477426D01*
X86345171Y-38601360D01*
X86319000Y-38732927D01*
X86319000Y-38867073D01*
X86345171Y-38998640D01*
X86396506Y-39122574D01*
X86471033Y-39234112D01*
X86494001Y-39257080D01*
X86494000Y-44542921D01*
X86471033Y-44565888D01*
X86396506Y-44677426D01*
X86345171Y-44801360D01*
X86319000Y-44932927D01*
X86319000Y-45067073D01*
X86329329Y-45119001D01*
X85670671Y-45119001D01*
X85681000Y-45067073D01*
X85681000Y-44932927D01*
X85654829Y-44801360D01*
X85603494Y-44677426D01*
X85528967Y-44565888D01*
X85506000Y-44542921D01*
X85506000Y-39257079D01*
X85528967Y-39234112D01*
X85603494Y-39122574D01*
X85654829Y-38998640D01*
X85681000Y-38867073D01*
X85681000Y-38732927D01*
X85654829Y-38601360D01*
X85603494Y-38477426D01*
X85528967Y-38365888D01*
X85434112Y-38271033D01*
X85322574Y-38196506D01*
X85198640Y-38145171D01*
X85067073Y-38119000D01*
X84932927Y-38119000D01*
X84801360Y-38145171D01*
X84677426Y-38196506D01*
X84565888Y-38271033D01*
X84471033Y-38365888D01*
X84396506Y-38477426D01*
X84345171Y-38601360D01*
X84319000Y-38732927D01*
X84319000Y-38867073D01*
X84345171Y-38998640D01*
X84396506Y-39122574D01*
X84471033Y-39234112D01*
X84494000Y-39257079D01*
X84494001Y-44542920D01*
X84471033Y-44565888D01*
X84396506Y-44677426D01*
X84345171Y-44801360D01*
X84319000Y-44932927D01*
X84319000Y-45067073D01*
X84329329Y-45119001D01*
X83870671Y-45119001D01*
X83881000Y-45067073D01*
X83881000Y-44932927D01*
X83854829Y-44801360D01*
X83803494Y-44677426D01*
X83728967Y-44565888D01*
X83706000Y-44542921D01*
X83706000Y-38457079D01*
X83728967Y-38434112D01*
X83803494Y-38322574D01*
X83854829Y-38198640D01*
X83881000Y-38067073D01*
X83881000Y-37932927D01*
X83854829Y-37801360D01*
X83803494Y-37677426D01*
X83769801Y-37627000D01*
X101947394Y-37627000D01*
X103873000Y-39552606D01*
X103873000Y-99431900D01*
X103658975Y-99834422D01*
X103586953Y-99922730D01*
X102098074Y-100915316D01*
X102021205Y-100939111D01*
X101498971Y-100994000D01*
X31519854Y-100994000D01*
X30996536Y-100942688D01*
X30604075Y-100824197D01*
X29460184Y-99981330D01*
X29351090Y-99849458D01*
X29127000Y-99435010D01*
X29127000Y-97936980D01*
X32810511Y-97936980D01*
X32834866Y-98017288D01*
X32934761Y-98236961D01*
X33075592Y-98432924D01*
X33251948Y-98597647D01*
X33457051Y-98724799D01*
X33683019Y-98809495D01*
X33873000Y-98749187D01*
X33873000Y-97747000D01*
X34127000Y-97747000D01*
X34127000Y-98749187D01*
X34316981Y-98809495D01*
X34542949Y-98724799D01*
X34748052Y-98597647D01*
X34924408Y-98432924D01*
X35065239Y-98236961D01*
X35165134Y-98017288D01*
X35189489Y-97936980D01*
X35128627Y-97747000D01*
X34127000Y-97747000D01*
X33873000Y-97747000D01*
X32871373Y-97747000D01*
X32810511Y-97936980D01*
X29127000Y-97936980D01*
X29127000Y-97498757D01*
X35309000Y-97498757D01*
X35309000Y-97741243D01*
X35356307Y-97979069D01*
X35449102Y-98203097D01*
X35583820Y-98404717D01*
X35755283Y-98576180D01*
X35956903Y-98710898D01*
X36180931Y-98803693D01*
X36418757Y-98851000D01*
X36661243Y-98851000D01*
X36899069Y-98803693D01*
X37123097Y-98710898D01*
X37324717Y-98576180D01*
X37496180Y-98404717D01*
X37630898Y-98203097D01*
X37723693Y-97979069D01*
X37771000Y-97741243D01*
X37771000Y-97498757D01*
X37723693Y-97260931D01*
X37630898Y-97036903D01*
X37496180Y-96835283D01*
X37324717Y-96663820D01*
X37123097Y-96529102D01*
X36899069Y-96436307D01*
X36661243Y-96389000D01*
X36418757Y-96389000D01*
X36180931Y-96436307D01*
X35956903Y-96529102D01*
X35755283Y-96663820D01*
X35583820Y-96835283D01*
X35449102Y-97036903D01*
X35356307Y-97260931D01*
X35309000Y-97498757D01*
X29127000Y-97498757D01*
X29127000Y-97303020D01*
X32810511Y-97303020D01*
X32871373Y-97493000D01*
X33873000Y-97493000D01*
X33873000Y-96490813D01*
X34127000Y-96490813D01*
X34127000Y-97493000D01*
X35128627Y-97493000D01*
X35189489Y-97303020D01*
X35165134Y-97222712D01*
X35065239Y-97003039D01*
X34924408Y-96807076D01*
X34748052Y-96642353D01*
X34542949Y-96515201D01*
X34316981Y-96430505D01*
X34127000Y-96490813D01*
X33873000Y-96490813D01*
X33683019Y-96430505D01*
X33457051Y-96515201D01*
X33251948Y-96642353D01*
X33075592Y-96807076D01*
X32934761Y-97003039D01*
X32834866Y-97222712D01*
X32810511Y-97303020D01*
X29127000Y-97303020D01*
X29127000Y-94958757D01*
X32769000Y-94958757D01*
X32769000Y-95201243D01*
X32816307Y-95439069D01*
X32909102Y-95663097D01*
X33043820Y-95864717D01*
X33215283Y-96036180D01*
X33416903Y-96170898D01*
X33640931Y-96263693D01*
X33878757Y-96311000D01*
X34121243Y-96311000D01*
X34359069Y-96263693D01*
X34583097Y-96170898D01*
X34784717Y-96036180D01*
X34956180Y-95864717D01*
X35090898Y-95663097D01*
X35183693Y-95439069D01*
X35231000Y-95201243D01*
X35231000Y-94958757D01*
X35309000Y-94958757D01*
X35309000Y-95201243D01*
X35356307Y-95439069D01*
X35449102Y-95663097D01*
X35583820Y-95864717D01*
X35755283Y-96036180D01*
X35956903Y-96170898D01*
X36180931Y-96263693D01*
X36418757Y-96311000D01*
X36661243Y-96311000D01*
X36899069Y-96263693D01*
X37123097Y-96170898D01*
X37324717Y-96036180D01*
X37496180Y-95864717D01*
X37572831Y-95750000D01*
X42967157Y-95750000D01*
X42967157Y-97450000D01*
X42974513Y-97524689D01*
X42996299Y-97596508D01*
X43031678Y-97662696D01*
X43079289Y-97720711D01*
X43137304Y-97768322D01*
X43203492Y-97803701D01*
X43275311Y-97825487D01*
X43350000Y-97832843D01*
X45050000Y-97832843D01*
X45124689Y-97825487D01*
X45196508Y-97803701D01*
X45262696Y-97768322D01*
X45320711Y-97720711D01*
X45368322Y-97662696D01*
X45403701Y-97596508D01*
X45425487Y-97524689D01*
X45432843Y-97450000D01*
X45432843Y-96478757D01*
X45509000Y-96478757D01*
X45509000Y-96721243D01*
X45556307Y-96959069D01*
X45649102Y-97183097D01*
X45783820Y-97384717D01*
X45955283Y-97556180D01*
X46156903Y-97690898D01*
X46380931Y-97783693D01*
X46618757Y-97831000D01*
X46861243Y-97831000D01*
X47099069Y-97783693D01*
X47323097Y-97690898D01*
X47524717Y-97556180D01*
X47696180Y-97384717D01*
X47830898Y-97183097D01*
X47923693Y-96959069D01*
X47971000Y-96721243D01*
X47971000Y-96478757D01*
X48049000Y-96478757D01*
X48049000Y-96721243D01*
X48096307Y-96959069D01*
X48189102Y-97183097D01*
X48323820Y-97384717D01*
X48495283Y-97556180D01*
X48696903Y-97690898D01*
X48920931Y-97783693D01*
X49158757Y-97831000D01*
X49401243Y-97831000D01*
X49639069Y-97783693D01*
X49863097Y-97690898D01*
X50064717Y-97556180D01*
X50236180Y-97384717D01*
X50370898Y-97183097D01*
X50463693Y-96959069D01*
X50511000Y-96721243D01*
X50511000Y-96478757D01*
X50589000Y-96478757D01*
X50589000Y-96721243D01*
X50636307Y-96959069D01*
X50729102Y-97183097D01*
X50863820Y-97384717D01*
X51035283Y-97556180D01*
X51236903Y-97690898D01*
X51460931Y-97783693D01*
X51698757Y-97831000D01*
X51941243Y-97831000D01*
X52179069Y-97783693D01*
X52403097Y-97690898D01*
X52604717Y-97556180D01*
X52776180Y-97384717D01*
X52910898Y-97183097D01*
X53003693Y-96959069D01*
X53012064Y-96916981D01*
X53170505Y-96916981D01*
X53255201Y-97142949D01*
X53382353Y-97348052D01*
X53547076Y-97524408D01*
X53743039Y-97665239D01*
X53962712Y-97765134D01*
X54043020Y-97789489D01*
X54233000Y-97728627D01*
X54233000Y-96727000D01*
X54487000Y-96727000D01*
X54487000Y-97728627D01*
X54676980Y-97789489D01*
X54757288Y-97765134D01*
X54976961Y-97665239D01*
X55172924Y-97524408D01*
X55337647Y-97348052D01*
X55464799Y-97142949D01*
X55549495Y-96916981D01*
X55489187Y-96727000D01*
X54487000Y-96727000D01*
X54233000Y-96727000D01*
X53230813Y-96727000D01*
X53170505Y-96916981D01*
X53012064Y-96916981D01*
X53051000Y-96721243D01*
X53051000Y-96478757D01*
X53012065Y-96283019D01*
X53170505Y-96283019D01*
X53230813Y-96473000D01*
X54233000Y-96473000D01*
X54233000Y-95471373D01*
X54487000Y-95471373D01*
X54487000Y-96473000D01*
X55489187Y-96473000D01*
X55549495Y-96283019D01*
X55464799Y-96057051D01*
X55337647Y-95851948D01*
X55172924Y-95675592D01*
X54976961Y-95534761D01*
X54757288Y-95434866D01*
X54676980Y-95410511D01*
X54487000Y-95471373D01*
X54233000Y-95471373D01*
X54043020Y-95410511D01*
X53962712Y-95434866D01*
X53743039Y-95534761D01*
X53547076Y-95675592D01*
X53382353Y-95851948D01*
X53255201Y-96057051D01*
X53170505Y-96283019D01*
X53012065Y-96283019D01*
X53003693Y-96240931D01*
X52910898Y-96016903D01*
X52776180Y-95815283D01*
X52604717Y-95643820D01*
X52403097Y-95509102D01*
X52179069Y-95416307D01*
X51941243Y-95369000D01*
X51698757Y-95369000D01*
X51460931Y-95416307D01*
X51236903Y-95509102D01*
X51035283Y-95643820D01*
X50863820Y-95815283D01*
X50729102Y-96016903D01*
X50636307Y-96240931D01*
X50589000Y-96478757D01*
X50511000Y-96478757D01*
X50463693Y-96240931D01*
X50370898Y-96016903D01*
X50236180Y-95815283D01*
X50064717Y-95643820D01*
X49863097Y-95509102D01*
X49639069Y-95416307D01*
X49401243Y-95369000D01*
X49158757Y-95369000D01*
X48920931Y-95416307D01*
X48696903Y-95509102D01*
X48495283Y-95643820D01*
X48323820Y-95815283D01*
X48189102Y-96016903D01*
X48096307Y-96240931D01*
X48049000Y-96478757D01*
X47971000Y-96478757D01*
X47923693Y-96240931D01*
X47830898Y-96016903D01*
X47696180Y-95815283D01*
X47524717Y-95643820D01*
X47323097Y-95509102D01*
X47099069Y-95416307D01*
X46861243Y-95369000D01*
X46618757Y-95369000D01*
X46380931Y-95416307D01*
X46156903Y-95509102D01*
X45955283Y-95643820D01*
X45783820Y-95815283D01*
X45649102Y-96016903D01*
X45556307Y-96240931D01*
X45509000Y-96478757D01*
X45432843Y-96478757D01*
X45432843Y-95750000D01*
X45425487Y-95675311D01*
X45403701Y-95603492D01*
X45368322Y-95537304D01*
X45320711Y-95479289D01*
X45262696Y-95431678D01*
X45196508Y-95396299D01*
X45124689Y-95374513D01*
X45050000Y-95367157D01*
X43350000Y-95367157D01*
X43275311Y-95374513D01*
X43203492Y-95396299D01*
X43137304Y-95431678D01*
X43079289Y-95479289D01*
X43031678Y-95537304D01*
X42996299Y-95603492D01*
X42974513Y-95675311D01*
X42967157Y-95750000D01*
X37572831Y-95750000D01*
X37630898Y-95663097D01*
X37723693Y-95439069D01*
X37771000Y-95201243D01*
X37771000Y-94958757D01*
X37723693Y-94720931D01*
X37630898Y-94496903D01*
X37496180Y-94295283D01*
X37324717Y-94123820D01*
X37123097Y-93989102D01*
X36899069Y-93896307D01*
X36661243Y-93849000D01*
X36418757Y-93849000D01*
X36180931Y-93896307D01*
X35956903Y-93989102D01*
X35755283Y-94123820D01*
X35583820Y-94295283D01*
X35449102Y-94496903D01*
X35356307Y-94720931D01*
X35309000Y-94958757D01*
X35231000Y-94958757D01*
X35183693Y-94720931D01*
X35090898Y-94496903D01*
X34956180Y-94295283D01*
X34784717Y-94123820D01*
X34583097Y-93989102D01*
X34359069Y-93896307D01*
X34121243Y-93849000D01*
X33878757Y-93849000D01*
X33640931Y-93896307D01*
X33416903Y-93989102D01*
X33215283Y-94123820D01*
X33043820Y-94295283D01*
X32909102Y-94496903D01*
X32816307Y-94720931D01*
X32769000Y-94958757D01*
X29127000Y-94958757D01*
X29127000Y-92418757D01*
X32769000Y-92418757D01*
X32769000Y-92661243D01*
X32816307Y-92899069D01*
X32909102Y-93123097D01*
X33043820Y-93324717D01*
X33215283Y-93496180D01*
X33416903Y-93630898D01*
X33640931Y-93723693D01*
X33878757Y-93771000D01*
X34121243Y-93771000D01*
X34359069Y-93723693D01*
X34583097Y-93630898D01*
X34784717Y-93496180D01*
X34956180Y-93324717D01*
X35090898Y-93123097D01*
X35183693Y-92899069D01*
X35231000Y-92661243D01*
X35231000Y-92418757D01*
X35309000Y-92418757D01*
X35309000Y-92661243D01*
X35356307Y-92899069D01*
X35449102Y-93123097D01*
X35583820Y-93324717D01*
X35755283Y-93496180D01*
X35956903Y-93630898D01*
X36180931Y-93723693D01*
X36418757Y-93771000D01*
X36661243Y-93771000D01*
X36899069Y-93723693D01*
X37123097Y-93630898D01*
X37324717Y-93496180D01*
X37496180Y-93324717D01*
X37630898Y-93123097D01*
X37713748Y-92923078D01*
X60819000Y-92923078D01*
X60819000Y-93076922D01*
X60849013Y-93227809D01*
X60907887Y-93369942D01*
X60993358Y-93497859D01*
X61102141Y-93606642D01*
X61230058Y-93692113D01*
X61372191Y-93750987D01*
X61523078Y-93781000D01*
X61676922Y-93781000D01*
X61827809Y-93750987D01*
X61969942Y-93692113D01*
X62097859Y-93606642D01*
X62198501Y-93506000D01*
X63001499Y-93506000D01*
X63102141Y-93606642D01*
X63230058Y-93692113D01*
X63372191Y-93750987D01*
X63523078Y-93781000D01*
X63676922Y-93781000D01*
X63827809Y-93750987D01*
X63969942Y-93692113D01*
X64097859Y-93606642D01*
X64206642Y-93497859D01*
X64292113Y-93369942D01*
X64350987Y-93227809D01*
X64381000Y-93076922D01*
X64381000Y-92923078D01*
X64350987Y-92772191D01*
X64292113Y-92630058D01*
X64206642Y-92502141D01*
X64097859Y-92393358D01*
X63969942Y-92307887D01*
X63827809Y-92249013D01*
X63676922Y-92219000D01*
X63523078Y-92219000D01*
X63372191Y-92249013D01*
X63230058Y-92307887D01*
X63102141Y-92393358D01*
X63001499Y-92494000D01*
X62198501Y-92494000D01*
X62097859Y-92393358D01*
X61969942Y-92307887D01*
X61827809Y-92249013D01*
X61676922Y-92219000D01*
X61523078Y-92219000D01*
X61372191Y-92249013D01*
X61230058Y-92307887D01*
X61102141Y-92393358D01*
X60993358Y-92502141D01*
X60907887Y-92630058D01*
X60849013Y-92772191D01*
X60819000Y-92923078D01*
X37713748Y-92923078D01*
X37723693Y-92899069D01*
X37771000Y-92661243D01*
X37771000Y-92418757D01*
X37723693Y-92180931D01*
X37630898Y-91956903D01*
X37496180Y-91755283D01*
X37324717Y-91583820D01*
X37123097Y-91449102D01*
X36899069Y-91356307D01*
X36661243Y-91309000D01*
X36418757Y-91309000D01*
X36180931Y-91356307D01*
X35956903Y-91449102D01*
X35755283Y-91583820D01*
X35583820Y-91755283D01*
X35449102Y-91956903D01*
X35356307Y-92180931D01*
X35309000Y-92418757D01*
X35231000Y-92418757D01*
X35183693Y-92180931D01*
X35090898Y-91956903D01*
X34956180Y-91755283D01*
X34784717Y-91583820D01*
X34583097Y-91449102D01*
X34359069Y-91356307D01*
X34121243Y-91309000D01*
X33878757Y-91309000D01*
X33640931Y-91356307D01*
X33416903Y-91449102D01*
X33215283Y-91583820D01*
X33043820Y-91755283D01*
X32909102Y-91956903D01*
X32816307Y-92180931D01*
X32769000Y-92418757D01*
X29127000Y-92418757D01*
X29127000Y-89150000D01*
X32767157Y-89150000D01*
X32767157Y-90850000D01*
X32774513Y-90924689D01*
X32796299Y-90996508D01*
X32831678Y-91062696D01*
X32879289Y-91120711D01*
X32937304Y-91168322D01*
X33003492Y-91203701D01*
X33075311Y-91225487D01*
X33150000Y-91232843D01*
X34850000Y-91232843D01*
X34924689Y-91225487D01*
X34996508Y-91203701D01*
X35062696Y-91168322D01*
X35120711Y-91120711D01*
X35168322Y-91062696D01*
X35203701Y-90996508D01*
X35225487Y-90924689D01*
X35232843Y-90850000D01*
X35232843Y-89878757D01*
X35309000Y-89878757D01*
X35309000Y-90121243D01*
X35356307Y-90359069D01*
X35449102Y-90583097D01*
X35583820Y-90784717D01*
X35755283Y-90956180D01*
X35956903Y-91090898D01*
X36180931Y-91183693D01*
X36418757Y-91231000D01*
X36661243Y-91231000D01*
X36899069Y-91183693D01*
X37123097Y-91090898D01*
X37324717Y-90956180D01*
X37496180Y-90784717D01*
X37630898Y-90583097D01*
X37723693Y-90359069D01*
X37771000Y-90121243D01*
X37771000Y-89878757D01*
X37723693Y-89640931D01*
X37630898Y-89416903D01*
X37496180Y-89215283D01*
X37324717Y-89043820D01*
X37123097Y-88909102D01*
X36899069Y-88816307D01*
X36661243Y-88769000D01*
X36418757Y-88769000D01*
X36180931Y-88816307D01*
X35956903Y-88909102D01*
X35755283Y-89043820D01*
X35583820Y-89215283D01*
X35449102Y-89416903D01*
X35356307Y-89640931D01*
X35309000Y-89878757D01*
X35232843Y-89878757D01*
X35232843Y-89150000D01*
X35225487Y-89075311D01*
X35203701Y-89003492D01*
X35168322Y-88937304D01*
X35120711Y-88879289D01*
X35062696Y-88831678D01*
X34996508Y-88796299D01*
X34924689Y-88774513D01*
X34850000Y-88767157D01*
X33150000Y-88767157D01*
X33075311Y-88774513D01*
X33003492Y-88796299D01*
X32937304Y-88831678D01*
X32879289Y-88879289D01*
X32831678Y-88937304D01*
X32796299Y-89003492D01*
X32774513Y-89075311D01*
X32767157Y-89150000D01*
X29127000Y-89150000D01*
X29127000Y-85936980D01*
X32810511Y-85936980D01*
X32834866Y-86017288D01*
X32934761Y-86236961D01*
X33075592Y-86432924D01*
X33251948Y-86597647D01*
X33457051Y-86724799D01*
X33683019Y-86809495D01*
X33873000Y-86749187D01*
X33873000Y-85747000D01*
X34127000Y-85747000D01*
X34127000Y-86749187D01*
X34316981Y-86809495D01*
X34542949Y-86724799D01*
X34748052Y-86597647D01*
X34924408Y-86432924D01*
X35065239Y-86236961D01*
X35165134Y-86017288D01*
X35189489Y-85936980D01*
X35128627Y-85747000D01*
X34127000Y-85747000D01*
X33873000Y-85747000D01*
X32871373Y-85747000D01*
X32810511Y-85936980D01*
X29127000Y-85936980D01*
X29127000Y-85498757D01*
X35309000Y-85498757D01*
X35309000Y-85741243D01*
X35356307Y-85979069D01*
X35449102Y-86203097D01*
X35583820Y-86404717D01*
X35755283Y-86576180D01*
X35956903Y-86710898D01*
X36180931Y-86803693D01*
X36418757Y-86851000D01*
X36661243Y-86851000D01*
X36899069Y-86803693D01*
X37123097Y-86710898D01*
X37324717Y-86576180D01*
X37496180Y-86404717D01*
X37630898Y-86203097D01*
X37723693Y-85979069D01*
X37771000Y-85741243D01*
X37771000Y-85498757D01*
X37723693Y-85260931D01*
X37630898Y-85036903D01*
X37496180Y-84835283D01*
X37324717Y-84663820D01*
X37123097Y-84529102D01*
X36899069Y-84436307D01*
X36661243Y-84389000D01*
X36418757Y-84389000D01*
X36180931Y-84436307D01*
X35956903Y-84529102D01*
X35755283Y-84663820D01*
X35583820Y-84835283D01*
X35449102Y-85036903D01*
X35356307Y-85260931D01*
X35309000Y-85498757D01*
X29127000Y-85498757D01*
X29127000Y-84132927D01*
X31094040Y-84132927D01*
X31094040Y-84267073D01*
X31120211Y-84398640D01*
X31171546Y-84522574D01*
X31246073Y-84634112D01*
X31340928Y-84728967D01*
X31452466Y-84803494D01*
X31576400Y-84854829D01*
X31707967Y-84881000D01*
X31817569Y-84881000D01*
X31875847Y-84898678D01*
X31975040Y-84908448D01*
X31999894Y-84906000D01*
X33004499Y-84906000D01*
X32934761Y-85003039D01*
X32834866Y-85222712D01*
X32810511Y-85303020D01*
X32871373Y-85493000D01*
X33873000Y-85493000D01*
X33873000Y-85473000D01*
X34127000Y-85473000D01*
X34127000Y-85493000D01*
X35128627Y-85493000D01*
X35189489Y-85303020D01*
X35165134Y-85222712D01*
X35065239Y-85003039D01*
X34995501Y-84906000D01*
X35195154Y-84906000D01*
X35220000Y-84908447D01*
X35244846Y-84906000D01*
X35244854Y-84906000D01*
X35319193Y-84898678D01*
X35414575Y-84869745D01*
X35502479Y-84822759D01*
X35579527Y-84759527D01*
X35595376Y-84740215D01*
X36103833Y-84231758D01*
X36180931Y-84263693D01*
X36418757Y-84311000D01*
X36661243Y-84311000D01*
X36899069Y-84263693D01*
X37123097Y-84170898D01*
X37324717Y-84036180D01*
X37496180Y-83864717D01*
X37630898Y-83663097D01*
X37723693Y-83439069D01*
X37771000Y-83201243D01*
X37771000Y-82958757D01*
X37723693Y-82720931D01*
X37630898Y-82496903D01*
X37496180Y-82295283D01*
X37324717Y-82123820D01*
X37123097Y-81989102D01*
X36899069Y-81896307D01*
X36661243Y-81849000D01*
X36418757Y-81849000D01*
X36180931Y-81896307D01*
X35956903Y-81989102D01*
X35755283Y-82123820D01*
X35583820Y-82295283D01*
X35449102Y-82496903D01*
X35356307Y-82720931D01*
X35309000Y-82958757D01*
X35309000Y-83201243D01*
X35356307Y-83439069D01*
X35388242Y-83516167D01*
X35010409Y-83894000D01*
X34926897Y-83894000D01*
X34956180Y-83864717D01*
X35090898Y-83663097D01*
X35183693Y-83439069D01*
X35231000Y-83201243D01*
X35231000Y-82958757D01*
X35183693Y-82720931D01*
X35090898Y-82496903D01*
X34956180Y-82295283D01*
X34784717Y-82123820D01*
X34583097Y-81989102D01*
X34359069Y-81896307D01*
X34121243Y-81849000D01*
X33878757Y-81849000D01*
X33640931Y-81896307D01*
X33416903Y-81989102D01*
X33215283Y-82123820D01*
X33043820Y-82295283D01*
X32909102Y-82496903D01*
X32816307Y-82720931D01*
X32769000Y-82958757D01*
X32769000Y-83201243D01*
X32816307Y-83439069D01*
X32909102Y-83663097D01*
X33043820Y-83864717D01*
X33073103Y-83894000D01*
X32385399Y-83894000D01*
X32378534Y-83877426D01*
X32304007Y-83765888D01*
X32209152Y-83671033D01*
X32097614Y-83596506D01*
X31973680Y-83545171D01*
X31842113Y-83519000D01*
X31707967Y-83519000D01*
X31576400Y-83545171D01*
X31452466Y-83596506D01*
X31340928Y-83671033D01*
X31246073Y-83765888D01*
X31171546Y-83877426D01*
X31120211Y-84001360D01*
X31094040Y-84132927D01*
X29127000Y-84132927D01*
X29127000Y-77932927D01*
X30494030Y-77932927D01*
X30494030Y-78067073D01*
X30520201Y-78198640D01*
X30571536Y-78322574D01*
X30646063Y-78434112D01*
X30740918Y-78528967D01*
X30852456Y-78603494D01*
X30976390Y-78654829D01*
X31107957Y-78681000D01*
X31242103Y-78681000D01*
X31373670Y-78654829D01*
X31497604Y-78603494D01*
X31609142Y-78528967D01*
X31632109Y-78506000D01*
X32767157Y-78506000D01*
X32767157Y-78850000D01*
X32774513Y-78924689D01*
X32796299Y-78996508D01*
X32831678Y-79062696D01*
X32879289Y-79120711D01*
X32937304Y-79168322D01*
X33003492Y-79203701D01*
X33075311Y-79225487D01*
X33150000Y-79232843D01*
X34591565Y-79232843D01*
X34436167Y-79388242D01*
X34359069Y-79356307D01*
X34121243Y-79309000D01*
X33878757Y-79309000D01*
X33640931Y-79356307D01*
X33416903Y-79449102D01*
X33215283Y-79583820D01*
X33043820Y-79755283D01*
X32909102Y-79956903D01*
X32816307Y-80180931D01*
X32769000Y-80418757D01*
X32769000Y-80661243D01*
X32816307Y-80899069D01*
X32909102Y-81123097D01*
X33043820Y-81324717D01*
X33215283Y-81496180D01*
X33416903Y-81630898D01*
X33640931Y-81723693D01*
X33878757Y-81771000D01*
X34121243Y-81771000D01*
X34359069Y-81723693D01*
X34583097Y-81630898D01*
X34784717Y-81496180D01*
X34956180Y-81324717D01*
X35090898Y-81123097D01*
X35183693Y-80899069D01*
X35231000Y-80661243D01*
X35231000Y-80418757D01*
X35183693Y-80180931D01*
X35151758Y-80103833D01*
X35384593Y-79870999D01*
X35506501Y-79870999D01*
X35449102Y-79956903D01*
X35356307Y-80180931D01*
X35309000Y-80418757D01*
X35309000Y-80661243D01*
X35356307Y-80899069D01*
X35449102Y-81123097D01*
X35583820Y-81324717D01*
X35755283Y-81496180D01*
X35956903Y-81630898D01*
X36180931Y-81723693D01*
X36418757Y-81771000D01*
X36661243Y-81771000D01*
X36899069Y-81723693D01*
X37123097Y-81630898D01*
X37324717Y-81496180D01*
X37496180Y-81324717D01*
X37630898Y-81123097D01*
X37723693Y-80899069D01*
X37771000Y-80661243D01*
X37771000Y-80573078D01*
X81169000Y-80573078D01*
X81169000Y-80726922D01*
X81199013Y-80877809D01*
X81257887Y-81019942D01*
X81343358Y-81147859D01*
X81444000Y-81248501D01*
X81444001Y-89451498D01*
X81343358Y-89552141D01*
X81257887Y-89680058D01*
X81199013Y-89822191D01*
X81169000Y-89973078D01*
X81169000Y-90126922D01*
X81199013Y-90277809D01*
X81257887Y-90419942D01*
X81343358Y-90547859D01*
X81444000Y-90648501D01*
X81444001Y-98651498D01*
X81343358Y-98752141D01*
X81257887Y-98880058D01*
X81199013Y-99022191D01*
X81169000Y-99173078D01*
X81169000Y-99326922D01*
X81199013Y-99477809D01*
X81257887Y-99619942D01*
X81343358Y-99747859D01*
X81452141Y-99856642D01*
X81580058Y-99942113D01*
X81722191Y-100000987D01*
X81873078Y-100031000D01*
X82026922Y-100031000D01*
X82177809Y-100000987D01*
X82319942Y-99942113D01*
X82447859Y-99856642D01*
X82556642Y-99747859D01*
X82642113Y-99619942D01*
X82700987Y-99477809D01*
X82731000Y-99326922D01*
X82731000Y-99173078D01*
X82700987Y-99022191D01*
X82642113Y-98880058D01*
X82556642Y-98752141D01*
X82456000Y-98651499D01*
X82456000Y-90648501D01*
X82556642Y-90547859D01*
X82642113Y-90419942D01*
X82700987Y-90277809D01*
X82731000Y-90126922D01*
X82731000Y-89973078D01*
X82700987Y-89822191D01*
X82642113Y-89680058D01*
X82556642Y-89552141D01*
X82456000Y-89451499D01*
X82456000Y-81248501D01*
X82556642Y-81147859D01*
X82642113Y-81019942D01*
X82700987Y-80877809D01*
X82731000Y-80726922D01*
X82731000Y-80573078D01*
X82700987Y-80422191D01*
X82642113Y-80280058D01*
X82556642Y-80152141D01*
X82506000Y-80101499D01*
X82506000Y-71798501D01*
X82606642Y-71697859D01*
X82692113Y-71569942D01*
X82750987Y-71427809D01*
X82781000Y-71276922D01*
X82781000Y-71123078D01*
X82750987Y-70972191D01*
X82692113Y-70830058D01*
X82606642Y-70702141D01*
X82497859Y-70593358D01*
X82369942Y-70507887D01*
X82227809Y-70449013D01*
X82076922Y-70419000D01*
X81923078Y-70419000D01*
X81772191Y-70449013D01*
X81630058Y-70507887D01*
X81502141Y-70593358D01*
X81393358Y-70702141D01*
X81307887Y-70830058D01*
X81249013Y-70972191D01*
X81219000Y-71123078D01*
X81219000Y-71276922D01*
X81249013Y-71427809D01*
X81307887Y-71569942D01*
X81393358Y-71697859D01*
X81494000Y-71798501D01*
X81494001Y-80015388D01*
X81452141Y-80043358D01*
X81343358Y-80152141D01*
X81257887Y-80280058D01*
X81199013Y-80422191D01*
X81169000Y-80573078D01*
X37771000Y-80573078D01*
X37771000Y-80418757D01*
X37723693Y-80180931D01*
X37630898Y-79956903D01*
X37573499Y-79870999D01*
X44719781Y-79870999D01*
X44745171Y-79998640D01*
X44796506Y-80122574D01*
X44871033Y-80234112D01*
X44965888Y-80328967D01*
X45077426Y-80403494D01*
X45201360Y-80454829D01*
X45332927Y-80481000D01*
X45467073Y-80481000D01*
X45598640Y-80454829D01*
X45722574Y-80403494D01*
X45834112Y-80328967D01*
X45928967Y-80234112D01*
X46003494Y-80122574D01*
X46054829Y-79998640D01*
X46081000Y-79867073D01*
X46081000Y-79732927D01*
X46054829Y-79601360D01*
X46003494Y-79477426D01*
X45928967Y-79365888D01*
X45834112Y-79271033D01*
X45722574Y-79196506D01*
X45598640Y-79145171D01*
X45467073Y-79119000D01*
X45434591Y-79119000D01*
X45340375Y-79024784D01*
X45324526Y-79005472D01*
X45247478Y-78942240D01*
X45159574Y-78895254D01*
X45064192Y-78866321D01*
X44989853Y-78858999D01*
X44989845Y-78858999D01*
X44964999Y-78856552D01*
X44940153Y-78858999D01*
X37421898Y-78858999D01*
X37496180Y-78784717D01*
X37630898Y-78583097D01*
X37723693Y-78359069D01*
X37771000Y-78121243D01*
X37771000Y-77878757D01*
X37723693Y-77640931D01*
X37630898Y-77416903D01*
X37496180Y-77215283D01*
X37324717Y-77043820D01*
X37123097Y-76909102D01*
X36899069Y-76816307D01*
X36661243Y-76769000D01*
X36418757Y-76769000D01*
X36180931Y-76816307D01*
X35956903Y-76909102D01*
X35755283Y-77043820D01*
X35681001Y-77118102D01*
X35681001Y-76724846D01*
X35683448Y-76700000D01*
X35681001Y-76675154D01*
X35681001Y-76675147D01*
X35673679Y-76600808D01*
X35673022Y-76598640D01*
X35666945Y-76578608D01*
X35644746Y-76505426D01*
X35597760Y-76417522D01*
X35556000Y-76366638D01*
X35556000Y-76332927D01*
X35529829Y-76201360D01*
X35478494Y-76077426D01*
X35403967Y-75965888D01*
X35309112Y-75871033D01*
X35252083Y-75832927D01*
X45119000Y-75832927D01*
X45119000Y-75967073D01*
X45145171Y-76098640D01*
X45196506Y-76222574D01*
X45271033Y-76334112D01*
X45365888Y-76428967D01*
X45477426Y-76503494D01*
X45601360Y-76554829D01*
X45732927Y-76581000D01*
X45867073Y-76581000D01*
X45998640Y-76554829D01*
X46122574Y-76503494D01*
X46234112Y-76428967D01*
X46257079Y-76406000D01*
X54452249Y-76406000D01*
X54471033Y-76434112D01*
X54565888Y-76528967D01*
X54677426Y-76603494D01*
X54801360Y-76654829D01*
X54932927Y-76681000D01*
X55067073Y-76681000D01*
X55198640Y-76654829D01*
X55322574Y-76603494D01*
X55434112Y-76528967D01*
X55528967Y-76434112D01*
X55603494Y-76322574D01*
X55654829Y-76198640D01*
X55681000Y-76067073D01*
X55681000Y-75932927D01*
X55654829Y-75801360D01*
X55603494Y-75677426D01*
X55528967Y-75565888D01*
X55434112Y-75471033D01*
X55322574Y-75396506D01*
X55198640Y-75345171D01*
X55067073Y-75319000D01*
X54932927Y-75319000D01*
X54801360Y-75345171D01*
X54683476Y-75394000D01*
X46257079Y-75394000D01*
X46234112Y-75371033D01*
X46122574Y-75296506D01*
X45998640Y-75245171D01*
X45867073Y-75219000D01*
X45732927Y-75219000D01*
X45601360Y-75245171D01*
X45477426Y-75296506D01*
X45365888Y-75371033D01*
X45271033Y-75465888D01*
X45196506Y-75577426D01*
X45145171Y-75701360D01*
X45119000Y-75832927D01*
X35252083Y-75832927D01*
X35197574Y-75796506D01*
X35073640Y-75745171D01*
X34942073Y-75719000D01*
X34807927Y-75719000D01*
X34676360Y-75745171D01*
X34552426Y-75796506D01*
X34440888Y-75871033D01*
X34346033Y-75965888D01*
X34271506Y-76077426D01*
X34220171Y-76201360D01*
X34194000Y-76332927D01*
X34194000Y-76467073D01*
X34220171Y-76598640D01*
X34271506Y-76722574D01*
X34301295Y-76767157D01*
X33150000Y-76767157D01*
X33075311Y-76774513D01*
X33003492Y-76796299D01*
X32937304Y-76831678D01*
X32879289Y-76879289D01*
X32831678Y-76937304D01*
X32796299Y-77003492D01*
X32774513Y-77075311D01*
X32767157Y-77150000D01*
X32767157Y-77494000D01*
X31632109Y-77494000D01*
X31609142Y-77471033D01*
X31497604Y-77396506D01*
X31373670Y-77345171D01*
X31242103Y-77319000D01*
X31107957Y-77319000D01*
X30976390Y-77345171D01*
X30852456Y-77396506D01*
X30740918Y-77471033D01*
X30646063Y-77565888D01*
X30571536Y-77677426D01*
X30520201Y-77801360D01*
X30494030Y-77932927D01*
X29127000Y-77932927D01*
X29127000Y-74332927D01*
X29719000Y-74332927D01*
X29719000Y-74467073D01*
X29745171Y-74598640D01*
X29796506Y-74722574D01*
X29871033Y-74834112D01*
X29965888Y-74928967D01*
X30071067Y-74999245D01*
X30070191Y-75001360D01*
X30044020Y-75132927D01*
X30044020Y-75267073D01*
X30070191Y-75398640D01*
X30121526Y-75522574D01*
X30196053Y-75634112D01*
X30290908Y-75728967D01*
X30402446Y-75803494D01*
X30526380Y-75854829D01*
X30657947Y-75881000D01*
X30792093Y-75881000D01*
X30923660Y-75854829D01*
X31047594Y-75803494D01*
X31159132Y-75728967D01*
X31182099Y-75706000D01*
X31375119Y-75706000D01*
X31375149Y-75706003D01*
X31375156Y-75706003D01*
X31400002Y-75708450D01*
X31424848Y-75706003D01*
X41284554Y-75706003D01*
X41309400Y-75708450D01*
X41334246Y-75706003D01*
X41334254Y-75706003D01*
X41408593Y-75698681D01*
X41503975Y-75669748D01*
X41588139Y-75624761D01*
X41632715Y-75624761D01*
X41764282Y-75598590D01*
X41888216Y-75547255D01*
X41999754Y-75472728D01*
X42094609Y-75377873D01*
X42169136Y-75266335D01*
X42220471Y-75142401D01*
X42246642Y-75010834D01*
X42246642Y-74876688D01*
X42220471Y-74745121D01*
X42169136Y-74621187D01*
X42094609Y-74509649D01*
X41999754Y-74414794D01*
X41888216Y-74340267D01*
X41764282Y-74288932D01*
X41632715Y-74262761D01*
X41538841Y-74262761D01*
X41503494Y-74177426D01*
X41428967Y-74065888D01*
X41334112Y-73971033D01*
X41222574Y-73896506D01*
X41098640Y-73845171D01*
X40967073Y-73819000D01*
X40832927Y-73819000D01*
X40701360Y-73845171D01*
X40577426Y-73896506D01*
X40465888Y-73971033D01*
X40442921Y-73994000D01*
X36902900Y-73994000D01*
X36882479Y-73977241D01*
X36794575Y-73930255D01*
X36699193Y-73901322D01*
X36624854Y-73894000D01*
X36624846Y-73894000D01*
X36600000Y-73891553D01*
X36575154Y-73894000D01*
X30857079Y-73894000D01*
X30834112Y-73871033D01*
X30722574Y-73796506D01*
X30598640Y-73745171D01*
X30467073Y-73719000D01*
X30332927Y-73719000D01*
X30201360Y-73745171D01*
X30077426Y-73796506D01*
X29965888Y-73871033D01*
X29871033Y-73965888D01*
X29796506Y-74077426D01*
X29745171Y-74201360D01*
X29719000Y-74332927D01*
X29127000Y-74332927D01*
X29127000Y-62132927D01*
X30544000Y-62132927D01*
X30544000Y-62267073D01*
X30570171Y-62398640D01*
X30621506Y-62522574D01*
X30696033Y-62634112D01*
X30790888Y-62728967D01*
X30902426Y-62803494D01*
X31026360Y-62854829D01*
X31157927Y-62881000D01*
X31249885Y-62881000D01*
X31249885Y-62892073D01*
X31276056Y-63023640D01*
X31327391Y-63147574D01*
X31401918Y-63259112D01*
X31496773Y-63353967D01*
X31608311Y-63428494D01*
X31732245Y-63479829D01*
X31773863Y-63488108D01*
X31696083Y-63565888D01*
X31621556Y-63677426D01*
X31570221Y-63801360D01*
X31544050Y-63932927D01*
X31544050Y-64067073D01*
X31570221Y-64198640D01*
X31621556Y-64322574D01*
X31696083Y-64434112D01*
X31790938Y-64528967D01*
X31902476Y-64603494D01*
X32026410Y-64654829D01*
X32157977Y-64681000D01*
X32292123Y-64681000D01*
X32423690Y-64654829D01*
X32547624Y-64603494D01*
X32659162Y-64528967D01*
X32681083Y-64507046D01*
X32695307Y-64508447D01*
X32720153Y-64506000D01*
X32720161Y-64506000D01*
X32794500Y-64498678D01*
X32889882Y-64469745D01*
X32977786Y-64422759D01*
X33054834Y-64359527D01*
X33070683Y-64340215D01*
X33904859Y-63506040D01*
X37046480Y-63506038D01*
X37059933Y-63573670D01*
X37111268Y-63697604D01*
X37185795Y-63809142D01*
X37280650Y-63903997D01*
X37311986Y-63924935D01*
X37271033Y-63965888D01*
X37196506Y-64077426D01*
X37145171Y-64201360D01*
X37119000Y-64332927D01*
X37119000Y-64467073D01*
X37145171Y-64598640D01*
X37196506Y-64722574D01*
X37271033Y-64834112D01*
X37365888Y-64928967D01*
X37472197Y-65000000D01*
X37365888Y-65071033D01*
X37271033Y-65165888D01*
X37196506Y-65277426D01*
X37145171Y-65401360D01*
X37119000Y-65532927D01*
X37119000Y-65667073D01*
X37145171Y-65798640D01*
X37196506Y-65922574D01*
X37271033Y-66034112D01*
X37365888Y-66128967D01*
X37472197Y-66200000D01*
X37365888Y-66271033D01*
X37271033Y-66365888D01*
X37196506Y-66477426D01*
X37145171Y-66601360D01*
X37119000Y-66732927D01*
X37119000Y-66867073D01*
X37145171Y-66998640D01*
X37196506Y-67122574D01*
X37255635Y-67211067D01*
X37165888Y-67271033D01*
X37071033Y-67365888D01*
X36996506Y-67477426D01*
X36945171Y-67601360D01*
X36919000Y-67732927D01*
X36919000Y-67867073D01*
X36945171Y-67998640D01*
X36996506Y-68122574D01*
X37071033Y-68234112D01*
X37118313Y-68281392D01*
X37090117Y-68309588D01*
X37015590Y-68421126D01*
X36964255Y-68545060D01*
X36938084Y-68676627D01*
X36938084Y-68810773D01*
X36964255Y-68942340D01*
X37015590Y-69066274D01*
X37090117Y-69177812D01*
X37184972Y-69272667D01*
X37296510Y-69347194D01*
X37420444Y-69398529D01*
X37552011Y-69424700D01*
X37659709Y-69424700D01*
X37529717Y-69554692D01*
X37497235Y-69554692D01*
X37365668Y-69580863D01*
X37241734Y-69632198D01*
X37130196Y-69706725D01*
X37035341Y-69801580D01*
X36960814Y-69913118D01*
X36909479Y-70037052D01*
X36883308Y-70168619D01*
X36883308Y-70302765D01*
X36909479Y-70434332D01*
X36960814Y-70558266D01*
X37035341Y-70669804D01*
X37130196Y-70764659D01*
X37241734Y-70839186D01*
X37332659Y-70876848D01*
X37259781Y-70949726D01*
X37240474Y-70965571D01*
X37177242Y-71042619D01*
X37152127Y-71089606D01*
X37130255Y-71130524D01*
X37101322Y-71225906D01*
X37091553Y-71325098D01*
X37093370Y-71343551D01*
X37071033Y-71365888D01*
X36996506Y-71477426D01*
X36945171Y-71601360D01*
X36919000Y-71732927D01*
X36919000Y-71867073D01*
X36945171Y-71998640D01*
X36996506Y-72122574D01*
X37071033Y-72234112D01*
X37165888Y-72328967D01*
X37277426Y-72403494D01*
X37401360Y-72454829D01*
X37532927Y-72481000D01*
X37667073Y-72481000D01*
X37798640Y-72454829D01*
X37922574Y-72403494D01*
X38034112Y-72328967D01*
X38128967Y-72234112D01*
X38203494Y-72122574D01*
X38254829Y-71998640D01*
X38281000Y-71867073D01*
X38281000Y-71732927D01*
X38254829Y-71601360D01*
X38203494Y-71477426D01*
X38187380Y-71453309D01*
X42609592Y-67031098D01*
X48464246Y-67031098D01*
X48443990Y-67132927D01*
X48443990Y-67267073D01*
X48470161Y-67398640D01*
X48521496Y-67522574D01*
X48596023Y-67634112D01*
X48690878Y-67728967D01*
X48802416Y-67803494D01*
X48926350Y-67854829D01*
X49020281Y-67873514D01*
X49045171Y-67998640D01*
X49096506Y-68122574D01*
X49171033Y-68234112D01*
X49265888Y-68328967D01*
X49377426Y-68403494D01*
X49501360Y-68454829D01*
X49632927Y-68481000D01*
X49741662Y-68481000D01*
X49745171Y-68498640D01*
X49796506Y-68622574D01*
X49871033Y-68734112D01*
X49965888Y-68828967D01*
X50077426Y-68903494D01*
X50201360Y-68954829D01*
X50332927Y-68981000D01*
X50467073Y-68981000D01*
X50598640Y-68954829D01*
X50722574Y-68903494D01*
X50834112Y-68828967D01*
X50928967Y-68734112D01*
X51003494Y-68622574D01*
X51054829Y-68498640D01*
X51073257Y-68406000D01*
X58817589Y-68406000D01*
X60651808Y-70240220D01*
X60667653Y-70259527D01*
X60744701Y-70322759D01*
X60832605Y-70369745D01*
X60927986Y-70398678D01*
X60937874Y-70399652D01*
X61002326Y-70406000D01*
X61002333Y-70406000D01*
X61027179Y-70408447D01*
X61052025Y-70406000D01*
X62142921Y-70406000D01*
X62165888Y-70428967D01*
X62277426Y-70503494D01*
X62401360Y-70554829D01*
X62532927Y-70581000D01*
X62667073Y-70581000D01*
X62798640Y-70554829D01*
X62922574Y-70503494D01*
X63034112Y-70428967D01*
X63128967Y-70334112D01*
X63203494Y-70222574D01*
X63254829Y-70098640D01*
X63281000Y-69967073D01*
X63281000Y-69832927D01*
X63254829Y-69701360D01*
X63203494Y-69577426D01*
X63128967Y-69465888D01*
X63034112Y-69371033D01*
X62936787Y-69306003D01*
X63542921Y-69306003D01*
X63565888Y-69328970D01*
X63677426Y-69403497D01*
X63801360Y-69454832D01*
X63932927Y-69481003D01*
X64067073Y-69481003D01*
X64198640Y-69454832D01*
X64322574Y-69403497D01*
X64434112Y-69328970D01*
X64528967Y-69234115D01*
X64603494Y-69122577D01*
X64654829Y-68998643D01*
X64681000Y-68867076D01*
X64681000Y-68732930D01*
X64654829Y-68601363D01*
X64603494Y-68477429D01*
X64551759Y-68400002D01*
X64603494Y-68322574D01*
X64654829Y-68198640D01*
X64681000Y-68067073D01*
X64681000Y-67932927D01*
X64654829Y-67801360D01*
X64603494Y-67677426D01*
X64528967Y-67565888D01*
X64434112Y-67471033D01*
X64322574Y-67396506D01*
X64198640Y-67345171D01*
X64067073Y-67319000D01*
X63932927Y-67319000D01*
X63801360Y-67345171D01*
X63677426Y-67396506D01*
X63565888Y-67471033D01*
X63542921Y-67494000D01*
X60609592Y-67494000D01*
X60146688Y-67031097D01*
X76284271Y-67031096D01*
X76284281Y-67031097D01*
X77204291Y-67031097D01*
X77229137Y-67033544D01*
X77253983Y-67031097D01*
X77253991Y-67031097D01*
X77328330Y-67023775D01*
X77423712Y-66994842D01*
X77511616Y-66947856D01*
X77588664Y-66884624D01*
X77604513Y-66865312D01*
X83488826Y-60981000D01*
X83567073Y-60981000D01*
X83698640Y-60954829D01*
X83822574Y-60903494D01*
X83934112Y-60828967D01*
X84028967Y-60734112D01*
X84103494Y-60622574D01*
X84154829Y-60498640D01*
X84181000Y-60367073D01*
X84181000Y-60232927D01*
X84154829Y-60101360D01*
X84103494Y-59977426D01*
X84028967Y-59865888D01*
X83934112Y-59771033D01*
X83848529Y-59713849D01*
X83854829Y-59698640D01*
X83881000Y-59567073D01*
X83881000Y-59432927D01*
X83854829Y-59301360D01*
X83803494Y-59177426D01*
X83728967Y-59065888D01*
X83634112Y-58971033D01*
X83522574Y-58896506D01*
X83398640Y-58845171D01*
X83267073Y-58819000D01*
X83132927Y-58819000D01*
X83001360Y-58845171D01*
X82877426Y-58896506D01*
X82765888Y-58971033D01*
X82671033Y-59065888D01*
X82596506Y-59177426D01*
X82545171Y-59301360D01*
X82519000Y-59432927D01*
X82519000Y-59465409D01*
X82359780Y-59624629D01*
X82340474Y-59640473D01*
X82277242Y-59717521D01*
X82264782Y-59740832D01*
X82230255Y-59805426D01*
X82213148Y-59861823D01*
X82115395Y-59796507D01*
X81991461Y-59745172D01*
X81859894Y-59719001D01*
X81725748Y-59719001D01*
X81721098Y-59719926D01*
X81703494Y-59677426D01*
X81628967Y-59565888D01*
X81534112Y-59471033D01*
X81422574Y-59396506D01*
X81298640Y-59345171D01*
X81167073Y-59319000D01*
X81032927Y-59319000D01*
X80901360Y-59345171D01*
X80777426Y-59396506D01*
X80665888Y-59471033D01*
X80571033Y-59565888D01*
X80496506Y-59677426D01*
X80445171Y-59801360D01*
X80421428Y-59920722D01*
X80403494Y-59877426D01*
X80328967Y-59765888D01*
X80234112Y-59671033D01*
X80122574Y-59596506D01*
X79998640Y-59545171D01*
X79867073Y-59519000D01*
X79732927Y-59519000D01*
X79601360Y-59545171D01*
X79477426Y-59596506D01*
X79365888Y-59671033D01*
X79271033Y-59765888D01*
X79196506Y-59877426D01*
X79145171Y-60001360D01*
X79119000Y-60132927D01*
X79119000Y-60165408D01*
X76949094Y-62335315D01*
X76867073Y-62319000D01*
X76732927Y-62319000D01*
X76601360Y-62345171D01*
X76480360Y-62395291D01*
X76481000Y-62392072D01*
X76481000Y-62257926D01*
X76477128Y-62238463D01*
X77834592Y-60881000D01*
X77867073Y-60881000D01*
X77998640Y-60854829D01*
X78122574Y-60803494D01*
X78234112Y-60728967D01*
X78328967Y-60634112D01*
X78403494Y-60522574D01*
X78454829Y-60398640D01*
X78481000Y-60267073D01*
X78481000Y-60132927D01*
X78454829Y-60001360D01*
X78403494Y-59877426D01*
X78328967Y-59765888D01*
X78234112Y-59671033D01*
X78122574Y-59596506D01*
X77998640Y-59545171D01*
X77867073Y-59519000D01*
X77732927Y-59519000D01*
X77601360Y-59545171D01*
X77477426Y-59596506D01*
X77365888Y-59671033D01*
X77271033Y-59765888D01*
X77196506Y-59877426D01*
X77145171Y-60001360D01*
X77119000Y-60132927D01*
X77119000Y-60165408D01*
X75617437Y-61666972D01*
X75601360Y-61670170D01*
X75477426Y-61721505D01*
X75365888Y-61796032D01*
X75271033Y-61890887D01*
X75196506Y-62002425D01*
X75145171Y-62126359D01*
X75141973Y-62142435D01*
X73515359Y-63769050D01*
X70746541Y-63769050D01*
X72434592Y-62081000D01*
X72467073Y-62081000D01*
X72598640Y-62054829D01*
X72722574Y-62003494D01*
X72834112Y-61928967D01*
X72928967Y-61834112D01*
X73003494Y-61722574D01*
X73054829Y-61598640D01*
X73081000Y-61467073D01*
X73081000Y-61434591D01*
X73434592Y-61081000D01*
X73467073Y-61081000D01*
X73598640Y-61054829D01*
X73722574Y-61003494D01*
X73834112Y-60928967D01*
X73928967Y-60834112D01*
X74003494Y-60722574D01*
X74054829Y-60598640D01*
X74081000Y-60467073D01*
X74081000Y-60332927D01*
X74054829Y-60201360D01*
X74003494Y-60077426D01*
X73928967Y-59965888D01*
X73834112Y-59871033D01*
X73722574Y-59796506D01*
X73598640Y-59745171D01*
X73467073Y-59719000D01*
X73332927Y-59719000D01*
X73201360Y-59745171D01*
X73077426Y-59796506D01*
X72965888Y-59871033D01*
X72871033Y-59965888D01*
X72851960Y-59994433D01*
X72803494Y-59877426D01*
X72728967Y-59765888D01*
X72634112Y-59671033D01*
X72522574Y-59596506D01*
X72398640Y-59545171D01*
X72267073Y-59519000D01*
X72132927Y-59519000D01*
X72001360Y-59545171D01*
X71877426Y-59596506D01*
X71765888Y-59671033D01*
X71671033Y-59765888D01*
X71596506Y-59877426D01*
X71545171Y-60001360D01*
X71519000Y-60132927D01*
X71519000Y-60165408D01*
X69404516Y-62279893D01*
X69403494Y-62277426D01*
X69328967Y-62165888D01*
X69234112Y-62071033D01*
X69122574Y-61996506D01*
X68998640Y-61945171D01*
X68867073Y-61919000D01*
X68732927Y-61919000D01*
X68601360Y-61945171D01*
X68477426Y-61996506D01*
X68365888Y-62071033D01*
X68271033Y-62165888D01*
X68218820Y-62244030D01*
X67470671Y-62244030D01*
X67481000Y-62192103D01*
X67481000Y-62057957D01*
X67454829Y-61926390D01*
X67403494Y-61802456D01*
X67328967Y-61690918D01*
X67234112Y-61596063D01*
X67122574Y-61521536D01*
X66998640Y-61470201D01*
X66867073Y-61444030D01*
X66732927Y-61444030D01*
X66601360Y-61470201D01*
X66477426Y-61521536D01*
X66365888Y-61596063D01*
X66342921Y-61619030D01*
X62057079Y-61619030D01*
X62034112Y-61596063D01*
X61922574Y-61521536D01*
X61798640Y-61470201D01*
X61667073Y-61444030D01*
X61624711Y-61444030D01*
X61722574Y-61403494D01*
X61834112Y-61328967D01*
X61857079Y-61306000D01*
X62392922Y-61306000D01*
X62415889Y-61328967D01*
X62527427Y-61403494D01*
X62651361Y-61454829D01*
X62782928Y-61481000D01*
X62917074Y-61481000D01*
X63048641Y-61454829D01*
X63172575Y-61403494D01*
X63284113Y-61328967D01*
X63378968Y-61234112D01*
X63453495Y-61122574D01*
X63504830Y-60998640D01*
X63531001Y-60867073D01*
X63531001Y-60732927D01*
X63505753Y-60606001D01*
X64452250Y-60606001D01*
X64471033Y-60634112D01*
X64565888Y-60728967D01*
X64677426Y-60803494D01*
X64801360Y-60854829D01*
X64932927Y-60881000D01*
X65067073Y-60881000D01*
X65198640Y-60854829D01*
X65322574Y-60803494D01*
X65434112Y-60728967D01*
X65528967Y-60634112D01*
X65603494Y-60522574D01*
X65654829Y-60398640D01*
X65681000Y-60267073D01*
X65681000Y-60132927D01*
X65654829Y-60001360D01*
X65603494Y-59877426D01*
X65528967Y-59765888D01*
X65434112Y-59671033D01*
X65322574Y-59596506D01*
X65198640Y-59545171D01*
X65067073Y-59519000D01*
X64932927Y-59519000D01*
X64801360Y-59545171D01*
X64683474Y-59594001D01*
X55924853Y-59594001D01*
X55899999Y-59591553D01*
X55800806Y-59601323D01*
X55705424Y-59630256D01*
X55617520Y-59677242D01*
X55566638Y-59719000D01*
X55532927Y-59719000D01*
X55401360Y-59745171D01*
X55277426Y-59796506D01*
X55165888Y-59871033D01*
X55106003Y-59930918D01*
X55106003Y-57857079D01*
X55128970Y-57834112D01*
X55203497Y-57722574D01*
X55254832Y-57598640D01*
X55281003Y-57467073D01*
X55281003Y-57332927D01*
X55254832Y-57201360D01*
X55203497Y-57077426D01*
X55128970Y-56965888D01*
X55034115Y-56871033D01*
X54922577Y-56796506D01*
X54798643Y-56745171D01*
X54667076Y-56719000D01*
X54532930Y-56719000D01*
X54401363Y-56745171D01*
X54277429Y-56796506D01*
X54200002Y-56848241D01*
X54122574Y-56796506D01*
X53998640Y-56745171D01*
X53867073Y-56719000D01*
X53732927Y-56719000D01*
X53601360Y-56745171D01*
X53540811Y-56770251D01*
X53540533Y-56769835D01*
X53445678Y-56674980D01*
X53334140Y-56600453D01*
X53210206Y-56549118D01*
X53078639Y-56522947D01*
X52944493Y-56522947D01*
X52812926Y-56549118D01*
X52809522Y-56550528D01*
X52783409Y-56511446D01*
X52688554Y-56416591D01*
X52577016Y-56342064D01*
X52453082Y-56290729D01*
X52321515Y-56264558D01*
X52187369Y-56264558D01*
X52055802Y-56290729D01*
X51931868Y-56342064D01*
X51820330Y-56416591D01*
X51725475Y-56511446D01*
X51650948Y-56622984D01*
X51599613Y-56746918D01*
X51573442Y-56878485D01*
X51573442Y-57012631D01*
X51599613Y-57144198D01*
X51650948Y-57268132D01*
X51725475Y-57379670D01*
X51748443Y-57402638D01*
X51748443Y-57729586D01*
X51745995Y-57754442D01*
X51755764Y-57853634D01*
X51784697Y-57949016D01*
X51791832Y-57962364D01*
X51831684Y-58036921D01*
X51894916Y-58113969D01*
X51914223Y-58129814D01*
X52055556Y-58271147D01*
X52055557Y-60894000D01*
X37421592Y-60894000D01*
X37740222Y-60575370D01*
X37759527Y-60559527D01*
X37822759Y-60482479D01*
X37869745Y-60394575D01*
X37898678Y-60299193D01*
X37906000Y-60224854D01*
X37908448Y-60200000D01*
X37906000Y-60175146D01*
X37906000Y-55209581D01*
X38834593Y-54280989D01*
X38867074Y-54280989D01*
X38998641Y-54254818D01*
X39122575Y-54203483D01*
X39234113Y-54128956D01*
X39328968Y-54034101D01*
X39403495Y-53922563D01*
X39448394Y-53814166D01*
X39532927Y-53830981D01*
X39667073Y-53830981D01*
X39798640Y-53804810D01*
X39922574Y-53753475D01*
X40034112Y-53678948D01*
X40128967Y-53584093D01*
X40203494Y-53472555D01*
X40254829Y-53348621D01*
X40281000Y-53217054D01*
X40281000Y-53082908D01*
X40259567Y-52975158D01*
X41049628Y-53765220D01*
X41065473Y-53784527D01*
X41142521Y-53847759D01*
X41230425Y-53894745D01*
X41303607Y-53916944D01*
X41325806Y-53923678D01*
X41335694Y-53924652D01*
X41400146Y-53931000D01*
X41400153Y-53931000D01*
X41424999Y-53933447D01*
X41449845Y-53931000D01*
X42778408Y-53931000D01*
X41559785Y-55149624D01*
X41540473Y-55165473D01*
X41477241Y-55242521D01*
X41430255Y-55330426D01*
X41401322Y-55425808D01*
X41394000Y-55500147D01*
X41394000Y-55500154D01*
X41391553Y-55525000D01*
X41394000Y-55549846D01*
X41394001Y-57342920D01*
X41371033Y-57365888D01*
X41296506Y-57477426D01*
X41245171Y-57601360D01*
X41219000Y-57732927D01*
X41219000Y-57867073D01*
X41245171Y-57998640D01*
X41296506Y-58122574D01*
X41371033Y-58234112D01*
X41465888Y-58328967D01*
X41577426Y-58403494D01*
X41701360Y-58454829D01*
X41832927Y-58481000D01*
X41967073Y-58481000D01*
X42098640Y-58454829D01*
X42222574Y-58403494D01*
X42334112Y-58328967D01*
X42428967Y-58234112D01*
X42503494Y-58122574D01*
X42554829Y-57998640D01*
X42581000Y-57867073D01*
X42581000Y-57732927D01*
X42554829Y-57601360D01*
X42503494Y-57477426D01*
X42428967Y-57365888D01*
X42406000Y-57342921D01*
X42406000Y-55734591D01*
X44034592Y-54106000D01*
X44067073Y-54106000D01*
X44198640Y-54079829D01*
X44322574Y-54028494D01*
X44434112Y-53953967D01*
X44528967Y-53859112D01*
X44603494Y-53747574D01*
X44654829Y-53623640D01*
X44681000Y-53492073D01*
X44681000Y-53357927D01*
X44670671Y-53305999D01*
X45059040Y-53305999D01*
X45083886Y-53308446D01*
X45108732Y-53305999D01*
X45108740Y-53305999D01*
X45183079Y-53298677D01*
X45278461Y-53269744D01*
X45366365Y-53222758D01*
X45443413Y-53159526D01*
X45459262Y-53140214D01*
X46229084Y-52370393D01*
X46261565Y-52370393D01*
X46393132Y-52344222D01*
X46517066Y-52292887D01*
X46628604Y-52218360D01*
X46723459Y-52123505D01*
X46797986Y-52011967D01*
X46849321Y-51888033D01*
X46875492Y-51756466D01*
X46875492Y-51622320D01*
X46849321Y-51490753D01*
X46797986Y-51366819D01*
X46723459Y-51255281D01*
X46628604Y-51160426D01*
X46517066Y-51085899D01*
X46393132Y-51034564D01*
X46261565Y-51008393D01*
X46127419Y-51008393D01*
X45995852Y-51034564D01*
X45871918Y-51085899D01*
X45760380Y-51160426D01*
X45741942Y-51178864D01*
X45734112Y-51171034D01*
X45622574Y-51096507D01*
X45498640Y-51045172D01*
X45367073Y-51019001D01*
X45232927Y-51019001D01*
X45101360Y-51045172D01*
X44977426Y-51096507D01*
X44906786Y-51143707D01*
X44834112Y-51071033D01*
X44722574Y-50996506D01*
X44598640Y-50945171D01*
X44467073Y-50919000D01*
X44332927Y-50919000D01*
X44201360Y-50945171D01*
X44077426Y-50996506D01*
X43965888Y-51071033D01*
X43942921Y-51094000D01*
X43209592Y-51094000D01*
X42481000Y-50365409D01*
X42481000Y-50332927D01*
X42454829Y-50201360D01*
X42403494Y-50077426D01*
X42389893Y-50057070D01*
X42445267Y-50001696D01*
X42519794Y-49890158D01*
X42571129Y-49766224D01*
X42597300Y-49634657D01*
X42597300Y-49500511D01*
X42571129Y-49368944D01*
X42519794Y-49245010D01*
X42445267Y-49133472D01*
X42350412Y-49038617D01*
X42238874Y-48964090D01*
X42114940Y-48912755D01*
X41983373Y-48886584D01*
X41950892Y-48886584D01*
X40024092Y-46959785D01*
X40008243Y-46940473D01*
X39970762Y-46909713D01*
X39890898Y-46716903D01*
X39756180Y-46515283D01*
X39584717Y-46343820D01*
X39383097Y-46209102D01*
X39159069Y-46116307D01*
X38921243Y-46069000D01*
X38678757Y-46069000D01*
X38440931Y-46116307D01*
X38216903Y-46209102D01*
X38015283Y-46343820D01*
X37843820Y-46515283D01*
X37709102Y-46716903D01*
X37616307Y-46940931D01*
X37569000Y-47178757D01*
X37569000Y-47421243D01*
X37616307Y-47659069D01*
X37709102Y-47883097D01*
X37843820Y-48084717D01*
X38015283Y-48256180D01*
X38216903Y-48390898D01*
X38440931Y-48483693D01*
X38678757Y-48531000D01*
X38921243Y-48531000D01*
X39159069Y-48483693D01*
X39383097Y-48390898D01*
X39584717Y-48256180D01*
X39737011Y-48103886D01*
X41235300Y-49602176D01*
X41235300Y-49634657D01*
X41261471Y-49766224D01*
X41312806Y-49890158D01*
X41326407Y-49910514D01*
X41271033Y-49965888D01*
X41196506Y-50077426D01*
X41174102Y-50131513D01*
X40502374Y-49459785D01*
X40486525Y-49440473D01*
X40409477Y-49377241D01*
X40321573Y-49330255D01*
X40226191Y-49301322D01*
X40151852Y-49294000D01*
X40151844Y-49294000D01*
X40126998Y-49291553D01*
X40102152Y-49294000D01*
X33798501Y-49294000D01*
X33697859Y-49193358D01*
X33569942Y-49107887D01*
X33427809Y-49049013D01*
X33276922Y-49019000D01*
X33123078Y-49019000D01*
X32972191Y-49049013D01*
X32830058Y-49107887D01*
X32702141Y-49193358D01*
X32593358Y-49302141D01*
X32507887Y-49430058D01*
X32449013Y-49572191D01*
X32419000Y-49723078D01*
X32419000Y-49772261D01*
X32276922Y-49744000D01*
X32123078Y-49744000D01*
X31972191Y-49774013D01*
X31830058Y-49832887D01*
X31702141Y-49918358D01*
X31593358Y-50027141D01*
X31507887Y-50155058D01*
X31449013Y-50297191D01*
X31419000Y-50448078D01*
X31419000Y-50601922D01*
X31449013Y-50752809D01*
X31507887Y-50894942D01*
X31593358Y-51022859D01*
X31702141Y-51131642D01*
X31830058Y-51217113D01*
X31972191Y-51275987D01*
X32123078Y-51306000D01*
X32276922Y-51306000D01*
X32427809Y-51275987D01*
X32569942Y-51217113D01*
X32697859Y-51131642D01*
X32798501Y-51031000D01*
X40005997Y-51031000D01*
X41893996Y-52919000D01*
X41634592Y-52919000D01*
X40375376Y-51659785D01*
X40359527Y-51640473D01*
X40282479Y-51577241D01*
X40194575Y-51530255D01*
X40099193Y-51501322D01*
X40024854Y-51494000D01*
X40024846Y-51494000D01*
X40000000Y-51491553D01*
X39975154Y-51494000D01*
X38624854Y-51494000D01*
X38600000Y-51491552D01*
X38575146Y-51494000D01*
X38500807Y-51501322D01*
X38405425Y-51530255D01*
X38317521Y-51577241D01*
X38240473Y-51640473D01*
X38224628Y-51659780D01*
X35930166Y-53954243D01*
X35880923Y-53905000D01*
X35954318Y-53831605D01*
X36050732Y-53687310D01*
X36117144Y-53526978D01*
X36151000Y-53356771D01*
X36151000Y-53183229D01*
X36117144Y-53013022D01*
X36050732Y-52852690D01*
X35954318Y-52708395D01*
X35880923Y-52635000D01*
X35954318Y-52561605D01*
X36050732Y-52417310D01*
X36117144Y-52256978D01*
X36151000Y-52086771D01*
X36151000Y-51913229D01*
X36117144Y-51743022D01*
X36050732Y-51582690D01*
X35954318Y-51438395D01*
X35831605Y-51315682D01*
X35687310Y-51219268D01*
X35526978Y-51152856D01*
X35356771Y-51119000D01*
X35183229Y-51119000D01*
X35013022Y-51152856D01*
X34852690Y-51219268D01*
X34794432Y-51258194D01*
X34770711Y-51229289D01*
X34712696Y-51181678D01*
X34646508Y-51146299D01*
X34574689Y-51124513D01*
X34500000Y-51117157D01*
X33500000Y-51117157D01*
X33425311Y-51124513D01*
X33353492Y-51146299D01*
X33287304Y-51181678D01*
X33229289Y-51229289D01*
X33181678Y-51287304D01*
X33146299Y-51353492D01*
X33124513Y-51425311D01*
X33117157Y-51500000D01*
X33117157Y-52500000D01*
X33124513Y-52574689D01*
X33146299Y-52646508D01*
X33181678Y-52712696D01*
X33229289Y-52770711D01*
X33261562Y-52797196D01*
X33220046Y-52860309D01*
X33158802Y-53008184D01*
X33224581Y-53143000D01*
X33873000Y-53143000D01*
X33873000Y-53123000D01*
X34127000Y-53123000D01*
X34127000Y-53143000D01*
X34147000Y-53143000D01*
X34147000Y-53397000D01*
X34127000Y-53397000D01*
X34127000Y-54413000D01*
X34147000Y-54413000D01*
X34147000Y-54667000D01*
X34127000Y-54667000D01*
X34127000Y-54687000D01*
X33873000Y-54687000D01*
X33873000Y-54667000D01*
X33224581Y-54667000D01*
X33158802Y-54801816D01*
X33220046Y-54949691D01*
X33314959Y-55093980D01*
X33391969Y-55172108D01*
X33315682Y-55248395D01*
X33219268Y-55392690D01*
X33152856Y-55553022D01*
X33119000Y-55723229D01*
X33119000Y-55896771D01*
X33152856Y-56066978D01*
X33219268Y-56227310D01*
X33315682Y-56371605D01*
X33391969Y-56447892D01*
X33314959Y-56526020D01*
X33220046Y-56670309D01*
X33158802Y-56818184D01*
X33224581Y-56953000D01*
X33873000Y-56953000D01*
X33873000Y-56933000D01*
X34127000Y-56933000D01*
X34127000Y-56953000D01*
X34147000Y-56953000D01*
X34147000Y-57207000D01*
X34127000Y-57207000D01*
X34127000Y-57856556D01*
X34261817Y-57921205D01*
X34420897Y-57853964D01*
X34563802Y-57756980D01*
X34631935Y-57687858D01*
X34708395Y-57764318D01*
X34852690Y-57860732D01*
X35013022Y-57927144D01*
X35183229Y-57961000D01*
X35356771Y-57961000D01*
X35526978Y-57927144D01*
X35687310Y-57860732D01*
X35831605Y-57764318D01*
X35954318Y-57641605D01*
X36050732Y-57497310D01*
X36117144Y-57336978D01*
X36151000Y-57166771D01*
X36151000Y-56993229D01*
X36137953Y-56927638D01*
X36294000Y-56771591D01*
X36294001Y-59953997D01*
X36004009Y-60243990D01*
X32181153Y-60243990D01*
X32128967Y-60165888D01*
X32034112Y-60071033D01*
X31922574Y-59996506D01*
X31798640Y-59945171D01*
X31667073Y-59919000D01*
X31532927Y-59919000D01*
X31401360Y-59945171D01*
X31277426Y-59996506D01*
X31165888Y-60071033D01*
X31071033Y-60165888D01*
X30996506Y-60277426D01*
X30945171Y-60401360D01*
X30919000Y-60532927D01*
X30919000Y-60667073D01*
X30945171Y-60798640D01*
X30996506Y-60922574D01*
X31048240Y-61000000D01*
X30996506Y-61077426D01*
X30945171Y-61201360D01*
X30919000Y-61332927D01*
X30919000Y-61467073D01*
X30941525Y-61580311D01*
X30902426Y-61596506D01*
X30790888Y-61671033D01*
X30696033Y-61765888D01*
X30621506Y-61877426D01*
X30570171Y-62001360D01*
X30544000Y-62132927D01*
X29127000Y-62132927D01*
X29127000Y-57341816D01*
X33158802Y-57341816D01*
X33220046Y-57489691D01*
X33314959Y-57633980D01*
X33436198Y-57756980D01*
X33579103Y-57853964D01*
X33738183Y-57921205D01*
X33873000Y-57856556D01*
X33873000Y-57207000D01*
X33224581Y-57207000D01*
X33158802Y-57341816D01*
X29127000Y-57341816D01*
X29127000Y-53531816D01*
X33158802Y-53531816D01*
X33220046Y-53679691D01*
X33314959Y-53823980D01*
X33394819Y-53905000D01*
X33314959Y-53986020D01*
X33220046Y-54130309D01*
X33158802Y-54278184D01*
X33224581Y-54413000D01*
X33873000Y-54413000D01*
X33873000Y-53397000D01*
X33224581Y-53397000D01*
X33158802Y-53531816D01*
X29127000Y-53531816D01*
X29127000Y-43910000D01*
X37567157Y-43910000D01*
X37567157Y-45610000D01*
X37574513Y-45684689D01*
X37596299Y-45756508D01*
X37631678Y-45822696D01*
X37679289Y-45880711D01*
X37737304Y-45928322D01*
X37803492Y-45963701D01*
X37875311Y-45985487D01*
X37950000Y-45992843D01*
X39650000Y-45992843D01*
X39724689Y-45985487D01*
X39796508Y-45963701D01*
X39862696Y-45928322D01*
X39920711Y-45880711D01*
X39968322Y-45822696D01*
X40003701Y-45756508D01*
X40025487Y-45684689D01*
X40032843Y-45610000D01*
X40032843Y-43910000D01*
X40025487Y-43835311D01*
X40003701Y-43763492D01*
X39968322Y-43697304D01*
X39920711Y-43639289D01*
X39862696Y-43591678D01*
X39796508Y-43556299D01*
X39724689Y-43534513D01*
X39650000Y-43527157D01*
X37950000Y-43527157D01*
X37875311Y-43534513D01*
X37803492Y-43556299D01*
X37737304Y-43591678D01*
X37679289Y-43639289D01*
X37631678Y-43697304D01*
X37596299Y-43763492D01*
X37574513Y-43835311D01*
X37567157Y-43910000D01*
X29127000Y-43910000D01*
X29127000Y-41639269D01*
X41674000Y-41639269D01*
X41674000Y-42130730D01*
X41687471Y-42267507D01*
X41740707Y-42443001D01*
X41827157Y-42604737D01*
X41943499Y-42746501D01*
X42085262Y-42862843D01*
X42246998Y-42949293D01*
X42422492Y-43002529D01*
X42605000Y-43020504D01*
X42787507Y-43002529D01*
X42963001Y-42949293D01*
X43124737Y-42862843D01*
X43266501Y-42746501D01*
X43382843Y-42604738D01*
X43469293Y-42443002D01*
X43522529Y-42267508D01*
X43536000Y-42130731D01*
X43536000Y-41639270D01*
X43536000Y-41639269D01*
X46514000Y-41639269D01*
X46514000Y-42130730D01*
X46527471Y-42267507D01*
X46580707Y-42443001D01*
X46667157Y-42604737D01*
X46783499Y-42746501D01*
X46925262Y-42862843D01*
X47086998Y-42949293D01*
X47262492Y-43002529D01*
X47445000Y-43020504D01*
X47627507Y-43002529D01*
X47803001Y-42949293D01*
X47964737Y-42862843D01*
X48106501Y-42746501D01*
X48222843Y-42604738D01*
X48309293Y-42443002D01*
X48362529Y-42267508D01*
X48376000Y-42130731D01*
X48376000Y-41639270D01*
X48362529Y-41502492D01*
X48309293Y-41326998D01*
X48222843Y-41165262D01*
X48106501Y-41023499D01*
X47964738Y-40907157D01*
X47803002Y-40820707D01*
X47627508Y-40767471D01*
X47445000Y-40749496D01*
X47262493Y-40767471D01*
X47086999Y-40820707D01*
X46925263Y-40907157D01*
X46783500Y-41023499D01*
X46667157Y-41165262D01*
X46580707Y-41326998D01*
X46527471Y-41502492D01*
X46514000Y-41639269D01*
X43536000Y-41639269D01*
X43522529Y-41502492D01*
X43469293Y-41326998D01*
X43382843Y-41165262D01*
X43266501Y-41023499D01*
X43124738Y-40907157D01*
X42963002Y-40820707D01*
X42787508Y-40767471D01*
X42605000Y-40749496D01*
X42422493Y-40767471D01*
X42246999Y-40820707D01*
X42085263Y-40907157D01*
X41943500Y-41023499D01*
X41827157Y-41165262D01*
X41740707Y-41326998D01*
X41687471Y-41502492D01*
X41674000Y-41639269D01*
X29127000Y-41639269D01*
X29127000Y-39552606D01*
X30021478Y-38658128D01*
X41239000Y-38658128D01*
X41239000Y-39111871D01*
X41254280Y-39267011D01*
X41314663Y-39466068D01*
X41412720Y-39649521D01*
X41544683Y-39810317D01*
X41705479Y-39942280D01*
X41888931Y-40040337D01*
X42087988Y-40100720D01*
X42295000Y-40121109D01*
X42502011Y-40100720D01*
X42701068Y-40040337D01*
X42884521Y-39942280D01*
X43045317Y-39810317D01*
X43177280Y-39649521D01*
X43275337Y-39466069D01*
X43335720Y-39267012D01*
X43351000Y-39111872D01*
X43351000Y-38658129D01*
X43351000Y-38658128D01*
X46699000Y-38658128D01*
X46699000Y-39111871D01*
X46714280Y-39267011D01*
X46774663Y-39466068D01*
X46872720Y-39649521D01*
X47004683Y-39810317D01*
X47165479Y-39942280D01*
X47348931Y-40040337D01*
X47547988Y-40100720D01*
X47755000Y-40121109D01*
X47962011Y-40100720D01*
X48161068Y-40040337D01*
X48344521Y-39942280D01*
X48505317Y-39810317D01*
X48637280Y-39649521D01*
X48735337Y-39466069D01*
X48795720Y-39267012D01*
X48811000Y-39111872D01*
X48811000Y-38658129D01*
X48795720Y-38502989D01*
X48735337Y-38303932D01*
X48637280Y-38120479D01*
X48505317Y-37959683D01*
X48344521Y-37827720D01*
X48161069Y-37729663D01*
X47962012Y-37669280D01*
X47755000Y-37648891D01*
X47547989Y-37669280D01*
X47348932Y-37729663D01*
X47165480Y-37827720D01*
X47004684Y-37959683D01*
X46872720Y-38120479D01*
X46774663Y-38303931D01*
X46714280Y-38502988D01*
X46699000Y-38658128D01*
X43351000Y-38658128D01*
X43335720Y-38502989D01*
X43275337Y-38303932D01*
X43177280Y-38120479D01*
X43045317Y-37959683D01*
X42884521Y-37827720D01*
X42701069Y-37729663D01*
X42502012Y-37669280D01*
X42295000Y-37648891D01*
X42087989Y-37669280D01*
X41888932Y-37729663D01*
X41705480Y-37827720D01*
X41544684Y-37959683D01*
X41412720Y-38120479D01*
X41314663Y-38303931D01*
X41254280Y-38502988D01*
X41239000Y-38658128D01*
X30021478Y-38658128D01*
X31052606Y-37627000D01*
X82630199Y-37627000D01*
X82596506Y-37677426D01*
G37*
X82596506Y-37677426D02*
X82545171Y-37801360D01*
X82519000Y-37932927D01*
X82519000Y-38067073D01*
X82545171Y-38198640D01*
X82596506Y-38322574D01*
X82671033Y-38434112D01*
X82694000Y-38457079D01*
X82694001Y-44542920D01*
X82671033Y-44565888D01*
X82596506Y-44677426D01*
X82545171Y-44801360D01*
X82519000Y-44932927D01*
X82519000Y-45067073D01*
X82529329Y-45119001D01*
X81907080Y-45119001D01*
X81834112Y-45046033D01*
X81722574Y-44971506D01*
X81598640Y-44920171D01*
X81467073Y-44894000D01*
X81332927Y-44894000D01*
X81201360Y-44920171D01*
X81077426Y-44971506D01*
X80965888Y-45046033D01*
X80871033Y-45140888D01*
X80796506Y-45252426D01*
X80745171Y-45376360D01*
X80719000Y-45507927D01*
X80719000Y-45603408D01*
X80656000Y-45540408D01*
X80656000Y-45507927D01*
X80629829Y-45376360D01*
X80578494Y-45252426D01*
X80503967Y-45140888D01*
X80409112Y-45046033D01*
X80297574Y-44971506D01*
X80173640Y-44920171D01*
X80042073Y-44894000D01*
X79907927Y-44894000D01*
X79776360Y-44920171D01*
X79652426Y-44971506D01*
X79540888Y-45046033D01*
X79446033Y-45140888D01*
X79371506Y-45252426D01*
X79320171Y-45376360D01*
X79294000Y-45507927D01*
X79294000Y-45642073D01*
X79320171Y-45773640D01*
X79371506Y-45897574D01*
X79446033Y-46009112D01*
X79540888Y-46103967D01*
X79652426Y-46178494D01*
X79776360Y-46229829D01*
X79907927Y-46256000D01*
X79940408Y-46256000D01*
X80053410Y-46369002D01*
X75684594Y-46369002D01*
X75193018Y-45877426D01*
X74881000Y-45565409D01*
X74881000Y-45532927D01*
X74854829Y-45401360D01*
X74803494Y-45277426D01*
X74755770Y-45206001D01*
X75290410Y-45206001D01*
X75319000Y-45234591D01*
X75319000Y-45267073D01*
X75345171Y-45398640D01*
X75396506Y-45522574D01*
X75471033Y-45634112D01*
X75565888Y-45728967D01*
X75677426Y-45803494D01*
X75801360Y-45854829D01*
X75932927Y-45881000D01*
X76067073Y-45881000D01*
X76198640Y-45854829D01*
X76322574Y-45803494D01*
X76434112Y-45728967D01*
X76528967Y-45634112D01*
X76603494Y-45522574D01*
X76654829Y-45398640D01*
X76681000Y-45267073D01*
X76681000Y-45132927D01*
X76654829Y-45001360D01*
X76603494Y-44877426D01*
X76528967Y-44765888D01*
X76434112Y-44671033D01*
X76322574Y-44596506D01*
X76198640Y-44545171D01*
X76067073Y-44519000D01*
X76034591Y-44519000D01*
X75875377Y-44359786D01*
X75859528Y-44340474D01*
X75782480Y-44277242D01*
X75694576Y-44230256D01*
X75599194Y-44201323D01*
X75524855Y-44194001D01*
X75524847Y-44194001D01*
X75500001Y-44191554D01*
X75475155Y-44194001D01*
X68845174Y-44194001D01*
X68769517Y-44143449D01*
X68645583Y-44092114D01*
X68514016Y-44065943D01*
X68379870Y-44065943D01*
X68248303Y-44092114D01*
X68124369Y-44143449D01*
X68048712Y-44194001D01*
X65324853Y-44194001D01*
X65299999Y-44191553D01*
X65275145Y-44194001D01*
X65200806Y-44201323D01*
X65105424Y-44230256D01*
X65017520Y-44277242D01*
X64966638Y-44319000D01*
X64932927Y-44319000D01*
X64801360Y-44345171D01*
X64677426Y-44396506D01*
X64565888Y-44471033D01*
X64471033Y-44565888D01*
X64396506Y-44677426D01*
X64345171Y-44801360D01*
X64319000Y-44932927D01*
X64319000Y-45067073D01*
X64345171Y-45198640D01*
X64396506Y-45322574D01*
X64471033Y-45434112D01*
X64565888Y-45528967D01*
X64677426Y-45603494D01*
X64801360Y-45654829D01*
X64932927Y-45681000D01*
X65067073Y-45681000D01*
X65198640Y-45654829D01*
X65322574Y-45603494D01*
X65434112Y-45528967D01*
X65528967Y-45434112D01*
X65603494Y-45322574D01*
X65651780Y-45206001D01*
X67942922Y-45206001D01*
X68012831Y-45275910D01*
X68124369Y-45350437D01*
X68248303Y-45401772D01*
X68379870Y-45427943D01*
X68514016Y-45427943D01*
X68645583Y-45401772D01*
X68769517Y-45350437D01*
X68881055Y-45275910D01*
X68950964Y-45206001D01*
X73644230Y-45206001D01*
X73596506Y-45277426D01*
X73545171Y-45401360D01*
X73519688Y-45529466D01*
X73467073Y-45519000D01*
X73332927Y-45519000D01*
X73201360Y-45545171D01*
X73077426Y-45596506D01*
X72965888Y-45671033D01*
X72871033Y-45765888D01*
X72796506Y-45877426D01*
X72745171Y-46001360D01*
X72719000Y-46132927D01*
X72719000Y-46267073D01*
X72745171Y-46398640D01*
X72796506Y-46522574D01*
X72871033Y-46634112D01*
X72965888Y-46728967D01*
X73077426Y-46803494D01*
X73201360Y-46854829D01*
X73332927Y-46881000D01*
X73365409Y-46881000D01*
X73878408Y-47394000D01*
X58274852Y-47394000D01*
X58249998Y-47391552D01*
X58225144Y-47394000D01*
X58150805Y-47401322D01*
X58055423Y-47430255D01*
X57982939Y-47468999D01*
X56899854Y-47468999D01*
X56875008Y-47466552D01*
X56850162Y-47468999D01*
X56850155Y-47468999D01*
X56785703Y-47475347D01*
X56775815Y-47476321D01*
X56764251Y-47479829D01*
X56680434Y-47505254D01*
X56592530Y-47552240D01*
X56515482Y-47615472D01*
X56499638Y-47634778D01*
X55205165Y-48929252D01*
X55185859Y-48945096D01*
X55122627Y-49022144D01*
X55116230Y-49034112D01*
X55075640Y-49110049D01*
X55046707Y-49205431D01*
X55036938Y-49304623D01*
X55039386Y-49329479D01*
X55039385Y-52335793D01*
X54881209Y-52493970D01*
X52711559Y-52493970D01*
X52577375Y-52359786D01*
X52561526Y-52340474D01*
X52484478Y-52277242D01*
X52396574Y-52230256D01*
X52301192Y-52201323D01*
X52226853Y-52194001D01*
X52226845Y-52194001D01*
X52201999Y-52191554D01*
X52177153Y-52194001D01*
X49524853Y-52194001D01*
X49499999Y-52191553D01*
X49475145Y-52194001D01*
X49400806Y-52201323D01*
X49305424Y-52230256D01*
X49217520Y-52277242D01*
X49166638Y-52319000D01*
X49132927Y-52319000D01*
X49001360Y-52345171D01*
X48877426Y-52396506D01*
X48765888Y-52471033D01*
X48671033Y-52565888D01*
X48596506Y-52677426D01*
X48545171Y-52801360D01*
X48519000Y-52932927D01*
X48519000Y-53067073D01*
X48545171Y-53198640D01*
X48596506Y-53322574D01*
X48671033Y-53434112D01*
X48765888Y-53528967D01*
X48877426Y-53603494D01*
X49001360Y-53654829D01*
X49132927Y-53681000D01*
X49267073Y-53681000D01*
X49398640Y-53654829D01*
X49522574Y-53603494D01*
X49634112Y-53528967D01*
X49728967Y-53434112D01*
X49803494Y-53322574D01*
X49851780Y-53206001D01*
X51139275Y-53206001D01*
X51119000Y-53307927D01*
X51119000Y-53442073D01*
X51145171Y-53573640D01*
X51196506Y-53697574D01*
X51271033Y-53809112D01*
X51365888Y-53903967D01*
X51477426Y-53978494D01*
X51601360Y-54029829D01*
X51732927Y-54056000D01*
X51867073Y-54056000D01*
X51998640Y-54029829D01*
X52122574Y-53978494D01*
X52156269Y-53955980D01*
X52529329Y-53955980D01*
X52519000Y-54007907D01*
X52519000Y-54142053D01*
X52545171Y-54273620D01*
X52596506Y-54397554D01*
X52671033Y-54509092D01*
X52765888Y-54603947D01*
X52877426Y-54678474D01*
X53001360Y-54729809D01*
X53132927Y-54755980D01*
X53267073Y-54755980D01*
X53398640Y-54729809D01*
X53522574Y-54678474D01*
X53634112Y-54603947D01*
X53657079Y-54580980D01*
X54566442Y-54580980D01*
X54558492Y-54620947D01*
X54558492Y-54755093D01*
X54584663Y-54886660D01*
X54635998Y-55010594D01*
X54710525Y-55122132D01*
X54805380Y-55216987D01*
X54916918Y-55291514D01*
X55040852Y-55342849D01*
X55172419Y-55369020D01*
X55306565Y-55369020D01*
X55438132Y-55342849D01*
X55562066Y-55291514D01*
X55673604Y-55216987D01*
X55768459Y-55122132D01*
X55842986Y-55010594D01*
X55894321Y-54886660D01*
X55910558Y-54805033D01*
X57009592Y-53706000D01*
X68900156Y-53706000D01*
X68925002Y-53708447D01*
X68949848Y-53706000D01*
X68949856Y-53706000D01*
X69024195Y-53698678D01*
X69119577Y-53669745D01*
X69207481Y-53622759D01*
X69284529Y-53559527D01*
X69300378Y-53540215D01*
X69609605Y-53230989D01*
X80749630Y-53230989D01*
X81058860Y-53540220D01*
X81074705Y-53559527D01*
X81151753Y-53622759D01*
X81239657Y-53669745D01*
X81335039Y-53698678D01*
X81409378Y-53706000D01*
X81409386Y-53706000D01*
X81434232Y-53708447D01*
X81459078Y-53706000D01*
X100894001Y-53706000D01*
X100894001Y-53944232D01*
X100822574Y-53896506D01*
X100698640Y-53845171D01*
X100567073Y-53819000D01*
X100432927Y-53819000D01*
X100301360Y-53845171D01*
X100177426Y-53896506D01*
X100065888Y-53971033D01*
X99971033Y-54065888D01*
X99896506Y-54177426D01*
X99845171Y-54301360D01*
X99819000Y-54432927D01*
X99819000Y-54567073D01*
X99845171Y-54698640D01*
X99896506Y-54822574D01*
X99971033Y-54934112D01*
X99994000Y-54957079D01*
X99994001Y-69242920D01*
X99971033Y-69265888D01*
X99896506Y-69377426D01*
X99845171Y-69501360D01*
X99819000Y-69632927D01*
X99819000Y-69767073D01*
X99845171Y-69898640D01*
X99896506Y-70022574D01*
X99971033Y-70134112D01*
X100065888Y-70228967D01*
X100177426Y-70303494D01*
X100301360Y-70354829D01*
X100432927Y-70381000D01*
X100567073Y-70381000D01*
X100698640Y-70354829D01*
X100822574Y-70303494D01*
X100934112Y-70228967D01*
X101028967Y-70134112D01*
X101103494Y-70022574D01*
X101154829Y-69898640D01*
X101181000Y-69767073D01*
X101181000Y-69632927D01*
X101154829Y-69501360D01*
X101103494Y-69377426D01*
X101028967Y-69265888D01*
X101006000Y-69242921D01*
X101006000Y-62355769D01*
X101077426Y-62403494D01*
X101201360Y-62454829D01*
X101332927Y-62481000D01*
X101467073Y-62481000D01*
X101519001Y-62470671D01*
X101519002Y-72550136D01*
X101519001Y-72550146D01*
X101519002Y-72965406D01*
X100194455Y-74289954D01*
X100097859Y-74193358D01*
X99969942Y-74107887D01*
X99827809Y-74049013D01*
X99676922Y-74019000D01*
X99523078Y-74019000D01*
X99372191Y-74049013D01*
X99230058Y-74107887D01*
X99102141Y-74193358D01*
X98993358Y-74302141D01*
X98907887Y-74430058D01*
X98849013Y-74572191D01*
X98819000Y-74723078D01*
X98819000Y-74876922D01*
X98849013Y-75027809D01*
X98907887Y-75169942D01*
X98993358Y-75297859D01*
X99102141Y-75406642D01*
X99230058Y-75492113D01*
X99372191Y-75550987D01*
X99523078Y-75581000D01*
X99676922Y-75581000D01*
X99827809Y-75550987D01*
X99969942Y-75492113D01*
X100097859Y-75406642D01*
X100198501Y-75306000D01*
X100375154Y-75306000D01*
X100400000Y-75308447D01*
X100424846Y-75306000D01*
X100424854Y-75306000D01*
X100499193Y-75298678D01*
X100594575Y-75269745D01*
X100682479Y-75222759D01*
X100759527Y-75159527D01*
X100775376Y-75140215D01*
X101969012Y-73946580D01*
X101969012Y-82515396D01*
X101190409Y-83294000D01*
X100798501Y-83294000D01*
X100697859Y-83193358D01*
X100569942Y-83107887D01*
X100427809Y-83049013D01*
X100276922Y-83019000D01*
X100123078Y-83019000D01*
X99972191Y-83049013D01*
X99830058Y-83107887D01*
X99702141Y-83193358D01*
X99593358Y-83302141D01*
X99507887Y-83430058D01*
X99449013Y-83572191D01*
X99419000Y-83723078D01*
X99419000Y-83876922D01*
X99449013Y-84027809D01*
X99507887Y-84169942D01*
X99593358Y-84297859D01*
X99702141Y-84406642D01*
X99830058Y-84492113D01*
X99972191Y-84550987D01*
X100123078Y-84581000D01*
X100276922Y-84581000D01*
X100427809Y-84550987D01*
X100569942Y-84492113D01*
X100697859Y-84406642D01*
X100798501Y-84306000D01*
X101375154Y-84306000D01*
X101400000Y-84308447D01*
X101424846Y-84306000D01*
X101424854Y-84306000D01*
X101499193Y-84298678D01*
X101594575Y-84269745D01*
X101682479Y-84222759D01*
X101759527Y-84159527D01*
X101775376Y-84140215D01*
X102815231Y-83100361D01*
X102834538Y-83084516D01*
X102897770Y-83007468D01*
X102944756Y-82919564D01*
X102973689Y-82824182D01*
X102981011Y-82749843D01*
X102981011Y-82749836D01*
X102983458Y-82724990D01*
X102981011Y-82700144D01*
X102981011Y-53049855D01*
X102983459Y-53025001D01*
X102976293Y-52952242D01*
X102973689Y-52925808D01*
X102956010Y-52867527D01*
X102956010Y-51638454D01*
X102958458Y-51613600D01*
X102948688Y-51514407D01*
X102919755Y-51419025D01*
X102918952Y-51417523D01*
X102872769Y-51331121D01*
X102809537Y-51254073D01*
X102790230Y-51238228D01*
X100386785Y-48834784D01*
X100370936Y-48815472D01*
X100327654Y-48779951D01*
X100332927Y-48781000D01*
X100467073Y-48781000D01*
X100598640Y-48754829D01*
X100722574Y-48703494D01*
X100834112Y-48628967D01*
X100928967Y-48534112D01*
X101003494Y-48422574D01*
X101054829Y-48298640D01*
X101081000Y-48167073D01*
X101081000Y-48032927D01*
X101054829Y-47901360D01*
X101003494Y-47777426D01*
X100928967Y-47665888D01*
X100834112Y-47571033D01*
X100722574Y-47496506D01*
X100598640Y-47445171D01*
X100467073Y-47419000D01*
X100332927Y-47419000D01*
X100201360Y-47445171D01*
X100077426Y-47496506D01*
X99968929Y-47569001D01*
X94870671Y-47569001D01*
X94881000Y-47517073D01*
X94881000Y-47382927D01*
X94870671Y-47331000D01*
X95542921Y-47331000D01*
X95565888Y-47353967D01*
X95677426Y-47428494D01*
X95801360Y-47479829D01*
X95932927Y-47506000D01*
X96067073Y-47506000D01*
X96198640Y-47479829D01*
X96322574Y-47428494D01*
X96434112Y-47353967D01*
X96528967Y-47259112D01*
X96603494Y-47147574D01*
X96654829Y-47023640D01*
X96681000Y-46892073D01*
X96681000Y-46757927D01*
X96670671Y-46706000D01*
X99342921Y-46706000D01*
X99365888Y-46728967D01*
X99477426Y-46803494D01*
X99601360Y-46854829D01*
X99732927Y-46881000D01*
X99867073Y-46881000D01*
X99998640Y-46854829D01*
X100122574Y-46803494D01*
X100234112Y-46728967D01*
X100328967Y-46634112D01*
X100403494Y-46522574D01*
X100454829Y-46398640D01*
X100481000Y-46267073D01*
X100481000Y-46132927D01*
X100470671Y-46080999D01*
X101317920Y-46080999D01*
X101365888Y-46128967D01*
X101477426Y-46203494D01*
X101601360Y-46254829D01*
X101732927Y-46281000D01*
X101867073Y-46281000D01*
X101998640Y-46254829D01*
X102122574Y-46203494D01*
X102234112Y-46128967D01*
X102328967Y-46034112D01*
X102403494Y-45922574D01*
X102454829Y-45798640D01*
X102481000Y-45667073D01*
X102481000Y-45532927D01*
X102454829Y-45401360D01*
X102403494Y-45277426D01*
X102328967Y-45165888D01*
X102234112Y-45071033D01*
X102122574Y-44996506D01*
X101998640Y-44945171D01*
X101867073Y-44919000D01*
X101732927Y-44919000D01*
X101601360Y-44945171D01*
X101477426Y-44996506D01*
X101368932Y-45068999D01*
X98449855Y-45068999D01*
X98425001Y-45066551D01*
X98400147Y-45068999D01*
X98325808Y-45076321D01*
X98230426Y-45105254D01*
X98204707Y-45119001D01*
X89470671Y-45119001D01*
X89481000Y-45067073D01*
X89481000Y-44932927D01*
X89454829Y-44801360D01*
X89403494Y-44677426D01*
X89328967Y-44565888D01*
X89306000Y-44542921D01*
X89306000Y-39857079D01*
X89328967Y-39834112D01*
X89403494Y-39722574D01*
X89454829Y-39598640D01*
X89481000Y-39467073D01*
X89481000Y-39332927D01*
X89454829Y-39201360D01*
X89403494Y-39077426D01*
X89328967Y-38965888D01*
X89234112Y-38871033D01*
X89122574Y-38796506D01*
X88998640Y-38745171D01*
X88867073Y-38719000D01*
X88732927Y-38719000D01*
X88601360Y-38745171D01*
X88477426Y-38796506D01*
X88365888Y-38871033D01*
X88271033Y-38965888D01*
X88196506Y-39077426D01*
X88145171Y-39201360D01*
X88119000Y-39332927D01*
X88119000Y-39467073D01*
X88145171Y-39598640D01*
X88196506Y-39722574D01*
X88271033Y-39834112D01*
X88294000Y-39857079D01*
X88294001Y-44542920D01*
X88271033Y-44565888D01*
X88196506Y-44677426D01*
X88145171Y-44801360D01*
X88119000Y-44932927D01*
X88119000Y-45067073D01*
X88129329Y-45119001D01*
X87670671Y-45119001D01*
X87681000Y-45067073D01*
X87681000Y-44932927D01*
X87654829Y-44801360D01*
X87603494Y-44677426D01*
X87528967Y-44565888D01*
X87506000Y-44542921D01*
X87506000Y-39257079D01*
X87528967Y-39234112D01*
X87603494Y-39122574D01*
X87654829Y-38998640D01*
X87681000Y-38867073D01*
X87681000Y-38732927D01*
X87654829Y-38601360D01*
X87603494Y-38477426D01*
X87528967Y-38365888D01*
X87434112Y-38271033D01*
X87322574Y-38196506D01*
X87198640Y-38145171D01*
X87067073Y-38119000D01*
X86932927Y-38119000D01*
X86801360Y-38145171D01*
X86677426Y-38196506D01*
X86565888Y-38271033D01*
X86471033Y-38365888D01*
X86396506Y-38477426D01*
X86345171Y-38601360D01*
X86319000Y-38732927D01*
X86319000Y-38867073D01*
X86345171Y-38998640D01*
X86396506Y-39122574D01*
X86471033Y-39234112D01*
X86494001Y-39257080D01*
X86494000Y-44542921D01*
X86471033Y-44565888D01*
X86396506Y-44677426D01*
X86345171Y-44801360D01*
X86319000Y-44932927D01*
X86319000Y-45067073D01*
X86329329Y-45119001D01*
X85670671Y-45119001D01*
X85681000Y-45067073D01*
X85681000Y-44932927D01*
X85654829Y-44801360D01*
X85603494Y-44677426D01*
X85528967Y-44565888D01*
X85506000Y-44542921D01*
X85506000Y-39257079D01*
X85528967Y-39234112D01*
X85603494Y-39122574D01*
X85654829Y-38998640D01*
X85681000Y-38867073D01*
X85681000Y-38732927D01*
X85654829Y-38601360D01*
X85603494Y-38477426D01*
X85528967Y-38365888D01*
X85434112Y-38271033D01*
X85322574Y-38196506D01*
X85198640Y-38145171D01*
X85067073Y-38119000D01*
X84932927Y-38119000D01*
X84801360Y-38145171D01*
X84677426Y-38196506D01*
X84565888Y-38271033D01*
X84471033Y-38365888D01*
X84396506Y-38477426D01*
X84345171Y-38601360D01*
X84319000Y-38732927D01*
X84319000Y-38867073D01*
X84345171Y-38998640D01*
X84396506Y-39122574D01*
X84471033Y-39234112D01*
X84494000Y-39257079D01*
X84494001Y-44542920D01*
X84471033Y-44565888D01*
X84396506Y-44677426D01*
X84345171Y-44801360D01*
X84319000Y-44932927D01*
X84319000Y-45067073D01*
X84329329Y-45119001D01*
X83870671Y-45119001D01*
X83881000Y-45067073D01*
X83881000Y-44932927D01*
X83854829Y-44801360D01*
X83803494Y-44677426D01*
X83728967Y-44565888D01*
X83706000Y-44542921D01*
X83706000Y-38457079D01*
X83728967Y-38434112D01*
X83803494Y-38322574D01*
X83854829Y-38198640D01*
X83881000Y-38067073D01*
X83881000Y-37932927D01*
X83854829Y-37801360D01*
X83803494Y-37677426D01*
X83769801Y-37627000D01*
X101947394Y-37627000D01*
X103873000Y-39552606D01*
X103873000Y-99431900D01*
X103658975Y-99834422D01*
X103586953Y-99922730D01*
X102098074Y-100915316D01*
X102021205Y-100939111D01*
X101498971Y-100994000D01*
X31519854Y-100994000D01*
X30996536Y-100942688D01*
X30604075Y-100824197D01*
X29460184Y-99981330D01*
X29351090Y-99849458D01*
X29127000Y-99435010D01*
X29127000Y-97936980D01*
X32810511Y-97936980D01*
X32834866Y-98017288D01*
X32934761Y-98236961D01*
X33075592Y-98432924D01*
X33251948Y-98597647D01*
X33457051Y-98724799D01*
X33683019Y-98809495D01*
X33873000Y-98749187D01*
X33873000Y-97747000D01*
X34127000Y-97747000D01*
X34127000Y-98749187D01*
X34316981Y-98809495D01*
X34542949Y-98724799D01*
X34748052Y-98597647D01*
X34924408Y-98432924D01*
X35065239Y-98236961D01*
X35165134Y-98017288D01*
X35189489Y-97936980D01*
X35128627Y-97747000D01*
X34127000Y-97747000D01*
X33873000Y-97747000D01*
X32871373Y-97747000D01*
X32810511Y-97936980D01*
X29127000Y-97936980D01*
X29127000Y-97498757D01*
X35309000Y-97498757D01*
X35309000Y-97741243D01*
X35356307Y-97979069D01*
X35449102Y-98203097D01*
X35583820Y-98404717D01*
X35755283Y-98576180D01*
X35956903Y-98710898D01*
X36180931Y-98803693D01*
X36418757Y-98851000D01*
X36661243Y-98851000D01*
X36899069Y-98803693D01*
X37123097Y-98710898D01*
X37324717Y-98576180D01*
X37496180Y-98404717D01*
X37630898Y-98203097D01*
X37723693Y-97979069D01*
X37771000Y-97741243D01*
X37771000Y-97498757D01*
X37723693Y-97260931D01*
X37630898Y-97036903D01*
X37496180Y-96835283D01*
X37324717Y-96663820D01*
X37123097Y-96529102D01*
X36899069Y-96436307D01*
X36661243Y-96389000D01*
X36418757Y-96389000D01*
X36180931Y-96436307D01*
X35956903Y-96529102D01*
X35755283Y-96663820D01*
X35583820Y-96835283D01*
X35449102Y-97036903D01*
X35356307Y-97260931D01*
X35309000Y-97498757D01*
X29127000Y-97498757D01*
X29127000Y-97303020D01*
X32810511Y-97303020D01*
X32871373Y-97493000D01*
X33873000Y-97493000D01*
X33873000Y-96490813D01*
X34127000Y-96490813D01*
X34127000Y-97493000D01*
X35128627Y-97493000D01*
X35189489Y-97303020D01*
X35165134Y-97222712D01*
X35065239Y-97003039D01*
X34924408Y-96807076D01*
X34748052Y-96642353D01*
X34542949Y-96515201D01*
X34316981Y-96430505D01*
X34127000Y-96490813D01*
X33873000Y-96490813D01*
X33683019Y-96430505D01*
X33457051Y-96515201D01*
X33251948Y-96642353D01*
X33075592Y-96807076D01*
X32934761Y-97003039D01*
X32834866Y-97222712D01*
X32810511Y-97303020D01*
X29127000Y-97303020D01*
X29127000Y-94958757D01*
X32769000Y-94958757D01*
X32769000Y-95201243D01*
X32816307Y-95439069D01*
X32909102Y-95663097D01*
X33043820Y-95864717D01*
X33215283Y-96036180D01*
X33416903Y-96170898D01*
X33640931Y-96263693D01*
X33878757Y-96311000D01*
X34121243Y-96311000D01*
X34359069Y-96263693D01*
X34583097Y-96170898D01*
X34784717Y-96036180D01*
X34956180Y-95864717D01*
X35090898Y-95663097D01*
X35183693Y-95439069D01*
X35231000Y-95201243D01*
X35231000Y-94958757D01*
X35309000Y-94958757D01*
X35309000Y-95201243D01*
X35356307Y-95439069D01*
X35449102Y-95663097D01*
X35583820Y-95864717D01*
X35755283Y-96036180D01*
X35956903Y-96170898D01*
X36180931Y-96263693D01*
X36418757Y-96311000D01*
X36661243Y-96311000D01*
X36899069Y-96263693D01*
X37123097Y-96170898D01*
X37324717Y-96036180D01*
X37496180Y-95864717D01*
X37572831Y-95750000D01*
X42967157Y-95750000D01*
X42967157Y-97450000D01*
X42974513Y-97524689D01*
X42996299Y-97596508D01*
X43031678Y-97662696D01*
X43079289Y-97720711D01*
X43137304Y-97768322D01*
X43203492Y-97803701D01*
X43275311Y-97825487D01*
X43350000Y-97832843D01*
X45050000Y-97832843D01*
X45124689Y-97825487D01*
X45196508Y-97803701D01*
X45262696Y-97768322D01*
X45320711Y-97720711D01*
X45368322Y-97662696D01*
X45403701Y-97596508D01*
X45425487Y-97524689D01*
X45432843Y-97450000D01*
X45432843Y-96478757D01*
X45509000Y-96478757D01*
X45509000Y-96721243D01*
X45556307Y-96959069D01*
X45649102Y-97183097D01*
X45783820Y-97384717D01*
X45955283Y-97556180D01*
X46156903Y-97690898D01*
X46380931Y-97783693D01*
X46618757Y-97831000D01*
X46861243Y-97831000D01*
X47099069Y-97783693D01*
X47323097Y-97690898D01*
X47524717Y-97556180D01*
X47696180Y-97384717D01*
X47830898Y-97183097D01*
X47923693Y-96959069D01*
X47971000Y-96721243D01*
X47971000Y-96478757D01*
X48049000Y-96478757D01*
X48049000Y-96721243D01*
X48096307Y-96959069D01*
X48189102Y-97183097D01*
X48323820Y-97384717D01*
X48495283Y-97556180D01*
X48696903Y-97690898D01*
X48920931Y-97783693D01*
X49158757Y-97831000D01*
X49401243Y-97831000D01*
X49639069Y-97783693D01*
X49863097Y-97690898D01*
X50064717Y-97556180D01*
X50236180Y-97384717D01*
X50370898Y-97183097D01*
X50463693Y-96959069D01*
X50511000Y-96721243D01*
X50511000Y-96478757D01*
X50589000Y-96478757D01*
X50589000Y-96721243D01*
X50636307Y-96959069D01*
X50729102Y-97183097D01*
X50863820Y-97384717D01*
X51035283Y-97556180D01*
X51236903Y-97690898D01*
X51460931Y-97783693D01*
X51698757Y-97831000D01*
X51941243Y-97831000D01*
X52179069Y-97783693D01*
X52403097Y-97690898D01*
X52604717Y-97556180D01*
X52776180Y-97384717D01*
X52910898Y-97183097D01*
X53003693Y-96959069D01*
X53012064Y-96916981D01*
X53170505Y-96916981D01*
X53255201Y-97142949D01*
X53382353Y-97348052D01*
X53547076Y-97524408D01*
X53743039Y-97665239D01*
X53962712Y-97765134D01*
X54043020Y-97789489D01*
X54233000Y-97728627D01*
X54233000Y-96727000D01*
X54487000Y-96727000D01*
X54487000Y-97728627D01*
X54676980Y-97789489D01*
X54757288Y-97765134D01*
X54976961Y-97665239D01*
X55172924Y-97524408D01*
X55337647Y-97348052D01*
X55464799Y-97142949D01*
X55549495Y-96916981D01*
X55489187Y-96727000D01*
X54487000Y-96727000D01*
X54233000Y-96727000D01*
X53230813Y-96727000D01*
X53170505Y-96916981D01*
X53012064Y-96916981D01*
X53051000Y-96721243D01*
X53051000Y-96478757D01*
X53012065Y-96283019D01*
X53170505Y-96283019D01*
X53230813Y-96473000D01*
X54233000Y-96473000D01*
X54233000Y-95471373D01*
X54487000Y-95471373D01*
X54487000Y-96473000D01*
X55489187Y-96473000D01*
X55549495Y-96283019D01*
X55464799Y-96057051D01*
X55337647Y-95851948D01*
X55172924Y-95675592D01*
X54976961Y-95534761D01*
X54757288Y-95434866D01*
X54676980Y-95410511D01*
X54487000Y-95471373D01*
X54233000Y-95471373D01*
X54043020Y-95410511D01*
X53962712Y-95434866D01*
X53743039Y-95534761D01*
X53547076Y-95675592D01*
X53382353Y-95851948D01*
X53255201Y-96057051D01*
X53170505Y-96283019D01*
X53012065Y-96283019D01*
X53003693Y-96240931D01*
X52910898Y-96016903D01*
X52776180Y-95815283D01*
X52604717Y-95643820D01*
X52403097Y-95509102D01*
X52179069Y-95416307D01*
X51941243Y-95369000D01*
X51698757Y-95369000D01*
X51460931Y-95416307D01*
X51236903Y-95509102D01*
X51035283Y-95643820D01*
X50863820Y-95815283D01*
X50729102Y-96016903D01*
X50636307Y-96240931D01*
X50589000Y-96478757D01*
X50511000Y-96478757D01*
X50463693Y-96240931D01*
X50370898Y-96016903D01*
X50236180Y-95815283D01*
X50064717Y-95643820D01*
X49863097Y-95509102D01*
X49639069Y-95416307D01*
X49401243Y-95369000D01*
X49158757Y-95369000D01*
X48920931Y-95416307D01*
X48696903Y-95509102D01*
X48495283Y-95643820D01*
X48323820Y-95815283D01*
X48189102Y-96016903D01*
X48096307Y-96240931D01*
X48049000Y-96478757D01*
X47971000Y-96478757D01*
X47923693Y-96240931D01*
X47830898Y-96016903D01*
X47696180Y-95815283D01*
X47524717Y-95643820D01*
X47323097Y-95509102D01*
X47099069Y-95416307D01*
X46861243Y-95369000D01*
X46618757Y-95369000D01*
X46380931Y-95416307D01*
X46156903Y-95509102D01*
X45955283Y-95643820D01*
X45783820Y-95815283D01*
X45649102Y-96016903D01*
X45556307Y-96240931D01*
X45509000Y-96478757D01*
X45432843Y-96478757D01*
X45432843Y-95750000D01*
X45425487Y-95675311D01*
X45403701Y-95603492D01*
X45368322Y-95537304D01*
X45320711Y-95479289D01*
X45262696Y-95431678D01*
X45196508Y-95396299D01*
X45124689Y-95374513D01*
X45050000Y-95367157D01*
X43350000Y-95367157D01*
X43275311Y-95374513D01*
X43203492Y-95396299D01*
X43137304Y-95431678D01*
X43079289Y-95479289D01*
X43031678Y-95537304D01*
X42996299Y-95603492D01*
X42974513Y-95675311D01*
X42967157Y-95750000D01*
X37572831Y-95750000D01*
X37630898Y-95663097D01*
X37723693Y-95439069D01*
X37771000Y-95201243D01*
X37771000Y-94958757D01*
X37723693Y-94720931D01*
X37630898Y-94496903D01*
X37496180Y-94295283D01*
X37324717Y-94123820D01*
X37123097Y-93989102D01*
X36899069Y-93896307D01*
X36661243Y-93849000D01*
X36418757Y-93849000D01*
X36180931Y-93896307D01*
X35956903Y-93989102D01*
X35755283Y-94123820D01*
X35583820Y-94295283D01*
X35449102Y-94496903D01*
X35356307Y-94720931D01*
X35309000Y-94958757D01*
X35231000Y-94958757D01*
X35183693Y-94720931D01*
X35090898Y-94496903D01*
X34956180Y-94295283D01*
X34784717Y-94123820D01*
X34583097Y-93989102D01*
X34359069Y-93896307D01*
X34121243Y-93849000D01*
X33878757Y-93849000D01*
X33640931Y-93896307D01*
X33416903Y-93989102D01*
X33215283Y-94123820D01*
X33043820Y-94295283D01*
X32909102Y-94496903D01*
X32816307Y-94720931D01*
X32769000Y-94958757D01*
X29127000Y-94958757D01*
X29127000Y-92418757D01*
X32769000Y-92418757D01*
X32769000Y-92661243D01*
X32816307Y-92899069D01*
X32909102Y-93123097D01*
X33043820Y-93324717D01*
X33215283Y-93496180D01*
X33416903Y-93630898D01*
X33640931Y-93723693D01*
X33878757Y-93771000D01*
X34121243Y-93771000D01*
X34359069Y-93723693D01*
X34583097Y-93630898D01*
X34784717Y-93496180D01*
X34956180Y-93324717D01*
X35090898Y-93123097D01*
X35183693Y-92899069D01*
X35231000Y-92661243D01*
X35231000Y-92418757D01*
X35309000Y-92418757D01*
X35309000Y-92661243D01*
X35356307Y-92899069D01*
X35449102Y-93123097D01*
X35583820Y-93324717D01*
X35755283Y-93496180D01*
X35956903Y-93630898D01*
X36180931Y-93723693D01*
X36418757Y-93771000D01*
X36661243Y-93771000D01*
X36899069Y-93723693D01*
X37123097Y-93630898D01*
X37324717Y-93496180D01*
X37496180Y-93324717D01*
X37630898Y-93123097D01*
X37713748Y-92923078D01*
X60819000Y-92923078D01*
X60819000Y-93076922D01*
X60849013Y-93227809D01*
X60907887Y-93369942D01*
X60993358Y-93497859D01*
X61102141Y-93606642D01*
X61230058Y-93692113D01*
X61372191Y-93750987D01*
X61523078Y-93781000D01*
X61676922Y-93781000D01*
X61827809Y-93750987D01*
X61969942Y-93692113D01*
X62097859Y-93606642D01*
X62198501Y-93506000D01*
X63001499Y-93506000D01*
X63102141Y-93606642D01*
X63230058Y-93692113D01*
X63372191Y-93750987D01*
X63523078Y-93781000D01*
X63676922Y-93781000D01*
X63827809Y-93750987D01*
X63969942Y-93692113D01*
X64097859Y-93606642D01*
X64206642Y-93497859D01*
X64292113Y-93369942D01*
X64350987Y-93227809D01*
X64381000Y-93076922D01*
X64381000Y-92923078D01*
X64350987Y-92772191D01*
X64292113Y-92630058D01*
X64206642Y-92502141D01*
X64097859Y-92393358D01*
X63969942Y-92307887D01*
X63827809Y-92249013D01*
X63676922Y-92219000D01*
X63523078Y-92219000D01*
X63372191Y-92249013D01*
X63230058Y-92307887D01*
X63102141Y-92393358D01*
X63001499Y-92494000D01*
X62198501Y-92494000D01*
X62097859Y-92393358D01*
X61969942Y-92307887D01*
X61827809Y-92249013D01*
X61676922Y-92219000D01*
X61523078Y-92219000D01*
X61372191Y-92249013D01*
X61230058Y-92307887D01*
X61102141Y-92393358D01*
X60993358Y-92502141D01*
X60907887Y-92630058D01*
X60849013Y-92772191D01*
X60819000Y-92923078D01*
X37713748Y-92923078D01*
X37723693Y-92899069D01*
X37771000Y-92661243D01*
X37771000Y-92418757D01*
X37723693Y-92180931D01*
X37630898Y-91956903D01*
X37496180Y-91755283D01*
X37324717Y-91583820D01*
X37123097Y-91449102D01*
X36899069Y-91356307D01*
X36661243Y-91309000D01*
X36418757Y-91309000D01*
X36180931Y-91356307D01*
X35956903Y-91449102D01*
X35755283Y-91583820D01*
X35583820Y-91755283D01*
X35449102Y-91956903D01*
X35356307Y-92180931D01*
X35309000Y-92418757D01*
X35231000Y-92418757D01*
X35183693Y-92180931D01*
X35090898Y-91956903D01*
X34956180Y-91755283D01*
X34784717Y-91583820D01*
X34583097Y-91449102D01*
X34359069Y-91356307D01*
X34121243Y-91309000D01*
X33878757Y-91309000D01*
X33640931Y-91356307D01*
X33416903Y-91449102D01*
X33215283Y-91583820D01*
X33043820Y-91755283D01*
X32909102Y-91956903D01*
X32816307Y-92180931D01*
X32769000Y-92418757D01*
X29127000Y-92418757D01*
X29127000Y-89150000D01*
X32767157Y-89150000D01*
X32767157Y-90850000D01*
X32774513Y-90924689D01*
X32796299Y-90996508D01*
X32831678Y-91062696D01*
X32879289Y-91120711D01*
X32937304Y-91168322D01*
X33003492Y-91203701D01*
X33075311Y-91225487D01*
X33150000Y-91232843D01*
X34850000Y-91232843D01*
X34924689Y-91225487D01*
X34996508Y-91203701D01*
X35062696Y-91168322D01*
X35120711Y-91120711D01*
X35168322Y-91062696D01*
X35203701Y-90996508D01*
X35225487Y-90924689D01*
X35232843Y-90850000D01*
X35232843Y-89878757D01*
X35309000Y-89878757D01*
X35309000Y-90121243D01*
X35356307Y-90359069D01*
X35449102Y-90583097D01*
X35583820Y-90784717D01*
X35755283Y-90956180D01*
X35956903Y-91090898D01*
X36180931Y-91183693D01*
X36418757Y-91231000D01*
X36661243Y-91231000D01*
X36899069Y-91183693D01*
X37123097Y-91090898D01*
X37324717Y-90956180D01*
X37496180Y-90784717D01*
X37630898Y-90583097D01*
X37723693Y-90359069D01*
X37771000Y-90121243D01*
X37771000Y-89878757D01*
X37723693Y-89640931D01*
X37630898Y-89416903D01*
X37496180Y-89215283D01*
X37324717Y-89043820D01*
X37123097Y-88909102D01*
X36899069Y-88816307D01*
X36661243Y-88769000D01*
X36418757Y-88769000D01*
X36180931Y-88816307D01*
X35956903Y-88909102D01*
X35755283Y-89043820D01*
X35583820Y-89215283D01*
X35449102Y-89416903D01*
X35356307Y-89640931D01*
X35309000Y-89878757D01*
X35232843Y-89878757D01*
X35232843Y-89150000D01*
X35225487Y-89075311D01*
X35203701Y-89003492D01*
X35168322Y-88937304D01*
X35120711Y-88879289D01*
X35062696Y-88831678D01*
X34996508Y-88796299D01*
X34924689Y-88774513D01*
X34850000Y-88767157D01*
X33150000Y-88767157D01*
X33075311Y-88774513D01*
X33003492Y-88796299D01*
X32937304Y-88831678D01*
X32879289Y-88879289D01*
X32831678Y-88937304D01*
X32796299Y-89003492D01*
X32774513Y-89075311D01*
X32767157Y-89150000D01*
X29127000Y-89150000D01*
X29127000Y-85936980D01*
X32810511Y-85936980D01*
X32834866Y-86017288D01*
X32934761Y-86236961D01*
X33075592Y-86432924D01*
X33251948Y-86597647D01*
X33457051Y-86724799D01*
X33683019Y-86809495D01*
X33873000Y-86749187D01*
X33873000Y-85747000D01*
X34127000Y-85747000D01*
X34127000Y-86749187D01*
X34316981Y-86809495D01*
X34542949Y-86724799D01*
X34748052Y-86597647D01*
X34924408Y-86432924D01*
X35065239Y-86236961D01*
X35165134Y-86017288D01*
X35189489Y-85936980D01*
X35128627Y-85747000D01*
X34127000Y-85747000D01*
X33873000Y-85747000D01*
X32871373Y-85747000D01*
X32810511Y-85936980D01*
X29127000Y-85936980D01*
X29127000Y-85498757D01*
X35309000Y-85498757D01*
X35309000Y-85741243D01*
X35356307Y-85979069D01*
X35449102Y-86203097D01*
X35583820Y-86404717D01*
X35755283Y-86576180D01*
X35956903Y-86710898D01*
X36180931Y-86803693D01*
X36418757Y-86851000D01*
X36661243Y-86851000D01*
X36899069Y-86803693D01*
X37123097Y-86710898D01*
X37324717Y-86576180D01*
X37496180Y-86404717D01*
X37630898Y-86203097D01*
X37723693Y-85979069D01*
X37771000Y-85741243D01*
X37771000Y-85498757D01*
X37723693Y-85260931D01*
X37630898Y-85036903D01*
X37496180Y-84835283D01*
X37324717Y-84663820D01*
X37123097Y-84529102D01*
X36899069Y-84436307D01*
X36661243Y-84389000D01*
X36418757Y-84389000D01*
X36180931Y-84436307D01*
X35956903Y-84529102D01*
X35755283Y-84663820D01*
X35583820Y-84835283D01*
X35449102Y-85036903D01*
X35356307Y-85260931D01*
X35309000Y-85498757D01*
X29127000Y-85498757D01*
X29127000Y-84132927D01*
X31094040Y-84132927D01*
X31094040Y-84267073D01*
X31120211Y-84398640D01*
X31171546Y-84522574D01*
X31246073Y-84634112D01*
X31340928Y-84728967D01*
X31452466Y-84803494D01*
X31576400Y-84854829D01*
X31707967Y-84881000D01*
X31817569Y-84881000D01*
X31875847Y-84898678D01*
X31975040Y-84908448D01*
X31999894Y-84906000D01*
X33004499Y-84906000D01*
X32934761Y-85003039D01*
X32834866Y-85222712D01*
X32810511Y-85303020D01*
X32871373Y-85493000D01*
X33873000Y-85493000D01*
X33873000Y-85473000D01*
X34127000Y-85473000D01*
X34127000Y-85493000D01*
X35128627Y-85493000D01*
X35189489Y-85303020D01*
X35165134Y-85222712D01*
X35065239Y-85003039D01*
X34995501Y-84906000D01*
X35195154Y-84906000D01*
X35220000Y-84908447D01*
X35244846Y-84906000D01*
X35244854Y-84906000D01*
X35319193Y-84898678D01*
X35414575Y-84869745D01*
X35502479Y-84822759D01*
X35579527Y-84759527D01*
X35595376Y-84740215D01*
X36103833Y-84231758D01*
X36180931Y-84263693D01*
X36418757Y-84311000D01*
X36661243Y-84311000D01*
X36899069Y-84263693D01*
X37123097Y-84170898D01*
X37324717Y-84036180D01*
X37496180Y-83864717D01*
X37630898Y-83663097D01*
X37723693Y-83439069D01*
X37771000Y-83201243D01*
X37771000Y-82958757D01*
X37723693Y-82720931D01*
X37630898Y-82496903D01*
X37496180Y-82295283D01*
X37324717Y-82123820D01*
X37123097Y-81989102D01*
X36899069Y-81896307D01*
X36661243Y-81849000D01*
X36418757Y-81849000D01*
X36180931Y-81896307D01*
X35956903Y-81989102D01*
X35755283Y-82123820D01*
X35583820Y-82295283D01*
X35449102Y-82496903D01*
X35356307Y-82720931D01*
X35309000Y-82958757D01*
X35309000Y-83201243D01*
X35356307Y-83439069D01*
X35388242Y-83516167D01*
X35010409Y-83894000D01*
X34926897Y-83894000D01*
X34956180Y-83864717D01*
X35090898Y-83663097D01*
X35183693Y-83439069D01*
X35231000Y-83201243D01*
X35231000Y-82958757D01*
X35183693Y-82720931D01*
X35090898Y-82496903D01*
X34956180Y-82295283D01*
X34784717Y-82123820D01*
X34583097Y-81989102D01*
X34359069Y-81896307D01*
X34121243Y-81849000D01*
X33878757Y-81849000D01*
X33640931Y-81896307D01*
X33416903Y-81989102D01*
X33215283Y-82123820D01*
X33043820Y-82295283D01*
X32909102Y-82496903D01*
X32816307Y-82720931D01*
X32769000Y-82958757D01*
X32769000Y-83201243D01*
X32816307Y-83439069D01*
X32909102Y-83663097D01*
X33043820Y-83864717D01*
X33073103Y-83894000D01*
X32385399Y-83894000D01*
X32378534Y-83877426D01*
X32304007Y-83765888D01*
X32209152Y-83671033D01*
X32097614Y-83596506D01*
X31973680Y-83545171D01*
X31842113Y-83519000D01*
X31707967Y-83519000D01*
X31576400Y-83545171D01*
X31452466Y-83596506D01*
X31340928Y-83671033D01*
X31246073Y-83765888D01*
X31171546Y-83877426D01*
X31120211Y-84001360D01*
X31094040Y-84132927D01*
X29127000Y-84132927D01*
X29127000Y-77932927D01*
X30494030Y-77932927D01*
X30494030Y-78067073D01*
X30520201Y-78198640D01*
X30571536Y-78322574D01*
X30646063Y-78434112D01*
X30740918Y-78528967D01*
X30852456Y-78603494D01*
X30976390Y-78654829D01*
X31107957Y-78681000D01*
X31242103Y-78681000D01*
X31373670Y-78654829D01*
X31497604Y-78603494D01*
X31609142Y-78528967D01*
X31632109Y-78506000D01*
X32767157Y-78506000D01*
X32767157Y-78850000D01*
X32774513Y-78924689D01*
X32796299Y-78996508D01*
X32831678Y-79062696D01*
X32879289Y-79120711D01*
X32937304Y-79168322D01*
X33003492Y-79203701D01*
X33075311Y-79225487D01*
X33150000Y-79232843D01*
X34591565Y-79232843D01*
X34436167Y-79388242D01*
X34359069Y-79356307D01*
X34121243Y-79309000D01*
X33878757Y-79309000D01*
X33640931Y-79356307D01*
X33416903Y-79449102D01*
X33215283Y-79583820D01*
X33043820Y-79755283D01*
X32909102Y-79956903D01*
X32816307Y-80180931D01*
X32769000Y-80418757D01*
X32769000Y-80661243D01*
X32816307Y-80899069D01*
X32909102Y-81123097D01*
X33043820Y-81324717D01*
X33215283Y-81496180D01*
X33416903Y-81630898D01*
X33640931Y-81723693D01*
X33878757Y-81771000D01*
X34121243Y-81771000D01*
X34359069Y-81723693D01*
X34583097Y-81630898D01*
X34784717Y-81496180D01*
X34956180Y-81324717D01*
X35090898Y-81123097D01*
X35183693Y-80899069D01*
X35231000Y-80661243D01*
X35231000Y-80418757D01*
X35183693Y-80180931D01*
X35151758Y-80103833D01*
X35384593Y-79870999D01*
X35506501Y-79870999D01*
X35449102Y-79956903D01*
X35356307Y-80180931D01*
X35309000Y-80418757D01*
X35309000Y-80661243D01*
X35356307Y-80899069D01*
X35449102Y-81123097D01*
X35583820Y-81324717D01*
X35755283Y-81496180D01*
X35956903Y-81630898D01*
X36180931Y-81723693D01*
X36418757Y-81771000D01*
X36661243Y-81771000D01*
X36899069Y-81723693D01*
X37123097Y-81630898D01*
X37324717Y-81496180D01*
X37496180Y-81324717D01*
X37630898Y-81123097D01*
X37723693Y-80899069D01*
X37771000Y-80661243D01*
X37771000Y-80573078D01*
X81169000Y-80573078D01*
X81169000Y-80726922D01*
X81199013Y-80877809D01*
X81257887Y-81019942D01*
X81343358Y-81147859D01*
X81444000Y-81248501D01*
X81444001Y-89451498D01*
X81343358Y-89552141D01*
X81257887Y-89680058D01*
X81199013Y-89822191D01*
X81169000Y-89973078D01*
X81169000Y-90126922D01*
X81199013Y-90277809D01*
X81257887Y-90419942D01*
X81343358Y-90547859D01*
X81444000Y-90648501D01*
X81444001Y-98651498D01*
X81343358Y-98752141D01*
X81257887Y-98880058D01*
X81199013Y-99022191D01*
X81169000Y-99173078D01*
X81169000Y-99326922D01*
X81199013Y-99477809D01*
X81257887Y-99619942D01*
X81343358Y-99747859D01*
X81452141Y-99856642D01*
X81580058Y-99942113D01*
X81722191Y-100000987D01*
X81873078Y-100031000D01*
X82026922Y-100031000D01*
X82177809Y-100000987D01*
X82319942Y-99942113D01*
X82447859Y-99856642D01*
X82556642Y-99747859D01*
X82642113Y-99619942D01*
X82700987Y-99477809D01*
X82731000Y-99326922D01*
X82731000Y-99173078D01*
X82700987Y-99022191D01*
X82642113Y-98880058D01*
X82556642Y-98752141D01*
X82456000Y-98651499D01*
X82456000Y-90648501D01*
X82556642Y-90547859D01*
X82642113Y-90419942D01*
X82700987Y-90277809D01*
X82731000Y-90126922D01*
X82731000Y-89973078D01*
X82700987Y-89822191D01*
X82642113Y-89680058D01*
X82556642Y-89552141D01*
X82456000Y-89451499D01*
X82456000Y-81248501D01*
X82556642Y-81147859D01*
X82642113Y-81019942D01*
X82700987Y-80877809D01*
X82731000Y-80726922D01*
X82731000Y-80573078D01*
X82700987Y-80422191D01*
X82642113Y-80280058D01*
X82556642Y-80152141D01*
X82506000Y-80101499D01*
X82506000Y-71798501D01*
X82606642Y-71697859D01*
X82692113Y-71569942D01*
X82750987Y-71427809D01*
X82781000Y-71276922D01*
X82781000Y-71123078D01*
X82750987Y-70972191D01*
X82692113Y-70830058D01*
X82606642Y-70702141D01*
X82497859Y-70593358D01*
X82369942Y-70507887D01*
X82227809Y-70449013D01*
X82076922Y-70419000D01*
X81923078Y-70419000D01*
X81772191Y-70449013D01*
X81630058Y-70507887D01*
X81502141Y-70593358D01*
X81393358Y-70702141D01*
X81307887Y-70830058D01*
X81249013Y-70972191D01*
X81219000Y-71123078D01*
X81219000Y-71276922D01*
X81249013Y-71427809D01*
X81307887Y-71569942D01*
X81393358Y-71697859D01*
X81494000Y-71798501D01*
X81494001Y-80015388D01*
X81452141Y-80043358D01*
X81343358Y-80152141D01*
X81257887Y-80280058D01*
X81199013Y-80422191D01*
X81169000Y-80573078D01*
X37771000Y-80573078D01*
X37771000Y-80418757D01*
X37723693Y-80180931D01*
X37630898Y-79956903D01*
X37573499Y-79870999D01*
X44719781Y-79870999D01*
X44745171Y-79998640D01*
X44796506Y-80122574D01*
X44871033Y-80234112D01*
X44965888Y-80328967D01*
X45077426Y-80403494D01*
X45201360Y-80454829D01*
X45332927Y-80481000D01*
X45467073Y-80481000D01*
X45598640Y-80454829D01*
X45722574Y-80403494D01*
X45834112Y-80328967D01*
X45928967Y-80234112D01*
X46003494Y-80122574D01*
X46054829Y-79998640D01*
X46081000Y-79867073D01*
X46081000Y-79732927D01*
X46054829Y-79601360D01*
X46003494Y-79477426D01*
X45928967Y-79365888D01*
X45834112Y-79271033D01*
X45722574Y-79196506D01*
X45598640Y-79145171D01*
X45467073Y-79119000D01*
X45434591Y-79119000D01*
X45340375Y-79024784D01*
X45324526Y-79005472D01*
X45247478Y-78942240D01*
X45159574Y-78895254D01*
X45064192Y-78866321D01*
X44989853Y-78858999D01*
X44989845Y-78858999D01*
X44964999Y-78856552D01*
X44940153Y-78858999D01*
X37421898Y-78858999D01*
X37496180Y-78784717D01*
X37630898Y-78583097D01*
X37723693Y-78359069D01*
X37771000Y-78121243D01*
X37771000Y-77878757D01*
X37723693Y-77640931D01*
X37630898Y-77416903D01*
X37496180Y-77215283D01*
X37324717Y-77043820D01*
X37123097Y-76909102D01*
X36899069Y-76816307D01*
X36661243Y-76769000D01*
X36418757Y-76769000D01*
X36180931Y-76816307D01*
X35956903Y-76909102D01*
X35755283Y-77043820D01*
X35681001Y-77118102D01*
X35681001Y-76724846D01*
X35683448Y-76700000D01*
X35681001Y-76675154D01*
X35681001Y-76675147D01*
X35673679Y-76600808D01*
X35673022Y-76598640D01*
X35666945Y-76578608D01*
X35644746Y-76505426D01*
X35597760Y-76417522D01*
X35556000Y-76366638D01*
X35556000Y-76332927D01*
X35529829Y-76201360D01*
X35478494Y-76077426D01*
X35403967Y-75965888D01*
X35309112Y-75871033D01*
X35252083Y-75832927D01*
X45119000Y-75832927D01*
X45119000Y-75967073D01*
X45145171Y-76098640D01*
X45196506Y-76222574D01*
X45271033Y-76334112D01*
X45365888Y-76428967D01*
X45477426Y-76503494D01*
X45601360Y-76554829D01*
X45732927Y-76581000D01*
X45867073Y-76581000D01*
X45998640Y-76554829D01*
X46122574Y-76503494D01*
X46234112Y-76428967D01*
X46257079Y-76406000D01*
X54452249Y-76406000D01*
X54471033Y-76434112D01*
X54565888Y-76528967D01*
X54677426Y-76603494D01*
X54801360Y-76654829D01*
X54932927Y-76681000D01*
X55067073Y-76681000D01*
X55198640Y-76654829D01*
X55322574Y-76603494D01*
X55434112Y-76528967D01*
X55528967Y-76434112D01*
X55603494Y-76322574D01*
X55654829Y-76198640D01*
X55681000Y-76067073D01*
X55681000Y-75932927D01*
X55654829Y-75801360D01*
X55603494Y-75677426D01*
X55528967Y-75565888D01*
X55434112Y-75471033D01*
X55322574Y-75396506D01*
X55198640Y-75345171D01*
X55067073Y-75319000D01*
X54932927Y-75319000D01*
X54801360Y-75345171D01*
X54683476Y-75394000D01*
X46257079Y-75394000D01*
X46234112Y-75371033D01*
X46122574Y-75296506D01*
X45998640Y-75245171D01*
X45867073Y-75219000D01*
X45732927Y-75219000D01*
X45601360Y-75245171D01*
X45477426Y-75296506D01*
X45365888Y-75371033D01*
X45271033Y-75465888D01*
X45196506Y-75577426D01*
X45145171Y-75701360D01*
X45119000Y-75832927D01*
X35252083Y-75832927D01*
X35197574Y-75796506D01*
X35073640Y-75745171D01*
X34942073Y-75719000D01*
X34807927Y-75719000D01*
X34676360Y-75745171D01*
X34552426Y-75796506D01*
X34440888Y-75871033D01*
X34346033Y-75965888D01*
X34271506Y-76077426D01*
X34220171Y-76201360D01*
X34194000Y-76332927D01*
X34194000Y-76467073D01*
X34220171Y-76598640D01*
X34271506Y-76722574D01*
X34301295Y-76767157D01*
X33150000Y-76767157D01*
X33075311Y-76774513D01*
X33003492Y-76796299D01*
X32937304Y-76831678D01*
X32879289Y-76879289D01*
X32831678Y-76937304D01*
X32796299Y-77003492D01*
X32774513Y-77075311D01*
X32767157Y-77150000D01*
X32767157Y-77494000D01*
X31632109Y-77494000D01*
X31609142Y-77471033D01*
X31497604Y-77396506D01*
X31373670Y-77345171D01*
X31242103Y-77319000D01*
X31107957Y-77319000D01*
X30976390Y-77345171D01*
X30852456Y-77396506D01*
X30740918Y-77471033D01*
X30646063Y-77565888D01*
X30571536Y-77677426D01*
X30520201Y-77801360D01*
X30494030Y-77932927D01*
X29127000Y-77932927D01*
X29127000Y-74332927D01*
X29719000Y-74332927D01*
X29719000Y-74467073D01*
X29745171Y-74598640D01*
X29796506Y-74722574D01*
X29871033Y-74834112D01*
X29965888Y-74928967D01*
X30071067Y-74999245D01*
X30070191Y-75001360D01*
X30044020Y-75132927D01*
X30044020Y-75267073D01*
X30070191Y-75398640D01*
X30121526Y-75522574D01*
X30196053Y-75634112D01*
X30290908Y-75728967D01*
X30402446Y-75803494D01*
X30526380Y-75854829D01*
X30657947Y-75881000D01*
X30792093Y-75881000D01*
X30923660Y-75854829D01*
X31047594Y-75803494D01*
X31159132Y-75728967D01*
X31182099Y-75706000D01*
X31375119Y-75706000D01*
X31375149Y-75706003D01*
X31375156Y-75706003D01*
X31400002Y-75708450D01*
X31424848Y-75706003D01*
X41284554Y-75706003D01*
X41309400Y-75708450D01*
X41334246Y-75706003D01*
X41334254Y-75706003D01*
X41408593Y-75698681D01*
X41503975Y-75669748D01*
X41588139Y-75624761D01*
X41632715Y-75624761D01*
X41764282Y-75598590D01*
X41888216Y-75547255D01*
X41999754Y-75472728D01*
X42094609Y-75377873D01*
X42169136Y-75266335D01*
X42220471Y-75142401D01*
X42246642Y-75010834D01*
X42246642Y-74876688D01*
X42220471Y-74745121D01*
X42169136Y-74621187D01*
X42094609Y-74509649D01*
X41999754Y-74414794D01*
X41888216Y-74340267D01*
X41764282Y-74288932D01*
X41632715Y-74262761D01*
X41538841Y-74262761D01*
X41503494Y-74177426D01*
X41428967Y-74065888D01*
X41334112Y-73971033D01*
X41222574Y-73896506D01*
X41098640Y-73845171D01*
X40967073Y-73819000D01*
X40832927Y-73819000D01*
X40701360Y-73845171D01*
X40577426Y-73896506D01*
X40465888Y-73971033D01*
X40442921Y-73994000D01*
X36902900Y-73994000D01*
X36882479Y-73977241D01*
X36794575Y-73930255D01*
X36699193Y-73901322D01*
X36624854Y-73894000D01*
X36624846Y-73894000D01*
X36600000Y-73891553D01*
X36575154Y-73894000D01*
X30857079Y-73894000D01*
X30834112Y-73871033D01*
X30722574Y-73796506D01*
X30598640Y-73745171D01*
X30467073Y-73719000D01*
X30332927Y-73719000D01*
X30201360Y-73745171D01*
X30077426Y-73796506D01*
X29965888Y-73871033D01*
X29871033Y-73965888D01*
X29796506Y-74077426D01*
X29745171Y-74201360D01*
X29719000Y-74332927D01*
X29127000Y-74332927D01*
X29127000Y-62132927D01*
X30544000Y-62132927D01*
X30544000Y-62267073D01*
X30570171Y-62398640D01*
X30621506Y-62522574D01*
X30696033Y-62634112D01*
X30790888Y-62728967D01*
X30902426Y-62803494D01*
X31026360Y-62854829D01*
X31157927Y-62881000D01*
X31249885Y-62881000D01*
X31249885Y-62892073D01*
X31276056Y-63023640D01*
X31327391Y-63147574D01*
X31401918Y-63259112D01*
X31496773Y-63353967D01*
X31608311Y-63428494D01*
X31732245Y-63479829D01*
X31773863Y-63488108D01*
X31696083Y-63565888D01*
X31621556Y-63677426D01*
X31570221Y-63801360D01*
X31544050Y-63932927D01*
X31544050Y-64067073D01*
X31570221Y-64198640D01*
X31621556Y-64322574D01*
X31696083Y-64434112D01*
X31790938Y-64528967D01*
X31902476Y-64603494D01*
X32026410Y-64654829D01*
X32157977Y-64681000D01*
X32292123Y-64681000D01*
X32423690Y-64654829D01*
X32547624Y-64603494D01*
X32659162Y-64528967D01*
X32681083Y-64507046D01*
X32695307Y-64508447D01*
X32720153Y-64506000D01*
X32720161Y-64506000D01*
X32794500Y-64498678D01*
X32889882Y-64469745D01*
X32977786Y-64422759D01*
X33054834Y-64359527D01*
X33070683Y-64340215D01*
X33904859Y-63506040D01*
X37046480Y-63506038D01*
X37059933Y-63573670D01*
X37111268Y-63697604D01*
X37185795Y-63809142D01*
X37280650Y-63903997D01*
X37311986Y-63924935D01*
X37271033Y-63965888D01*
X37196506Y-64077426D01*
X37145171Y-64201360D01*
X37119000Y-64332927D01*
X37119000Y-64467073D01*
X37145171Y-64598640D01*
X37196506Y-64722574D01*
X37271033Y-64834112D01*
X37365888Y-64928967D01*
X37472197Y-65000000D01*
X37365888Y-65071033D01*
X37271033Y-65165888D01*
X37196506Y-65277426D01*
X37145171Y-65401360D01*
X37119000Y-65532927D01*
X37119000Y-65667073D01*
X37145171Y-65798640D01*
X37196506Y-65922574D01*
X37271033Y-66034112D01*
X37365888Y-66128967D01*
X37472197Y-66200000D01*
X37365888Y-66271033D01*
X37271033Y-66365888D01*
X37196506Y-66477426D01*
X37145171Y-66601360D01*
X37119000Y-66732927D01*
X37119000Y-66867073D01*
X37145171Y-66998640D01*
X37196506Y-67122574D01*
X37255635Y-67211067D01*
X37165888Y-67271033D01*
X37071033Y-67365888D01*
X36996506Y-67477426D01*
X36945171Y-67601360D01*
X36919000Y-67732927D01*
X36919000Y-67867073D01*
X36945171Y-67998640D01*
X36996506Y-68122574D01*
X37071033Y-68234112D01*
X37118313Y-68281392D01*
X37090117Y-68309588D01*
X37015590Y-68421126D01*
X36964255Y-68545060D01*
X36938084Y-68676627D01*
X36938084Y-68810773D01*
X36964255Y-68942340D01*
X37015590Y-69066274D01*
X37090117Y-69177812D01*
X37184972Y-69272667D01*
X37296510Y-69347194D01*
X37420444Y-69398529D01*
X37552011Y-69424700D01*
X37659709Y-69424700D01*
X37529717Y-69554692D01*
X37497235Y-69554692D01*
X37365668Y-69580863D01*
X37241734Y-69632198D01*
X37130196Y-69706725D01*
X37035341Y-69801580D01*
X36960814Y-69913118D01*
X36909479Y-70037052D01*
X36883308Y-70168619D01*
X36883308Y-70302765D01*
X36909479Y-70434332D01*
X36960814Y-70558266D01*
X37035341Y-70669804D01*
X37130196Y-70764659D01*
X37241734Y-70839186D01*
X37332659Y-70876848D01*
X37259781Y-70949726D01*
X37240474Y-70965571D01*
X37177242Y-71042619D01*
X37152127Y-71089606D01*
X37130255Y-71130524D01*
X37101322Y-71225906D01*
X37091553Y-71325098D01*
X37093370Y-71343551D01*
X37071033Y-71365888D01*
X36996506Y-71477426D01*
X36945171Y-71601360D01*
X36919000Y-71732927D01*
X36919000Y-71867073D01*
X36945171Y-71998640D01*
X36996506Y-72122574D01*
X37071033Y-72234112D01*
X37165888Y-72328967D01*
X37277426Y-72403494D01*
X37401360Y-72454829D01*
X37532927Y-72481000D01*
X37667073Y-72481000D01*
X37798640Y-72454829D01*
X37922574Y-72403494D01*
X38034112Y-72328967D01*
X38128967Y-72234112D01*
X38203494Y-72122574D01*
X38254829Y-71998640D01*
X38281000Y-71867073D01*
X38281000Y-71732927D01*
X38254829Y-71601360D01*
X38203494Y-71477426D01*
X38187380Y-71453309D01*
X42609592Y-67031098D01*
X48464246Y-67031098D01*
X48443990Y-67132927D01*
X48443990Y-67267073D01*
X48470161Y-67398640D01*
X48521496Y-67522574D01*
X48596023Y-67634112D01*
X48690878Y-67728967D01*
X48802416Y-67803494D01*
X48926350Y-67854829D01*
X49020281Y-67873514D01*
X49045171Y-67998640D01*
X49096506Y-68122574D01*
X49171033Y-68234112D01*
X49265888Y-68328967D01*
X49377426Y-68403494D01*
X49501360Y-68454829D01*
X49632927Y-68481000D01*
X49741662Y-68481000D01*
X49745171Y-68498640D01*
X49796506Y-68622574D01*
X49871033Y-68734112D01*
X49965888Y-68828967D01*
X50077426Y-68903494D01*
X50201360Y-68954829D01*
X50332927Y-68981000D01*
X50467073Y-68981000D01*
X50598640Y-68954829D01*
X50722574Y-68903494D01*
X50834112Y-68828967D01*
X50928967Y-68734112D01*
X51003494Y-68622574D01*
X51054829Y-68498640D01*
X51073257Y-68406000D01*
X58817589Y-68406000D01*
X60651808Y-70240220D01*
X60667653Y-70259527D01*
X60744701Y-70322759D01*
X60832605Y-70369745D01*
X60927986Y-70398678D01*
X60937874Y-70399652D01*
X61002326Y-70406000D01*
X61002333Y-70406000D01*
X61027179Y-70408447D01*
X61052025Y-70406000D01*
X62142921Y-70406000D01*
X62165888Y-70428967D01*
X62277426Y-70503494D01*
X62401360Y-70554829D01*
X62532927Y-70581000D01*
X62667073Y-70581000D01*
X62798640Y-70554829D01*
X62922574Y-70503494D01*
X63034112Y-70428967D01*
X63128967Y-70334112D01*
X63203494Y-70222574D01*
X63254829Y-70098640D01*
X63281000Y-69967073D01*
X63281000Y-69832927D01*
X63254829Y-69701360D01*
X63203494Y-69577426D01*
X63128967Y-69465888D01*
X63034112Y-69371033D01*
X62936787Y-69306003D01*
X63542921Y-69306003D01*
X63565888Y-69328970D01*
X63677426Y-69403497D01*
X63801360Y-69454832D01*
X63932927Y-69481003D01*
X64067073Y-69481003D01*
X64198640Y-69454832D01*
X64322574Y-69403497D01*
X64434112Y-69328970D01*
X64528967Y-69234115D01*
X64603494Y-69122577D01*
X64654829Y-68998643D01*
X64681000Y-68867076D01*
X64681000Y-68732930D01*
X64654829Y-68601363D01*
X64603494Y-68477429D01*
X64551759Y-68400002D01*
X64603494Y-68322574D01*
X64654829Y-68198640D01*
X64681000Y-68067073D01*
X64681000Y-67932927D01*
X64654829Y-67801360D01*
X64603494Y-67677426D01*
X64528967Y-67565888D01*
X64434112Y-67471033D01*
X64322574Y-67396506D01*
X64198640Y-67345171D01*
X64067073Y-67319000D01*
X63932927Y-67319000D01*
X63801360Y-67345171D01*
X63677426Y-67396506D01*
X63565888Y-67471033D01*
X63542921Y-67494000D01*
X60609592Y-67494000D01*
X60146688Y-67031097D01*
X76284271Y-67031096D01*
X76284281Y-67031097D01*
X77204291Y-67031097D01*
X77229137Y-67033544D01*
X77253983Y-67031097D01*
X77253991Y-67031097D01*
X77328330Y-67023775D01*
X77423712Y-66994842D01*
X77511616Y-66947856D01*
X77588664Y-66884624D01*
X77604513Y-66865312D01*
X83488826Y-60981000D01*
X83567073Y-60981000D01*
X83698640Y-60954829D01*
X83822574Y-60903494D01*
X83934112Y-60828967D01*
X84028967Y-60734112D01*
X84103494Y-60622574D01*
X84154829Y-60498640D01*
X84181000Y-60367073D01*
X84181000Y-60232927D01*
X84154829Y-60101360D01*
X84103494Y-59977426D01*
X84028967Y-59865888D01*
X83934112Y-59771033D01*
X83848529Y-59713849D01*
X83854829Y-59698640D01*
X83881000Y-59567073D01*
X83881000Y-59432927D01*
X83854829Y-59301360D01*
X83803494Y-59177426D01*
X83728967Y-59065888D01*
X83634112Y-58971033D01*
X83522574Y-58896506D01*
X83398640Y-58845171D01*
X83267073Y-58819000D01*
X83132927Y-58819000D01*
X83001360Y-58845171D01*
X82877426Y-58896506D01*
X82765888Y-58971033D01*
X82671033Y-59065888D01*
X82596506Y-59177426D01*
X82545171Y-59301360D01*
X82519000Y-59432927D01*
X82519000Y-59465409D01*
X82359780Y-59624629D01*
X82340474Y-59640473D01*
X82277242Y-59717521D01*
X82264782Y-59740832D01*
X82230255Y-59805426D01*
X82213148Y-59861823D01*
X82115395Y-59796507D01*
X81991461Y-59745172D01*
X81859894Y-59719001D01*
X81725748Y-59719001D01*
X81721098Y-59719926D01*
X81703494Y-59677426D01*
X81628967Y-59565888D01*
X81534112Y-59471033D01*
X81422574Y-59396506D01*
X81298640Y-59345171D01*
X81167073Y-59319000D01*
X81032927Y-59319000D01*
X80901360Y-59345171D01*
X80777426Y-59396506D01*
X80665888Y-59471033D01*
X80571033Y-59565888D01*
X80496506Y-59677426D01*
X80445171Y-59801360D01*
X80421428Y-59920722D01*
X80403494Y-59877426D01*
X80328967Y-59765888D01*
X80234112Y-59671033D01*
X80122574Y-59596506D01*
X79998640Y-59545171D01*
X79867073Y-59519000D01*
X79732927Y-59519000D01*
X79601360Y-59545171D01*
X79477426Y-59596506D01*
X79365888Y-59671033D01*
X79271033Y-59765888D01*
X79196506Y-59877426D01*
X79145171Y-60001360D01*
X79119000Y-60132927D01*
X79119000Y-60165408D01*
X76949094Y-62335315D01*
X76867073Y-62319000D01*
X76732927Y-62319000D01*
X76601360Y-62345171D01*
X76480360Y-62395291D01*
X76481000Y-62392072D01*
X76481000Y-62257926D01*
X76477128Y-62238463D01*
X77834592Y-60881000D01*
X77867073Y-60881000D01*
X77998640Y-60854829D01*
X78122574Y-60803494D01*
X78234112Y-60728967D01*
X78328967Y-60634112D01*
X78403494Y-60522574D01*
X78454829Y-60398640D01*
X78481000Y-60267073D01*
X78481000Y-60132927D01*
X78454829Y-60001360D01*
X78403494Y-59877426D01*
X78328967Y-59765888D01*
X78234112Y-59671033D01*
X78122574Y-59596506D01*
X77998640Y-59545171D01*
X77867073Y-59519000D01*
X77732927Y-59519000D01*
X77601360Y-59545171D01*
X77477426Y-59596506D01*
X77365888Y-59671033D01*
X77271033Y-59765888D01*
X77196506Y-59877426D01*
X77145171Y-60001360D01*
X77119000Y-60132927D01*
X77119000Y-60165408D01*
X75617437Y-61666972D01*
X75601360Y-61670170D01*
X75477426Y-61721505D01*
X75365888Y-61796032D01*
X75271033Y-61890887D01*
X75196506Y-62002425D01*
X75145171Y-62126359D01*
X75141973Y-62142435D01*
X73515359Y-63769050D01*
X70746541Y-63769050D01*
X72434592Y-62081000D01*
X72467073Y-62081000D01*
X72598640Y-62054829D01*
X72722574Y-62003494D01*
X72834112Y-61928967D01*
X72928967Y-61834112D01*
X73003494Y-61722574D01*
X73054829Y-61598640D01*
X73081000Y-61467073D01*
X73081000Y-61434591D01*
X73434592Y-61081000D01*
X73467073Y-61081000D01*
X73598640Y-61054829D01*
X73722574Y-61003494D01*
X73834112Y-60928967D01*
X73928967Y-60834112D01*
X74003494Y-60722574D01*
X74054829Y-60598640D01*
X74081000Y-60467073D01*
X74081000Y-60332927D01*
X74054829Y-60201360D01*
X74003494Y-60077426D01*
X73928967Y-59965888D01*
X73834112Y-59871033D01*
X73722574Y-59796506D01*
X73598640Y-59745171D01*
X73467073Y-59719000D01*
X73332927Y-59719000D01*
X73201360Y-59745171D01*
X73077426Y-59796506D01*
X72965888Y-59871033D01*
X72871033Y-59965888D01*
X72851960Y-59994433D01*
X72803494Y-59877426D01*
X72728967Y-59765888D01*
X72634112Y-59671033D01*
X72522574Y-59596506D01*
X72398640Y-59545171D01*
X72267073Y-59519000D01*
X72132927Y-59519000D01*
X72001360Y-59545171D01*
X71877426Y-59596506D01*
X71765888Y-59671033D01*
X71671033Y-59765888D01*
X71596506Y-59877426D01*
X71545171Y-60001360D01*
X71519000Y-60132927D01*
X71519000Y-60165408D01*
X69404516Y-62279893D01*
X69403494Y-62277426D01*
X69328967Y-62165888D01*
X69234112Y-62071033D01*
X69122574Y-61996506D01*
X68998640Y-61945171D01*
X68867073Y-61919000D01*
X68732927Y-61919000D01*
X68601360Y-61945171D01*
X68477426Y-61996506D01*
X68365888Y-62071033D01*
X68271033Y-62165888D01*
X68218820Y-62244030D01*
X67470671Y-62244030D01*
X67481000Y-62192103D01*
X67481000Y-62057957D01*
X67454829Y-61926390D01*
X67403494Y-61802456D01*
X67328967Y-61690918D01*
X67234112Y-61596063D01*
X67122574Y-61521536D01*
X66998640Y-61470201D01*
X66867073Y-61444030D01*
X66732927Y-61444030D01*
X66601360Y-61470201D01*
X66477426Y-61521536D01*
X66365888Y-61596063D01*
X66342921Y-61619030D01*
X62057079Y-61619030D01*
X62034112Y-61596063D01*
X61922574Y-61521536D01*
X61798640Y-61470201D01*
X61667073Y-61444030D01*
X61624711Y-61444030D01*
X61722574Y-61403494D01*
X61834112Y-61328967D01*
X61857079Y-61306000D01*
X62392922Y-61306000D01*
X62415889Y-61328967D01*
X62527427Y-61403494D01*
X62651361Y-61454829D01*
X62782928Y-61481000D01*
X62917074Y-61481000D01*
X63048641Y-61454829D01*
X63172575Y-61403494D01*
X63284113Y-61328967D01*
X63378968Y-61234112D01*
X63453495Y-61122574D01*
X63504830Y-60998640D01*
X63531001Y-60867073D01*
X63531001Y-60732927D01*
X63505753Y-60606001D01*
X64452250Y-60606001D01*
X64471033Y-60634112D01*
X64565888Y-60728967D01*
X64677426Y-60803494D01*
X64801360Y-60854829D01*
X64932927Y-60881000D01*
X65067073Y-60881000D01*
X65198640Y-60854829D01*
X65322574Y-60803494D01*
X65434112Y-60728967D01*
X65528967Y-60634112D01*
X65603494Y-60522574D01*
X65654829Y-60398640D01*
X65681000Y-60267073D01*
X65681000Y-60132927D01*
X65654829Y-60001360D01*
X65603494Y-59877426D01*
X65528967Y-59765888D01*
X65434112Y-59671033D01*
X65322574Y-59596506D01*
X65198640Y-59545171D01*
X65067073Y-59519000D01*
X64932927Y-59519000D01*
X64801360Y-59545171D01*
X64683474Y-59594001D01*
X55924853Y-59594001D01*
X55899999Y-59591553D01*
X55800806Y-59601323D01*
X55705424Y-59630256D01*
X55617520Y-59677242D01*
X55566638Y-59719000D01*
X55532927Y-59719000D01*
X55401360Y-59745171D01*
X55277426Y-59796506D01*
X55165888Y-59871033D01*
X55106003Y-59930918D01*
X55106003Y-57857079D01*
X55128970Y-57834112D01*
X55203497Y-57722574D01*
X55254832Y-57598640D01*
X55281003Y-57467073D01*
X55281003Y-57332927D01*
X55254832Y-57201360D01*
X55203497Y-57077426D01*
X55128970Y-56965888D01*
X55034115Y-56871033D01*
X54922577Y-56796506D01*
X54798643Y-56745171D01*
X54667076Y-56719000D01*
X54532930Y-56719000D01*
X54401363Y-56745171D01*
X54277429Y-56796506D01*
X54200002Y-56848241D01*
X54122574Y-56796506D01*
X53998640Y-56745171D01*
X53867073Y-56719000D01*
X53732927Y-56719000D01*
X53601360Y-56745171D01*
X53540811Y-56770251D01*
X53540533Y-56769835D01*
X53445678Y-56674980D01*
X53334140Y-56600453D01*
X53210206Y-56549118D01*
X53078639Y-56522947D01*
X52944493Y-56522947D01*
X52812926Y-56549118D01*
X52809522Y-56550528D01*
X52783409Y-56511446D01*
X52688554Y-56416591D01*
X52577016Y-56342064D01*
X52453082Y-56290729D01*
X52321515Y-56264558D01*
X52187369Y-56264558D01*
X52055802Y-56290729D01*
X51931868Y-56342064D01*
X51820330Y-56416591D01*
X51725475Y-56511446D01*
X51650948Y-56622984D01*
X51599613Y-56746918D01*
X51573442Y-56878485D01*
X51573442Y-57012631D01*
X51599613Y-57144198D01*
X51650948Y-57268132D01*
X51725475Y-57379670D01*
X51748443Y-57402638D01*
X51748443Y-57729586D01*
X51745995Y-57754442D01*
X51755764Y-57853634D01*
X51784697Y-57949016D01*
X51791832Y-57962364D01*
X51831684Y-58036921D01*
X51894916Y-58113969D01*
X51914223Y-58129814D01*
X52055556Y-58271147D01*
X52055557Y-60894000D01*
X37421592Y-60894000D01*
X37740222Y-60575370D01*
X37759527Y-60559527D01*
X37822759Y-60482479D01*
X37869745Y-60394575D01*
X37898678Y-60299193D01*
X37906000Y-60224854D01*
X37908448Y-60200000D01*
X37906000Y-60175146D01*
X37906000Y-55209581D01*
X38834593Y-54280989D01*
X38867074Y-54280989D01*
X38998641Y-54254818D01*
X39122575Y-54203483D01*
X39234113Y-54128956D01*
X39328968Y-54034101D01*
X39403495Y-53922563D01*
X39448394Y-53814166D01*
X39532927Y-53830981D01*
X39667073Y-53830981D01*
X39798640Y-53804810D01*
X39922574Y-53753475D01*
X40034112Y-53678948D01*
X40128967Y-53584093D01*
X40203494Y-53472555D01*
X40254829Y-53348621D01*
X40281000Y-53217054D01*
X40281000Y-53082908D01*
X40259567Y-52975158D01*
X41049628Y-53765220D01*
X41065473Y-53784527D01*
X41142521Y-53847759D01*
X41230425Y-53894745D01*
X41303607Y-53916944D01*
X41325806Y-53923678D01*
X41335694Y-53924652D01*
X41400146Y-53931000D01*
X41400153Y-53931000D01*
X41424999Y-53933447D01*
X41449845Y-53931000D01*
X42778408Y-53931000D01*
X41559785Y-55149624D01*
X41540473Y-55165473D01*
X41477241Y-55242521D01*
X41430255Y-55330426D01*
X41401322Y-55425808D01*
X41394000Y-55500147D01*
X41394000Y-55500154D01*
X41391553Y-55525000D01*
X41394000Y-55549846D01*
X41394001Y-57342920D01*
X41371033Y-57365888D01*
X41296506Y-57477426D01*
X41245171Y-57601360D01*
X41219000Y-57732927D01*
X41219000Y-57867073D01*
X41245171Y-57998640D01*
X41296506Y-58122574D01*
X41371033Y-58234112D01*
X41465888Y-58328967D01*
X41577426Y-58403494D01*
X41701360Y-58454829D01*
X41832927Y-58481000D01*
X41967073Y-58481000D01*
X42098640Y-58454829D01*
X42222574Y-58403494D01*
X42334112Y-58328967D01*
X42428967Y-58234112D01*
X42503494Y-58122574D01*
X42554829Y-57998640D01*
X42581000Y-57867073D01*
X42581000Y-57732927D01*
X42554829Y-57601360D01*
X42503494Y-57477426D01*
X42428967Y-57365888D01*
X42406000Y-57342921D01*
X42406000Y-55734591D01*
X44034592Y-54106000D01*
X44067073Y-54106000D01*
X44198640Y-54079829D01*
X44322574Y-54028494D01*
X44434112Y-53953967D01*
X44528967Y-53859112D01*
X44603494Y-53747574D01*
X44654829Y-53623640D01*
X44681000Y-53492073D01*
X44681000Y-53357927D01*
X44670671Y-53305999D01*
X45059040Y-53305999D01*
X45083886Y-53308446D01*
X45108732Y-53305999D01*
X45108740Y-53305999D01*
X45183079Y-53298677D01*
X45278461Y-53269744D01*
X45366365Y-53222758D01*
X45443413Y-53159526D01*
X45459262Y-53140214D01*
X46229084Y-52370393D01*
X46261565Y-52370393D01*
X46393132Y-52344222D01*
X46517066Y-52292887D01*
X46628604Y-52218360D01*
X46723459Y-52123505D01*
X46797986Y-52011967D01*
X46849321Y-51888033D01*
X46875492Y-51756466D01*
X46875492Y-51622320D01*
X46849321Y-51490753D01*
X46797986Y-51366819D01*
X46723459Y-51255281D01*
X46628604Y-51160426D01*
X46517066Y-51085899D01*
X46393132Y-51034564D01*
X46261565Y-51008393D01*
X46127419Y-51008393D01*
X45995852Y-51034564D01*
X45871918Y-51085899D01*
X45760380Y-51160426D01*
X45741942Y-51178864D01*
X45734112Y-51171034D01*
X45622574Y-51096507D01*
X45498640Y-51045172D01*
X45367073Y-51019001D01*
X45232927Y-51019001D01*
X45101360Y-51045172D01*
X44977426Y-51096507D01*
X44906786Y-51143707D01*
X44834112Y-51071033D01*
X44722574Y-50996506D01*
X44598640Y-50945171D01*
X44467073Y-50919000D01*
X44332927Y-50919000D01*
X44201360Y-50945171D01*
X44077426Y-50996506D01*
X43965888Y-51071033D01*
X43942921Y-51094000D01*
X43209592Y-51094000D01*
X42481000Y-50365409D01*
X42481000Y-50332927D01*
X42454829Y-50201360D01*
X42403494Y-50077426D01*
X42389893Y-50057070D01*
X42445267Y-50001696D01*
X42519794Y-49890158D01*
X42571129Y-49766224D01*
X42597300Y-49634657D01*
X42597300Y-49500511D01*
X42571129Y-49368944D01*
X42519794Y-49245010D01*
X42445267Y-49133472D01*
X42350412Y-49038617D01*
X42238874Y-48964090D01*
X42114940Y-48912755D01*
X41983373Y-48886584D01*
X41950892Y-48886584D01*
X40024092Y-46959785D01*
X40008243Y-46940473D01*
X39970762Y-46909713D01*
X39890898Y-46716903D01*
X39756180Y-46515283D01*
X39584717Y-46343820D01*
X39383097Y-46209102D01*
X39159069Y-46116307D01*
X38921243Y-46069000D01*
X38678757Y-46069000D01*
X38440931Y-46116307D01*
X38216903Y-46209102D01*
X38015283Y-46343820D01*
X37843820Y-46515283D01*
X37709102Y-46716903D01*
X37616307Y-46940931D01*
X37569000Y-47178757D01*
X37569000Y-47421243D01*
X37616307Y-47659069D01*
X37709102Y-47883097D01*
X37843820Y-48084717D01*
X38015283Y-48256180D01*
X38216903Y-48390898D01*
X38440931Y-48483693D01*
X38678757Y-48531000D01*
X38921243Y-48531000D01*
X39159069Y-48483693D01*
X39383097Y-48390898D01*
X39584717Y-48256180D01*
X39737011Y-48103886D01*
X41235300Y-49602176D01*
X41235300Y-49634657D01*
X41261471Y-49766224D01*
X41312806Y-49890158D01*
X41326407Y-49910514D01*
X41271033Y-49965888D01*
X41196506Y-50077426D01*
X41174102Y-50131513D01*
X40502374Y-49459785D01*
X40486525Y-49440473D01*
X40409477Y-49377241D01*
X40321573Y-49330255D01*
X40226191Y-49301322D01*
X40151852Y-49294000D01*
X40151844Y-49294000D01*
X40126998Y-49291553D01*
X40102152Y-49294000D01*
X33798501Y-49294000D01*
X33697859Y-49193358D01*
X33569942Y-49107887D01*
X33427809Y-49049013D01*
X33276922Y-49019000D01*
X33123078Y-49019000D01*
X32972191Y-49049013D01*
X32830058Y-49107887D01*
X32702141Y-49193358D01*
X32593358Y-49302141D01*
X32507887Y-49430058D01*
X32449013Y-49572191D01*
X32419000Y-49723078D01*
X32419000Y-49772261D01*
X32276922Y-49744000D01*
X32123078Y-49744000D01*
X31972191Y-49774013D01*
X31830058Y-49832887D01*
X31702141Y-49918358D01*
X31593358Y-50027141D01*
X31507887Y-50155058D01*
X31449013Y-50297191D01*
X31419000Y-50448078D01*
X31419000Y-50601922D01*
X31449013Y-50752809D01*
X31507887Y-50894942D01*
X31593358Y-51022859D01*
X31702141Y-51131642D01*
X31830058Y-51217113D01*
X31972191Y-51275987D01*
X32123078Y-51306000D01*
X32276922Y-51306000D01*
X32427809Y-51275987D01*
X32569942Y-51217113D01*
X32697859Y-51131642D01*
X32798501Y-51031000D01*
X40005997Y-51031000D01*
X41893996Y-52919000D01*
X41634592Y-52919000D01*
X40375376Y-51659785D01*
X40359527Y-51640473D01*
X40282479Y-51577241D01*
X40194575Y-51530255D01*
X40099193Y-51501322D01*
X40024854Y-51494000D01*
X40024846Y-51494000D01*
X40000000Y-51491553D01*
X39975154Y-51494000D01*
X38624854Y-51494000D01*
X38600000Y-51491552D01*
X38575146Y-51494000D01*
X38500807Y-51501322D01*
X38405425Y-51530255D01*
X38317521Y-51577241D01*
X38240473Y-51640473D01*
X38224628Y-51659780D01*
X35930166Y-53954243D01*
X35880923Y-53905000D01*
X35954318Y-53831605D01*
X36050732Y-53687310D01*
X36117144Y-53526978D01*
X36151000Y-53356771D01*
X36151000Y-53183229D01*
X36117144Y-53013022D01*
X36050732Y-52852690D01*
X35954318Y-52708395D01*
X35880923Y-52635000D01*
X35954318Y-52561605D01*
X36050732Y-52417310D01*
X36117144Y-52256978D01*
X36151000Y-52086771D01*
X36151000Y-51913229D01*
X36117144Y-51743022D01*
X36050732Y-51582690D01*
X35954318Y-51438395D01*
X35831605Y-51315682D01*
X35687310Y-51219268D01*
X35526978Y-51152856D01*
X35356771Y-51119000D01*
X35183229Y-51119000D01*
X35013022Y-51152856D01*
X34852690Y-51219268D01*
X34794432Y-51258194D01*
X34770711Y-51229289D01*
X34712696Y-51181678D01*
X34646508Y-51146299D01*
X34574689Y-51124513D01*
X34500000Y-51117157D01*
X33500000Y-51117157D01*
X33425311Y-51124513D01*
X33353492Y-51146299D01*
X33287304Y-51181678D01*
X33229289Y-51229289D01*
X33181678Y-51287304D01*
X33146299Y-51353492D01*
X33124513Y-51425311D01*
X33117157Y-51500000D01*
X33117157Y-52500000D01*
X33124513Y-52574689D01*
X33146299Y-52646508D01*
X33181678Y-52712696D01*
X33229289Y-52770711D01*
X33261562Y-52797196D01*
X33220046Y-52860309D01*
X33158802Y-53008184D01*
X33224581Y-53143000D01*
X33873000Y-53143000D01*
X33873000Y-53123000D01*
X34127000Y-53123000D01*
X34127000Y-53143000D01*
X34147000Y-53143000D01*
X34147000Y-53397000D01*
X34127000Y-53397000D01*
X34127000Y-54413000D01*
X34147000Y-54413000D01*
X34147000Y-54667000D01*
X34127000Y-54667000D01*
X34127000Y-54687000D01*
X33873000Y-54687000D01*
X33873000Y-54667000D01*
X33224581Y-54667000D01*
X33158802Y-54801816D01*
X33220046Y-54949691D01*
X33314959Y-55093980D01*
X33391969Y-55172108D01*
X33315682Y-55248395D01*
X33219268Y-55392690D01*
X33152856Y-55553022D01*
X33119000Y-55723229D01*
X33119000Y-55896771D01*
X33152856Y-56066978D01*
X33219268Y-56227310D01*
X33315682Y-56371605D01*
X33391969Y-56447892D01*
X33314959Y-56526020D01*
X33220046Y-56670309D01*
X33158802Y-56818184D01*
X33224581Y-56953000D01*
X33873000Y-56953000D01*
X33873000Y-56933000D01*
X34127000Y-56933000D01*
X34127000Y-56953000D01*
X34147000Y-56953000D01*
X34147000Y-57207000D01*
X34127000Y-57207000D01*
X34127000Y-57856556D01*
X34261817Y-57921205D01*
X34420897Y-57853964D01*
X34563802Y-57756980D01*
X34631935Y-57687858D01*
X34708395Y-57764318D01*
X34852690Y-57860732D01*
X35013022Y-57927144D01*
X35183229Y-57961000D01*
X35356771Y-57961000D01*
X35526978Y-57927144D01*
X35687310Y-57860732D01*
X35831605Y-57764318D01*
X35954318Y-57641605D01*
X36050732Y-57497310D01*
X36117144Y-57336978D01*
X36151000Y-57166771D01*
X36151000Y-56993229D01*
X36137953Y-56927638D01*
X36294000Y-56771591D01*
X36294001Y-59953997D01*
X36004009Y-60243990D01*
X32181153Y-60243990D01*
X32128967Y-60165888D01*
X32034112Y-60071033D01*
X31922574Y-59996506D01*
X31798640Y-59945171D01*
X31667073Y-59919000D01*
X31532927Y-59919000D01*
X31401360Y-59945171D01*
X31277426Y-59996506D01*
X31165888Y-60071033D01*
X31071033Y-60165888D01*
X30996506Y-60277426D01*
X30945171Y-60401360D01*
X30919000Y-60532927D01*
X30919000Y-60667073D01*
X30945171Y-60798640D01*
X30996506Y-60922574D01*
X31048240Y-61000000D01*
X30996506Y-61077426D01*
X30945171Y-61201360D01*
X30919000Y-61332927D01*
X30919000Y-61467073D01*
X30941525Y-61580311D01*
X30902426Y-61596506D01*
X30790888Y-61671033D01*
X30696033Y-61765888D01*
X30621506Y-61877426D01*
X30570171Y-62001360D01*
X30544000Y-62132927D01*
X29127000Y-62132927D01*
X29127000Y-57341816D01*
X33158802Y-57341816D01*
X33220046Y-57489691D01*
X33314959Y-57633980D01*
X33436198Y-57756980D01*
X33579103Y-57853964D01*
X33738183Y-57921205D01*
X33873000Y-57856556D01*
X33873000Y-57207000D01*
X33224581Y-57207000D01*
X33158802Y-57341816D01*
X29127000Y-57341816D01*
X29127000Y-53531816D01*
X33158802Y-53531816D01*
X33220046Y-53679691D01*
X33314959Y-53823980D01*
X33394819Y-53905000D01*
X33314959Y-53986020D01*
X33220046Y-54130309D01*
X33158802Y-54278184D01*
X33224581Y-54413000D01*
X33873000Y-54413000D01*
X33873000Y-53397000D01*
X33224581Y-53397000D01*
X33158802Y-53531816D01*
X29127000Y-53531816D01*
X29127000Y-43910000D01*
X37567157Y-43910000D01*
X37567157Y-45610000D01*
X37574513Y-45684689D01*
X37596299Y-45756508D01*
X37631678Y-45822696D01*
X37679289Y-45880711D01*
X37737304Y-45928322D01*
X37803492Y-45963701D01*
X37875311Y-45985487D01*
X37950000Y-45992843D01*
X39650000Y-45992843D01*
X39724689Y-45985487D01*
X39796508Y-45963701D01*
X39862696Y-45928322D01*
X39920711Y-45880711D01*
X39968322Y-45822696D01*
X40003701Y-45756508D01*
X40025487Y-45684689D01*
X40032843Y-45610000D01*
X40032843Y-43910000D01*
X40025487Y-43835311D01*
X40003701Y-43763492D01*
X39968322Y-43697304D01*
X39920711Y-43639289D01*
X39862696Y-43591678D01*
X39796508Y-43556299D01*
X39724689Y-43534513D01*
X39650000Y-43527157D01*
X37950000Y-43527157D01*
X37875311Y-43534513D01*
X37803492Y-43556299D01*
X37737304Y-43591678D01*
X37679289Y-43639289D01*
X37631678Y-43697304D01*
X37596299Y-43763492D01*
X37574513Y-43835311D01*
X37567157Y-43910000D01*
X29127000Y-43910000D01*
X29127000Y-41639269D01*
X41674000Y-41639269D01*
X41674000Y-42130730D01*
X41687471Y-42267507D01*
X41740707Y-42443001D01*
X41827157Y-42604737D01*
X41943499Y-42746501D01*
X42085262Y-42862843D01*
X42246998Y-42949293D01*
X42422492Y-43002529D01*
X42605000Y-43020504D01*
X42787507Y-43002529D01*
X42963001Y-42949293D01*
X43124737Y-42862843D01*
X43266501Y-42746501D01*
X43382843Y-42604738D01*
X43469293Y-42443002D01*
X43522529Y-42267508D01*
X43536000Y-42130731D01*
X43536000Y-41639270D01*
X43536000Y-41639269D01*
X46514000Y-41639269D01*
X46514000Y-42130730D01*
X46527471Y-42267507D01*
X46580707Y-42443001D01*
X46667157Y-42604737D01*
X46783499Y-42746501D01*
X46925262Y-42862843D01*
X47086998Y-42949293D01*
X47262492Y-43002529D01*
X47445000Y-43020504D01*
X47627507Y-43002529D01*
X47803001Y-42949293D01*
X47964737Y-42862843D01*
X48106501Y-42746501D01*
X48222843Y-42604738D01*
X48309293Y-42443002D01*
X48362529Y-42267508D01*
X48376000Y-42130731D01*
X48376000Y-41639270D01*
X48362529Y-41502492D01*
X48309293Y-41326998D01*
X48222843Y-41165262D01*
X48106501Y-41023499D01*
X47964738Y-40907157D01*
X47803002Y-40820707D01*
X47627508Y-40767471D01*
X47445000Y-40749496D01*
X47262493Y-40767471D01*
X47086999Y-40820707D01*
X46925263Y-40907157D01*
X46783500Y-41023499D01*
X46667157Y-41165262D01*
X46580707Y-41326998D01*
X46527471Y-41502492D01*
X46514000Y-41639269D01*
X43536000Y-41639269D01*
X43522529Y-41502492D01*
X43469293Y-41326998D01*
X43382843Y-41165262D01*
X43266501Y-41023499D01*
X43124738Y-40907157D01*
X42963002Y-40820707D01*
X42787508Y-40767471D01*
X42605000Y-40749496D01*
X42422493Y-40767471D01*
X42246999Y-40820707D01*
X42085263Y-40907157D01*
X41943500Y-41023499D01*
X41827157Y-41165262D01*
X41740707Y-41326998D01*
X41687471Y-41502492D01*
X41674000Y-41639269D01*
X29127000Y-41639269D01*
X29127000Y-39552606D01*
X30021478Y-38658128D01*
X41239000Y-38658128D01*
X41239000Y-39111871D01*
X41254280Y-39267011D01*
X41314663Y-39466068D01*
X41412720Y-39649521D01*
X41544683Y-39810317D01*
X41705479Y-39942280D01*
X41888931Y-40040337D01*
X42087988Y-40100720D01*
X42295000Y-40121109D01*
X42502011Y-40100720D01*
X42701068Y-40040337D01*
X42884521Y-39942280D01*
X43045317Y-39810317D01*
X43177280Y-39649521D01*
X43275337Y-39466069D01*
X43335720Y-39267012D01*
X43351000Y-39111872D01*
X43351000Y-38658129D01*
X43351000Y-38658128D01*
X46699000Y-38658128D01*
X46699000Y-39111871D01*
X46714280Y-39267011D01*
X46774663Y-39466068D01*
X46872720Y-39649521D01*
X47004683Y-39810317D01*
X47165479Y-39942280D01*
X47348931Y-40040337D01*
X47547988Y-40100720D01*
X47755000Y-40121109D01*
X47962011Y-40100720D01*
X48161068Y-40040337D01*
X48344521Y-39942280D01*
X48505317Y-39810317D01*
X48637280Y-39649521D01*
X48735337Y-39466069D01*
X48795720Y-39267012D01*
X48811000Y-39111872D01*
X48811000Y-38658129D01*
X48795720Y-38502989D01*
X48735337Y-38303932D01*
X48637280Y-38120479D01*
X48505317Y-37959683D01*
X48344521Y-37827720D01*
X48161069Y-37729663D01*
X47962012Y-37669280D01*
X47755000Y-37648891D01*
X47547989Y-37669280D01*
X47348932Y-37729663D01*
X47165480Y-37827720D01*
X47004684Y-37959683D01*
X46872720Y-38120479D01*
X46774663Y-38303931D01*
X46714280Y-38502988D01*
X46699000Y-38658128D01*
X43351000Y-38658128D01*
X43335720Y-38502989D01*
X43275337Y-38303932D01*
X43177280Y-38120479D01*
X43045317Y-37959683D01*
X42884521Y-37827720D01*
X42701069Y-37729663D01*
X42502012Y-37669280D01*
X42295000Y-37648891D01*
X42087989Y-37669280D01*
X41888932Y-37729663D01*
X41705480Y-37827720D01*
X41544684Y-37959683D01*
X41412720Y-38120479D01*
X41314663Y-38303931D01*
X41254280Y-38502988D01*
X41239000Y-38658128D01*
X30021478Y-38658128D01*
X31052606Y-37627000D01*
X82630199Y-37627000D01*
X82596506Y-37677426D01*
%TD*%
M02*
