M48
; DRILL file {KiCad 5.1.6~rc1+dfsg1-1+b1} date Wed May 13 20:22:00 2020
; FORMAT={-:-/ absolute / inch / decimal}
; #@! TF.CreationDate,2020-05-13T20:22:00-07:00
; #@! TF.GenerationSoftware,Kicad,Pcbnew,5.1.6~rc1+dfsg1-1+b1
; #@! TF.FileFunction,Plated,1,2,PTH
FMAT,2
INCH
T1C0.0118
T2C0.0157
T3C0.0236
T4C0.0256
T5C0.0276
T6C0.0394
%
G90
G05
T1
X1.1969Y-2.9291
X1.2096Y-2.9606
X1.2274Y-3.0709
X1.2293Y-2.4488
X1.2441Y-2.3858
X1.2441Y-2.4173
X1.251Y-3.315
X1.2571Y-2.4734
X1.2687Y-2.5197
X1.2883Y-2.4821
X1.373Y-3.0079
X1.4016Y-1.8268
X1.4789Y-2.7652
X1.4803Y-2.6693
X1.4803Y-2.8268
X1.4811Y-2.7064
X1.4848Y-2.4951
X1.4882Y-2.5354
X1.4882Y-2.5827
X1.4882Y-2.6299
X1.5276Y-2.1102
X1.5591Y-2.0925
X1.6102Y-2.9331
X1.6364Y-2.9505
X1.6457Y-1.9843
X1.6496Y-2.2756
X1.6502Y-1.9515
X1.7323Y-2.1033
X1.748Y-2.0315
X1.7835Y-2.0354
X1.7874Y-3.1417
X1.8031Y-2.9882
X1.8187Y-2.035
X1.9341Y-2.6457
X1.937Y-2.0866
X1.9567Y-2.6693
X1.9843Y-2.689
X2.0394Y-2.1014
X2.0573Y-2.242
X2.0871Y-2.2521
X2.0945Y-2.1289
X2.1181Y-2.2598
X2.1496Y-2.2598
X2.1654Y-2.9921
X2.1748Y-2.1531
X2.189Y-2.378
X2.251Y-1.9134
X2.2835Y-3.5276
X2.3937Y-2.4705
X2.4173Y-2.3937
X2.4252Y-2.4459
X2.4646Y-2.752
X2.4744Y-2.3937
X2.5197Y-1.9606
X2.5197Y-2.6772
X2.5197Y-2.7087
X2.5276Y-2.0
X2.5591Y-1.7717
X2.5591Y-2.3701
X2.6299Y-2.4459
X2.6457Y-2.0699
X2.6948Y-1.7617
X2.7087Y-2.063
X2.7087Y-2.4646
X2.8425Y-2.3701
X2.8504Y-2.4173
X2.8898Y-1.8189
X2.8898Y-2.378
X2.9213Y-1.7953
X2.9843Y-2.4537
X2.9921Y-1.7795
X3.0236Y-2.4803
X3.063Y-2.3701
X3.1417Y-2.3701
X3.1486Y-1.7943
X3.1929Y-2.3622
X3.2047Y-1.7943
X3.2202Y-2.378
X3.2217Y-1.8209
X3.2756Y-1.4961
X3.2756Y-1.7717
X3.2756Y-1.9685
X3.2756Y-2.3425
X3.2874Y-2.374
X3.3465Y-1.5276
X3.3465Y-1.7717
X3.3465Y-1.9843
X3.4252Y-1.5276
X3.4252Y-1.7717
X3.4252Y-1.9173
X3.4961Y-1.5512
X3.4961Y-1.7717
X3.4961Y-2.0305
X3.5748Y-2.0551
X3.626Y-1.8435
X3.7087Y-1.8681
X3.7795Y-1.8435
X3.9291Y-1.8189
X3.9528Y-1.8937
X3.9567Y-2.1457
X3.9567Y-2.7441
X3.9921Y-2.4331
X4.0079Y-1.7953
T2
X1.2677Y-1.9892
X1.3071Y-1.9606
X1.5118Y-2.1811
X1.7087Y-2.2362
X1.7244Y-2.7402
X1.7638Y-2.3848
X1.803Y-3.2308
X1.8031Y-3.622
X1.907Y-2.0575
X1.9843Y-1.6457
X2.0787Y-2.0561
X2.0787Y-2.8819
X2.4252Y-3.6614
X2.5039Y-3.6614
X3.2264Y-3.1752
X3.2264Y-3.5453
X3.2264Y-3.9075
X3.2283Y-2.8031
X3.9213Y-2.9449
X3.9449Y-3.2992
T3
X1.7165Y-1.7165
X1.9449Y-1.811
X2.1757Y-1.8976
T4
X1.3386Y-2.0472
X1.3386Y-2.0972
X1.3386Y-2.1472
X1.3386Y-2.1972
X1.3386Y-2.2472
X1.3886Y-2.0472
X1.3886Y-2.0972
X1.3886Y-2.1472
X1.3886Y-2.1972
X1.3886Y-2.2472
T6
X1.7402Y-3.8031
X1.8402Y-3.8031
X1.9402Y-3.8031
X2.0402Y-3.8031
X2.1402Y-3.8031
X1.3386Y-3.5433
X1.3386Y-3.6433
X1.3386Y-3.7433
X1.3386Y-3.8433
X1.4386Y-3.5433
X1.4386Y-3.6433
X1.4386Y-3.7433
X1.4386Y-3.8433
X1.3386Y-3.0709
X1.3386Y-3.1709
X1.3386Y-3.2709
X1.3386Y-3.3709
X1.4386Y-3.0709
X1.4386Y-3.1709
X1.4386Y-3.2709
X1.4386Y-3.3709
X1.5276Y-1.7622
X1.5276Y-1.8622
T4
G00X1.6774Y-1.6411
M15
G01X1.6774Y-1.6569
M16
G05
G00X1.8679Y-1.6411
M15
G01X1.8679Y-1.6569
M16
G05
T5
G00X1.6652Y-1.5211
M15
G01X1.6652Y-1.5407
M16
G05
G00X1.8801Y-1.5211
M15
G01X1.8801Y-1.5407
M16
G05
T0
M30
