%TF.GenerationSoftware,KiCad,Pcbnew,5.1.6~rc1+dfsg1-1+b1*%
%TF.CreationDate,2020-05-13T20:21:58-07:00*%
%TF.ProjectId,target_board,74617267-6574-45f6-926f-6172642e6b69,rev?*%
%TF.SameCoordinates,Original*%
%TF.FileFunction,Copper,L1,Top*%
%TF.FilePolarity,Positive*%
%FSLAX46Y46*%
G04 Gerber Fmt 4.6, Leading zero omitted, Abs format (unit mm)*
G04 Created by KiCad (PCBNEW 5.1.6~rc1+dfsg1-1+b1) date 2020-05-13 20:21:58*
%MOMM*%
%LPD*%
G01*
G04 APERTURE LIST*
%TA.AperFunction,SMDPad,CuDef*%
%ADD10R,1.550000X1.300000*%
%TD*%
%TA.AperFunction,SMDPad,CuDef*%
%ADD11R,1.350000X2.000000*%
%TD*%
%TA.AperFunction,SMDPad,CuDef*%
%ADD12R,1.825000X0.700000*%
%TD*%
%TA.AperFunction,SMDPad,CuDef*%
%ADD13R,2.000000X1.500000*%
%TD*%
%TA.AperFunction,SMDPad,CuDef*%
%ADD14R,0.400000X1.650000*%
%TD*%
%TA.AperFunction,ComponentPad*%
%ADD15O,1.100000X1.500000*%
%TD*%
%TA.AperFunction,ComponentPad*%
%ADD16O,1.350000X1.700000*%
%TD*%
%TA.AperFunction,SMDPad,CuDef*%
%ADD17R,1.430000X2.500000*%
%TD*%
%TA.AperFunction,ComponentPad*%
%ADD18R,1.700000X1.700000*%
%TD*%
%TA.AperFunction,ComponentPad*%
%ADD19O,1.700000X1.700000*%
%TD*%
%TA.AperFunction,ComponentPad*%
%ADD20R,1.000000X1.000000*%
%TD*%
%TA.AperFunction,ComponentPad*%
%ADD21O,1.000000X1.000000*%
%TD*%
%TA.AperFunction,SMDPad,CuDef*%
%ADD22R,0.450000X0.400000*%
%TD*%
%TA.AperFunction,SMDPad,CuDef*%
%ADD23R,0.450000X0.500000*%
%TD*%
%TA.AperFunction,SMDPad,CuDef*%
%ADD24R,1.300000X1.550000*%
%TD*%
%TA.AperFunction,SMDPad,CuDef*%
%ADD25R,1.060000X0.650000*%
%TD*%
%TA.AperFunction,SMDPad,CuDef*%
%ADD26R,1.650000X3.000000*%
%TD*%
%TA.AperFunction,SMDPad,CuDef*%
%ADD27R,1.750000X0.450000*%
%TD*%
%TA.AperFunction,ViaPad*%
%ADD28C,1.200000*%
%TD*%
%TA.AperFunction,ViaPad*%
%ADD29C,0.800000*%
%TD*%
%TA.AperFunction,ViaPad*%
%ADD30C,0.600000*%
%TD*%
%TA.AperFunction,Conductor*%
%ADD31C,0.500000*%
%TD*%
%TA.AperFunction,Conductor*%
%ADD32C,0.250000*%
%TD*%
%TA.AperFunction,Conductor*%
%ADD33C,0.400000*%
%TD*%
G04 APERTURE END LIST*
%TO.P,R29,2*%
%TO.N,/SCL*%
%TA.AperFunction,SMDPad,CuDef*%
G36*
G01*
X42943750Y-90537500D02*
X43456250Y-90537500D01*
G75*
G02*
X43675000Y-90756250I0J-218750D01*
G01*
X43675000Y-91193750D01*
G75*
G02*
X43456250Y-91412500I-218750J0D01*
G01*
X42943750Y-91412500D01*
G75*
G02*
X42725000Y-91193750I0J218750D01*
G01*
X42725000Y-90756250D01*
G75*
G02*
X42943750Y-90537500I218750J0D01*
G01*
G37*
%TD.AperFunction*%
%TO.P,R29,1*%
%TO.N,VCC*%
%TA.AperFunction,SMDPad,CuDef*%
G36*
G01*
X42943750Y-88962500D02*
X43456250Y-88962500D01*
G75*
G02*
X43675000Y-89181250I0J-218750D01*
G01*
X43675000Y-89618750D01*
G75*
G02*
X43456250Y-89837500I-218750J0D01*
G01*
X42943750Y-89837500D01*
G75*
G02*
X42725000Y-89618750I0J218750D01*
G01*
X42725000Y-89181250D01*
G75*
G02*
X42943750Y-88962500I218750J0D01*
G01*
G37*
%TD.AperFunction*%
%TD*%
%TO.P,R28,2*%
%TO.N,/SDA*%
%TA.AperFunction,SMDPad,CuDef*%
G36*
G01*
X40343750Y-90537500D02*
X40856250Y-90537500D01*
G75*
G02*
X41075000Y-90756250I0J-218750D01*
G01*
X41075000Y-91193750D01*
G75*
G02*
X40856250Y-91412500I-218750J0D01*
G01*
X40343750Y-91412500D01*
G75*
G02*
X40125000Y-91193750I0J218750D01*
G01*
X40125000Y-90756250D01*
G75*
G02*
X40343750Y-90537500I218750J0D01*
G01*
G37*
%TD.AperFunction*%
%TO.P,R28,1*%
%TO.N,VCC*%
%TA.AperFunction,SMDPad,CuDef*%
G36*
G01*
X40343750Y-88962500D02*
X40856250Y-88962500D01*
G75*
G02*
X41075000Y-89181250I0J-218750D01*
G01*
X41075000Y-89618750D01*
G75*
G02*
X40856250Y-89837500I-218750J0D01*
G01*
X40343750Y-89837500D01*
G75*
G02*
X40125000Y-89618750I0J218750D01*
G01*
X40125000Y-89181250D01*
G75*
G02*
X40343750Y-88962500I218750J0D01*
G01*
G37*
%TD.AperFunction*%
%TD*%
D10*
%TO.P,SW6,2*%
%TO.N,/COL2*%
X78020000Y-71250000D03*
%TO.P,SW6,1*%
%TO.N,/ROW1*%
X78020000Y-66750000D03*
X85980000Y-66750000D03*
%TO.P,SW6,2*%
%TO.N,/COL2*%
X85980000Y-71250000D03*
%TD*%
%TO.P,SW5,2*%
%TO.N,/COL1*%
X71980000Y-99250000D03*
%TO.P,SW5,1*%
%TO.N,/ROW4*%
X71980000Y-94750000D03*
X64020000Y-94750000D03*
%TO.P,SW5,2*%
%TO.N,/COL1*%
X64020000Y-99250000D03*
%TD*%
%TO.P,U3,1*%
%TO.N,VCC*%
%TA.AperFunction,SMDPad,CuDef*%
G36*
G01*
X43487500Y-59150000D02*
X43337500Y-59150000D01*
G75*
G02*
X43262500Y-59075000I0J75000D01*
G01*
X43262500Y-57750000D01*
G75*
G02*
X43337500Y-57675000I75000J0D01*
G01*
X43487500Y-57675000D01*
G75*
G02*
X43562500Y-57750000I0J-75000D01*
G01*
X43562500Y-59075000D01*
G75*
G02*
X43487500Y-59150000I-75000J0D01*
G01*
G37*
%TD.AperFunction*%
%TO.P,U3,2*%
%TO.N,Net-(U3-Pad2)*%
%TA.AperFunction,SMDPad,CuDef*%
G36*
G01*
X43987500Y-59150000D02*
X43837500Y-59150000D01*
G75*
G02*
X43762500Y-59075000I0J75000D01*
G01*
X43762500Y-57750000D01*
G75*
G02*
X43837500Y-57675000I75000J0D01*
G01*
X43987500Y-57675000D01*
G75*
G02*
X44062500Y-57750000I0J-75000D01*
G01*
X44062500Y-59075000D01*
G75*
G02*
X43987500Y-59150000I-75000J0D01*
G01*
G37*
%TD.AperFunction*%
%TO.P,U3,3*%
%TO.N,Net-(U3-Pad3)*%
%TA.AperFunction,SMDPad,CuDef*%
G36*
G01*
X44487500Y-59150000D02*
X44337500Y-59150000D01*
G75*
G02*
X44262500Y-59075000I0J75000D01*
G01*
X44262500Y-57750000D01*
G75*
G02*
X44337500Y-57675000I75000J0D01*
G01*
X44487500Y-57675000D01*
G75*
G02*
X44562500Y-57750000I0J-75000D01*
G01*
X44562500Y-59075000D01*
G75*
G02*
X44487500Y-59150000I-75000J0D01*
G01*
G37*
%TD.AperFunction*%
%TO.P,U3,4*%
%TO.N,Net-(U3-Pad4)*%
%TA.AperFunction,SMDPad,CuDef*%
G36*
G01*
X44987500Y-59150000D02*
X44837500Y-59150000D01*
G75*
G02*
X44762500Y-59075000I0J75000D01*
G01*
X44762500Y-57750000D01*
G75*
G02*
X44837500Y-57675000I75000J0D01*
G01*
X44987500Y-57675000D01*
G75*
G02*
X45062500Y-57750000I0J-75000D01*
G01*
X45062500Y-59075000D01*
G75*
G02*
X44987500Y-59150000I-75000J0D01*
G01*
G37*
%TD.AperFunction*%
%TO.P,U3,5*%
%TO.N,Net-(U3-Pad5)*%
%TA.AperFunction,SMDPad,CuDef*%
G36*
G01*
X45487500Y-59150000D02*
X45337500Y-59150000D01*
G75*
G02*
X45262500Y-59075000I0J75000D01*
G01*
X45262500Y-57750000D01*
G75*
G02*
X45337500Y-57675000I75000J0D01*
G01*
X45487500Y-57675000D01*
G75*
G02*
X45562500Y-57750000I0J-75000D01*
G01*
X45562500Y-59075000D01*
G75*
G02*
X45487500Y-59150000I-75000J0D01*
G01*
G37*
%TD.AperFunction*%
%TO.P,U3,6*%
%TO.N,Net-(U3-Pad6)*%
%TA.AperFunction,SMDPad,CuDef*%
G36*
G01*
X45987500Y-59150000D02*
X45837500Y-59150000D01*
G75*
G02*
X45762500Y-59075000I0J75000D01*
G01*
X45762500Y-57750000D01*
G75*
G02*
X45837500Y-57675000I75000J0D01*
G01*
X45987500Y-57675000D01*
G75*
G02*
X46062500Y-57750000I0J-75000D01*
G01*
X46062500Y-59075000D01*
G75*
G02*
X45987500Y-59150000I-75000J0D01*
G01*
G37*
%TD.AperFunction*%
%TO.P,U3,7*%
%TO.N,/NRST*%
%TA.AperFunction,SMDPad,CuDef*%
G36*
G01*
X46487500Y-59150000D02*
X46337500Y-59150000D01*
G75*
G02*
X46262500Y-59075000I0J75000D01*
G01*
X46262500Y-57750000D01*
G75*
G02*
X46337500Y-57675000I75000J0D01*
G01*
X46487500Y-57675000D01*
G75*
G02*
X46562500Y-57750000I0J-75000D01*
G01*
X46562500Y-59075000D01*
G75*
G02*
X46487500Y-59150000I-75000J0D01*
G01*
G37*
%TD.AperFunction*%
%TO.P,U3,8*%
%TO.N,GND*%
%TA.AperFunction,SMDPad,CuDef*%
G36*
G01*
X46987500Y-59150000D02*
X46837500Y-59150000D01*
G75*
G02*
X46762500Y-59075000I0J75000D01*
G01*
X46762500Y-57750000D01*
G75*
G02*
X46837500Y-57675000I75000J0D01*
G01*
X46987500Y-57675000D01*
G75*
G02*
X47062500Y-57750000I0J-75000D01*
G01*
X47062500Y-59075000D01*
G75*
G02*
X46987500Y-59150000I-75000J0D01*
G01*
G37*
%TD.AperFunction*%
%TO.P,U3,9*%
%TO.N,VCC*%
%TA.AperFunction,SMDPad,CuDef*%
G36*
G01*
X47487500Y-59150000D02*
X47337500Y-59150000D01*
G75*
G02*
X47262500Y-59075000I0J75000D01*
G01*
X47262500Y-57750000D01*
G75*
G02*
X47337500Y-57675000I75000J0D01*
G01*
X47487500Y-57675000D01*
G75*
G02*
X47562500Y-57750000I0J-75000D01*
G01*
X47562500Y-59075000D01*
G75*
G02*
X47487500Y-59150000I-75000J0D01*
G01*
G37*
%TD.AperFunction*%
%TO.P,U3,10*%
%TO.N,/COL2*%
%TA.AperFunction,SMDPad,CuDef*%
G36*
G01*
X47987500Y-59150000D02*
X47837500Y-59150000D01*
G75*
G02*
X47762500Y-59075000I0J75000D01*
G01*
X47762500Y-57750000D01*
G75*
G02*
X47837500Y-57675000I75000J0D01*
G01*
X47987500Y-57675000D01*
G75*
G02*
X48062500Y-57750000I0J-75000D01*
G01*
X48062500Y-59075000D01*
G75*
G02*
X47987500Y-59150000I-75000J0D01*
G01*
G37*
%TD.AperFunction*%
%TO.P,U3,11*%
%TO.N,/COL1*%
%TA.AperFunction,SMDPad,CuDef*%
G36*
G01*
X48487500Y-59150000D02*
X48337500Y-59150000D01*
G75*
G02*
X48262500Y-59075000I0J75000D01*
G01*
X48262500Y-57750000D01*
G75*
G02*
X48337500Y-57675000I75000J0D01*
G01*
X48487500Y-57675000D01*
G75*
G02*
X48562500Y-57750000I0J-75000D01*
G01*
X48562500Y-59075000D01*
G75*
G02*
X48487500Y-59150000I-75000J0D01*
G01*
G37*
%TD.AperFunction*%
%TO.P,U3,12*%
%TO.N,/ROW4*%
%TA.AperFunction,SMDPad,CuDef*%
G36*
G01*
X48987500Y-59150000D02*
X48837500Y-59150000D01*
G75*
G02*
X48762500Y-59075000I0J75000D01*
G01*
X48762500Y-57750000D01*
G75*
G02*
X48837500Y-57675000I75000J0D01*
G01*
X48987500Y-57675000D01*
G75*
G02*
X49062500Y-57750000I0J-75000D01*
G01*
X49062500Y-59075000D01*
G75*
G02*
X48987500Y-59150000I-75000J0D01*
G01*
G37*
%TD.AperFunction*%
%TO.P,U3,13*%
%TO.N,/DISPA*%
%TA.AperFunction,SMDPad,CuDef*%
G36*
G01*
X50987500Y-57150000D02*
X49662500Y-57150000D01*
G75*
G02*
X49587500Y-57075000I0J75000D01*
G01*
X49587500Y-56925000D01*
G75*
G02*
X49662500Y-56850000I75000J0D01*
G01*
X50987500Y-56850000D01*
G75*
G02*
X51062500Y-56925000I0J-75000D01*
G01*
X51062500Y-57075000D01*
G75*
G02*
X50987500Y-57150000I-75000J0D01*
G01*
G37*
%TD.AperFunction*%
%TO.P,U3,14*%
%TO.N,/~CS*%
%TA.AperFunction,SMDPad,CuDef*%
G36*
G01*
X50987500Y-56650000D02*
X49662500Y-56650000D01*
G75*
G02*
X49587500Y-56575000I0J75000D01*
G01*
X49587500Y-56425000D01*
G75*
G02*
X49662500Y-56350000I75000J0D01*
G01*
X50987500Y-56350000D01*
G75*
G02*
X51062500Y-56425000I0J-75000D01*
G01*
X51062500Y-56575000D01*
G75*
G02*
X50987500Y-56650000I-75000J0D01*
G01*
G37*
%TD.AperFunction*%
%TO.P,U3,15*%
%TO.N,/SCK*%
%TA.AperFunction,SMDPad,CuDef*%
G36*
G01*
X50987500Y-56150000D02*
X49662500Y-56150000D01*
G75*
G02*
X49587500Y-56075000I0J75000D01*
G01*
X49587500Y-55925000D01*
G75*
G02*
X49662500Y-55850000I75000J0D01*
G01*
X50987500Y-55850000D01*
G75*
G02*
X51062500Y-55925000I0J-75000D01*
G01*
X51062500Y-56075000D01*
G75*
G02*
X50987500Y-56150000I-75000J0D01*
G01*
G37*
%TD.AperFunction*%
%TO.P,U3,16*%
%TO.N,/MISO*%
%TA.AperFunction,SMDPad,CuDef*%
G36*
G01*
X50987500Y-55650000D02*
X49662500Y-55650000D01*
G75*
G02*
X49587500Y-55575000I0J75000D01*
G01*
X49587500Y-55425000D01*
G75*
G02*
X49662500Y-55350000I75000J0D01*
G01*
X50987500Y-55350000D01*
G75*
G02*
X51062500Y-55425000I0J-75000D01*
G01*
X51062500Y-55575000D01*
G75*
G02*
X50987500Y-55650000I-75000J0D01*
G01*
G37*
%TD.AperFunction*%
%TO.P,U3,17*%
%TO.N,/MOSI*%
%TA.AperFunction,SMDPad,CuDef*%
G36*
G01*
X50987500Y-55150000D02*
X49662500Y-55150000D01*
G75*
G02*
X49587500Y-55075000I0J75000D01*
G01*
X49587500Y-54925000D01*
G75*
G02*
X49662500Y-54850000I75000J0D01*
G01*
X50987500Y-54850000D01*
G75*
G02*
X51062500Y-54925000I0J-75000D01*
G01*
X51062500Y-55075000D01*
G75*
G02*
X50987500Y-55150000I-75000J0D01*
G01*
G37*
%TD.AperFunction*%
%TO.P,U3,18*%
%TO.N,/ROW1*%
%TA.AperFunction,SMDPad,CuDef*%
G36*
G01*
X50987500Y-54650000D02*
X49662500Y-54650000D01*
G75*
G02*
X49587500Y-54575000I0J75000D01*
G01*
X49587500Y-54425000D01*
G75*
G02*
X49662500Y-54350000I75000J0D01*
G01*
X50987500Y-54350000D01*
G75*
G02*
X51062500Y-54425000I0J-75000D01*
G01*
X51062500Y-54575000D01*
G75*
G02*
X50987500Y-54650000I-75000J0D01*
G01*
G37*
%TD.AperFunction*%
%TO.P,U3,19*%
%TO.N,/ROW2*%
%TA.AperFunction,SMDPad,CuDef*%
G36*
G01*
X50987500Y-54150000D02*
X49662500Y-54150000D01*
G75*
G02*
X49587500Y-54075000I0J75000D01*
G01*
X49587500Y-53925000D01*
G75*
G02*
X49662500Y-53850000I75000J0D01*
G01*
X50987500Y-53850000D01*
G75*
G02*
X51062500Y-53925000I0J-75000D01*
G01*
X51062500Y-54075000D01*
G75*
G02*
X50987500Y-54150000I-75000J0D01*
G01*
G37*
%TD.AperFunction*%
%TO.P,U3,20*%
%TO.N,/ROW3*%
%TA.AperFunction,SMDPad,CuDef*%
G36*
G01*
X50987500Y-53650000D02*
X49662500Y-53650000D01*
G75*
G02*
X49587500Y-53575000I0J75000D01*
G01*
X49587500Y-53425000D01*
G75*
G02*
X49662500Y-53350000I75000J0D01*
G01*
X50987500Y-53350000D01*
G75*
G02*
X51062500Y-53425000I0J-75000D01*
G01*
X51062500Y-53575000D01*
G75*
G02*
X50987500Y-53650000I-75000J0D01*
G01*
G37*
%TD.AperFunction*%
%TO.P,U3,21*%
%TO.N,/COL3*%
%TA.AperFunction,SMDPad,CuDef*%
G36*
G01*
X50987500Y-53150000D02*
X49662500Y-53150000D01*
G75*
G02*
X49587500Y-53075000I0J75000D01*
G01*
X49587500Y-52925000D01*
G75*
G02*
X49662500Y-52850000I75000J0D01*
G01*
X50987500Y-52850000D01*
G75*
G02*
X51062500Y-52925000I0J-75000D01*
G01*
X51062500Y-53075000D01*
G75*
G02*
X50987500Y-53150000I-75000J0D01*
G01*
G37*
%TD.AperFunction*%
%TO.P,U3,22*%
%TO.N,/DISPB*%
%TA.AperFunction,SMDPad,CuDef*%
G36*
G01*
X50987500Y-52650000D02*
X49662500Y-52650000D01*
G75*
G02*
X49587500Y-52575000I0J75000D01*
G01*
X49587500Y-52425000D01*
G75*
G02*
X49662500Y-52350000I75000J0D01*
G01*
X50987500Y-52350000D01*
G75*
G02*
X51062500Y-52425000I0J-75000D01*
G01*
X51062500Y-52575000D01*
G75*
G02*
X50987500Y-52650000I-75000J0D01*
G01*
G37*
%TD.AperFunction*%
%TO.P,U3,23*%
%TO.N,GND*%
%TA.AperFunction,SMDPad,CuDef*%
G36*
G01*
X50987500Y-52150000D02*
X49662500Y-52150000D01*
G75*
G02*
X49587500Y-52075000I0J75000D01*
G01*
X49587500Y-51925000D01*
G75*
G02*
X49662500Y-51850000I75000J0D01*
G01*
X50987500Y-51850000D01*
G75*
G02*
X51062500Y-51925000I0J-75000D01*
G01*
X51062500Y-52075000D01*
G75*
G02*
X50987500Y-52150000I-75000J0D01*
G01*
G37*
%TD.AperFunction*%
%TO.P,U3,24*%
%TO.N,VCC*%
%TA.AperFunction,SMDPad,CuDef*%
G36*
G01*
X50987500Y-51650000D02*
X49662500Y-51650000D01*
G75*
G02*
X49587500Y-51575000I0J75000D01*
G01*
X49587500Y-51425000D01*
G75*
G02*
X49662500Y-51350000I75000J0D01*
G01*
X50987500Y-51350000D01*
G75*
G02*
X51062500Y-51425000I0J-75000D01*
G01*
X51062500Y-51575000D01*
G75*
G02*
X50987500Y-51650000I-75000J0D01*
G01*
G37*
%TD.AperFunction*%
%TO.P,U3,25*%
%TO.N,Net-(U3-Pad25)*%
%TA.AperFunction,SMDPad,CuDef*%
G36*
G01*
X48987500Y-50825000D02*
X48837500Y-50825000D01*
G75*
G02*
X48762500Y-50750000I0J75000D01*
G01*
X48762500Y-49425000D01*
G75*
G02*
X48837500Y-49350000I75000J0D01*
G01*
X48987500Y-49350000D01*
G75*
G02*
X49062500Y-49425000I0J-75000D01*
G01*
X49062500Y-50750000D01*
G75*
G02*
X48987500Y-50825000I-75000J0D01*
G01*
G37*
%TD.AperFunction*%
%TO.P,U3,26*%
%TO.N,Net-(U3-Pad26)*%
%TA.AperFunction,SMDPad,CuDef*%
G36*
G01*
X48487500Y-50825000D02*
X48337500Y-50825000D01*
G75*
G02*
X48262500Y-50750000I0J75000D01*
G01*
X48262500Y-49425000D01*
G75*
G02*
X48337500Y-49350000I75000J0D01*
G01*
X48487500Y-49350000D01*
G75*
G02*
X48562500Y-49425000I0J-75000D01*
G01*
X48562500Y-50750000D01*
G75*
G02*
X48487500Y-50825000I-75000J0D01*
G01*
G37*
%TD.AperFunction*%
%TO.P,U3,27*%
%TO.N,Net-(U3-Pad27)*%
%TA.AperFunction,SMDPad,CuDef*%
G36*
G01*
X47987500Y-50825000D02*
X47837500Y-50825000D01*
G75*
G02*
X47762500Y-50750000I0J75000D01*
G01*
X47762500Y-49425000D01*
G75*
G02*
X47837500Y-49350000I75000J0D01*
G01*
X47987500Y-49350000D01*
G75*
G02*
X48062500Y-49425000I0J-75000D01*
G01*
X48062500Y-50750000D01*
G75*
G02*
X47987500Y-50825000I-75000J0D01*
G01*
G37*
%TD.AperFunction*%
%TO.P,U3,28*%
%TO.N,Net-(U3-Pad28)*%
%TA.AperFunction,SMDPad,CuDef*%
G36*
G01*
X47487500Y-50825000D02*
X47337500Y-50825000D01*
G75*
G02*
X47262500Y-50750000I0J75000D01*
G01*
X47262500Y-49425000D01*
G75*
G02*
X47337500Y-49350000I75000J0D01*
G01*
X47487500Y-49350000D01*
G75*
G02*
X47562500Y-49425000I0J-75000D01*
G01*
X47562500Y-50750000D01*
G75*
G02*
X47487500Y-50825000I-75000J0D01*
G01*
G37*
%TD.AperFunction*%
%TO.P,U3,29*%
%TO.N,Net-(U3-Pad29)*%
%TA.AperFunction,SMDPad,CuDef*%
G36*
G01*
X46987500Y-50825000D02*
X46837500Y-50825000D01*
G75*
G02*
X46762500Y-50750000I0J75000D01*
G01*
X46762500Y-49425000D01*
G75*
G02*
X46837500Y-49350000I75000J0D01*
G01*
X46987500Y-49350000D01*
G75*
G02*
X47062500Y-49425000I0J-75000D01*
G01*
X47062500Y-50750000D01*
G75*
G02*
X46987500Y-50825000I-75000J0D01*
G01*
G37*
%TD.AperFunction*%
%TO.P,U3,30*%
%TO.N,/UART1_TX*%
%TA.AperFunction,SMDPad,CuDef*%
G36*
G01*
X46487500Y-50825000D02*
X46337500Y-50825000D01*
G75*
G02*
X46262500Y-50750000I0J75000D01*
G01*
X46262500Y-49425000D01*
G75*
G02*
X46337500Y-49350000I75000J0D01*
G01*
X46487500Y-49350000D01*
G75*
G02*
X46562500Y-49425000I0J-75000D01*
G01*
X46562500Y-50750000D01*
G75*
G02*
X46487500Y-50825000I-75000J0D01*
G01*
G37*
%TD.AperFunction*%
%TO.P,U3,31*%
%TO.N,/UART1_RX*%
%TA.AperFunction,SMDPad,CuDef*%
G36*
G01*
X45987500Y-50825000D02*
X45837500Y-50825000D01*
G75*
G02*
X45762500Y-50750000I0J75000D01*
G01*
X45762500Y-49425000D01*
G75*
G02*
X45837500Y-49350000I75000J0D01*
G01*
X45987500Y-49350000D01*
G75*
G02*
X46062500Y-49425000I0J-75000D01*
G01*
X46062500Y-50750000D01*
G75*
G02*
X45987500Y-50825000I-75000J0D01*
G01*
G37*
%TD.AperFunction*%
%TO.P,U3,32*%
%TO.N,/USB_N*%
%TA.AperFunction,SMDPad,CuDef*%
G36*
G01*
X45487500Y-50825000D02*
X45337500Y-50825000D01*
G75*
G02*
X45262500Y-50750000I0J75000D01*
G01*
X45262500Y-49425000D01*
G75*
G02*
X45337500Y-49350000I75000J0D01*
G01*
X45487500Y-49350000D01*
G75*
G02*
X45562500Y-49425000I0J-75000D01*
G01*
X45562500Y-50750000D01*
G75*
G02*
X45487500Y-50825000I-75000J0D01*
G01*
G37*
%TD.AperFunction*%
%TO.P,U3,33*%
%TO.N,/USB_P*%
%TA.AperFunction,SMDPad,CuDef*%
G36*
G01*
X44987500Y-50825000D02*
X44837500Y-50825000D01*
G75*
G02*
X44762500Y-50750000I0J75000D01*
G01*
X44762500Y-49425000D01*
G75*
G02*
X44837500Y-49350000I75000J0D01*
G01*
X44987500Y-49350000D01*
G75*
G02*
X45062500Y-49425000I0J-75000D01*
G01*
X45062500Y-50750000D01*
G75*
G02*
X44987500Y-50825000I-75000J0D01*
G01*
G37*
%TD.AperFunction*%
%TO.P,U3,34*%
%TO.N,/SWDIO*%
%TA.AperFunction,SMDPad,CuDef*%
G36*
G01*
X44487500Y-50825000D02*
X44337500Y-50825000D01*
G75*
G02*
X44262500Y-50750000I0J75000D01*
G01*
X44262500Y-49425000D01*
G75*
G02*
X44337500Y-49350000I75000J0D01*
G01*
X44487500Y-49350000D01*
G75*
G02*
X44562500Y-49425000I0J-75000D01*
G01*
X44562500Y-50750000D01*
G75*
G02*
X44487500Y-50825000I-75000J0D01*
G01*
G37*
%TD.AperFunction*%
%TO.P,U3,35*%
%TO.N,GND*%
%TA.AperFunction,SMDPad,CuDef*%
G36*
G01*
X43987500Y-50825000D02*
X43837500Y-50825000D01*
G75*
G02*
X43762500Y-50750000I0J75000D01*
G01*
X43762500Y-49425000D01*
G75*
G02*
X43837500Y-49350000I75000J0D01*
G01*
X43987500Y-49350000D01*
G75*
G02*
X44062500Y-49425000I0J-75000D01*
G01*
X44062500Y-50750000D01*
G75*
G02*
X43987500Y-50825000I-75000J0D01*
G01*
G37*
%TD.AperFunction*%
%TO.P,U3,36*%
%TO.N,VCC*%
%TA.AperFunction,SMDPad,CuDef*%
G36*
G01*
X43487500Y-50825000D02*
X43337500Y-50825000D01*
G75*
G02*
X43262500Y-50750000I0J75000D01*
G01*
X43262500Y-49425000D01*
G75*
G02*
X43337500Y-49350000I75000J0D01*
G01*
X43487500Y-49350000D01*
G75*
G02*
X43562500Y-49425000I0J-75000D01*
G01*
X43562500Y-50750000D01*
G75*
G02*
X43487500Y-50825000I-75000J0D01*
G01*
G37*
%TD.AperFunction*%
%TO.P,U3,37*%
%TO.N,/SWCLK*%
%TA.AperFunction,SMDPad,CuDef*%
G36*
G01*
X42662500Y-51650000D02*
X41337500Y-51650000D01*
G75*
G02*
X41262500Y-51575000I0J75000D01*
G01*
X41262500Y-51425000D01*
G75*
G02*
X41337500Y-51350000I75000J0D01*
G01*
X42662500Y-51350000D01*
G75*
G02*
X42737500Y-51425000I0J-75000D01*
G01*
X42737500Y-51575000D01*
G75*
G02*
X42662500Y-51650000I-75000J0D01*
G01*
G37*
%TD.AperFunction*%
%TO.P,U3,38*%
%TO.N,Net-(U3-Pad38)*%
%TA.AperFunction,SMDPad,CuDef*%
G36*
G01*
X42662500Y-52150000D02*
X41337500Y-52150000D01*
G75*
G02*
X41262500Y-52075000I0J75000D01*
G01*
X41262500Y-51925000D01*
G75*
G02*
X41337500Y-51850000I75000J0D01*
G01*
X42662500Y-51850000D01*
G75*
G02*
X42737500Y-51925000I0J-75000D01*
G01*
X42737500Y-52075000D01*
G75*
G02*
X42662500Y-52150000I-75000J0D01*
G01*
G37*
%TD.AperFunction*%
%TO.P,U3,39*%
%TO.N,/LED_R*%
%TA.AperFunction,SMDPad,CuDef*%
G36*
G01*
X42662500Y-52650000D02*
X41337500Y-52650000D01*
G75*
G02*
X41262500Y-52575000I0J75000D01*
G01*
X41262500Y-52425000D01*
G75*
G02*
X41337500Y-52350000I75000J0D01*
G01*
X42662500Y-52350000D01*
G75*
G02*
X42737500Y-52425000I0J-75000D01*
G01*
X42737500Y-52575000D01*
G75*
G02*
X42662500Y-52650000I-75000J0D01*
G01*
G37*
%TD.AperFunction*%
%TO.P,U3,40*%
%TO.N,Net-(U3-Pad40)*%
%TA.AperFunction,SMDPad,CuDef*%
G36*
G01*
X42662500Y-53150000D02*
X41337500Y-53150000D01*
G75*
G02*
X41262500Y-53075000I0J75000D01*
G01*
X41262500Y-52925000D01*
G75*
G02*
X41337500Y-52850000I75000J0D01*
G01*
X42662500Y-52850000D01*
G75*
G02*
X42737500Y-52925000I0J-75000D01*
G01*
X42737500Y-53075000D01*
G75*
G02*
X42662500Y-53150000I-75000J0D01*
G01*
G37*
%TD.AperFunction*%
%TO.P,U3,41*%
%TO.N,Net-(U3-Pad41)*%
%TA.AperFunction,SMDPad,CuDef*%
G36*
G01*
X42662500Y-53650000D02*
X41337500Y-53650000D01*
G75*
G02*
X41262500Y-53575000I0J75000D01*
G01*
X41262500Y-53425000D01*
G75*
G02*
X41337500Y-53350000I75000J0D01*
G01*
X42662500Y-53350000D01*
G75*
G02*
X42737500Y-53425000I0J-75000D01*
G01*
X42737500Y-53575000D01*
G75*
G02*
X42662500Y-53650000I-75000J0D01*
G01*
G37*
%TD.AperFunction*%
%TO.P,U3,42*%
%TO.N,/SCL*%
%TA.AperFunction,SMDPad,CuDef*%
G36*
G01*
X42662500Y-54150000D02*
X41337500Y-54150000D01*
G75*
G02*
X41262500Y-54075000I0J75000D01*
G01*
X41262500Y-53925000D01*
G75*
G02*
X41337500Y-53850000I75000J0D01*
G01*
X42662500Y-53850000D01*
G75*
G02*
X42737500Y-53925000I0J-75000D01*
G01*
X42737500Y-54075000D01*
G75*
G02*
X42662500Y-54150000I-75000J0D01*
G01*
G37*
%TD.AperFunction*%
%TO.P,U3,43*%
%TO.N,/SDA*%
%TA.AperFunction,SMDPad,CuDef*%
G36*
G01*
X42662500Y-54650000D02*
X41337500Y-54650000D01*
G75*
G02*
X41262500Y-54575000I0J75000D01*
G01*
X41262500Y-54425000D01*
G75*
G02*
X41337500Y-54350000I75000J0D01*
G01*
X42662500Y-54350000D01*
G75*
G02*
X42737500Y-54425000I0J-75000D01*
G01*
X42737500Y-54575000D01*
G75*
G02*
X42662500Y-54650000I-75000J0D01*
G01*
G37*
%TD.AperFunction*%
%TO.P,U3,44*%
%TO.N,/BOOT0*%
%TA.AperFunction,SMDPad,CuDef*%
G36*
G01*
X42662500Y-55150000D02*
X41337500Y-55150000D01*
G75*
G02*
X41262500Y-55075000I0J75000D01*
G01*
X41262500Y-54925000D01*
G75*
G02*
X41337500Y-54850000I75000J0D01*
G01*
X42662500Y-54850000D01*
G75*
G02*
X42737500Y-54925000I0J-75000D01*
G01*
X42737500Y-55075000D01*
G75*
G02*
X42662500Y-55150000I-75000J0D01*
G01*
G37*
%TD.AperFunction*%
%TO.P,U3,45*%
%TO.N,/LED_Y*%
%TA.AperFunction,SMDPad,CuDef*%
G36*
G01*
X42662500Y-55650000D02*
X41337500Y-55650000D01*
G75*
G02*
X41262500Y-55575000I0J75000D01*
G01*
X41262500Y-55425000D01*
G75*
G02*
X41337500Y-55350000I75000J0D01*
G01*
X42662500Y-55350000D01*
G75*
G02*
X42737500Y-55425000I0J-75000D01*
G01*
X42737500Y-55575000D01*
G75*
G02*
X42662500Y-55650000I-75000J0D01*
G01*
G37*
%TD.AperFunction*%
%TO.P,U3,46*%
%TO.N,/LED_G*%
%TA.AperFunction,SMDPad,CuDef*%
G36*
G01*
X42662500Y-56150000D02*
X41337500Y-56150000D01*
G75*
G02*
X41262500Y-56075000I0J75000D01*
G01*
X41262500Y-55925000D01*
G75*
G02*
X41337500Y-55850000I75000J0D01*
G01*
X42662500Y-55850000D01*
G75*
G02*
X42737500Y-55925000I0J-75000D01*
G01*
X42737500Y-56075000D01*
G75*
G02*
X42662500Y-56150000I-75000J0D01*
G01*
G37*
%TD.AperFunction*%
%TO.P,U3,47*%
%TO.N,GND*%
%TA.AperFunction,SMDPad,CuDef*%
G36*
G01*
X42662500Y-56650000D02*
X41337500Y-56650000D01*
G75*
G02*
X41262500Y-56575000I0J75000D01*
G01*
X41262500Y-56425000D01*
G75*
G02*
X41337500Y-56350000I75000J0D01*
G01*
X42662500Y-56350000D01*
G75*
G02*
X42737500Y-56425000I0J-75000D01*
G01*
X42737500Y-56575000D01*
G75*
G02*
X42662500Y-56650000I-75000J0D01*
G01*
G37*
%TD.AperFunction*%
%TO.P,U3,48*%
%TO.N,VCC*%
%TA.AperFunction,SMDPad,CuDef*%
G36*
G01*
X42662500Y-57150000D02*
X41337500Y-57150000D01*
G75*
G02*
X41262500Y-57075000I0J75000D01*
G01*
X41262500Y-56925000D01*
G75*
G02*
X41337500Y-56850000I75000J0D01*
G01*
X42662500Y-56850000D01*
G75*
G02*
X42737500Y-56925000I0J-75000D01*
G01*
X42737500Y-57075000D01*
G75*
G02*
X42662500Y-57150000I-75000J0D01*
G01*
G37*
%TD.AperFunction*%
%TD*%
%TO.P,C1,2*%
%TO.N,GND*%
%TA.AperFunction,SMDPad,CuDef*%
G36*
G01*
X34362500Y-58743750D02*
X34362500Y-59256250D01*
G75*
G02*
X34143750Y-59475000I-218750J0D01*
G01*
X33706250Y-59475000D01*
G75*
G02*
X33487500Y-59256250I0J218750D01*
G01*
X33487500Y-58743750D01*
G75*
G02*
X33706250Y-58525000I218750J0D01*
G01*
X34143750Y-58525000D01*
G75*
G02*
X34362500Y-58743750I0J-218750D01*
G01*
G37*
%TD.AperFunction*%
%TO.P,C1,1*%
%TO.N,/NRST*%
%TA.AperFunction,SMDPad,CuDef*%
G36*
G01*
X35937500Y-58743750D02*
X35937500Y-59256250D01*
G75*
G02*
X35718750Y-59475000I-218750J0D01*
G01*
X35281250Y-59475000D01*
G75*
G02*
X35062500Y-59256250I0J218750D01*
G01*
X35062500Y-58743750D01*
G75*
G02*
X35281250Y-58525000I218750J0D01*
G01*
X35718750Y-58525000D01*
G75*
G02*
X35937500Y-58743750I0J-218750D01*
G01*
G37*
%TD.AperFunction*%
%TD*%
%TO.P,C2,2*%
%TO.N,GND*%
%TA.AperFunction,SMDPad,CuDef*%
G36*
G01*
X51637500Y-43256250D02*
X51637500Y-42743750D01*
G75*
G02*
X51856250Y-42525000I218750J0D01*
G01*
X52293750Y-42525000D01*
G75*
G02*
X52512500Y-42743750I0J-218750D01*
G01*
X52512500Y-43256250D01*
G75*
G02*
X52293750Y-43475000I-218750J0D01*
G01*
X51856250Y-43475000D01*
G75*
G02*
X51637500Y-43256250I0J218750D01*
G01*
G37*
%TD.AperFunction*%
%TO.P,C2,1*%
%TO.N,Net-(C2-Pad1)*%
%TA.AperFunction,SMDPad,CuDef*%
G36*
G01*
X50062500Y-43256250D02*
X50062500Y-42743750D01*
G75*
G02*
X50281250Y-42525000I218750J0D01*
G01*
X50718750Y-42525000D01*
G75*
G02*
X50937500Y-42743750I0J-218750D01*
G01*
X50937500Y-43256250D01*
G75*
G02*
X50718750Y-43475000I-218750J0D01*
G01*
X50281250Y-43475000D01*
G75*
G02*
X50062500Y-43256250I0J218750D01*
G01*
G37*
%TD.AperFunction*%
%TD*%
%TO.P,C3,2*%
%TO.N,GND*%
%TA.AperFunction,SMDPad,CuDef*%
G36*
G01*
X55243750Y-46137500D02*
X55756250Y-46137500D01*
G75*
G02*
X55975000Y-46356250I0J-218750D01*
G01*
X55975000Y-46793750D01*
G75*
G02*
X55756250Y-47012500I-218750J0D01*
G01*
X55243750Y-47012500D01*
G75*
G02*
X55025000Y-46793750I0J218750D01*
G01*
X55025000Y-46356250D01*
G75*
G02*
X55243750Y-46137500I218750J0D01*
G01*
G37*
%TD.AperFunction*%
%TO.P,C3,1*%
%TO.N,VCC*%
%TA.AperFunction,SMDPad,CuDef*%
G36*
G01*
X55243750Y-44562500D02*
X55756250Y-44562500D01*
G75*
G02*
X55975000Y-44781250I0J-218750D01*
G01*
X55975000Y-45218750D01*
G75*
G02*
X55756250Y-45437500I-218750J0D01*
G01*
X55243750Y-45437500D01*
G75*
G02*
X55025000Y-45218750I0J218750D01*
G01*
X55025000Y-44781250D01*
G75*
G02*
X55243750Y-44562500I218750J0D01*
G01*
G37*
%TD.AperFunction*%
%TD*%
%TO.P,C4,2*%
%TO.N,GND*%
%TA.AperFunction,SMDPad,CuDef*%
G36*
G01*
X38862500Y-57743750D02*
X38862500Y-58256250D01*
G75*
G02*
X38643750Y-58475000I-218750J0D01*
G01*
X38206250Y-58475000D01*
G75*
G02*
X37987500Y-58256250I0J218750D01*
G01*
X37987500Y-57743750D01*
G75*
G02*
X38206250Y-57525000I218750J0D01*
G01*
X38643750Y-57525000D01*
G75*
G02*
X38862500Y-57743750I0J-218750D01*
G01*
G37*
%TD.AperFunction*%
%TO.P,C4,1*%
%TO.N,VCC*%
%TA.AperFunction,SMDPad,CuDef*%
G36*
G01*
X40437500Y-57743750D02*
X40437500Y-58256250D01*
G75*
G02*
X40218750Y-58475000I-218750J0D01*
G01*
X39781250Y-58475000D01*
G75*
G02*
X39562500Y-58256250I0J218750D01*
G01*
X39562500Y-57743750D01*
G75*
G02*
X39781250Y-57525000I218750J0D01*
G01*
X40218750Y-57525000D01*
G75*
G02*
X40437500Y-57743750I0J-218750D01*
G01*
G37*
%TD.AperFunction*%
%TD*%
%TO.P,C5,1*%
%TO.N,VCC*%
%TA.AperFunction,SMDPad,CuDef*%
G36*
G01*
X41275000Y-45756250D02*
X41275000Y-45243750D01*
G75*
G02*
X41493750Y-45025000I218750J0D01*
G01*
X41931250Y-45025000D01*
G75*
G02*
X42150000Y-45243750I0J-218750D01*
G01*
X42150000Y-45756250D01*
G75*
G02*
X41931250Y-45975000I-218750J0D01*
G01*
X41493750Y-45975000D01*
G75*
G02*
X41275000Y-45756250I0J218750D01*
G01*
G37*
%TD.AperFunction*%
%TO.P,C5,2*%
%TO.N,GND*%
%TA.AperFunction,SMDPad,CuDef*%
G36*
G01*
X42850000Y-45756250D02*
X42850000Y-45243750D01*
G75*
G02*
X43068750Y-45025000I218750J0D01*
G01*
X43506250Y-45025000D01*
G75*
G02*
X43725000Y-45243750I0J-218750D01*
G01*
X43725000Y-45756250D01*
G75*
G02*
X43506250Y-45975000I-218750J0D01*
G01*
X43068750Y-45975000D01*
G75*
G02*
X42850000Y-45756250I0J218750D01*
G01*
G37*
%TD.AperFunction*%
%TD*%
%TO.P,C6,2*%
%TO.N,GND*%
%TA.AperFunction,SMDPad,CuDef*%
G36*
G01*
X38862500Y-59243750D02*
X38862500Y-59756250D01*
G75*
G02*
X38643750Y-59975000I-218750J0D01*
G01*
X38206250Y-59975000D01*
G75*
G02*
X37987500Y-59756250I0J218750D01*
G01*
X37987500Y-59243750D01*
G75*
G02*
X38206250Y-59025000I218750J0D01*
G01*
X38643750Y-59025000D01*
G75*
G02*
X38862500Y-59243750I0J-218750D01*
G01*
G37*
%TD.AperFunction*%
%TO.P,C6,1*%
%TO.N,VCC*%
%TA.AperFunction,SMDPad,CuDef*%
G36*
G01*
X40437500Y-59243750D02*
X40437500Y-59756250D01*
G75*
G02*
X40218750Y-59975000I-218750J0D01*
G01*
X39781250Y-59975000D01*
G75*
G02*
X39562500Y-59756250I0J218750D01*
G01*
X39562500Y-59243750D01*
G75*
G02*
X39781250Y-59025000I218750J0D01*
G01*
X40218750Y-59025000D01*
G75*
G02*
X40437500Y-59243750I0J-218750D01*
G01*
G37*
%TD.AperFunction*%
%TD*%
%TO.P,C7,1*%
%TO.N,VCC*%
%TA.AperFunction,SMDPad,CuDef*%
G36*
G01*
X53775000Y-50256250D02*
X53775000Y-49743750D01*
G75*
G02*
X53993750Y-49525000I218750J0D01*
G01*
X54431250Y-49525000D01*
G75*
G02*
X54650000Y-49743750I0J-218750D01*
G01*
X54650000Y-50256250D01*
G75*
G02*
X54431250Y-50475000I-218750J0D01*
G01*
X53993750Y-50475000D01*
G75*
G02*
X53775000Y-50256250I0J218750D01*
G01*
G37*
%TD.AperFunction*%
%TO.P,C7,2*%
%TO.N,GND*%
%TA.AperFunction,SMDPad,CuDef*%
G36*
G01*
X55350000Y-50256250D02*
X55350000Y-49743750D01*
G75*
G02*
X55568750Y-49525000I218750J0D01*
G01*
X56006250Y-49525000D01*
G75*
G02*
X56225000Y-49743750I0J-218750D01*
G01*
X56225000Y-50256250D01*
G75*
G02*
X56006250Y-50475000I-218750J0D01*
G01*
X55568750Y-50475000D01*
G75*
G02*
X55350000Y-50256250I0J218750D01*
G01*
G37*
%TD.AperFunction*%
%TD*%
%TO.P,C8,1*%
%TO.N,VCC*%
%TA.AperFunction,SMDPad,CuDef*%
G36*
G01*
X56743750Y-44562500D02*
X57256250Y-44562500D01*
G75*
G02*
X57475000Y-44781250I0J-218750D01*
G01*
X57475000Y-45218750D01*
G75*
G02*
X57256250Y-45437500I-218750J0D01*
G01*
X56743750Y-45437500D01*
G75*
G02*
X56525000Y-45218750I0J218750D01*
G01*
X56525000Y-44781250D01*
G75*
G02*
X56743750Y-44562500I218750J0D01*
G01*
G37*
%TD.AperFunction*%
%TO.P,C8,2*%
%TO.N,GND*%
%TA.AperFunction,SMDPad,CuDef*%
G36*
G01*
X56743750Y-46137500D02*
X57256250Y-46137500D01*
G75*
G02*
X57475000Y-46356250I0J-218750D01*
G01*
X57475000Y-46793750D01*
G75*
G02*
X57256250Y-47012500I-218750J0D01*
G01*
X56743750Y-47012500D01*
G75*
G02*
X56525000Y-46793750I0J218750D01*
G01*
X56525000Y-46356250D01*
G75*
G02*
X56743750Y-46137500I218750J0D01*
G01*
G37*
%TD.AperFunction*%
%TD*%
%TO.P,C9,1*%
%TO.N,VCC*%
%TA.AperFunction,SMDPad,CuDef*%
G36*
G01*
X41275000Y-47256250D02*
X41275000Y-46743750D01*
G75*
G02*
X41493750Y-46525000I218750J0D01*
G01*
X41931250Y-46525000D01*
G75*
G02*
X42150000Y-46743750I0J-218750D01*
G01*
X42150000Y-47256250D01*
G75*
G02*
X41931250Y-47475000I-218750J0D01*
G01*
X41493750Y-47475000D01*
G75*
G02*
X41275000Y-47256250I0J218750D01*
G01*
G37*
%TD.AperFunction*%
%TO.P,C9,2*%
%TO.N,GND*%
%TA.AperFunction,SMDPad,CuDef*%
G36*
G01*
X42850000Y-47256250D02*
X42850000Y-46743750D01*
G75*
G02*
X43068750Y-46525000I218750J0D01*
G01*
X43506250Y-46525000D01*
G75*
G02*
X43725000Y-46743750I0J-218750D01*
G01*
X43725000Y-47256250D01*
G75*
G02*
X43506250Y-47475000I-218750J0D01*
G01*
X43068750Y-47475000D01*
G75*
G02*
X42850000Y-47256250I0J218750D01*
G01*
G37*
%TD.AperFunction*%
%TD*%
%TO.P,C10,2*%
%TO.N,GND*%
%TA.AperFunction,SMDPad,CuDef*%
G36*
G01*
X46362500Y-60243750D02*
X46362500Y-60756250D01*
G75*
G02*
X46143750Y-60975000I-218750J0D01*
G01*
X45706250Y-60975000D01*
G75*
G02*
X45487500Y-60756250I0J218750D01*
G01*
X45487500Y-60243750D01*
G75*
G02*
X45706250Y-60025000I218750J0D01*
G01*
X46143750Y-60025000D01*
G75*
G02*
X46362500Y-60243750I0J-218750D01*
G01*
G37*
%TD.AperFunction*%
%TO.P,C10,1*%
%TO.N,VCC*%
%TA.AperFunction,SMDPad,CuDef*%
G36*
G01*
X47937500Y-60243750D02*
X47937500Y-60756250D01*
G75*
G02*
X47718750Y-60975000I-218750J0D01*
G01*
X47281250Y-60975000D01*
G75*
G02*
X47062500Y-60756250I0J218750D01*
G01*
X47062500Y-60243750D01*
G75*
G02*
X47281250Y-60025000I218750J0D01*
G01*
X47718750Y-60025000D01*
G75*
G02*
X47937500Y-60243750I0J-218750D01*
G01*
G37*
%TD.AperFunction*%
%TD*%
%TO.P,C11,1*%
%TO.N,VCC*%
%TA.AperFunction,SMDPad,CuDef*%
G36*
G01*
X40437500Y-56243750D02*
X40437500Y-56756250D01*
G75*
G02*
X40218750Y-56975000I-218750J0D01*
G01*
X39781250Y-56975000D01*
G75*
G02*
X39562500Y-56756250I0J218750D01*
G01*
X39562500Y-56243750D01*
G75*
G02*
X39781250Y-56025000I218750J0D01*
G01*
X40218750Y-56025000D01*
G75*
G02*
X40437500Y-56243750I0J-218750D01*
G01*
G37*
%TD.AperFunction*%
%TO.P,C11,2*%
%TO.N,GND*%
%TA.AperFunction,SMDPad,CuDef*%
G36*
G01*
X38862500Y-56243750D02*
X38862500Y-56756250D01*
G75*
G02*
X38643750Y-56975000I-218750J0D01*
G01*
X38206250Y-56975000D01*
G75*
G02*
X37987500Y-56756250I0J218750D01*
G01*
X37987500Y-56243750D01*
G75*
G02*
X38206250Y-56025000I218750J0D01*
G01*
X38643750Y-56025000D01*
G75*
G02*
X38862500Y-56243750I0J-218750D01*
G01*
G37*
%TD.AperFunction*%
%TD*%
%TO.P,C12,1*%
%TO.N,GND*%
%TA.AperFunction,SMDPad,CuDef*%
G36*
G01*
X53225000Y-74243750D02*
X53225000Y-74756250D01*
G75*
G02*
X53006250Y-74975000I-218750J0D01*
G01*
X52568750Y-74975000D01*
G75*
G02*
X52350000Y-74756250I0J218750D01*
G01*
X52350000Y-74243750D01*
G75*
G02*
X52568750Y-74025000I218750J0D01*
G01*
X53006250Y-74025000D01*
G75*
G02*
X53225000Y-74243750I0J-218750D01*
G01*
G37*
%TD.AperFunction*%
%TO.P,C12,2*%
%TO.N,VCC*%
%TA.AperFunction,SMDPad,CuDef*%
G36*
G01*
X51650000Y-74243750D02*
X51650000Y-74756250D01*
G75*
G02*
X51431250Y-74975000I-218750J0D01*
G01*
X50993750Y-74975000D01*
G75*
G02*
X50775000Y-74756250I0J218750D01*
G01*
X50775000Y-74243750D01*
G75*
G02*
X50993750Y-74025000I218750J0D01*
G01*
X51431250Y-74025000D01*
G75*
G02*
X51650000Y-74243750I0J-218750D01*
G01*
G37*
%TD.AperFunction*%
%TD*%
%TO.P,D1,1*%
%TO.N,Net-(D1-Pad1)*%
%TA.AperFunction,SMDPad,CuDef*%
G36*
G01*
X33262500Y-64212500D02*
X33262500Y-63787500D01*
G75*
G02*
X33475000Y-63575000I212500J0D01*
G01*
X34275000Y-63575000D01*
G75*
G02*
X34487500Y-63787500I0J-212500D01*
G01*
X34487500Y-64212500D01*
G75*
G02*
X34275000Y-64425000I-212500J0D01*
G01*
X33475000Y-64425000D01*
G75*
G02*
X33262500Y-64212500I0J212500D01*
G01*
G37*
%TD.AperFunction*%
%TO.P,D1,2*%
%TO.N,VCC*%
%TA.AperFunction,SMDPad,CuDef*%
G36*
G01*
X34887500Y-64212500D02*
X34887500Y-63787500D01*
G75*
G02*
X35100000Y-63575000I212500J0D01*
G01*
X35900000Y-63575000D01*
G75*
G02*
X36112500Y-63787500I0J-212500D01*
G01*
X36112500Y-64212500D01*
G75*
G02*
X35900000Y-64425000I-212500J0D01*
G01*
X35100000Y-64425000D01*
G75*
G02*
X34887500Y-64212500I0J212500D01*
G01*
G37*
%TD.AperFunction*%
%TD*%
%TO.P,D2,2*%
%TO.N,VCC*%
%TA.AperFunction,SMDPad,CuDef*%
G36*
G01*
X34887500Y-67812500D02*
X34887500Y-67387500D01*
G75*
G02*
X35100000Y-67175000I212500J0D01*
G01*
X35900000Y-67175000D01*
G75*
G02*
X36112500Y-67387500I0J-212500D01*
G01*
X36112500Y-67812500D01*
G75*
G02*
X35900000Y-68025000I-212500J0D01*
G01*
X35100000Y-68025000D01*
G75*
G02*
X34887500Y-67812500I0J212500D01*
G01*
G37*
%TD.AperFunction*%
%TO.P,D2,1*%
%TO.N,Net-(D2-Pad1)*%
%TA.AperFunction,SMDPad,CuDef*%
G36*
G01*
X33262500Y-67812500D02*
X33262500Y-67387500D01*
G75*
G02*
X33475000Y-67175000I212500J0D01*
G01*
X34275000Y-67175000D01*
G75*
G02*
X34487500Y-67387500I0J-212500D01*
G01*
X34487500Y-67812500D01*
G75*
G02*
X34275000Y-68025000I-212500J0D01*
G01*
X33475000Y-68025000D01*
G75*
G02*
X33262500Y-67812500I0J212500D01*
G01*
G37*
%TD.AperFunction*%
%TD*%
%TO.P,D3,1*%
%TO.N,Net-(D3-Pad1)*%
%TA.AperFunction,SMDPad,CuDef*%
G36*
G01*
X33262500Y-71412500D02*
X33262500Y-70987500D01*
G75*
G02*
X33475000Y-70775000I212500J0D01*
G01*
X34275000Y-70775000D01*
G75*
G02*
X34487500Y-70987500I0J-212500D01*
G01*
X34487500Y-71412500D01*
G75*
G02*
X34275000Y-71625000I-212500J0D01*
G01*
X33475000Y-71625000D01*
G75*
G02*
X33262500Y-71412500I0J212500D01*
G01*
G37*
%TD.AperFunction*%
%TO.P,D3,2*%
%TO.N,VCC*%
%TA.AperFunction,SMDPad,CuDef*%
G36*
G01*
X34887500Y-71412500D02*
X34887500Y-70987500D01*
G75*
G02*
X35100000Y-70775000I212500J0D01*
G01*
X35900000Y-70775000D01*
G75*
G02*
X36112500Y-70987500I0J-212500D01*
G01*
X36112500Y-71412500D01*
G75*
G02*
X35900000Y-71625000I-212500J0D01*
G01*
X35100000Y-71625000D01*
G75*
G02*
X34887500Y-71412500I0J212500D01*
G01*
G37*
%TD.AperFunction*%
%TD*%
D11*
%TO.P,J1,6*%
%TO.N,Net-(J1-Pad6)*%
X42275000Y-39815000D03*
X47755000Y-39815000D03*
D12*
X47975000Y-40565000D03*
X42025000Y-40565000D03*
D13*
X47875000Y-41865000D03*
X42125000Y-41885000D03*
D14*
%TO.P,J1,1*%
%TO.N,Net-(C2-Pad1)*%
X46325000Y-41765000D03*
%TO.P,J1,2*%
%TO.N,/USB_N*%
X45675000Y-41765000D03*
%TO.P,J1,3*%
%TO.N,/USB_P*%
X45025000Y-41765000D03*
%TO.P,J1,4*%
%TO.N,Net-(J1-Pad4)*%
X44375000Y-41765000D03*
%TO.P,J1,5*%
%TO.N,GND*%
X43725000Y-41765000D03*
D15*
%TO.P,J1,6*%
%TO.N,Net-(J1-Pad6)*%
X47445000Y-41885000D03*
X42605000Y-41885000D03*
D16*
X47755000Y-38885000D03*
X42295000Y-38885000D03*
D17*
X45985000Y-38615000D03*
X44065000Y-38615000D03*
%TD*%
D18*
%TO.P,J3,1*%
%TO.N,VCC*%
X44200000Y-96600000D03*
D19*
%TO.P,J3,2*%
%TO.N,/UART1_TX*%
X46740000Y-96600000D03*
%TO.P,J3,3*%
%TO.N,/UART1_RX*%
X49280000Y-96600000D03*
%TO.P,J3,4*%
%TO.N,/NRST*%
X51820000Y-96600000D03*
%TO.P,J3,5*%
%TO.N,GND*%
X54360000Y-96600000D03*
%TD*%
D20*
%TO.P,J5,1*%
%TO.N,VCC*%
X34000000Y-52000000D03*
D21*
%TO.P,J5,2*%
%TO.N,/SWDIO*%
X35270000Y-52000000D03*
%TO.P,J5,3*%
%TO.N,GND*%
X34000000Y-53270000D03*
%TO.P,J5,4*%
%TO.N,/SWCLK*%
X35270000Y-53270000D03*
%TO.P,J5,5*%
%TO.N,GND*%
X34000000Y-54540000D03*
%TO.P,J5,6*%
%TO.N,Net-(J5-Pad6)*%
X35270000Y-54540000D03*
%TO.P,J5,7*%
%TO.N,Net-(J5-Pad7)*%
X34000000Y-55810000D03*
%TO.P,J5,8*%
%TO.N,Net-(J5-Pad8)*%
X35270000Y-55810000D03*
%TO.P,J5,9*%
%TO.N,GND*%
X34000000Y-57080000D03*
%TO.P,J5,10*%
%TO.N,/NRST*%
X35270000Y-57080000D03*
%TD*%
D18*
%TO.P,J6,1*%
%TO.N,VCC*%
X38800000Y-44760000D03*
D19*
%TO.P,J6,2*%
%TO.N,/BOOT0*%
X38800000Y-47300000D03*
%TD*%
D22*
%TO.P,Q1,1*%
%TO.N,Net-(Q1-Pad1)*%
X56425000Y-59600000D03*
%TO.P,Q1,2*%
%TO.N,Net-(Q1-Pad2)*%
X56425000Y-60400000D03*
D23*
%TO.P,Q1,3*%
%TO.N,VCC*%
X57575000Y-60000000D03*
%TD*%
%TO.P,Q2,3*%
%TO.N,VCC*%
X57575000Y-56000000D03*
D22*
%TO.P,Q2,2*%
%TO.N,Net-(Q2-Pad2)*%
X56425000Y-56400000D03*
%TO.P,Q2,1*%
%TO.N,Net-(Q2-Pad1)*%
X56425000Y-55600000D03*
%TD*%
%TO.P,R1,1*%
%TO.N,VCC*%
%TA.AperFunction,SMDPad,CuDef*%
G36*
G01*
X43243750Y-78562500D02*
X43756250Y-78562500D01*
G75*
G02*
X43975000Y-78781250I0J-218750D01*
G01*
X43975000Y-79218750D01*
G75*
G02*
X43756250Y-79437500I-218750J0D01*
G01*
X43243750Y-79437500D01*
G75*
G02*
X43025000Y-79218750I0J218750D01*
G01*
X43025000Y-78781250D01*
G75*
G02*
X43243750Y-78562500I218750J0D01*
G01*
G37*
%TD.AperFunction*%
%TO.P,R1,2*%
%TO.N,/~CS*%
%TA.AperFunction,SMDPad,CuDef*%
G36*
G01*
X43243750Y-80137500D02*
X43756250Y-80137500D01*
G75*
G02*
X43975000Y-80356250I0J-218750D01*
G01*
X43975000Y-80793750D01*
G75*
G02*
X43756250Y-81012500I-218750J0D01*
G01*
X43243750Y-81012500D01*
G75*
G02*
X43025000Y-80793750I0J218750D01*
G01*
X43025000Y-80356250D01*
G75*
G02*
X43243750Y-80137500I218750J0D01*
G01*
G37*
%TD.AperFunction*%
%TD*%
%TO.P,R2,2*%
%TO.N,/~WP*%
%TA.AperFunction,SMDPad,CuDef*%
G36*
G01*
X41743750Y-80137500D02*
X42256250Y-80137500D01*
G75*
G02*
X42475000Y-80356250I0J-218750D01*
G01*
X42475000Y-80793750D01*
G75*
G02*
X42256250Y-81012500I-218750J0D01*
G01*
X41743750Y-81012500D01*
G75*
G02*
X41525000Y-80793750I0J218750D01*
G01*
X41525000Y-80356250D01*
G75*
G02*
X41743750Y-80137500I218750J0D01*
G01*
G37*
%TD.AperFunction*%
%TO.P,R2,1*%
%TO.N,VCC*%
%TA.AperFunction,SMDPad,CuDef*%
G36*
G01*
X41743750Y-78562500D02*
X42256250Y-78562500D01*
G75*
G02*
X42475000Y-78781250I0J-218750D01*
G01*
X42475000Y-79218750D01*
G75*
G02*
X42256250Y-79437500I-218750J0D01*
G01*
X41743750Y-79437500D01*
G75*
G02*
X41525000Y-79218750I0J218750D01*
G01*
X41525000Y-78781250D01*
G75*
G02*
X41743750Y-78562500I218750J0D01*
G01*
G37*
%TD.AperFunction*%
%TD*%
%TO.P,R3,2*%
%TO.N,GND*%
%TA.AperFunction,SMDPad,CuDef*%
G36*
G01*
X39262500Y-41156250D02*
X39262500Y-40643750D01*
G75*
G02*
X39481250Y-40425000I218750J0D01*
G01*
X39918750Y-40425000D01*
G75*
G02*
X40137500Y-40643750I0J-218750D01*
G01*
X40137500Y-41156250D01*
G75*
G02*
X39918750Y-41375000I-218750J0D01*
G01*
X39481250Y-41375000D01*
G75*
G02*
X39262500Y-41156250I0J218750D01*
G01*
G37*
%TD.AperFunction*%
%TO.P,R3,1*%
%TO.N,/BOOT0*%
%TA.AperFunction,SMDPad,CuDef*%
G36*
G01*
X37687500Y-41156250D02*
X37687500Y-40643750D01*
G75*
G02*
X37906250Y-40425000I218750J0D01*
G01*
X38343750Y-40425000D01*
G75*
G02*
X38562500Y-40643750I0J-218750D01*
G01*
X38562500Y-41156250D01*
G75*
G02*
X38343750Y-41375000I-218750J0D01*
G01*
X37906250Y-41375000D01*
G75*
G02*
X37687500Y-41156250I0J218750D01*
G01*
G37*
%TD.AperFunction*%
%TD*%
%TO.P,R4,1*%
%TO.N,Net-(R4-Pad1)*%
%TA.AperFunction,SMDPad,CuDef*%
G36*
G01*
X54987500Y-89756250D02*
X54987500Y-89243750D01*
G75*
G02*
X55206250Y-89025000I218750J0D01*
G01*
X55643750Y-89025000D01*
G75*
G02*
X55862500Y-89243750I0J-218750D01*
G01*
X55862500Y-89756250D01*
G75*
G02*
X55643750Y-89975000I-218750J0D01*
G01*
X55206250Y-89975000D01*
G75*
G02*
X54987500Y-89756250I0J218750D01*
G01*
G37*
%TD.AperFunction*%
%TO.P,R4,2*%
%TO.N,GND*%
%TA.AperFunction,SMDPad,CuDef*%
G36*
G01*
X56562500Y-89756250D02*
X56562500Y-89243750D01*
G75*
G02*
X56781250Y-89025000I218750J0D01*
G01*
X57218750Y-89025000D01*
G75*
G02*
X57437500Y-89243750I0J-218750D01*
G01*
X57437500Y-89756250D01*
G75*
G02*
X57218750Y-89975000I-218750J0D01*
G01*
X56781250Y-89975000D01*
G75*
G02*
X56562500Y-89756250I0J218750D01*
G01*
G37*
%TD.AperFunction*%
%TD*%
%TO.P,R5,2*%
%TO.N,/LED_R*%
%TA.AperFunction,SMDPad,CuDef*%
G36*
G01*
X34950000Y-62456250D02*
X34950000Y-61943750D01*
G75*
G02*
X35168750Y-61725000I218750J0D01*
G01*
X35606250Y-61725000D01*
G75*
G02*
X35825000Y-61943750I0J-218750D01*
G01*
X35825000Y-62456250D01*
G75*
G02*
X35606250Y-62675000I-218750J0D01*
G01*
X35168750Y-62675000D01*
G75*
G02*
X34950000Y-62456250I0J218750D01*
G01*
G37*
%TD.AperFunction*%
%TO.P,R5,1*%
%TO.N,Net-(D1-Pad1)*%
%TA.AperFunction,SMDPad,CuDef*%
G36*
G01*
X33375000Y-62456250D02*
X33375000Y-61943750D01*
G75*
G02*
X33593750Y-61725000I218750J0D01*
G01*
X34031250Y-61725000D01*
G75*
G02*
X34250000Y-61943750I0J-218750D01*
G01*
X34250000Y-62456250D01*
G75*
G02*
X34031250Y-62675000I-218750J0D01*
G01*
X33593750Y-62675000D01*
G75*
G02*
X33375000Y-62456250I0J218750D01*
G01*
G37*
%TD.AperFunction*%
%TD*%
%TO.P,R6,2*%
%TO.N,/LED_Y*%
%TA.AperFunction,SMDPad,CuDef*%
G36*
G01*
X34950000Y-66056250D02*
X34950000Y-65543750D01*
G75*
G02*
X35168750Y-65325000I218750J0D01*
G01*
X35606250Y-65325000D01*
G75*
G02*
X35825000Y-65543750I0J-218750D01*
G01*
X35825000Y-66056250D01*
G75*
G02*
X35606250Y-66275000I-218750J0D01*
G01*
X35168750Y-66275000D01*
G75*
G02*
X34950000Y-66056250I0J218750D01*
G01*
G37*
%TD.AperFunction*%
%TO.P,R6,1*%
%TO.N,Net-(D2-Pad1)*%
%TA.AperFunction,SMDPad,CuDef*%
G36*
G01*
X33375000Y-66056250D02*
X33375000Y-65543750D01*
G75*
G02*
X33593750Y-65325000I218750J0D01*
G01*
X34031250Y-65325000D01*
G75*
G02*
X34250000Y-65543750I0J-218750D01*
G01*
X34250000Y-66056250D01*
G75*
G02*
X34031250Y-66275000I-218750J0D01*
G01*
X33593750Y-66275000D01*
G75*
G02*
X33375000Y-66056250I0J218750D01*
G01*
G37*
%TD.AperFunction*%
%TD*%
%TO.P,R7,2*%
%TO.N,/DISPA*%
%TA.AperFunction,SMDPad,CuDef*%
G36*
G01*
X53362500Y-58243750D02*
X53362500Y-58756250D01*
G75*
G02*
X53143750Y-58975000I-218750J0D01*
G01*
X52706250Y-58975000D01*
G75*
G02*
X52487500Y-58756250I0J218750D01*
G01*
X52487500Y-58243750D01*
G75*
G02*
X52706250Y-58025000I218750J0D01*
G01*
X53143750Y-58025000D01*
G75*
G02*
X53362500Y-58243750I0J-218750D01*
G01*
G37*
%TD.AperFunction*%
%TO.P,R7,1*%
%TO.N,Net-(Q1-Pad1)*%
%TA.AperFunction,SMDPad,CuDef*%
G36*
G01*
X54937500Y-58243750D02*
X54937500Y-58756250D01*
G75*
G02*
X54718750Y-58975000I-218750J0D01*
G01*
X54281250Y-58975000D01*
G75*
G02*
X54062500Y-58756250I0J218750D01*
G01*
X54062500Y-58243750D01*
G75*
G02*
X54281250Y-58025000I218750J0D01*
G01*
X54718750Y-58025000D01*
G75*
G02*
X54937500Y-58243750I0J-218750D01*
G01*
G37*
%TD.AperFunction*%
%TD*%
%TO.P,R8,1*%
%TO.N,Net-(D3-Pad1)*%
%TA.AperFunction,SMDPad,CuDef*%
G36*
G01*
X33387500Y-69656250D02*
X33387500Y-69143750D01*
G75*
G02*
X33606250Y-68925000I218750J0D01*
G01*
X34043750Y-68925000D01*
G75*
G02*
X34262500Y-69143750I0J-218750D01*
G01*
X34262500Y-69656250D01*
G75*
G02*
X34043750Y-69875000I-218750J0D01*
G01*
X33606250Y-69875000D01*
G75*
G02*
X33387500Y-69656250I0J218750D01*
G01*
G37*
%TD.AperFunction*%
%TO.P,R8,2*%
%TO.N,/LED_G*%
%TA.AperFunction,SMDPad,CuDef*%
G36*
G01*
X34962500Y-69656250D02*
X34962500Y-69143750D01*
G75*
G02*
X35181250Y-68925000I218750J0D01*
G01*
X35618750Y-68925000D01*
G75*
G02*
X35837500Y-69143750I0J-218750D01*
G01*
X35837500Y-69656250D01*
G75*
G02*
X35618750Y-69875000I-218750J0D01*
G01*
X35181250Y-69875000D01*
G75*
G02*
X34962500Y-69656250I0J218750D01*
G01*
G37*
%TD.AperFunction*%
%TD*%
%TO.P,R9,2*%
%TO.N,Net-(Q1-Pad1)*%
%TA.AperFunction,SMDPad,CuDef*%
G36*
G01*
X54062500Y-60256250D02*
X54062500Y-59743750D01*
G75*
G02*
X54281250Y-59525000I218750J0D01*
G01*
X54718750Y-59525000D01*
G75*
G02*
X54937500Y-59743750I0J-218750D01*
G01*
X54937500Y-60256250D01*
G75*
G02*
X54718750Y-60475000I-218750J0D01*
G01*
X54281250Y-60475000D01*
G75*
G02*
X54062500Y-60256250I0J218750D01*
G01*
G37*
%TD.AperFunction*%
%TO.P,R9,1*%
%TO.N,VCC*%
%TA.AperFunction,SMDPad,CuDef*%
G36*
G01*
X52487500Y-60256250D02*
X52487500Y-59743750D01*
G75*
G02*
X52706250Y-59525000I218750J0D01*
G01*
X53143750Y-59525000D01*
G75*
G02*
X53362500Y-59743750I0J-218750D01*
G01*
X53362500Y-60256250D01*
G75*
G02*
X53143750Y-60475000I-218750J0D01*
G01*
X52706250Y-60475000D01*
G75*
G02*
X52487500Y-60256250I0J218750D01*
G01*
G37*
%TD.AperFunction*%
%TD*%
%TO.P,R10,1*%
%TO.N,Net-(Q2-Pad1)*%
%TA.AperFunction,SMDPad,CuDef*%
G36*
G01*
X56225000Y-52743750D02*
X56225000Y-53256250D01*
G75*
G02*
X56006250Y-53475000I-218750J0D01*
G01*
X55568750Y-53475000D01*
G75*
G02*
X55350000Y-53256250I0J218750D01*
G01*
X55350000Y-52743750D01*
G75*
G02*
X55568750Y-52525000I218750J0D01*
G01*
X56006250Y-52525000D01*
G75*
G02*
X56225000Y-52743750I0J-218750D01*
G01*
G37*
%TD.AperFunction*%
%TO.P,R10,2*%
%TO.N,/DISPB*%
%TA.AperFunction,SMDPad,CuDef*%
G36*
G01*
X54650000Y-52743750D02*
X54650000Y-53256250D01*
G75*
G02*
X54431250Y-53475000I-218750J0D01*
G01*
X53993750Y-53475000D01*
G75*
G02*
X53775000Y-53256250I0J218750D01*
G01*
X53775000Y-52743750D01*
G75*
G02*
X53993750Y-52525000I218750J0D01*
G01*
X54431250Y-52525000D01*
G75*
G02*
X54650000Y-52743750I0J-218750D01*
G01*
G37*
%TD.AperFunction*%
%TD*%
%TO.P,R11,1*%
%TO.N,VCC*%
%TA.AperFunction,SMDPad,CuDef*%
G36*
G01*
X53775000Y-51756250D02*
X53775000Y-51243750D01*
G75*
G02*
X53993750Y-51025000I218750J0D01*
G01*
X54431250Y-51025000D01*
G75*
G02*
X54650000Y-51243750I0J-218750D01*
G01*
X54650000Y-51756250D01*
G75*
G02*
X54431250Y-51975000I-218750J0D01*
G01*
X53993750Y-51975000D01*
G75*
G02*
X53775000Y-51756250I0J218750D01*
G01*
G37*
%TD.AperFunction*%
%TO.P,R11,2*%
%TO.N,Net-(Q2-Pad1)*%
%TA.AperFunction,SMDPad,CuDef*%
G36*
G01*
X55350000Y-51756250D02*
X55350000Y-51243750D01*
G75*
G02*
X55568750Y-51025000I218750J0D01*
G01*
X56006250Y-51025000D01*
G75*
G02*
X56225000Y-51243750I0J-218750D01*
G01*
X56225000Y-51756250D01*
G75*
G02*
X56006250Y-51975000I-218750J0D01*
G01*
X55568750Y-51975000D01*
G75*
G02*
X55350000Y-51756250I0J218750D01*
G01*
G37*
%TD.AperFunction*%
%TD*%
%TO.P,R12,1*%
%TO.N,/B0*%
%TA.AperFunction,SMDPad,CuDef*%
G36*
G01*
X38275000Y-63256250D02*
X38275000Y-62743750D01*
G75*
G02*
X38493750Y-62525000I218750J0D01*
G01*
X38931250Y-62525000D01*
G75*
G02*
X39150000Y-62743750I0J-218750D01*
G01*
X39150000Y-63256250D01*
G75*
G02*
X38931250Y-63475000I-218750J0D01*
G01*
X38493750Y-63475000D01*
G75*
G02*
X38275000Y-63256250I0J218750D01*
G01*
G37*
%TD.AperFunction*%
%TO.P,R12,2*%
%TO.N,Net-(R12-Pad2)*%
%TA.AperFunction,SMDPad,CuDef*%
G36*
G01*
X39850000Y-63256250D02*
X39850000Y-62743750D01*
G75*
G02*
X40068750Y-62525000I218750J0D01*
G01*
X40506250Y-62525000D01*
G75*
G02*
X40725000Y-62743750I0J-218750D01*
G01*
X40725000Y-63256250D01*
G75*
G02*
X40506250Y-63475000I-218750J0D01*
G01*
X40068750Y-63475000D01*
G75*
G02*
X39850000Y-63256250I0J218750D01*
G01*
G37*
%TD.AperFunction*%
%TD*%
%TO.P,R13,2*%
%TO.N,Net-(R13-Pad2)*%
%TA.AperFunction,SMDPad,CuDef*%
G36*
G01*
X39850000Y-64756250D02*
X39850000Y-64243750D01*
G75*
G02*
X40068750Y-64025000I218750J0D01*
G01*
X40506250Y-64025000D01*
G75*
G02*
X40725000Y-64243750I0J-218750D01*
G01*
X40725000Y-64756250D01*
G75*
G02*
X40506250Y-64975000I-218750J0D01*
G01*
X40068750Y-64975000D01*
G75*
G02*
X39850000Y-64756250I0J218750D01*
G01*
G37*
%TD.AperFunction*%
%TO.P,R13,1*%
%TO.N,/B1*%
%TA.AperFunction,SMDPad,CuDef*%
G36*
G01*
X38275000Y-64756250D02*
X38275000Y-64243750D01*
G75*
G02*
X38493750Y-64025000I218750J0D01*
G01*
X38931250Y-64025000D01*
G75*
G02*
X39150000Y-64243750I0J-218750D01*
G01*
X39150000Y-64756250D01*
G75*
G02*
X38931250Y-64975000I-218750J0D01*
G01*
X38493750Y-64975000D01*
G75*
G02*
X38275000Y-64756250I0J218750D01*
G01*
G37*
%TD.AperFunction*%
%TD*%
%TO.P,R14,1*%
%TO.N,/B2*%
%TA.AperFunction,SMDPad,CuDef*%
G36*
G01*
X38275000Y-66256250D02*
X38275000Y-65743750D01*
G75*
G02*
X38493750Y-65525000I218750J0D01*
G01*
X38931250Y-65525000D01*
G75*
G02*
X39150000Y-65743750I0J-218750D01*
G01*
X39150000Y-66256250D01*
G75*
G02*
X38931250Y-66475000I-218750J0D01*
G01*
X38493750Y-66475000D01*
G75*
G02*
X38275000Y-66256250I0J218750D01*
G01*
G37*
%TD.AperFunction*%
%TO.P,R14,2*%
%TO.N,Net-(R14-Pad2)*%
%TA.AperFunction,SMDPad,CuDef*%
G36*
G01*
X39850000Y-66256250D02*
X39850000Y-65743750D01*
G75*
G02*
X40068750Y-65525000I218750J0D01*
G01*
X40506250Y-65525000D01*
G75*
G02*
X40725000Y-65743750I0J-218750D01*
G01*
X40725000Y-66256250D01*
G75*
G02*
X40506250Y-66475000I-218750J0D01*
G01*
X40068750Y-66475000D01*
G75*
G02*
X39850000Y-66256250I0J218750D01*
G01*
G37*
%TD.AperFunction*%
%TD*%
%TO.P,R15,2*%
%TO.N,Net-(R15-Pad2)*%
%TA.AperFunction,SMDPad,CuDef*%
G36*
G01*
X39850000Y-67756250D02*
X39850000Y-67243750D01*
G75*
G02*
X40068750Y-67025000I218750J0D01*
G01*
X40506250Y-67025000D01*
G75*
G02*
X40725000Y-67243750I0J-218750D01*
G01*
X40725000Y-67756250D01*
G75*
G02*
X40506250Y-67975000I-218750J0D01*
G01*
X40068750Y-67975000D01*
G75*
G02*
X39850000Y-67756250I0J218750D01*
G01*
G37*
%TD.AperFunction*%
%TO.P,R15,1*%
%TO.N,/B3*%
%TA.AperFunction,SMDPad,CuDef*%
G36*
G01*
X38275000Y-67756250D02*
X38275000Y-67243750D01*
G75*
G02*
X38493750Y-67025000I218750J0D01*
G01*
X38931250Y-67025000D01*
G75*
G02*
X39150000Y-67243750I0J-218750D01*
G01*
X39150000Y-67756250D01*
G75*
G02*
X38931250Y-67975000I-218750J0D01*
G01*
X38493750Y-67975000D01*
G75*
G02*
X38275000Y-67756250I0J218750D01*
G01*
G37*
%TD.AperFunction*%
%TD*%
%TO.P,R16,1*%
%TO.N,/B4*%
%TA.AperFunction,SMDPad,CuDef*%
G36*
G01*
X38275000Y-69256250D02*
X38275000Y-68743750D01*
G75*
G02*
X38493750Y-68525000I218750J0D01*
G01*
X38931250Y-68525000D01*
G75*
G02*
X39150000Y-68743750I0J-218750D01*
G01*
X39150000Y-69256250D01*
G75*
G02*
X38931250Y-69475000I-218750J0D01*
G01*
X38493750Y-69475000D01*
G75*
G02*
X38275000Y-69256250I0J218750D01*
G01*
G37*
%TD.AperFunction*%
%TO.P,R16,2*%
%TO.N,Net-(R16-Pad2)*%
%TA.AperFunction,SMDPad,CuDef*%
G36*
G01*
X39850000Y-69256250D02*
X39850000Y-68743750D01*
G75*
G02*
X40068750Y-68525000I218750J0D01*
G01*
X40506250Y-68525000D01*
G75*
G02*
X40725000Y-68743750I0J-218750D01*
G01*
X40725000Y-69256250D01*
G75*
G02*
X40506250Y-69475000I-218750J0D01*
G01*
X40068750Y-69475000D01*
G75*
G02*
X39850000Y-69256250I0J218750D01*
G01*
G37*
%TD.AperFunction*%
%TD*%
%TO.P,R17,1*%
%TO.N,/B5*%
%TA.AperFunction,SMDPad,CuDef*%
G36*
G01*
X38275000Y-70756250D02*
X38275000Y-70243750D01*
G75*
G02*
X38493750Y-70025000I218750J0D01*
G01*
X38931250Y-70025000D01*
G75*
G02*
X39150000Y-70243750I0J-218750D01*
G01*
X39150000Y-70756250D01*
G75*
G02*
X38931250Y-70975000I-218750J0D01*
G01*
X38493750Y-70975000D01*
G75*
G02*
X38275000Y-70756250I0J218750D01*
G01*
G37*
%TD.AperFunction*%
%TO.P,R17,2*%
%TO.N,Net-(R17-Pad2)*%
%TA.AperFunction,SMDPad,CuDef*%
G36*
G01*
X39850000Y-70756250D02*
X39850000Y-70243750D01*
G75*
G02*
X40068750Y-70025000I218750J0D01*
G01*
X40506250Y-70025000D01*
G75*
G02*
X40725000Y-70243750I0J-218750D01*
G01*
X40725000Y-70756250D01*
G75*
G02*
X40506250Y-70975000I-218750J0D01*
G01*
X40068750Y-70975000D01*
G75*
G02*
X39850000Y-70756250I0J218750D01*
G01*
G37*
%TD.AperFunction*%
%TD*%
%TO.P,R18,2*%
%TO.N,Net-(R18-Pad2)*%
%TA.AperFunction,SMDPad,CuDef*%
G36*
G01*
X39850000Y-72256250D02*
X39850000Y-71743750D01*
G75*
G02*
X40068750Y-71525000I218750J0D01*
G01*
X40506250Y-71525000D01*
G75*
G02*
X40725000Y-71743750I0J-218750D01*
G01*
X40725000Y-72256250D01*
G75*
G02*
X40506250Y-72475000I-218750J0D01*
G01*
X40068750Y-72475000D01*
G75*
G02*
X39850000Y-72256250I0J218750D01*
G01*
G37*
%TD.AperFunction*%
%TO.P,R18,1*%
%TO.N,/B6*%
%TA.AperFunction,SMDPad,CuDef*%
G36*
G01*
X38275000Y-72256250D02*
X38275000Y-71743750D01*
G75*
G02*
X38493750Y-71525000I218750J0D01*
G01*
X38931250Y-71525000D01*
G75*
G02*
X39150000Y-71743750I0J-218750D01*
G01*
X39150000Y-72256250D01*
G75*
G02*
X38931250Y-72475000I-218750J0D01*
G01*
X38493750Y-72475000D01*
G75*
G02*
X38275000Y-72256250I0J218750D01*
G01*
G37*
%TD.AperFunction*%
%TD*%
%TO.P,R19,1*%
%TO.N,/B7*%
%TA.AperFunction,SMDPad,CuDef*%
G36*
G01*
X38275000Y-73756250D02*
X38275000Y-73243750D01*
G75*
G02*
X38493750Y-73025000I218750J0D01*
G01*
X38931250Y-73025000D01*
G75*
G02*
X39150000Y-73243750I0J-218750D01*
G01*
X39150000Y-73756250D01*
G75*
G02*
X38931250Y-73975000I-218750J0D01*
G01*
X38493750Y-73975000D01*
G75*
G02*
X38275000Y-73756250I0J218750D01*
G01*
G37*
%TD.AperFunction*%
%TO.P,R19,2*%
%TO.N,Net-(R19-Pad2)*%
%TA.AperFunction,SMDPad,CuDef*%
G36*
G01*
X39850000Y-73756250D02*
X39850000Y-73243750D01*
G75*
G02*
X40068750Y-73025000I218750J0D01*
G01*
X40506250Y-73025000D01*
G75*
G02*
X40725000Y-73243750I0J-218750D01*
G01*
X40725000Y-73756250D01*
G75*
G02*
X40506250Y-73975000I-218750J0D01*
G01*
X40068750Y-73975000D01*
G75*
G02*
X39850000Y-73756250I0J218750D01*
G01*
G37*
%TD.AperFunction*%
%TD*%
%TO.P,R20,2*%
%TO.N,Net-(R20-Pad2)*%
%TA.AperFunction,SMDPad,CuDef*%
G36*
G01*
X56837500Y-73243750D02*
X56837500Y-73756250D01*
G75*
G02*
X56618750Y-73975000I-218750J0D01*
G01*
X56181250Y-73975000D01*
G75*
G02*
X55962500Y-73756250I0J218750D01*
G01*
X55962500Y-73243750D01*
G75*
G02*
X56181250Y-73025000I218750J0D01*
G01*
X56618750Y-73025000D01*
G75*
G02*
X56837500Y-73243750I0J-218750D01*
G01*
G37*
%TD.AperFunction*%
%TO.P,R20,1*%
%TO.N,/A0*%
%TA.AperFunction,SMDPad,CuDef*%
G36*
G01*
X58412500Y-73243750D02*
X58412500Y-73756250D01*
G75*
G02*
X58193750Y-73975000I-218750J0D01*
G01*
X57756250Y-73975000D01*
G75*
G02*
X57537500Y-73756250I0J218750D01*
G01*
X57537500Y-73243750D01*
G75*
G02*
X57756250Y-73025000I218750J0D01*
G01*
X58193750Y-73025000D01*
G75*
G02*
X58412500Y-73243750I0J-218750D01*
G01*
G37*
%TD.AperFunction*%
%TD*%
%TO.P,R21,1*%
%TO.N,/A1*%
%TA.AperFunction,SMDPad,CuDef*%
G36*
G01*
X58412500Y-71743750D02*
X58412500Y-72256250D01*
G75*
G02*
X58193750Y-72475000I-218750J0D01*
G01*
X57756250Y-72475000D01*
G75*
G02*
X57537500Y-72256250I0J218750D01*
G01*
X57537500Y-71743750D01*
G75*
G02*
X57756250Y-71525000I218750J0D01*
G01*
X58193750Y-71525000D01*
G75*
G02*
X58412500Y-71743750I0J-218750D01*
G01*
G37*
%TD.AperFunction*%
%TO.P,R21,2*%
%TO.N,Net-(R21-Pad2)*%
%TA.AperFunction,SMDPad,CuDef*%
G36*
G01*
X56837500Y-71743750D02*
X56837500Y-72256250D01*
G75*
G02*
X56618750Y-72475000I-218750J0D01*
G01*
X56181250Y-72475000D01*
G75*
G02*
X55962500Y-72256250I0J218750D01*
G01*
X55962500Y-71743750D01*
G75*
G02*
X56181250Y-71525000I218750J0D01*
G01*
X56618750Y-71525000D01*
G75*
G02*
X56837500Y-71743750I0J-218750D01*
G01*
G37*
%TD.AperFunction*%
%TD*%
%TO.P,R22,2*%
%TO.N,Net-(R22-Pad2)*%
%TA.AperFunction,SMDPad,CuDef*%
G36*
G01*
X56837500Y-70243750D02*
X56837500Y-70756250D01*
G75*
G02*
X56618750Y-70975000I-218750J0D01*
G01*
X56181250Y-70975000D01*
G75*
G02*
X55962500Y-70756250I0J218750D01*
G01*
X55962500Y-70243750D01*
G75*
G02*
X56181250Y-70025000I218750J0D01*
G01*
X56618750Y-70025000D01*
G75*
G02*
X56837500Y-70243750I0J-218750D01*
G01*
G37*
%TD.AperFunction*%
%TO.P,R22,1*%
%TO.N,/A2*%
%TA.AperFunction,SMDPad,CuDef*%
G36*
G01*
X58412500Y-70243750D02*
X58412500Y-70756250D01*
G75*
G02*
X58193750Y-70975000I-218750J0D01*
G01*
X57756250Y-70975000D01*
G75*
G02*
X57537500Y-70756250I0J218750D01*
G01*
X57537500Y-70243750D01*
G75*
G02*
X57756250Y-70025000I218750J0D01*
G01*
X58193750Y-70025000D01*
G75*
G02*
X58412500Y-70243750I0J-218750D01*
G01*
G37*
%TD.AperFunction*%
%TD*%
%TO.P,R23,1*%
%TO.N,/A3*%
%TA.AperFunction,SMDPad,CuDef*%
G36*
G01*
X58412500Y-68743750D02*
X58412500Y-69256250D01*
G75*
G02*
X58193750Y-69475000I-218750J0D01*
G01*
X57756250Y-69475000D01*
G75*
G02*
X57537500Y-69256250I0J218750D01*
G01*
X57537500Y-68743750D01*
G75*
G02*
X57756250Y-68525000I218750J0D01*
G01*
X58193750Y-68525000D01*
G75*
G02*
X58412500Y-68743750I0J-218750D01*
G01*
G37*
%TD.AperFunction*%
%TO.P,R23,2*%
%TO.N,Net-(R23-Pad2)*%
%TA.AperFunction,SMDPad,CuDef*%
G36*
G01*
X56837500Y-68743750D02*
X56837500Y-69256250D01*
G75*
G02*
X56618750Y-69475000I-218750J0D01*
G01*
X56181250Y-69475000D01*
G75*
G02*
X55962500Y-69256250I0J218750D01*
G01*
X55962500Y-68743750D01*
G75*
G02*
X56181250Y-68525000I218750J0D01*
G01*
X56618750Y-68525000D01*
G75*
G02*
X56837500Y-68743750I0J-218750D01*
G01*
G37*
%TD.AperFunction*%
%TD*%
%TO.P,R24,2*%
%TO.N,Net-(R24-Pad2)*%
%TA.AperFunction,SMDPad,CuDef*%
G36*
G01*
X56837500Y-67243750D02*
X56837500Y-67756250D01*
G75*
G02*
X56618750Y-67975000I-218750J0D01*
G01*
X56181250Y-67975000D01*
G75*
G02*
X55962500Y-67756250I0J218750D01*
G01*
X55962500Y-67243750D01*
G75*
G02*
X56181250Y-67025000I218750J0D01*
G01*
X56618750Y-67025000D01*
G75*
G02*
X56837500Y-67243750I0J-218750D01*
G01*
G37*
%TD.AperFunction*%
%TO.P,R24,1*%
%TO.N,/A4*%
%TA.AperFunction,SMDPad,CuDef*%
G36*
G01*
X58412500Y-67243750D02*
X58412500Y-67756250D01*
G75*
G02*
X58193750Y-67975000I-218750J0D01*
G01*
X57756250Y-67975000D01*
G75*
G02*
X57537500Y-67756250I0J218750D01*
G01*
X57537500Y-67243750D01*
G75*
G02*
X57756250Y-67025000I218750J0D01*
G01*
X58193750Y-67025000D01*
G75*
G02*
X58412500Y-67243750I0J-218750D01*
G01*
G37*
%TD.AperFunction*%
%TD*%
%TO.P,R25,1*%
%TO.N,/A5*%
%TA.AperFunction,SMDPad,CuDef*%
G36*
G01*
X58412500Y-65743750D02*
X58412500Y-66256250D01*
G75*
G02*
X58193750Y-66475000I-218750J0D01*
G01*
X57756250Y-66475000D01*
G75*
G02*
X57537500Y-66256250I0J218750D01*
G01*
X57537500Y-65743750D01*
G75*
G02*
X57756250Y-65525000I218750J0D01*
G01*
X58193750Y-65525000D01*
G75*
G02*
X58412500Y-65743750I0J-218750D01*
G01*
G37*
%TD.AperFunction*%
%TO.P,R25,2*%
%TO.N,Net-(R25-Pad2)*%
%TA.AperFunction,SMDPad,CuDef*%
G36*
G01*
X56837500Y-65743750D02*
X56837500Y-66256250D01*
G75*
G02*
X56618750Y-66475000I-218750J0D01*
G01*
X56181250Y-66475000D01*
G75*
G02*
X55962500Y-66256250I0J218750D01*
G01*
X55962500Y-65743750D01*
G75*
G02*
X56181250Y-65525000I218750J0D01*
G01*
X56618750Y-65525000D01*
G75*
G02*
X56837500Y-65743750I0J-218750D01*
G01*
G37*
%TD.AperFunction*%
%TD*%
%TO.P,R26,2*%
%TO.N,Net-(R26-Pad2)*%
%TA.AperFunction,SMDPad,CuDef*%
G36*
G01*
X56837500Y-64243750D02*
X56837500Y-64756250D01*
G75*
G02*
X56618750Y-64975000I-218750J0D01*
G01*
X56181250Y-64975000D01*
G75*
G02*
X55962500Y-64756250I0J218750D01*
G01*
X55962500Y-64243750D01*
G75*
G02*
X56181250Y-64025000I218750J0D01*
G01*
X56618750Y-64025000D01*
G75*
G02*
X56837500Y-64243750I0J-218750D01*
G01*
G37*
%TD.AperFunction*%
%TO.P,R26,1*%
%TO.N,/A6*%
%TA.AperFunction,SMDPad,CuDef*%
G36*
G01*
X58412500Y-64243750D02*
X58412500Y-64756250D01*
G75*
G02*
X58193750Y-64975000I-218750J0D01*
G01*
X57756250Y-64975000D01*
G75*
G02*
X57537500Y-64756250I0J218750D01*
G01*
X57537500Y-64243750D01*
G75*
G02*
X57756250Y-64025000I218750J0D01*
G01*
X58193750Y-64025000D01*
G75*
G02*
X58412500Y-64243750I0J-218750D01*
G01*
G37*
%TD.AperFunction*%
%TD*%
%TO.P,R27,1*%
%TO.N,/A7*%
%TA.AperFunction,SMDPad,CuDef*%
G36*
G01*
X58412500Y-62743750D02*
X58412500Y-63256250D01*
G75*
G02*
X58193750Y-63475000I-218750J0D01*
G01*
X57756250Y-63475000D01*
G75*
G02*
X57537500Y-63256250I0J218750D01*
G01*
X57537500Y-62743750D01*
G75*
G02*
X57756250Y-62525000I218750J0D01*
G01*
X58193750Y-62525000D01*
G75*
G02*
X58412500Y-62743750I0J-218750D01*
G01*
G37*
%TD.AperFunction*%
%TO.P,R27,2*%
%TO.N,Net-(R27-Pad2)*%
%TA.AperFunction,SMDPad,CuDef*%
G36*
G01*
X56837500Y-62743750D02*
X56837500Y-63256250D01*
G75*
G02*
X56618750Y-63475000I-218750J0D01*
G01*
X56181250Y-63475000D01*
G75*
G02*
X55962500Y-63256250I0J218750D01*
G01*
X55962500Y-62743750D01*
G75*
G02*
X56181250Y-62525000I218750J0D01*
G01*
X56618750Y-62525000D01*
G75*
G02*
X56837500Y-62743750I0J-218750D01*
G01*
G37*
%TD.AperFunction*%
%TD*%
D24*
%TO.P,SW1,2*%
%TO.N,/NRST*%
X31150000Y-40020000D03*
%TO.P,SW1,1*%
%TO.N,GND*%
X35650000Y-40020000D03*
X35650000Y-47980000D03*
%TO.P,SW1,2*%
%TO.N,/NRST*%
X31150000Y-47980000D03*
%TD*%
D10*
%TO.P,SW2,2*%
%TO.N,/COL1*%
X64020000Y-71250000D03*
%TO.P,SW2,1*%
%TO.N,/ROW1*%
X64020000Y-66750000D03*
X71980000Y-66750000D03*
%TO.P,SW2,2*%
%TO.N,/COL1*%
X71980000Y-71250000D03*
%TD*%
%TO.P,SW3,2*%
%TO.N,/COL1*%
X71980000Y-80650000D03*
%TO.P,SW3,1*%
%TO.N,/ROW2*%
X71980000Y-76150000D03*
X64020000Y-76150000D03*
%TO.P,SW3,2*%
%TO.N,/COL1*%
X64020000Y-80650000D03*
%TD*%
%TO.P,SW4,2*%
%TO.N,/COL1*%
X64020000Y-90050000D03*
%TO.P,SW4,1*%
%TO.N,/ROW3*%
X64020000Y-85550000D03*
X71980000Y-85550000D03*
%TO.P,SW4,2*%
%TO.N,/COL1*%
X71980000Y-90050000D03*
%TD*%
%TO.P,SW7,2*%
%TO.N,/COL2*%
X85980000Y-80650000D03*
%TO.P,SW7,1*%
%TO.N,/ROW2*%
X85980000Y-76150000D03*
X78020000Y-76150000D03*
%TO.P,SW7,2*%
%TO.N,/COL2*%
X78020000Y-80650000D03*
%TD*%
%TO.P,SW8,2*%
%TO.N,/COL2*%
X78020000Y-90050000D03*
%TO.P,SW8,1*%
%TO.N,/ROW3*%
X78020000Y-85550000D03*
X85980000Y-85550000D03*
%TO.P,SW8,2*%
%TO.N,/COL2*%
X85980000Y-90050000D03*
%TD*%
%TO.P,SW9,2*%
%TO.N,/COL2*%
X85980000Y-99250000D03*
%TO.P,SW9,1*%
%TO.N,/ROW4*%
X85980000Y-94750000D03*
X78020000Y-94750000D03*
%TO.P,SW9,2*%
%TO.N,/COL2*%
X78020000Y-99250000D03*
%TD*%
%TO.P,SW10,2*%
%TO.N,/COL3*%
X92020000Y-71250000D03*
%TO.P,SW10,1*%
%TO.N,/ROW1*%
X92020000Y-66750000D03*
X99980000Y-66750000D03*
%TO.P,SW10,2*%
%TO.N,/COL3*%
X99980000Y-71250000D03*
%TD*%
%TO.P,SW11,2*%
%TO.N,/COL3*%
X99980000Y-80650000D03*
%TO.P,SW11,1*%
%TO.N,/ROW2*%
X99980000Y-76150000D03*
X92020000Y-76150000D03*
%TO.P,SW11,2*%
%TO.N,/COL3*%
X92020000Y-80650000D03*
%TD*%
%TO.P,SW12,2*%
%TO.N,/COL3*%
X92020000Y-90050000D03*
%TO.P,SW12,1*%
%TO.N,/ROW3*%
X92020000Y-85550000D03*
X99980000Y-85550000D03*
%TO.P,SW12,2*%
%TO.N,/COL3*%
X99980000Y-90050000D03*
%TD*%
%TO.P,SW13,2*%
%TO.N,/COL3*%
X99980000Y-99250000D03*
%TO.P,SW13,1*%
%TO.N,/ROW4*%
X99980000Y-94750000D03*
X92020000Y-94750000D03*
%TO.P,SW13,2*%
%TO.N,/COL3*%
X92020000Y-99250000D03*
%TD*%
%TO.P,U1,1*%
%TO.N,/~CS*%
%TA.AperFunction,SMDPad,CuDef*%
G36*
G01*
X46550000Y-78245000D02*
X46550000Y-77945000D01*
G75*
G02*
X46700000Y-77795000I150000J0D01*
G01*
X48350000Y-77795000D01*
G75*
G02*
X48500000Y-77945000I0J-150000D01*
G01*
X48500000Y-78245000D01*
G75*
G02*
X48350000Y-78395000I-150000J0D01*
G01*
X46700000Y-78395000D01*
G75*
G02*
X46550000Y-78245000I0J150000D01*
G01*
G37*
%TD.AperFunction*%
%TO.P,U1,2*%
%TO.N,/MISO*%
%TA.AperFunction,SMDPad,CuDef*%
G36*
G01*
X46550000Y-79515000D02*
X46550000Y-79215000D01*
G75*
G02*
X46700000Y-79065000I150000J0D01*
G01*
X48350000Y-79065000D01*
G75*
G02*
X48500000Y-79215000I0J-150000D01*
G01*
X48500000Y-79515000D01*
G75*
G02*
X48350000Y-79665000I-150000J0D01*
G01*
X46700000Y-79665000D01*
G75*
G02*
X46550000Y-79515000I0J150000D01*
G01*
G37*
%TD.AperFunction*%
%TO.P,U1,3*%
%TO.N,/~WP*%
%TA.AperFunction,SMDPad,CuDef*%
G36*
G01*
X46550000Y-80785000D02*
X46550000Y-80485000D01*
G75*
G02*
X46700000Y-80335000I150000J0D01*
G01*
X48350000Y-80335000D01*
G75*
G02*
X48500000Y-80485000I0J-150000D01*
G01*
X48500000Y-80785000D01*
G75*
G02*
X48350000Y-80935000I-150000J0D01*
G01*
X46700000Y-80935000D01*
G75*
G02*
X46550000Y-80785000I0J150000D01*
G01*
G37*
%TD.AperFunction*%
%TO.P,U1,4*%
%TO.N,GND*%
%TA.AperFunction,SMDPad,CuDef*%
G36*
G01*
X46550000Y-82055000D02*
X46550000Y-81755000D01*
G75*
G02*
X46700000Y-81605000I150000J0D01*
G01*
X48350000Y-81605000D01*
G75*
G02*
X48500000Y-81755000I0J-150000D01*
G01*
X48500000Y-82055000D01*
G75*
G02*
X48350000Y-82205000I-150000J0D01*
G01*
X46700000Y-82205000D01*
G75*
G02*
X46550000Y-82055000I0J150000D01*
G01*
G37*
%TD.AperFunction*%
%TO.P,U1,5*%
%TO.N,/MOSI*%
%TA.AperFunction,SMDPad,CuDef*%
G36*
G01*
X51500000Y-82055000D02*
X51500000Y-81755000D01*
G75*
G02*
X51650000Y-81605000I150000J0D01*
G01*
X53300000Y-81605000D01*
G75*
G02*
X53450000Y-81755000I0J-150000D01*
G01*
X53450000Y-82055000D01*
G75*
G02*
X53300000Y-82205000I-150000J0D01*
G01*
X51650000Y-82205000D01*
G75*
G02*
X51500000Y-82055000I0J150000D01*
G01*
G37*
%TD.AperFunction*%
%TO.P,U1,6*%
%TO.N,/SCK*%
%TA.AperFunction,SMDPad,CuDef*%
G36*
G01*
X51500000Y-80785000D02*
X51500000Y-80485000D01*
G75*
G02*
X51650000Y-80335000I150000J0D01*
G01*
X53300000Y-80335000D01*
G75*
G02*
X53450000Y-80485000I0J-150000D01*
G01*
X53450000Y-80785000D01*
G75*
G02*
X53300000Y-80935000I-150000J0D01*
G01*
X51650000Y-80935000D01*
G75*
G02*
X51500000Y-80785000I0J150000D01*
G01*
G37*
%TD.AperFunction*%
%TO.P,U1,7*%
%TO.N,VCC*%
%TA.AperFunction,SMDPad,CuDef*%
G36*
G01*
X51500000Y-79515000D02*
X51500000Y-79215000D01*
G75*
G02*
X51650000Y-79065000I150000J0D01*
G01*
X53300000Y-79065000D01*
G75*
G02*
X53450000Y-79215000I0J-150000D01*
G01*
X53450000Y-79515000D01*
G75*
G02*
X53300000Y-79665000I-150000J0D01*
G01*
X51650000Y-79665000D01*
G75*
G02*
X51500000Y-79515000I0J150000D01*
G01*
G37*
%TD.AperFunction*%
%TO.P,U1,8*%
%TA.AperFunction,SMDPad,CuDef*%
G36*
G01*
X51500000Y-78245000D02*
X51500000Y-77945000D01*
G75*
G02*
X51650000Y-77795000I150000J0D01*
G01*
X53300000Y-77795000D01*
G75*
G02*
X53450000Y-77945000I0J-150000D01*
G01*
X53450000Y-78245000D01*
G75*
G02*
X53300000Y-78395000I-150000J0D01*
G01*
X51650000Y-78395000D01*
G75*
G02*
X51500000Y-78245000I0J150000D01*
G01*
G37*
%TD.AperFunction*%
%TD*%
D25*
%TO.P,U2,1*%
%TO.N,Net-(C2-Pad1)*%
X50900000Y-45050000D03*
%TO.P,U2,2*%
%TO.N,GND*%
X50900000Y-46000000D03*
%TO.P,U2,3*%
%TO.N,Net-(C2-Pad1)*%
X50900000Y-46950000D03*
%TO.P,U2,4*%
%TO.N,Net-(U2-Pad4)*%
X53100000Y-46950000D03*
%TO.P,U2,5*%
%TO.N,VCC*%
X53100000Y-45050000D03*
%TD*%
%TO.P,U4,8*%
%TO.N,VCC*%
%TA.AperFunction,SMDPad,CuDef*%
G36*
G01*
X51500000Y-88245000D02*
X51500000Y-87945000D01*
G75*
G02*
X51650000Y-87795000I150000J0D01*
G01*
X53300000Y-87795000D01*
G75*
G02*
X53450000Y-87945000I0J-150000D01*
G01*
X53450000Y-88245000D01*
G75*
G02*
X53300000Y-88395000I-150000J0D01*
G01*
X51650000Y-88395000D01*
G75*
G02*
X51500000Y-88245000I0J150000D01*
G01*
G37*
%TD.AperFunction*%
%TO.P,U4,7*%
%TO.N,Net-(R4-Pad1)*%
%TA.AperFunction,SMDPad,CuDef*%
G36*
G01*
X51500000Y-89515000D02*
X51500000Y-89215000D01*
G75*
G02*
X51650000Y-89065000I150000J0D01*
G01*
X53300000Y-89065000D01*
G75*
G02*
X53450000Y-89215000I0J-150000D01*
G01*
X53450000Y-89515000D01*
G75*
G02*
X53300000Y-89665000I-150000J0D01*
G01*
X51650000Y-89665000D01*
G75*
G02*
X51500000Y-89515000I0J150000D01*
G01*
G37*
%TD.AperFunction*%
%TO.P,U4,6*%
%TO.N,/SCL*%
%TA.AperFunction,SMDPad,CuDef*%
G36*
G01*
X51500000Y-90785000D02*
X51500000Y-90485000D01*
G75*
G02*
X51650000Y-90335000I150000J0D01*
G01*
X53300000Y-90335000D01*
G75*
G02*
X53450000Y-90485000I0J-150000D01*
G01*
X53450000Y-90785000D01*
G75*
G02*
X53300000Y-90935000I-150000J0D01*
G01*
X51650000Y-90935000D01*
G75*
G02*
X51500000Y-90785000I0J150000D01*
G01*
G37*
%TD.AperFunction*%
%TO.P,U4,5*%
%TO.N,/SDA*%
%TA.AperFunction,SMDPad,CuDef*%
G36*
G01*
X51500000Y-92055000D02*
X51500000Y-91755000D01*
G75*
G02*
X51650000Y-91605000I150000J0D01*
G01*
X53300000Y-91605000D01*
G75*
G02*
X53450000Y-91755000I0J-150000D01*
G01*
X53450000Y-92055000D01*
G75*
G02*
X53300000Y-92205000I-150000J0D01*
G01*
X51650000Y-92205000D01*
G75*
G02*
X51500000Y-92055000I0J150000D01*
G01*
G37*
%TD.AperFunction*%
%TO.P,U4,4*%
%TO.N,GND*%
%TA.AperFunction,SMDPad,CuDef*%
G36*
G01*
X46550000Y-92055000D02*
X46550000Y-91755000D01*
G75*
G02*
X46700000Y-91605000I150000J0D01*
G01*
X48350000Y-91605000D01*
G75*
G02*
X48500000Y-91755000I0J-150000D01*
G01*
X48500000Y-92055000D01*
G75*
G02*
X48350000Y-92205000I-150000J0D01*
G01*
X46700000Y-92205000D01*
G75*
G02*
X46550000Y-92055000I0J150000D01*
G01*
G37*
%TD.AperFunction*%
%TO.P,U4,3*%
%TA.AperFunction,SMDPad,CuDef*%
G36*
G01*
X46550000Y-90785000D02*
X46550000Y-90485000D01*
G75*
G02*
X46700000Y-90335000I150000J0D01*
G01*
X48350000Y-90335000D01*
G75*
G02*
X48500000Y-90485000I0J-150000D01*
G01*
X48500000Y-90785000D01*
G75*
G02*
X48350000Y-90935000I-150000J0D01*
G01*
X46700000Y-90935000D01*
G75*
G02*
X46550000Y-90785000I0J150000D01*
G01*
G37*
%TD.AperFunction*%
%TO.P,U4,2*%
%TA.AperFunction,SMDPad,CuDef*%
G36*
G01*
X46550000Y-89515000D02*
X46550000Y-89215000D01*
G75*
G02*
X46700000Y-89065000I150000J0D01*
G01*
X48350000Y-89065000D01*
G75*
G02*
X48500000Y-89215000I0J-150000D01*
G01*
X48500000Y-89515000D01*
G75*
G02*
X48350000Y-89665000I-150000J0D01*
G01*
X46700000Y-89665000D01*
G75*
G02*
X46550000Y-89515000I0J150000D01*
G01*
G37*
%TD.AperFunction*%
%TO.P,U4,1*%
%TA.AperFunction,SMDPad,CuDef*%
G36*
G01*
X46550000Y-88245000D02*
X46550000Y-87945000D01*
G75*
G02*
X46700000Y-87795000I150000J0D01*
G01*
X48350000Y-87795000D01*
G75*
G02*
X48500000Y-87945000I0J-150000D01*
G01*
X48500000Y-88245000D01*
G75*
G02*
X48350000Y-88395000I-150000J0D01*
G01*
X46700000Y-88395000D01*
G75*
G02*
X46550000Y-88245000I0J150000D01*
G01*
G37*
%TD.AperFunction*%
%TD*%
D26*
%TO.P,U5,5*%
%TO.N,/A3*%
X68800000Y-57500000D03*
%TO.P,U5,6*%
%TO.N,/A4*%
X68800000Y-42500000D03*
%TO.P,U5,4*%
%TO.N,/A2*%
X66900000Y-57500000D03*
%TO.P,U5,7*%
%TO.N,/A5*%
X66900000Y-42500000D03*
%TO.P,U5,3*%
%TO.N,Net-(Q1-Pad2)*%
X65000000Y-57500000D03*
%TO.P,U5,8*%
X65000000Y-42500000D03*
%TO.P,U5,2*%
%TO.N,/A1*%
X63100000Y-57500000D03*
%TO.P,U5,9*%
%TO.N,/A6*%
X63100000Y-42500000D03*
%TO.P,U5,1*%
%TO.N,/A0*%
X61200000Y-57500000D03*
%TO.P,U5,10*%
%TO.N,/A7*%
X61200000Y-42500000D03*
%TD*%
%TO.P,U6,5*%
%TO.N,/B3*%
X79800000Y-57500000D03*
%TO.P,U6,6*%
%TO.N,/B4*%
X79800000Y-42500000D03*
%TO.P,U6,4*%
%TO.N,/B2*%
X77900000Y-57500000D03*
%TO.P,U6,7*%
%TO.N,/B5*%
X77900000Y-42500000D03*
%TO.P,U6,3*%
%TO.N,Net-(Q1-Pad2)*%
X76000000Y-57500000D03*
%TO.P,U6,8*%
X76000000Y-42500000D03*
%TO.P,U6,2*%
%TO.N,/B1*%
X74100000Y-57500000D03*
%TO.P,U6,9*%
%TO.N,/B6*%
X74100000Y-42500000D03*
%TO.P,U6,1*%
%TO.N,/B0*%
X72200000Y-57500000D03*
%TO.P,U6,10*%
%TO.N,/B7*%
X72200000Y-42500000D03*
%TD*%
%TO.P,U7,10*%
%TO.N,/A7*%
X83200000Y-42500000D03*
%TO.P,U7,1*%
%TO.N,/A0*%
X83200000Y-57500000D03*
%TO.P,U7,9*%
%TO.N,/A6*%
X85100000Y-42500000D03*
%TO.P,U7,2*%
%TO.N,/A1*%
X85100000Y-57500000D03*
%TO.P,U7,8*%
%TO.N,Net-(Q2-Pad2)*%
X87000000Y-42500000D03*
%TO.P,U7,3*%
X87000000Y-57500000D03*
%TO.P,U7,7*%
%TO.N,/A5*%
X88900000Y-42500000D03*
%TO.P,U7,4*%
%TO.N,/A2*%
X88900000Y-57500000D03*
%TO.P,U7,6*%
%TO.N,/A4*%
X90800000Y-42500000D03*
%TO.P,U7,5*%
%TO.N,/A3*%
X90800000Y-57500000D03*
%TD*%
%TO.P,U8,10*%
%TO.N,/B7*%
X94200000Y-42500000D03*
%TO.P,U8,1*%
%TO.N,/B0*%
X94200000Y-57500000D03*
%TO.P,U8,9*%
%TO.N,/B6*%
X96100000Y-42500000D03*
%TO.P,U8,2*%
%TO.N,/B1*%
X96100000Y-57500000D03*
%TO.P,U8,8*%
%TO.N,Net-(Q2-Pad2)*%
X98000000Y-42500000D03*
%TO.P,U8,3*%
X98000000Y-57500000D03*
%TO.P,U8,7*%
%TO.N,/B5*%
X99900000Y-42500000D03*
%TO.P,U8,4*%
%TO.N,/B2*%
X99900000Y-57500000D03*
%TO.P,U8,6*%
%TO.N,/B4*%
X101800000Y-42500000D03*
%TO.P,U8,5*%
%TO.N,/B3*%
X101800000Y-57500000D03*
%TD*%
D27*
%TO.P,U9,1*%
%TO.N,Net-(R12-Pad2)*%
X45400000Y-63775000D03*
%TO.P,U9,2*%
%TO.N,Net-(R13-Pad2)*%
X45400000Y-64425000D03*
%TO.P,U9,3*%
%TO.N,Net-(R14-Pad2)*%
X45400000Y-65075000D03*
%TO.P,U9,4*%
%TO.N,Net-(R15-Pad2)*%
X45400000Y-65725000D03*
%TO.P,U9,5*%
%TO.N,Net-(R16-Pad2)*%
X45400000Y-66375000D03*
%TO.P,U9,6*%
%TO.N,Net-(R17-Pad2)*%
X45400000Y-67025000D03*
%TO.P,U9,7*%
%TO.N,Net-(R18-Pad2)*%
X45400000Y-67675000D03*
%TO.P,U9,8*%
%TO.N,Net-(R19-Pad2)*%
X45400000Y-68325000D03*
%TO.P,U9,9*%
%TO.N,VCC*%
X45400000Y-68975000D03*
%TO.P,U9,10*%
%TO.N,GND*%
X45400000Y-69625000D03*
%TO.P,U9,11*%
%TO.N,Net-(U9-Pad11)*%
X45400000Y-70275000D03*
%TO.P,U9,12*%
%TO.N,/SCL*%
X45400000Y-70925000D03*
%TO.P,U9,13*%
%TO.N,/SDA*%
X45400000Y-71575000D03*
%TO.P,U9,14*%
%TO.N,Net-(U9-Pad14)*%
X45400000Y-72225000D03*
%TO.P,U9,15*%
%TO.N,GND*%
X52600000Y-72225000D03*
%TO.P,U9,16*%
X52600000Y-71575000D03*
%TO.P,U9,17*%
X52600000Y-70925000D03*
%TO.P,U9,18*%
%TO.N,VCC*%
X52600000Y-70275000D03*
%TO.P,U9,19*%
%TO.N,Net-(U9-Pad19)*%
X52600000Y-69625000D03*
%TO.P,U9,20*%
%TO.N,Net-(U9-Pad20)*%
X52600000Y-68975000D03*
%TO.P,U9,21*%
%TO.N,Net-(R20-Pad2)*%
X52600000Y-68325000D03*
%TO.P,U9,22*%
%TO.N,Net-(R21-Pad2)*%
X52600000Y-67675000D03*
%TO.P,U9,23*%
%TO.N,Net-(R22-Pad2)*%
X52600000Y-67025000D03*
%TO.P,U9,24*%
%TO.N,Net-(R23-Pad2)*%
X52600000Y-66375000D03*
%TO.P,U9,25*%
%TO.N,Net-(R24-Pad2)*%
X52600000Y-65725000D03*
%TO.P,U9,26*%
%TO.N,Net-(R25-Pad2)*%
X52600000Y-65075000D03*
%TO.P,U9,27*%
%TO.N,Net-(R26-Pad2)*%
X52600000Y-64425000D03*
%TO.P,U9,28*%
%TO.N,Net-(R27-Pad2)*%
X52600000Y-63775000D03*
%TD*%
D19*
%TO.P,J2,8*%
%TO.N,/MOSI*%
X36540000Y-85620000D03*
%TO.P,J2,7*%
%TO.N,GND*%
X34000000Y-85620000D03*
%TO.P,J2,6*%
%TO.N,/SCK*%
X36540000Y-83080000D03*
%TO.P,J2,5*%
%TO.N,/~WP*%
X34000000Y-83080000D03*
%TO.P,J2,4*%
%TO.N,Net-(J2-Pad4)*%
X36540000Y-80540000D03*
%TO.P,J2,3*%
%TO.N,/MISO*%
X34000000Y-80540000D03*
%TO.P,J2,2*%
%TO.N,VCC*%
X36540000Y-78000000D03*
D18*
%TO.P,J2,1*%
%TO.N,/~CS*%
X34000000Y-78000000D03*
%TD*%
%TO.P,J4,1*%
%TO.N,Net-(J4-Pad1)*%
X34000000Y-90000000D03*
D19*
%TO.P,J4,2*%
%TO.N,VCC*%
X36540000Y-90000000D03*
%TO.P,J4,3*%
%TO.N,Net-(J4-Pad3)*%
X34000000Y-92540000D03*
%TO.P,J4,4*%
%TO.N,Net-(J4-Pad4)*%
X36540000Y-92540000D03*
%TO.P,J4,5*%
%TO.N,Net-(J4-Pad5)*%
X34000000Y-95080000D03*
%TO.P,J4,6*%
%TO.N,/SCL*%
X36540000Y-95080000D03*
%TO.P,J4,7*%
%TO.N,GND*%
X34000000Y-97620000D03*
%TO.P,J4,8*%
%TO.N,/SDA*%
X36540000Y-97620000D03*
%TD*%
D28*
%TO.N,GND*%
X49400000Y-46000000D03*
X43600000Y-43600000D03*
X55262500Y-48200000D03*
D29*
X43400000Y-56800000D03*
X50400000Y-41800000D03*
X38400000Y-55400000D03*
X44800000Y-60575010D03*
X52800000Y-73200000D03*
X43800000Y-69600000D03*
X45800000Y-92000000D03*
X45795652Y-82062510D03*
D30*
X58000000Y-89600000D03*
D29*
X52800000Y-52225000D03*
X48436655Y-52261655D03*
D30*
X35600000Y-46400000D03*
%TO.N,/NRST*%
X44000000Y-53425000D03*
X41900000Y-57800000D03*
X45800000Y-75900000D03*
X55000000Y-76000000D03*
%TO.N,/~CS*%
X52254442Y-56945558D03*
X31225000Y-62200000D03*
X31175030Y-78000000D03*
%TO.N,/MISO*%
X45400000Y-79800000D03*
X53800000Y-57400000D03*
X32723868Y-63046437D03*
X34875000Y-76400000D03*
%TO.N,/MOSI*%
X54600003Y-57400000D03*
X32225050Y-64000000D03*
%TO.N,/SCK*%
X53011566Y-57203947D03*
X31930885Y-62825000D03*
X31775040Y-84200000D03*
D29*
%TO.N,/UART1_TX*%
X32200000Y-50525000D03*
D30*
X46194492Y-51689393D03*
D29*
%TO.N,/UART1_RX*%
X33200000Y-49800000D03*
D30*
X45300000Y-51700001D03*
%TO.N,/SCL*%
X39600000Y-53149981D03*
X31600000Y-60600000D03*
X30400000Y-74400000D03*
X40900000Y-74500000D03*
%TO.N,/SDA*%
X38800001Y-53599989D03*
X31600000Y-61400000D03*
X30725020Y-75200000D03*
X41565642Y-74943761D03*
%TO.N,/SWDIO*%
X44400000Y-51600000D03*
X41800000Y-50400000D03*
%TO.N,/BOOT0*%
X41916300Y-49567584D03*
%TO.N,Net-(Q1-Pad2)*%
X65000000Y-45000000D03*
X76000000Y-45200000D03*
X55600000Y-60400000D03*
X65000000Y-60200000D03*
X68446943Y-44746943D03*
%TO.N,Net-(Q2-Pad2)*%
X87000000Y-45000000D03*
X87000000Y-38800000D03*
X57175010Y-48600000D03*
X87000000Y-48700000D03*
%TO.N,/B0*%
X37714762Y-63375030D03*
X72200000Y-60200000D03*
%TO.N,/B1*%
X37800000Y-64400000D03*
X73400000Y-60400000D03*
X72400000Y-61400000D03*
%TO.N,/B2*%
X37800000Y-65600000D03*
X77800000Y-60200000D03*
X75800000Y-62324999D03*
%TO.N,/B3*%
X37800000Y-66800000D03*
X79800000Y-60200000D03*
X76800000Y-63000000D03*
%TO.N,/B4*%
X37600000Y-67800000D03*
X81400000Y-45575000D03*
X101800000Y-45600000D03*
X81100000Y-60000000D03*
%TO.N,/B5*%
X37619084Y-68743700D03*
X79975000Y-45575000D03*
X99800000Y-46200000D03*
X81792821Y-60400001D03*
X81831244Y-46250001D03*
%TO.N,/B6*%
X37564308Y-70235692D03*
X74200000Y-45600000D03*
X96000000Y-46825000D03*
X92100010Y-46825000D03*
X83200000Y-59500000D03*
%TO.N,/B7*%
X37600000Y-71800000D03*
X73400000Y-46200000D03*
X94200000Y-47450000D03*
X83500000Y-60300000D03*
%TO.N,/A0*%
X62850001Y-60800000D03*
X61400000Y-60800000D03*
X64000000Y-49800000D03*
X83200000Y-50000000D03*
%TO.N,/A1*%
X64200000Y-50800000D03*
X85000000Y-50400000D03*
%TO.N,/A2*%
X61600000Y-62125030D03*
X66800000Y-62125030D03*
X88800000Y-51575000D03*
X67200000Y-52575000D03*
%TO.N,/A3*%
X60800000Y-62750030D03*
X68800000Y-62600000D03*
X68800000Y-52400000D03*
X90800000Y-52200000D03*
%TO.N,/A5*%
X88800000Y-39400000D03*
X88800000Y-45000000D03*
%TO.N,/A6*%
X85000000Y-38800000D03*
X85000000Y-45000000D03*
%TO.N,/A7*%
X83200000Y-38000000D03*
X83200000Y-45000000D03*
%TO.N,/COL1*%
X49700000Y-67800000D03*
X64000000Y-68800003D03*
%TO.N,/ROW1*%
X55239492Y-54688020D03*
X101400000Y-61800000D03*
%TO.N,/ROW2*%
X53200000Y-54074980D03*
D29*
X99600000Y-74800000D03*
D30*
%TO.N,/ROW3*%
X51800000Y-53375000D03*
D29*
X100200000Y-83800000D03*
D30*
%TO.N,/ROW4*%
X50400000Y-68300000D03*
X62600000Y-69900000D03*
D29*
X61600000Y-93000000D03*
X63600000Y-93000000D03*
D30*
%TO.N,/COL2*%
X49124990Y-67200000D03*
X64000000Y-68000000D03*
D29*
X82000000Y-71200000D03*
X81950000Y-80650000D03*
X81950000Y-90050000D03*
X81950000Y-99250000D03*
D30*
%TO.N,/COL3*%
X49200000Y-53000000D03*
X100400000Y-48100000D03*
X100500000Y-54500000D03*
X100500000Y-69700000D03*
%TD*%
D31*
%TO.N,GND*%
X50900000Y-46000000D02*
X49400000Y-46000000D01*
X43725000Y-43475000D02*
X43600000Y-43600000D01*
X43725000Y-41765000D02*
X43725000Y-43475000D01*
D32*
X52575000Y-52000000D02*
X52800000Y-52225000D01*
X50325000Y-52000000D02*
X52575000Y-52000000D01*
D31*
X57000000Y-46575000D02*
X55500000Y-46575000D01*
X55787500Y-46862500D02*
X55500000Y-46575000D01*
X55275000Y-48212500D02*
X55262500Y-48200000D01*
X55787500Y-48212500D02*
X55275000Y-48212500D01*
X55787500Y-50000000D02*
X55787500Y-48212500D01*
X55787500Y-48212500D02*
X55787500Y-46862500D01*
X43287500Y-47000000D02*
X43287500Y-45500000D01*
X43287500Y-43912500D02*
X43600000Y-43600000D01*
X43287500Y-45500000D02*
X43287500Y-43912500D01*
D32*
X43912500Y-47625000D02*
X43912500Y-50087500D01*
X43287500Y-47000000D02*
X43912500Y-47625000D01*
X45925000Y-60500000D02*
X46437490Y-60500000D01*
X46912500Y-59215702D02*
X46912500Y-58412500D01*
X46737490Y-59390712D02*
X46912500Y-59215702D01*
X46737490Y-60200000D02*
X46737490Y-59390712D01*
X46437490Y-60500000D02*
X46737490Y-60200000D01*
X43100000Y-56500000D02*
X43400000Y-56800000D01*
X42000000Y-56500000D02*
X43100000Y-56500000D01*
D31*
X38425000Y-56500000D02*
X38425000Y-58000000D01*
X38425000Y-58000000D02*
X38425000Y-59500000D01*
X34000000Y-58925000D02*
X33925000Y-59000000D01*
X34000000Y-57080000D02*
X34000000Y-58925000D01*
D32*
X50875000Y-41800000D02*
X50400000Y-41800000D01*
X52075000Y-43000000D02*
X50875000Y-41800000D01*
X38425000Y-55425000D02*
X38400000Y-55400000D01*
X38425000Y-56500000D02*
X38425000Y-55425000D01*
X44875010Y-60500000D02*
X44800000Y-60575010D01*
X45925000Y-60500000D02*
X44875010Y-60500000D01*
D33*
X52600000Y-70925000D02*
X52600000Y-71575000D01*
X52600000Y-71575000D02*
X52600000Y-72225000D01*
X52600000Y-73000000D02*
X52800000Y-73200000D01*
X52600000Y-72225000D02*
X52600000Y-73000000D01*
X52787500Y-73212500D02*
X52800000Y-73200000D01*
X52787500Y-74500000D02*
X52787500Y-73212500D01*
X43825000Y-69625000D02*
X43800000Y-69600000D01*
X45400000Y-69625000D02*
X43825000Y-69625000D01*
D32*
X47525000Y-88095000D02*
X47525000Y-89365000D01*
X47525000Y-89365000D02*
X47525000Y-90635000D01*
X47525000Y-90635000D02*
X47525000Y-91905000D01*
X45895000Y-91905000D02*
X45800000Y-92000000D01*
X47525000Y-91905000D02*
X45895000Y-91905000D01*
X45953162Y-81905000D02*
X45795652Y-82062510D01*
X47525000Y-81905000D02*
X45953162Y-81905000D01*
X57900000Y-89500000D02*
X58000000Y-89600000D01*
X57000000Y-89500000D02*
X57900000Y-89500000D01*
X48698310Y-52000000D02*
X48436655Y-52261655D01*
X50325000Y-52000000D02*
X48698310Y-52000000D01*
X38820000Y-40020000D02*
X35650000Y-40020000D01*
X39700000Y-40900000D02*
X38820000Y-40020000D01*
X43600000Y-43600000D02*
X41400000Y-43600000D01*
X41400000Y-43600000D02*
X40500000Y-42700000D01*
X40500000Y-41700000D02*
X39700000Y-40900000D01*
X40500000Y-42700000D02*
X40500000Y-41700000D01*
X35650000Y-46450000D02*
X35600000Y-46400000D01*
X35650000Y-47980000D02*
X35650000Y-46450000D01*
%TO.N,/NRST*%
X35270000Y-58770000D02*
X35500000Y-59000000D01*
X35270000Y-57080000D02*
X35270000Y-58770000D01*
X46412500Y-57609298D02*
X45000000Y-56196798D01*
X46412500Y-58412500D02*
X46412500Y-57609298D01*
X45000000Y-54425000D02*
X44000000Y-53425000D01*
X45000000Y-56196798D02*
X45000000Y-54425000D01*
X32453002Y-47980000D02*
X31150000Y-47980000D01*
X33925001Y-50274999D02*
X33925001Y-49451999D01*
X32800000Y-51400000D02*
X33925001Y-50274999D01*
X32800000Y-59600000D02*
X32800000Y-51400000D01*
X33200000Y-60000000D02*
X32800000Y-59600000D01*
X35000000Y-60000000D02*
X33200000Y-60000000D01*
X33925001Y-49451999D02*
X32453002Y-47980000D01*
X35500000Y-59500000D02*
X35000000Y-60000000D01*
X35500000Y-59000000D02*
X35500000Y-59500000D01*
X31150000Y-40020000D02*
X31150000Y-47980000D01*
X41900000Y-58843994D02*
X39843994Y-60900000D01*
X41900000Y-57800000D02*
X41900000Y-58843994D01*
X39843994Y-60900000D02*
X39475010Y-60531016D01*
X39475010Y-74675010D02*
X40500000Y-75700000D01*
X39475010Y-60531016D02*
X39475010Y-74675010D01*
X40500000Y-75700000D02*
X40700000Y-75900000D01*
X40700000Y-75900000D02*
X45800000Y-75900000D01*
X55000000Y-76000000D02*
X59700000Y-80700000D01*
X52995001Y-95424999D02*
X53975001Y-95424999D01*
X51820000Y-96600000D02*
X52995001Y-95424999D01*
X58600000Y-90800000D02*
X59700000Y-89700000D01*
X53975001Y-95424999D02*
X58600000Y-90800000D01*
X59700000Y-80700000D02*
X59700000Y-89700000D01*
D31*
%TO.N,Net-(C2-Pad1)*%
X46325000Y-42875002D02*
X47649998Y-44200000D01*
X46325000Y-41765000D02*
X46325000Y-42875002D01*
X50050000Y-44200000D02*
X50900000Y-45050000D01*
X47649998Y-44200000D02*
X50050000Y-44200000D01*
X50050000Y-43450000D02*
X50500000Y-43000000D01*
X50050000Y-44200000D02*
X50050000Y-43450000D01*
X51615002Y-46950000D02*
X50900000Y-46950000D01*
X51880001Y-46685001D02*
X51615002Y-46950000D01*
X51880001Y-45314999D02*
X51880001Y-46685001D01*
X51615002Y-45050000D02*
X51880001Y-45314999D01*
X50900000Y-45050000D02*
X51615002Y-45050000D01*
%TO.N,VCC*%
X55450000Y-45050000D02*
X55500000Y-45000000D01*
X55500000Y-45000000D02*
X57000000Y-45000000D01*
X54212500Y-51500000D02*
X54212500Y-50000000D01*
X54212500Y-45187500D02*
X54350000Y-45050000D01*
X54212500Y-50000000D02*
X54212500Y-45187500D01*
X54350000Y-45050000D02*
X55450000Y-45050000D01*
X53100000Y-45050000D02*
X54350000Y-45050000D01*
D32*
X50325000Y-51500000D02*
X54212500Y-51500000D01*
X43412500Y-48700000D02*
X41712500Y-47000000D01*
X43412500Y-50087500D02*
X43412500Y-48700000D01*
D31*
X41712500Y-47000000D02*
X41712500Y-45500000D01*
D32*
X47412500Y-60412500D02*
X47500000Y-60500000D01*
X47412500Y-58412500D02*
X47412500Y-60412500D01*
X40500000Y-57000000D02*
X40000000Y-56500000D01*
X42000000Y-57000000D02*
X40500000Y-57000000D01*
D31*
X40000000Y-56500000D02*
X40000000Y-58000000D01*
X40000000Y-58000000D02*
X40000000Y-59500000D01*
D32*
X43412500Y-58412500D02*
X43412500Y-57812500D01*
X43125001Y-57525001D02*
X43051999Y-57525001D01*
X43412500Y-57812500D02*
X43125001Y-57525001D01*
X42526998Y-57000000D02*
X42000000Y-57000000D01*
X43051999Y-57525001D02*
X42526998Y-57000000D01*
X50325000Y-51500000D02*
X48173005Y-51500000D01*
X43437490Y-50112490D02*
X43412500Y-50087500D01*
X34000000Y-51250000D02*
X35450000Y-49800000D01*
X34000000Y-52000000D02*
X34000000Y-51250000D01*
X35450000Y-49800000D02*
X40800000Y-49800000D01*
X41712500Y-48887500D02*
X41712500Y-47000000D01*
X40800000Y-49800000D02*
X41712500Y-48887500D01*
D31*
X57000000Y-45000000D02*
X57600000Y-45000000D01*
X57925010Y-55649990D02*
X57575000Y-56000000D01*
X57925010Y-45325010D02*
X57925010Y-55649990D01*
X57600000Y-45000000D02*
X57925010Y-45325010D01*
X57575000Y-56000000D02*
X57575000Y-60000000D01*
X57575000Y-60750000D02*
X56925000Y-61400000D01*
X57575000Y-60000000D02*
X57575000Y-60750000D01*
X56925000Y-61400000D02*
X53000000Y-61400000D01*
X52925000Y-61325000D02*
X52925000Y-60000000D01*
X53000000Y-61400000D02*
X52925000Y-61325000D01*
X47500000Y-60500000D02*
X48400000Y-61400000D01*
X48400000Y-61400000D02*
X48374990Y-61425010D01*
X48374990Y-61425010D02*
X48374990Y-68974990D01*
D33*
X48374980Y-68975000D02*
X48374990Y-68974990D01*
X45400000Y-68975000D02*
X48374980Y-68975000D01*
D32*
X35500000Y-76960000D02*
X36540000Y-78000000D01*
X35500000Y-71200000D02*
X35500000Y-76960000D01*
X35500000Y-71200000D02*
X34600000Y-70300000D01*
X35247654Y-67600000D02*
X35500000Y-67600000D01*
X34600000Y-68247654D02*
X35247654Y-67600000D01*
X34600000Y-70300000D02*
X34600000Y-68247654D01*
X34624990Y-64875010D02*
X35500000Y-64000000D01*
X34624990Y-66724990D02*
X34624990Y-64875010D01*
X35500000Y-67600000D02*
X34624990Y-66724990D01*
X52475000Y-79365000D02*
X52475000Y-78095000D01*
X48500000Y-74500000D02*
X48374980Y-74625020D01*
X51212500Y-74500000D02*
X48500000Y-74500000D01*
D31*
X48374980Y-74625020D02*
X48374980Y-75574980D01*
X48374980Y-68975000D02*
X48374980Y-74625020D01*
D32*
X41000000Y-78000000D02*
X42000000Y-79000000D01*
X36540000Y-78000000D02*
X41000000Y-78000000D01*
X42000000Y-79000000D02*
X43500000Y-79000000D01*
X43500000Y-79000000D02*
X43600000Y-79000000D01*
X47025020Y-75574980D02*
X48374980Y-75574980D01*
X43600000Y-79000000D02*
X47025020Y-75574980D01*
D31*
X53800000Y-76400000D02*
X59000000Y-81600000D01*
X48374980Y-75774980D02*
X49000000Y-76400000D01*
X48374980Y-75574980D02*
X48374980Y-75774980D01*
D32*
X52475000Y-77325000D02*
X53400000Y-76400000D01*
X52475000Y-78095000D02*
X52475000Y-77325000D01*
D31*
X53400000Y-76400000D02*
X53800000Y-76400000D01*
X49000000Y-76400000D02*
X53400000Y-76400000D01*
D32*
X50780000Y-86400000D02*
X52475000Y-88095000D01*
X58905000Y-88095000D02*
X59000000Y-88000000D01*
X52475000Y-88095000D02*
X58905000Y-88095000D01*
X40972500Y-44760000D02*
X41712500Y-45500000D01*
X38800000Y-44760000D02*
X40972500Y-44760000D01*
X47348002Y-52325002D02*
X47586502Y-52086502D01*
X43600000Y-51725002D02*
X44200000Y-52325002D01*
X43600000Y-51078202D02*
X43600000Y-51725002D01*
X43412500Y-50890702D02*
X43600000Y-51078202D01*
X43412500Y-50087500D02*
X43412500Y-50890702D01*
X44200000Y-52325002D02*
X47348002Y-52325002D01*
X47586502Y-52086502D02*
X47348004Y-52325001D01*
X48173005Y-51500000D02*
X47586502Y-52086502D01*
X47412500Y-57609298D02*
X47412500Y-58412500D01*
X47348002Y-57544800D02*
X47412500Y-57609298D01*
X47348002Y-52325002D02*
X47348002Y-57544800D01*
X46699989Y-61300011D02*
X47500000Y-60500000D01*
X44451999Y-61300011D02*
X46699989Y-61300011D01*
X43412500Y-60260512D02*
X44451999Y-61300011D01*
X43412500Y-58412500D02*
X43412500Y-60260512D01*
D31*
X51150001Y-61337499D02*
X51150001Y-69249999D01*
X52925000Y-60000000D02*
X52487500Y-60000000D01*
X52487500Y-60000000D02*
X51150001Y-61337499D01*
X50950003Y-69050001D02*
X51150001Y-69249999D01*
X48449981Y-69050001D02*
X50950003Y-69050001D01*
X48374980Y-68975000D02*
X48449981Y-69050001D01*
D32*
X51150001Y-69995003D02*
X51429998Y-70275000D01*
X51150001Y-69249999D02*
X51150001Y-69995003D01*
X51429998Y-70275000D02*
X52600000Y-70275000D01*
X40140000Y-86400000D02*
X43600000Y-86400000D01*
X43600000Y-86400000D02*
X50780000Y-86400000D01*
X36540000Y-90000000D02*
X40140000Y-86400000D01*
X43140000Y-86400000D02*
X43600000Y-86400000D01*
X53925002Y-94600000D02*
X59000000Y-89525002D01*
X59000000Y-89525002D02*
X59000000Y-87200000D01*
X44800000Y-94600000D02*
X53925002Y-94600000D01*
X44200000Y-95200000D02*
X44800000Y-94600000D01*
X44200000Y-96600000D02*
X44200000Y-95200000D01*
D31*
X59000000Y-87200000D02*
X59000000Y-88000000D01*
X59000000Y-81600000D02*
X59000000Y-87200000D01*
D32*
X43200000Y-89400000D02*
X40600000Y-89400000D01*
X37140000Y-89400000D02*
X36540000Y-90000000D01*
X40600000Y-89400000D02*
X37140000Y-89400000D01*
%TO.N,Net-(D1-Pad1)*%
X33812500Y-63937500D02*
X33875000Y-64000000D01*
X33812500Y-62200000D02*
X33812500Y-63937500D01*
%TO.N,Net-(D2-Pad1)*%
X33812500Y-67537500D02*
X33875000Y-67600000D01*
X33812500Y-65800000D02*
X33812500Y-67537500D01*
%TO.N,Net-(D3-Pad1)*%
X33825000Y-71150000D02*
X33875000Y-71200000D01*
X33825000Y-69400000D02*
X33825000Y-71150000D01*
%TO.N,Net-(J1-Pad6)*%
X42605000Y-39195000D02*
X42295000Y-38885000D01*
X42605000Y-41885000D02*
X42605000Y-39195000D01*
X43795000Y-38885000D02*
X44065000Y-38615000D01*
X42295000Y-38885000D02*
X43795000Y-38885000D01*
X47485000Y-38615000D02*
X47755000Y-38885000D01*
X45985000Y-38615000D02*
X47485000Y-38615000D01*
X47755000Y-41745000D02*
X47875000Y-41865000D01*
X47755000Y-38885000D02*
X47755000Y-41745000D01*
X45985000Y-38615000D02*
X44065000Y-38615000D01*
%TO.N,/USB_N*%
X45675000Y-42725000D02*
X45675000Y-41765000D01*
X45412500Y-42987500D02*
X45675000Y-42725000D01*
X45412500Y-50087500D02*
X45412500Y-42987500D01*
%TO.N,/USB_P*%
X44912500Y-42851090D02*
X44912500Y-50087500D01*
X45025000Y-42738590D02*
X44912500Y-42851090D01*
X45025000Y-41765000D02*
X45025000Y-42738590D01*
%TO.N,/~CS*%
X47525000Y-78095000D02*
X45705000Y-78095000D01*
X43500000Y-80300000D02*
X43500000Y-80575000D01*
X45705000Y-78095000D02*
X43500000Y-80300000D01*
X42737490Y-79812490D02*
X41012490Y-79812490D01*
X43500000Y-80575000D02*
X42737490Y-79812490D01*
X41012490Y-79812490D02*
X40400000Y-79200000D01*
X35200000Y-79200000D02*
X34000000Y-78000000D01*
X40400000Y-79200000D02*
X35200000Y-79200000D01*
X51808884Y-56500000D02*
X52254442Y-56945558D01*
X50325000Y-56500000D02*
X51808884Y-56500000D01*
X31050010Y-62349990D02*
X31050010Y-73146420D01*
X31200000Y-62200000D02*
X31050010Y-62349990D01*
X31225000Y-62200000D02*
X31200000Y-62200000D01*
X31050010Y-73146420D02*
X31050010Y-73213600D01*
X31000040Y-77825010D02*
X31175030Y-78000000D01*
X31000040Y-75849982D02*
X31000040Y-77825010D01*
X31050010Y-73488598D02*
X31475011Y-73913599D01*
X31050010Y-73146420D02*
X31050010Y-73488598D01*
X31475011Y-75375011D02*
X31000040Y-75849982D01*
X31475011Y-73913599D02*
X31475011Y-75375011D01*
%TO.N,/MISO*%
X45835000Y-79365000D02*
X45400000Y-79800000D01*
X47525000Y-79365000D02*
X45835000Y-79365000D01*
X53800000Y-56929704D02*
X53800000Y-57400000D01*
X52370296Y-55500000D02*
X53800000Y-56929704D01*
X50325000Y-55500000D02*
X52370296Y-55500000D01*
X32850050Y-63172619D02*
X32850050Y-64250050D01*
X32723868Y-63046437D02*
X32850050Y-63172619D01*
X32850050Y-64250050D02*
X32850050Y-74400060D01*
X34849990Y-76400000D02*
X34875000Y-76400000D01*
X32850050Y-74400060D02*
X34849990Y-76400000D01*
%TO.N,/~WP*%
X46550000Y-80635000D02*
X47525000Y-80635000D01*
X45847490Y-81337510D02*
X46550000Y-80635000D01*
X42762510Y-81337510D02*
X45847490Y-81337510D01*
X42000000Y-80575000D02*
X42762510Y-81337510D01*
X34000000Y-83080000D02*
X35280000Y-81800000D01*
X40775000Y-81800000D02*
X42000000Y-80575000D01*
X35280000Y-81800000D02*
X40775000Y-81800000D01*
%TO.N,/MOSI*%
X52475000Y-81905000D02*
X50780000Y-83600000D01*
X38560000Y-83600000D02*
X36540000Y-85620000D01*
X50780000Y-83600000D02*
X38560000Y-83600000D01*
X54600003Y-57093297D02*
X54600003Y-57400000D01*
X52506706Y-55000000D02*
X54600003Y-57093297D01*
X50325000Y-55000000D02*
X52506706Y-55000000D01*
X34760000Y-87400000D02*
X36540000Y-85620000D01*
X32800000Y-87400000D02*
X34760000Y-87400000D01*
X32400040Y-87000040D02*
X32800000Y-87400000D01*
X32400040Y-64199960D02*
X32400040Y-87000040D01*
X32400040Y-64174990D02*
X32225050Y-64000000D01*
X32400040Y-64199960D02*
X32400040Y-64174990D01*
%TO.N,/SCK*%
X50441768Y-80635000D02*
X52475000Y-80635000D01*
X47996768Y-83080000D02*
X50441768Y-80635000D01*
X36540000Y-83080000D02*
X47996768Y-83080000D01*
X53011566Y-56777680D02*
X53011566Y-57203947D01*
X52233886Y-56000000D02*
X53011566Y-56777680D01*
X50325000Y-56000000D02*
X52233886Y-56000000D01*
X31506621Y-62825000D02*
X31500020Y-62831601D01*
X31930885Y-62825000D02*
X31506621Y-62825000D01*
X31500020Y-62831601D02*
X31500020Y-64600000D01*
X31500020Y-64600000D02*
X31500020Y-72800000D01*
X31500020Y-73302198D02*
X31950030Y-73752208D01*
X31500020Y-72800000D02*
X31500020Y-73302198D01*
X31950030Y-84025010D02*
X31775040Y-84200000D01*
X31950030Y-73752208D02*
X31950030Y-84025010D01*
%TO.N,/UART1_TX*%
X32125000Y-50525000D02*
X32000000Y-50400000D01*
X32200000Y-50525000D02*
X32125000Y-50525000D01*
X30875000Y-50525000D02*
X32200000Y-50525000D01*
X29650010Y-51749990D02*
X30875000Y-50525000D01*
X46412500Y-51471385D02*
X46194492Y-51689393D01*
X46412500Y-50087500D02*
X46412500Y-51471385D01*
X29650010Y-90850010D02*
X29650010Y-97650010D01*
X29650010Y-90850010D02*
X29650010Y-51749990D01*
X29650010Y-97650010D02*
X32000000Y-100000000D01*
X43340000Y-100000000D02*
X46740000Y-96600000D01*
X32000000Y-100000000D02*
X43340000Y-100000000D01*
%TO.N,/UART1_RX*%
X30600000Y-49800000D02*
X29200000Y-51200000D01*
X33200000Y-49800000D02*
X30600000Y-49800000D01*
X45912500Y-51087501D02*
X45300000Y-51700001D01*
X45912500Y-50087500D02*
X45912500Y-51087501D01*
X29200001Y-97836411D02*
X31813600Y-100450010D01*
X29200000Y-97600000D02*
X29200001Y-97836411D01*
X29200000Y-51200000D02*
X29200000Y-97600000D01*
X31813600Y-100450010D02*
X47549990Y-100450010D01*
X49280000Y-98720000D02*
X49280000Y-96600000D01*
X47549990Y-100450010D02*
X49280000Y-98720000D01*
%TO.N,/SCL*%
X40256007Y-53149981D02*
X39600000Y-53149981D01*
X41106026Y-54000000D02*
X40256007Y-53149981D01*
X42000000Y-54000000D02*
X41106026Y-54000000D01*
X30300020Y-60600000D02*
X30100020Y-60800000D01*
X31600000Y-60600000D02*
X30300020Y-60600000D01*
X30100020Y-60800000D02*
X30100020Y-74300020D01*
X30300020Y-74300020D02*
X30400000Y-74400000D01*
X30100020Y-74300020D02*
X30300020Y-74300020D01*
X43498910Y-70925000D02*
X45400000Y-70925000D01*
X41050011Y-73373899D02*
X43498910Y-70925000D01*
X41050010Y-73981484D02*
X41050011Y-73373899D01*
X41050010Y-74349990D02*
X40900000Y-74500000D01*
X41050010Y-73981484D02*
X41050010Y-74349990D01*
X35364999Y-93904999D02*
X33304999Y-93904999D01*
X36540000Y-95080000D02*
X35364999Y-93904999D01*
X30100020Y-90700020D02*
X30100020Y-89699980D01*
X33304999Y-93904999D02*
X30100020Y-90700020D01*
X30100020Y-74300020D02*
X30100020Y-89699980D01*
X35364999Y-98184001D02*
X35975999Y-98795001D01*
X35975999Y-98795001D02*
X38404999Y-98795001D01*
X35364999Y-96255001D02*
X35364999Y-98184001D01*
X36540000Y-95080000D02*
X35364999Y-96255001D01*
X38404999Y-98795001D02*
X40000000Y-97200000D01*
X40000000Y-97200000D02*
X40000000Y-95200000D01*
X40000000Y-95200000D02*
X41200000Y-94000000D01*
X41200000Y-94000000D02*
X53600000Y-94000000D01*
X53600000Y-94000000D02*
X54600000Y-93000000D01*
X53450000Y-90635000D02*
X52475000Y-90635000D01*
X54600000Y-91785000D02*
X53450000Y-90635000D01*
X54600000Y-93000000D02*
X54600000Y-91785000D01*
X44225000Y-90975000D02*
X43200000Y-90975000D01*
X44600000Y-87400000D02*
X44600000Y-90600000D01*
X49050010Y-86850010D02*
X45149990Y-86850010D01*
X50000000Y-87800000D02*
X49050010Y-86850010D01*
X50000000Y-89400000D02*
X50000000Y-87800000D01*
X45149990Y-86850010D02*
X44600000Y-87400000D01*
X51235000Y-90635000D02*
X50000000Y-89400000D01*
X44600000Y-90600000D02*
X44225000Y-90975000D01*
X52475000Y-90635000D02*
X51235000Y-90635000D01*
%TO.N,/SDA*%
X41875010Y-54524990D02*
X40994608Y-54524990D01*
X41900000Y-54500000D02*
X41875010Y-54524990D01*
X42000000Y-54500000D02*
X41900000Y-54500000D01*
X38974993Y-53774981D02*
X38800001Y-53599989D01*
X40244597Y-53774981D02*
X38974993Y-53774981D01*
X40994608Y-54524990D02*
X40244597Y-53774981D01*
X45400000Y-71575000D02*
X43485320Y-71575000D01*
X30600000Y-73674998D02*
X30600000Y-61499940D01*
X31025001Y-74099999D02*
X30600000Y-73674998D01*
X30699940Y-61400000D02*
X31600000Y-61400000D01*
X30600000Y-61499940D02*
X30699940Y-61400000D01*
X31025001Y-74900019D02*
X31025001Y-74099999D01*
X30725020Y-75200000D02*
X31025001Y-74900019D01*
X41565642Y-73494678D02*
X42130160Y-72930160D01*
X41565642Y-74943761D02*
X41565642Y-73494678D01*
X43485320Y-71575000D02*
X42130160Y-72930160D01*
X30662501Y-75262501D02*
X30550030Y-75374972D01*
X30662501Y-75262501D02*
X30662519Y-75262501D01*
X30662519Y-75262501D02*
X30725020Y-75200000D01*
X36540000Y-97620000D02*
X37980000Y-97620000D01*
X37980000Y-97620000D02*
X39200000Y-96400000D01*
X39200000Y-93000000D02*
X37400000Y-91200000D01*
X32000000Y-91200000D02*
X30550030Y-89750030D01*
X37400000Y-91200000D02*
X32000000Y-91200000D01*
X30550030Y-75374972D02*
X30550030Y-89750030D01*
X52475000Y-91905000D02*
X50980000Y-93400000D01*
X39200000Y-93200000D02*
X39200000Y-93000000D01*
X39200000Y-96400000D02*
X39200000Y-93200000D01*
X40600000Y-91800000D02*
X39200000Y-93200000D01*
X40600000Y-90975000D02*
X40600000Y-91800000D01*
X40600000Y-90975000D02*
X40600000Y-92000000D01*
X42000000Y-93400000D02*
X50980000Y-93400000D01*
X40600000Y-92000000D02*
X42000000Y-93400000D01*
%TO.N,/SWDIO*%
X44412500Y-51587500D02*
X44400000Y-51600000D01*
X44412500Y-50087500D02*
X44412500Y-51587500D01*
X35270000Y-51130000D02*
X35270000Y-52000000D01*
X36000000Y-50400000D02*
X35270000Y-51130000D01*
X41800000Y-50400000D02*
X41800000Y-50400000D01*
X44400000Y-51600000D02*
X44400000Y-51600000D01*
X41800000Y-50400000D02*
X36000000Y-50400000D01*
%TO.N,/SWCLK*%
X35930000Y-53270000D02*
X35270000Y-53270000D01*
X36200000Y-53000000D02*
X35930000Y-53270000D01*
X36200000Y-52200000D02*
X36200000Y-53000000D01*
X36900000Y-51500000D02*
X36200000Y-52200000D01*
X42000000Y-51500000D02*
X36900000Y-51500000D01*
%TO.N,/BOOT0*%
X38125000Y-40900000D02*
X37300000Y-41725000D01*
X37300000Y-45800000D02*
X38800000Y-47300000D01*
X37300000Y-41725000D02*
X37300000Y-45800000D01*
X42000000Y-55000000D02*
X42803202Y-55000000D01*
X43062510Y-51259308D02*
X42503202Y-50700000D01*
X43062510Y-54740692D02*
X43062510Y-51259308D01*
X42803202Y-55000000D02*
X43062510Y-54740692D01*
X42503202Y-50154486D02*
X41916300Y-49567584D01*
X42503202Y-50700000D02*
X42503202Y-50154486D01*
%TO.N,Net-(Q1-Pad1)*%
X54500000Y-58500000D02*
X54500000Y-60000000D01*
X54900000Y-59600000D02*
X54500000Y-60000000D01*
X56425000Y-59600000D02*
X54900000Y-59600000D01*
%TO.N,Net-(Q1-Pad2)*%
X65000000Y-45000000D02*
X65000000Y-42500000D01*
X76000000Y-45200000D02*
X76000000Y-57500000D01*
X76000000Y-42500000D02*
X76000000Y-45200000D01*
X56425000Y-60400000D02*
X55600000Y-60400000D01*
X65000000Y-60200000D02*
X65000000Y-57500000D01*
X65000000Y-48200000D02*
X65000000Y-57500000D01*
X66400000Y-46800000D02*
X65000000Y-48200000D01*
X66400000Y-46793886D02*
X68446943Y-44746943D01*
X66400000Y-46800000D02*
X66400000Y-46793886D01*
%TO.N,Net-(Q2-Pad2)*%
X87000000Y-42500000D02*
X87000000Y-45000000D01*
X87299999Y-38500001D02*
X97500001Y-38500001D01*
X87000000Y-38800000D02*
X87299999Y-38500001D01*
X98000000Y-39000000D02*
X98000000Y-42500000D01*
X97500001Y-38500001D02*
X98000000Y-39000000D01*
X98000000Y-42500000D02*
X98000000Y-57500000D01*
X87000000Y-48400000D02*
X87000000Y-57500000D01*
X87000000Y-45000000D02*
X87000000Y-48400000D01*
X56425000Y-56400000D02*
X56900000Y-56400000D01*
X57175010Y-48624990D02*
X57175010Y-48600000D01*
X56999990Y-48800010D02*
X57175010Y-48624990D01*
X56999990Y-56300010D02*
X56999990Y-48800010D01*
X56900000Y-56400000D02*
X56999990Y-56300010D01*
%TO.N,Net-(Q2-Pad1)*%
X55787500Y-51500000D02*
X55787500Y-53000000D01*
X56425000Y-55600000D02*
X56425000Y-55025000D01*
X55787500Y-54387500D02*
X55787500Y-53000000D01*
X56425000Y-55025000D02*
X55787500Y-54387500D01*
%TO.N,Net-(R4-Pad1)*%
X55290000Y-89365000D02*
X55425000Y-89500000D01*
X52475000Y-89365000D02*
X55290000Y-89365000D01*
%TO.N,/LED_R*%
X38954178Y-52500000D02*
X42000000Y-52500000D01*
X36600000Y-54854180D02*
X38954178Y-52500000D01*
X36600000Y-59400000D02*
X36600000Y-54854180D01*
X35387500Y-60612500D02*
X36600000Y-59400000D01*
X35387500Y-62200000D02*
X35387500Y-60612500D01*
%TO.N,/LED_Y*%
X40900000Y-55500000D02*
X42000000Y-55500000D01*
X40650010Y-55250010D02*
X40900000Y-55500000D01*
X40058198Y-54224990D02*
X40650010Y-54816802D01*
X37865599Y-54224989D02*
X40058198Y-54224990D01*
X40650010Y-54816802D02*
X40650010Y-55250010D01*
X37050010Y-55040578D02*
X37865599Y-54224989D01*
X37050009Y-59586401D02*
X37050010Y-55040578D01*
X36437510Y-60198900D02*
X37050009Y-59586401D01*
X36437510Y-64749990D02*
X36437510Y-60198900D01*
X35387500Y-65800000D02*
X36437510Y-64749990D01*
%TO.N,/DISPA*%
X51425000Y-57000000D02*
X52925000Y-58500000D01*
X50325000Y-57000000D02*
X51425000Y-57000000D01*
%TO.N,/LED_G*%
X40200000Y-55456006D02*
X40743994Y-56000000D01*
X37600000Y-55126998D02*
X38051999Y-54674999D01*
X40743994Y-56000000D02*
X42000000Y-56000000D01*
X37600000Y-59672818D02*
X37600000Y-55126998D01*
X39871797Y-54674999D02*
X40200000Y-55003202D01*
X36887520Y-60385300D02*
X37600000Y-59672818D01*
X40200000Y-55003202D02*
X40200000Y-55456006D01*
X38051999Y-54674999D02*
X39871797Y-54674999D01*
X36887520Y-67912480D02*
X36887520Y-60385300D01*
X35400000Y-69400000D02*
X36887520Y-67912480D01*
%TO.N,/DISPB*%
X52001998Y-52500000D02*
X52451999Y-52950001D01*
X50325000Y-52500000D02*
X52001998Y-52500000D01*
X54162501Y-52950001D02*
X54212500Y-53000000D01*
X52451999Y-52950001D02*
X54162501Y-52950001D01*
%TO.N,/B0*%
X38089792Y-63000000D02*
X37714762Y-63375030D01*
X38712500Y-63000000D02*
X38089792Y-63000000D01*
X72200000Y-60200000D02*
X72200000Y-57500000D01*
X73025001Y-61025001D02*
X93374999Y-61025001D01*
X72200000Y-60200000D02*
X73025001Y-61025001D01*
X94200000Y-60200000D02*
X94200000Y-57500000D01*
X93374999Y-61025001D02*
X94200000Y-60200000D01*
%TO.N,Net-(R12-Pad2)*%
X41062500Y-63775000D02*
X40287500Y-63000000D01*
X45400000Y-63775000D02*
X41062500Y-63775000D01*
%TO.N,Net-(R13-Pad2)*%
X40362500Y-64425000D02*
X40287500Y-64500000D01*
X45400000Y-64425000D02*
X40362500Y-64425000D01*
%TO.N,/B1*%
X37900000Y-64500000D02*
X37800000Y-64400000D01*
X38712500Y-64500000D02*
X37900000Y-64500000D01*
X74100000Y-59700000D02*
X74100000Y-57500000D01*
X73400000Y-60400000D02*
X74100000Y-59700000D01*
X96100000Y-59250000D02*
X96100000Y-57500000D01*
X72699999Y-61699999D02*
X93650001Y-61699999D01*
X93650001Y-61699999D02*
X96100000Y-59250000D01*
X72400000Y-61400000D02*
X72699999Y-61699999D01*
%TO.N,/B2*%
X38200000Y-66000000D02*
X37800000Y-65600000D01*
X38712500Y-66000000D02*
X38200000Y-66000000D01*
X77800000Y-57600000D02*
X77900000Y-57500000D01*
X77800000Y-60200000D02*
X77800000Y-57600000D01*
X75800000Y-62324999D02*
X98275001Y-62324999D01*
X99900000Y-60700000D02*
X99900000Y-57500000D01*
X98275001Y-62324999D02*
X99900000Y-60700000D01*
%TO.N,Net-(R14-Pad2)*%
X41212500Y-65075000D02*
X40287500Y-66000000D01*
X45400000Y-65075000D02*
X41212500Y-65075000D01*
%TO.N,Net-(R15-Pad2)*%
X40463590Y-67500000D02*
X40287500Y-67500000D01*
X42238590Y-65725000D02*
X40463590Y-67500000D01*
X45400000Y-65725000D02*
X42238590Y-65725000D01*
%TO.N,/B3*%
X38500000Y-67500000D02*
X37800000Y-66800000D01*
X38712500Y-67500000D02*
X38500000Y-67500000D01*
X79800000Y-60200000D02*
X79800000Y-57500000D01*
X101800000Y-59436410D02*
X101800000Y-57500000D01*
X98236410Y-63000000D02*
X101800000Y-59436410D01*
X76800000Y-63000000D02*
X98236410Y-63000000D01*
%TO.N,/B4*%
X38712500Y-68912500D02*
X37600000Y-67800000D01*
X38712500Y-69000000D02*
X38712500Y-68912500D01*
X80600000Y-43300000D02*
X79800000Y-42500000D01*
X80600000Y-55200000D02*
X80600000Y-43300000D01*
X79800000Y-43975000D02*
X81400000Y-45575000D01*
X79800000Y-42500000D02*
X79800000Y-43975000D01*
X101800000Y-45600000D02*
X101800000Y-42500000D01*
X81100000Y-55700000D02*
X80600000Y-55200000D01*
X81100000Y-60000000D02*
X81100000Y-55700000D01*
%TO.N,Net-(R16-Pad2)*%
X45400000Y-66375000D02*
X42225000Y-66375000D01*
X42225000Y-66375000D02*
X41400000Y-67200000D01*
X41400000Y-67887500D02*
X40287500Y-69000000D01*
X41400000Y-67200000D02*
X41400000Y-67887500D01*
%TO.N,/B5*%
X37619084Y-69406584D02*
X37619084Y-68743700D01*
X38712500Y-70500000D02*
X37619084Y-69406584D01*
X77900000Y-43500000D02*
X77900000Y-42500000D01*
X79975000Y-45575000D02*
X77900000Y-43500000D01*
X100000000Y-42600000D02*
X99900000Y-42500000D01*
X99800000Y-42600000D02*
X99900000Y-42500000D01*
X99800000Y-46200000D02*
X99800000Y-42600000D01*
X81550010Y-59525008D02*
X81550010Y-46531235D01*
X81792821Y-59767819D02*
X81550010Y-59525008D01*
X81792821Y-60400001D02*
X81792821Y-59767819D01*
X81550010Y-46531235D02*
X81831244Y-46250001D01*
%TO.N,Net-(R17-Pad2)*%
X40287500Y-70243994D02*
X40287500Y-70500000D01*
X43506494Y-67025000D02*
X40287500Y-70243994D01*
X45400000Y-67025000D02*
X43506494Y-67025000D01*
%TO.N,Net-(R18-Pad2)*%
X45400000Y-67675000D02*
X43748910Y-67675000D01*
X41050010Y-71237490D02*
X40287500Y-72000000D01*
X41050010Y-70373900D02*
X41050010Y-71237490D01*
X43748910Y-67675000D02*
X41050010Y-70373900D01*
%TO.N,/B6*%
X37564308Y-70851808D02*
X37564308Y-70235692D01*
X38712500Y-72000000D02*
X37564308Y-70851808D01*
X74100000Y-45500000D02*
X74200000Y-45600000D01*
X74100000Y-45500000D02*
X74100000Y-42500000D01*
X96000000Y-42600000D02*
X96100000Y-42500000D01*
X96000000Y-46825000D02*
X96000000Y-42600000D01*
X92000000Y-59500000D02*
X83200000Y-59500000D01*
X92100010Y-59399990D02*
X92000000Y-59500000D01*
X92100010Y-46825000D02*
X92100010Y-59399990D01*
%TO.N,/B7*%
X37600000Y-72387500D02*
X37600000Y-71800000D01*
X38712500Y-73500000D02*
X37600000Y-72387500D01*
X72200000Y-44200000D02*
X72200000Y-42500000D01*
X73400000Y-45400000D02*
X72200000Y-44200000D01*
X73400000Y-45800000D02*
X73400000Y-46200000D01*
X73400000Y-45800000D02*
X73400000Y-45400000D01*
X94200000Y-47450000D02*
X94200000Y-42500000D01*
X91836410Y-60300000D02*
X92600000Y-59536410D01*
X83500000Y-60300000D02*
X91836410Y-60300000D01*
X92600000Y-59536410D02*
X92600000Y-56000000D01*
X94200000Y-54400000D02*
X94200000Y-47450000D01*
X92600000Y-56000000D02*
X94200000Y-54400000D01*
%TO.N,Net-(R19-Pad2)*%
X45400000Y-68325000D02*
X43735320Y-68325000D01*
X41500020Y-70560300D02*
X41500020Y-72287480D01*
X41500020Y-72287480D02*
X40287500Y-73500000D01*
X43735320Y-68325000D02*
X41500020Y-70560300D01*
%TO.N,Net-(R20-Pad2)*%
X52600000Y-68325000D02*
X54212461Y-68325000D01*
X54287462Y-68400001D02*
X54287462Y-69687462D01*
X54212461Y-68325000D02*
X54287462Y-68400001D01*
X56300000Y-73500000D02*
X56400000Y-73500000D01*
X55187480Y-72387480D02*
X56300000Y-73500000D01*
X55187480Y-70587480D02*
X55187480Y-72387480D01*
X54287462Y-69687462D02*
X55187480Y-70587480D01*
%TO.N,/A0*%
X62850001Y-68624999D02*
X62850001Y-60800000D01*
X57975000Y-73500000D02*
X62850001Y-68624999D01*
X61400000Y-57700000D02*
X61200000Y-57500000D01*
X61400000Y-60800000D02*
X61400000Y-57700000D01*
X61200000Y-52600000D02*
X64000000Y-49800000D01*
X61200000Y-57500000D02*
X61200000Y-52600000D01*
X83200000Y-50000000D02*
X83200000Y-57500000D01*
%TO.N,/A1*%
X63100000Y-59250000D02*
X63100000Y-57500000D01*
X62225001Y-60124999D02*
X63100000Y-59250000D01*
X62225001Y-67749999D02*
X62225001Y-60124999D01*
X57975000Y-72000000D02*
X62225001Y-67749999D01*
X64200000Y-54650000D02*
X64200000Y-50800000D01*
X63100000Y-55750000D02*
X64200000Y-54650000D01*
X63100000Y-57500000D02*
X63100000Y-55750000D01*
X85200000Y-57400000D02*
X85100000Y-57500000D01*
X85000000Y-57400000D02*
X85100000Y-57500000D01*
X85000000Y-50400000D02*
X85000000Y-57400000D01*
%TO.N,Net-(R21-Pad2)*%
X52600000Y-67675000D02*
X54412470Y-67675000D01*
X54737470Y-68000000D02*
X54737471Y-69473881D01*
X54412470Y-67675000D02*
X54737470Y-68000000D01*
X55637490Y-71237490D02*
X56400000Y-72000000D01*
X55637490Y-70373900D02*
X55637490Y-71237490D01*
X54737471Y-69473881D02*
X55637490Y-70373900D01*
%TO.N,Net-(R22-Pad2)*%
X52600000Y-67025000D02*
X54612480Y-67025000D01*
X55187480Y-67600000D02*
X55187480Y-69287480D01*
X55187480Y-69287480D02*
X56400000Y-70500000D01*
X54612480Y-67025000D02*
X55187480Y-67600000D01*
%TO.N,/A2*%
X57975000Y-70500000D02*
X61600000Y-66875000D01*
X61600000Y-66875000D02*
X61600000Y-62125030D01*
X66800000Y-57600000D02*
X66900000Y-57500000D01*
X66800000Y-62125030D02*
X66800000Y-57600000D01*
X66900000Y-57500000D02*
X66900000Y-53100000D01*
X88800000Y-57400000D02*
X88900000Y-57500000D01*
X88800000Y-51575000D02*
X88800000Y-57400000D01*
X66900000Y-52875000D02*
X66900000Y-53100000D01*
X67200000Y-52575000D02*
X66900000Y-52875000D01*
%TO.N,/A3*%
X60800000Y-66175000D02*
X60800000Y-62750030D01*
X57975000Y-69000000D02*
X60800000Y-66175000D01*
X68800000Y-62600000D02*
X68800000Y-57500000D01*
X68800000Y-57500000D02*
X68800000Y-52400000D01*
X90800000Y-52200000D02*
X90800000Y-57500000D01*
%TO.N,Net-(R23-Pad2)*%
X52600000Y-66375000D02*
X54775000Y-66375000D01*
X55187481Y-66923891D02*
X55637490Y-67373900D01*
X55187480Y-66787480D02*
X55187481Y-66923891D01*
X54775000Y-66375000D02*
X55187480Y-66787480D01*
X55637490Y-68237490D02*
X56400000Y-69000000D01*
X55637490Y-67373900D02*
X55637490Y-68237490D01*
%TO.N,Net-(R24-Pad2)*%
X52600000Y-65725000D02*
X55125000Y-65725000D01*
X55637490Y-66737490D02*
X56400000Y-67500000D01*
X55637490Y-66237490D02*
X55637490Y-66737490D01*
X55125000Y-65725000D02*
X55637490Y-66237490D01*
%TO.N,/A4*%
X57975000Y-67500000D02*
X59950030Y-65524970D01*
X59950030Y-65524970D02*
X59950030Y-51836380D01*
X68800000Y-43510002D02*
X68800000Y-42500000D01*
X60473622Y-51836380D02*
X68800000Y-43510002D01*
X59950030Y-51836380D02*
X60473622Y-51836380D01*
X90800000Y-40750000D02*
X90800000Y-42500000D01*
X90450000Y-40400000D02*
X90800000Y-40750000D01*
X68800000Y-40400000D02*
X90450000Y-40400000D01*
X68800000Y-42500000D02*
X68800000Y-40400000D01*
%TO.N,/A5*%
X57975000Y-66000000D02*
X59500020Y-64474980D01*
X66900000Y-44250000D02*
X66900000Y-42500000D01*
X59500020Y-51649980D02*
X66900000Y-44250000D01*
X59500020Y-64474980D02*
X59500020Y-51649980D01*
X66900000Y-42500000D02*
X66900000Y-40350010D01*
X66900000Y-40350010D02*
X67825009Y-39425001D01*
X88774999Y-39425001D02*
X88800000Y-39400000D01*
X67825009Y-39425001D02*
X88774999Y-39425001D01*
X88800000Y-42600000D02*
X88900000Y-42500000D01*
X88800000Y-45000000D02*
X88800000Y-42600000D01*
%TO.N,Net-(R25-Pad2)*%
X55475000Y-65075000D02*
X56400000Y-66000000D01*
X52600000Y-65075000D02*
X55475000Y-65075000D01*
%TO.N,Net-(R26-Pad2)*%
X56325000Y-64425000D02*
X56400000Y-64500000D01*
X52600000Y-64425000D02*
X56325000Y-64425000D01*
%TO.N,/A6*%
X63100000Y-42500000D02*
X63100000Y-39700000D01*
X63100000Y-39700000D02*
X64000000Y-38800000D01*
X64000000Y-38800000D02*
X85000000Y-38800000D01*
X85000000Y-42600000D02*
X85100000Y-42500000D01*
X85000000Y-45000000D02*
X85000000Y-42600000D01*
X57975000Y-64500000D02*
X59050010Y-63424990D01*
X63100000Y-43510002D02*
X63100000Y-42500000D01*
X59050010Y-47559992D02*
X63100000Y-43510002D01*
X59050010Y-63424990D02*
X59050010Y-47559992D01*
%TO.N,/A7*%
X61200000Y-40750000D02*
X63950000Y-38000000D01*
X61200000Y-42500000D02*
X61200000Y-40750000D01*
X63950000Y-38000000D02*
X83200000Y-38000000D01*
X83200000Y-45000000D02*
X83200000Y-42500000D01*
X57975000Y-63000000D02*
X58600000Y-62375000D01*
X58600000Y-45100000D02*
X61200000Y-42500000D01*
X58600000Y-62375000D02*
X58600000Y-45100000D01*
%TO.N,Net-(R27-Pad2)*%
X55625000Y-63775000D02*
X56400000Y-63000000D01*
X52600000Y-63775000D02*
X55625000Y-63775000D01*
%TO.N,/COL1*%
X64020000Y-71250000D02*
X67950000Y-71250000D01*
X67950000Y-71250000D02*
X71980000Y-71250000D01*
X49749991Y-67750009D02*
X49700000Y-67800000D01*
X49749991Y-60869587D02*
X49749991Y-67750009D01*
X48412500Y-59532096D02*
X49749991Y-60869587D01*
X48412500Y-58412500D02*
X48412500Y-59532096D01*
X64000000Y-71230000D02*
X64020000Y-71250000D01*
X64000000Y-68800003D02*
X64000000Y-71230000D01*
X64020000Y-71250000D02*
X62400000Y-72870000D01*
X62400000Y-79030000D02*
X64020000Y-80650000D01*
X62400000Y-72870000D02*
X62400000Y-79030000D01*
X64020000Y-80650000D02*
X63950000Y-80650000D01*
X63950000Y-80650000D02*
X62400000Y-82200000D01*
X62400000Y-88430000D02*
X64020000Y-90050000D01*
X62400000Y-82200000D02*
X62400000Y-88430000D01*
X64020000Y-90050000D02*
X63750000Y-90050000D01*
X63750000Y-90050000D02*
X62400000Y-91400000D01*
X62400000Y-97630000D02*
X64020000Y-99250000D01*
X62400000Y-91400000D02*
X62400000Y-97630000D01*
X71980000Y-80650000D02*
X64020000Y-80650000D01*
X64020000Y-99250000D02*
X71980000Y-99250000D01*
X71980000Y-90050000D02*
X64020000Y-90050000D01*
%TO.N,/ROW1*%
X71980000Y-66750000D02*
X64020000Y-66750000D01*
X71980000Y-66750000D02*
X78020000Y-66750000D01*
X78020000Y-66750000D02*
X85980000Y-66750000D01*
X85980000Y-66750000D02*
X92020000Y-66750000D01*
X99980000Y-66750000D02*
X92020000Y-66750000D01*
X99980000Y-63220000D02*
X101400000Y-61800000D01*
X50349990Y-54524990D02*
X50325000Y-54500000D01*
X99980000Y-66750000D02*
X99980000Y-63220000D01*
X52643116Y-54500000D02*
X50325000Y-54500000D01*
X53131135Y-54988019D02*
X52643116Y-54500000D01*
X54939493Y-54988019D02*
X53131135Y-54988019D01*
X55239492Y-54688020D02*
X54939493Y-54988019D01*
%TO.N,/ROW2*%
X53125020Y-54000000D02*
X53200000Y-54074980D01*
X50325000Y-54000000D02*
X53125020Y-54000000D01*
X99600000Y-75770000D02*
X99980000Y-76150000D01*
X99600000Y-74800000D02*
X99600000Y-75770000D01*
X99980000Y-76150000D02*
X92020000Y-76150000D01*
X92020000Y-76150000D02*
X85980000Y-76150000D01*
X85980000Y-76150000D02*
X78020000Y-76150000D01*
X78020000Y-76150000D02*
X71980000Y-76150000D01*
X71980000Y-76150000D02*
X64020000Y-76150000D01*
%TO.N,/ROW3*%
X51675000Y-53500000D02*
X51800000Y-53375000D01*
X50325000Y-53500000D02*
X51675000Y-53500000D01*
X64020000Y-85550000D02*
X71980000Y-85550000D01*
X71980000Y-85550000D02*
X78020000Y-85550000D01*
X78020000Y-85550000D02*
X85980000Y-85550000D01*
X85980000Y-85550000D02*
X92020000Y-85550000D01*
X92020000Y-85550000D02*
X99980000Y-85550000D01*
X100200000Y-85330000D02*
X99980000Y-85550000D01*
X100200000Y-83800000D02*
X100200000Y-85330000D01*
%TO.N,/ROW4*%
X48912500Y-58412500D02*
X50400000Y-59900000D01*
X50400000Y-59900000D02*
X50400000Y-68300000D01*
X64020000Y-94750000D02*
X71980000Y-94750000D01*
X71980000Y-94750000D02*
X78020000Y-94750000D01*
X78020000Y-94750000D02*
X85980000Y-94750000D01*
X85980000Y-94750000D02*
X92020000Y-94750000D01*
X92020000Y-94750000D02*
X99980000Y-94750000D01*
X62600000Y-69900000D02*
X61600000Y-70900000D01*
X61600000Y-70900000D02*
X61600000Y-93000000D01*
X63600000Y-94330000D02*
X64020000Y-94750000D01*
X63600000Y-93000000D02*
X63600000Y-94330000D01*
%TO.N,/COL2*%
X49124990Y-60880996D02*
X49124990Y-67200000D01*
X47912500Y-59668506D02*
X49124990Y-60880996D01*
X47912500Y-58412500D02*
X47912500Y-59668506D01*
X64000000Y-68000000D02*
X77600000Y-68000000D01*
X78020000Y-68420000D02*
X78020000Y-71250000D01*
X77600000Y-68000000D02*
X78020000Y-68420000D01*
X82050000Y-71250000D02*
X82000000Y-71200000D01*
X82150000Y-71250000D02*
X82050000Y-71250000D01*
X85980000Y-71250000D02*
X82150000Y-71250000D01*
X82150000Y-71250000D02*
X78020000Y-71250000D01*
X81950000Y-80650000D02*
X85980000Y-80650000D01*
X78020000Y-80650000D02*
X81950000Y-80650000D01*
X81950000Y-90050000D02*
X78020000Y-90050000D01*
X85980000Y-90050000D02*
X81950000Y-90050000D01*
X81950000Y-99250000D02*
X85980000Y-99250000D01*
X78020000Y-99250000D02*
X81950000Y-99250000D01*
%TO.N,/COL3*%
X50325000Y-53000000D02*
X49200000Y-53000000D01*
X100400000Y-54400000D02*
X100500000Y-54500000D01*
X100400000Y-48100000D02*
X100400000Y-54400000D01*
X100500000Y-70730000D02*
X99980000Y-71250000D01*
X100500000Y-69700000D02*
X100500000Y-70730000D01*
X99980000Y-71250000D02*
X101400000Y-72670000D01*
X101400000Y-79230000D02*
X99980000Y-80650000D01*
X101400000Y-72670000D02*
X101400000Y-79230000D01*
X99980000Y-80650000D02*
X100650000Y-80650000D01*
X100650000Y-80650000D02*
X101400000Y-81400000D01*
X101400000Y-88630000D02*
X99980000Y-90050000D01*
X101400000Y-81400000D02*
X101400000Y-88630000D01*
X99980000Y-90050000D02*
X100450000Y-90050000D01*
X100450000Y-90050000D02*
X101400000Y-91000000D01*
X101400000Y-97830000D02*
X99980000Y-99250000D01*
X101400000Y-91000000D02*
X101400000Y-97830000D01*
X99980000Y-99250000D02*
X92020000Y-99250000D01*
X99980000Y-90050000D02*
X92020000Y-90050000D01*
X99980000Y-80650000D02*
X92020000Y-80650000D01*
X99980000Y-71250000D02*
X92020000Y-71250000D01*
%TD*%
M02*
