M48
; DRILL file {KiCad 5.1.6~rc1+dfsg1-1+b1} date Fri May  8 22:32:18 2020
; FORMAT={-:-/ absolute / inch / decimal}
; #@! TF.CreationDate,2020-05-08T22:32:18-07:00
; #@! TF.GenerationSoftware,Kicad,Pcbnew,5.1.6~rc1+dfsg1-1+b1
; #@! TF.FileFunction,Plated,1,2,PTH
FMAT,2
INCH
T1C0.0100
T2C0.0200
T3C0.0256
T4C0.0276
T5C0.0394
%
G90
G05
T1
X3.6122Y-3.8386
X3.6299Y-4.0945
X3.69Y-4.004
X3.696Y-3.5874
X3.76Y-4.39
X3.78Y-4.59
X3.81Y-4.13
X3.83Y-3.814
X3.83Y-3.922
X3.984Y-4.218
X3.9856Y-4.7364
X3.986Y-4.4764
X3.9928Y-4.4251
X4.066Y-4.156
X4.0945Y-3.4252
X4.1043Y-3.3268
X4.126Y-4.67
X4.188Y-4.722
X4.19Y-4.634
X4.1969Y-4.874
X4.2213Y-3.83
X4.26Y-4.634
X4.26Y-4.886
X4.286Y-4.208
X4.29Y-4.634
X4.292Y-4.872
X4.3307Y-4.7244
X4.3602Y-3.5516
X4.3602Y-3.7894
X4.3689Y-4.1649
X4.392Y-4.246
X4.392Y-4.332
X4.418Y-4.346
X4.42Y-4.522
X4.4373Y-4.5026
X4.438Y-4.146
X4.4595Y-4.489
X4.46Y-4.17
X4.4646Y-4.7244
X4.478Y-4.634
X4.5026Y-4.688
X4.504Y-4.12
X4.5216Y-4.282
X4.5223Y-4.6216
X4.5224Y-4.6661
X4.528Y-4.41
X4.548Y-4.47
X4.548Y-4.6616
X4.556Y-4.338
X4.5567Y-4.17
X4.5567Y-4.412
X4.5647Y-4.0091
X4.5657Y-4.7552
X4.5757Y-4.0903
X4.586Y-4.024
X4.592Y-3.79
X4.596Y-4.222
X4.596Y-4.384
X4.5965Y-3.4055
X4.602Y-4.146
X4.6054Y-4.004
X4.6054Y-4.052
X4.626Y-4.248
X4.626Y-4.364
X4.644Y-4.12
X4.644Y-4.444
X4.646Y-4.2
X4.662Y-4.222
X4.664Y-4.024
X4.68Y-4.07
X4.68Y-4.786
X4.704Y-3.99
X4.704Y-4.248
X4.704Y-4.298
X4.708Y-4.764
X4.848Y-3.95
X4.852Y-4.44
X4.938Y-3.952
X4.948Y-4.44
X5.106Y-4.3
X5.106Y-4.796
X5.172Y-4.478
X5.172Y-4.586
X5.19Y-4.61
X5.191Y-4.4964
X5.2118Y-4.4757
X5.212Y-4.636
X5.23Y-4.662
X5.2308Y-4.4941
X5.25Y-4.688
X5.2512Y-4.4764
X5.266Y-3.91
X5.266Y-4.164
X5.27Y-4.712
X5.2703Y-4.494
X5.29Y-4.738
X5.2905Y-4.4767
X5.3095Y-4.495
X5.31Y-4.764
X5.326Y-4.024
X5.326Y-4.184
X5.3642Y-4.3996
X5.3642Y-4.6654
X5.398Y-3.852
X5.404Y-3.728
X5.422Y-3.804
X5.422Y-4.426
X5.63Y-3.82
X5.7776Y-4.0551
X5.822Y-3.9381
X5.822Y-4.508
X5.876Y-3.937
X5.876Y-3.9961
X5.982Y-3.952
X5.982Y-4.578
X6.018Y-4.424
X6.12Y-4.05
X6.218Y-3.976
X6.218Y-4.51
X6.26Y-3.94
X6.26Y-4.252
X6.262Y-3.77
X6.32Y-4.218
X6.32Y-4.414
X6.322Y-3.486
X6.354Y-3.742
X6.354Y-3.908
X6.39Y-3.82
X6.418Y-4.254
X6.576Y-3.65
X6.58Y-4.268
X6.58Y-4.452
X6.67Y-4.67
X6.92Y-4.05
T2
X3.71Y-4.51
X3.71Y-4.554
X5.722Y-4.792
X6.018Y-3.832
X6.018Y-4.036
X6.018Y-4.481
T5
X3.6319Y-4.7638
T3
G00X3.6363Y-4.3637
M15
G01X3.6521Y-4.3637
M16
G05
G00X3.6363Y-4.5543
M15
G01X3.6521Y-4.5543
M16
G05
T4
G00X3.5163Y-4.3515
M15
G01X3.5359Y-4.3515
M16
G05
G00X3.5163Y-4.5665
M15
G01X3.5359Y-4.5665
M16
G05
T0
M30
