G04 #@! TF.GenerationSoftware,KiCad,Pcbnew,5.1.4+dfsg1-1*
G04 #@! TF.CreationDate,2019-09-15T14:43:39-07:00*
G04 #@! TF.ProjectId,board,626f6172-642e-46b6-9963-61645f706362,rev?*
G04 #@! TF.SameCoordinates,Original*
G04 #@! TF.FileFunction,Legend,Bot*
G04 #@! TF.FilePolarity,Positive*
%FSLAX46Y46*%
G04 Gerber Fmt 4.6, Leading zero omitted, Abs format (unit mm)*
G04 Created by KiCad (PCBNEW 5.1.4+dfsg1-1) date 2019-09-15 14:43:39*
%MOMM*%
%LPD*%
G04 APERTURE LIST*
%ADD10C,0.400000*%
G04 APERTURE END LIST*
D10*
X175997009Y-85346361D02*
X175997009Y-86965409D01*
X175901771Y-87155885D01*
X175806533Y-87251123D01*
X175616057Y-87346361D01*
X175235104Y-87346361D01*
X175044628Y-87251123D01*
X174949390Y-87155885D01*
X174854152Y-86965409D01*
X174854152Y-85346361D01*
X173901771Y-86013028D02*
X173901771Y-87346361D01*
X173901771Y-86203504D02*
X173806533Y-86108266D01*
X173616057Y-86013028D01*
X173330342Y-86013028D01*
X173139866Y-86108266D01*
X173044628Y-86298742D01*
X173044628Y-87346361D01*
X172092247Y-87346361D02*
X172092247Y-86013028D01*
X172092247Y-85346361D02*
X172187485Y-85441600D01*
X172092247Y-85536838D01*
X171997009Y-85441600D01*
X172092247Y-85346361D01*
X172092247Y-85536838D01*
X171330342Y-86013028D02*
X170854152Y-87346361D01*
X170377961Y-86013028D01*
X168854152Y-87251123D02*
X169044628Y-87346361D01*
X169425580Y-87346361D01*
X169616057Y-87251123D01*
X169711295Y-87060647D01*
X169711295Y-86298742D01*
X169616057Y-86108266D01*
X169425580Y-86013028D01*
X169044628Y-86013028D01*
X168854152Y-86108266D01*
X168758914Y-86298742D01*
X168758914Y-86489219D01*
X169711295Y-86679695D01*
X167901771Y-87346361D02*
X167901771Y-86013028D01*
X167901771Y-86393980D02*
X167806533Y-86203504D01*
X167711295Y-86108266D01*
X167520819Y-86013028D01*
X167330342Y-86013028D01*
X166758914Y-87251123D02*
X166568438Y-87346361D01*
X166187485Y-87346361D01*
X165997009Y-87251123D01*
X165901771Y-87060647D01*
X165901771Y-86965409D01*
X165997009Y-86774933D01*
X166187485Y-86679695D01*
X166473200Y-86679695D01*
X166663676Y-86584457D01*
X166758914Y-86393980D01*
X166758914Y-86298742D01*
X166663676Y-86108266D01*
X166473200Y-86013028D01*
X166187485Y-86013028D01*
X165997009Y-86108266D01*
X164187485Y-87346361D02*
X164187485Y-86298742D01*
X164282723Y-86108266D01*
X164473200Y-86013028D01*
X164854152Y-86013028D01*
X165044628Y-86108266D01*
X164187485Y-87251123D02*
X164377961Y-87346361D01*
X164854152Y-87346361D01*
X165044628Y-87251123D01*
X165139866Y-87060647D01*
X165139866Y-86870171D01*
X165044628Y-86679695D01*
X164854152Y-86584457D01*
X164377961Y-86584457D01*
X164187485Y-86489219D01*
X162949390Y-87346361D02*
X163139866Y-87251123D01*
X163235104Y-87060647D01*
X163235104Y-85346361D01*
X160663676Y-87346361D02*
X160663676Y-85346361D01*
X159425580Y-87346361D02*
X159616057Y-87251123D01*
X159711295Y-87155885D01*
X159806533Y-86965409D01*
X159806533Y-86393980D01*
X159711295Y-86203504D01*
X159616057Y-86108266D01*
X159425580Y-86013028D01*
X159139866Y-86013028D01*
X158949390Y-86108266D01*
X158854152Y-86203504D01*
X158758914Y-86393980D01*
X158758914Y-86965409D01*
X158854152Y-87155885D01*
X158949390Y-87251123D01*
X159139866Y-87346361D01*
X159425580Y-87346361D01*
X158187485Y-85346361D02*
X157044628Y-85346361D01*
X157616057Y-87346361D02*
X157616057Y-85346361D01*
X155139866Y-85346361D02*
X153997009Y-85346361D01*
X154568438Y-87346361D02*
X154568438Y-85346361D01*
X153044628Y-87346361D02*
X153235104Y-87251123D01*
X153330342Y-87155885D01*
X153425580Y-86965409D01*
X153425580Y-86393980D01*
X153330342Y-86203504D01*
X153235104Y-86108266D01*
X153044628Y-86013028D01*
X152758914Y-86013028D01*
X152568438Y-86108266D01*
X152473200Y-86203504D01*
X152377961Y-86393980D01*
X152377961Y-86965409D01*
X152473200Y-87155885D01*
X152568438Y-87251123D01*
X152758914Y-87346361D01*
X153044628Y-87346361D01*
X151235104Y-87346361D02*
X151425580Y-87251123D01*
X151520819Y-87155885D01*
X151616057Y-86965409D01*
X151616057Y-86393980D01*
X151520819Y-86203504D01*
X151425580Y-86108266D01*
X151235104Y-86013028D01*
X150949390Y-86013028D01*
X150758914Y-86108266D01*
X150663676Y-86203504D01*
X150568438Y-86393980D01*
X150568438Y-86965409D01*
X150663676Y-87155885D01*
X150758914Y-87251123D01*
X150949390Y-87346361D01*
X151235104Y-87346361D01*
X149425580Y-87346361D02*
X149616057Y-87251123D01*
X149711295Y-87060647D01*
X149711295Y-85346361D01*
X146568438Y-88108266D02*
X146663676Y-88013028D01*
X146854152Y-87727314D01*
X146949390Y-87536838D01*
X147044628Y-87251123D01*
X147139866Y-86774933D01*
X147139866Y-86393980D01*
X147044628Y-85917790D01*
X146949390Y-85632076D01*
X146854152Y-85441600D01*
X146663676Y-85155885D01*
X146568438Y-85060647D01*
X145806533Y-85346361D02*
X145806533Y-86965409D01*
X145711295Y-87155885D01*
X145616057Y-87251123D01*
X145425580Y-87346361D01*
X145044628Y-87346361D01*
X144854152Y-87251123D01*
X144758914Y-87155885D01*
X144663676Y-86965409D01*
X144663676Y-85346361D01*
X143711295Y-87346361D02*
X143711295Y-85346361D01*
X142568438Y-87346361D01*
X142568438Y-85346361D01*
X141616057Y-87346361D02*
X141616057Y-85346361D01*
X140949390Y-85346361D02*
X139806533Y-85346361D01*
X140377961Y-87346361D02*
X140377961Y-85346361D01*
X139330342Y-88108266D02*
X139235104Y-88013028D01*
X139044628Y-87727314D01*
X138949390Y-87536838D01*
X138854152Y-87251123D01*
X138758914Y-86774933D01*
X138758914Y-86393980D01*
X138854152Y-85917790D01*
X138949390Y-85632076D01*
X139044628Y-85441600D01*
X139235104Y-85155885D01*
X139330342Y-85060647D01*
X175425580Y-91508266D02*
X175520819Y-91413028D01*
X175711295Y-91127314D01*
X175806533Y-90936838D01*
X175901771Y-90651123D01*
X175997009Y-90174933D01*
X175997009Y-89793980D01*
X175901771Y-89317790D01*
X175806533Y-89032076D01*
X175711295Y-88841600D01*
X175520819Y-88555885D01*
X175425580Y-88460647D01*
X173520819Y-90555885D02*
X173616057Y-90651123D01*
X173901771Y-90746361D01*
X174092247Y-90746361D01*
X174377961Y-90651123D01*
X174568438Y-90460647D01*
X174663676Y-90270171D01*
X174758914Y-89889219D01*
X174758914Y-89603504D01*
X174663676Y-89222552D01*
X174568438Y-89032076D01*
X174377961Y-88841600D01*
X174092247Y-88746361D01*
X173901771Y-88746361D01*
X173616057Y-88841600D01*
X173520819Y-88936838D01*
X172854152Y-91508266D02*
X172758914Y-91413028D01*
X172568438Y-91127314D01*
X172473200Y-90936838D01*
X172377961Y-90651123D01*
X172282723Y-90174933D01*
X172282723Y-89793980D01*
X172377961Y-89317790D01*
X172473200Y-89032076D01*
X172568438Y-88841600D01*
X172758914Y-88555885D01*
X172854152Y-88460647D01*
X169901771Y-88936838D02*
X169806533Y-88841600D01*
X169616057Y-88746361D01*
X169139866Y-88746361D01*
X168949390Y-88841600D01*
X168854152Y-88936838D01*
X168758914Y-89127314D01*
X168758914Y-89317790D01*
X168854152Y-89603504D01*
X169997009Y-90746361D01*
X168758914Y-90746361D01*
X167520819Y-88746361D02*
X167330342Y-88746361D01*
X167139866Y-88841600D01*
X167044628Y-88936838D01*
X166949390Y-89127314D01*
X166854152Y-89508266D01*
X166854152Y-89984457D01*
X166949390Y-90365409D01*
X167044628Y-90555885D01*
X167139866Y-90651123D01*
X167330342Y-90746361D01*
X167520819Y-90746361D01*
X167711295Y-90651123D01*
X167806533Y-90555885D01*
X167901771Y-90365409D01*
X167997009Y-89984457D01*
X167997009Y-89508266D01*
X167901771Y-89127314D01*
X167806533Y-88936838D01*
X167711295Y-88841600D01*
X167520819Y-88746361D01*
X164949390Y-90746361D02*
X166092247Y-90746361D01*
X165520819Y-90746361D02*
X165520819Y-88746361D01*
X165711295Y-89032076D01*
X165901771Y-89222552D01*
X166092247Y-89317790D01*
X163997009Y-90746361D02*
X163616057Y-90746361D01*
X163425580Y-90651123D01*
X163330342Y-90555885D01*
X163139866Y-90270171D01*
X163044628Y-89889219D01*
X163044628Y-89127314D01*
X163139866Y-88936838D01*
X163235104Y-88841600D01*
X163425580Y-88746361D01*
X163806533Y-88746361D01*
X163997009Y-88841600D01*
X164092247Y-88936838D01*
X164187485Y-89127314D01*
X164187485Y-89603504D01*
X164092247Y-89793980D01*
X163997009Y-89889219D01*
X163806533Y-89984457D01*
X163425580Y-89984457D01*
X163235104Y-89889219D01*
X163139866Y-89793980D01*
X163044628Y-89603504D01*
X159616057Y-88841600D02*
X159806533Y-88746361D01*
X160092247Y-88746361D01*
X160377961Y-88841600D01*
X160568438Y-89032076D01*
X160663676Y-89222552D01*
X160758914Y-89603504D01*
X160758914Y-89889219D01*
X160663676Y-90270171D01*
X160568438Y-90460647D01*
X160377961Y-90651123D01*
X160092247Y-90746361D01*
X159901771Y-90746361D01*
X159616057Y-90651123D01*
X159520819Y-90555885D01*
X159520819Y-89889219D01*
X159901771Y-89889219D01*
X158377961Y-90746361D02*
X158568438Y-90651123D01*
X158663676Y-90555885D01*
X158758914Y-90365409D01*
X158758914Y-89793980D01*
X158663676Y-89603504D01*
X158568438Y-89508266D01*
X158377961Y-89413028D01*
X158092247Y-89413028D01*
X157901771Y-89508266D01*
X157806533Y-89603504D01*
X157711295Y-89793980D01*
X157711295Y-90365409D01*
X157806533Y-90555885D01*
X157901771Y-90651123D01*
X158092247Y-90746361D01*
X158377961Y-90746361D01*
X156568438Y-90746361D02*
X156758914Y-90651123D01*
X156854152Y-90555885D01*
X156949390Y-90365409D01*
X156949390Y-89793980D01*
X156854152Y-89603504D01*
X156758914Y-89508266D01*
X156568438Y-89413028D01*
X156282723Y-89413028D01*
X156092247Y-89508266D01*
X155997009Y-89603504D01*
X155901771Y-89793980D01*
X155901771Y-90365409D01*
X155997009Y-90555885D01*
X156092247Y-90651123D01*
X156282723Y-90746361D01*
X156568438Y-90746361D01*
X154187485Y-89413028D02*
X154187485Y-91032076D01*
X154282723Y-91222552D01*
X154377961Y-91317790D01*
X154568438Y-91413028D01*
X154854152Y-91413028D01*
X155044628Y-91317790D01*
X154187485Y-90651123D02*
X154377961Y-90746361D01*
X154758914Y-90746361D01*
X154949390Y-90651123D01*
X155044628Y-90555885D01*
X155139866Y-90365409D01*
X155139866Y-89793980D01*
X155044628Y-89603504D01*
X154949390Y-89508266D01*
X154758914Y-89413028D01*
X154377961Y-89413028D01*
X154187485Y-89508266D01*
X152949390Y-90746361D02*
X153139866Y-90651123D01*
X153235104Y-90460647D01*
X153235104Y-88746361D01*
X151425580Y-90651123D02*
X151616057Y-90746361D01*
X151997009Y-90746361D01*
X152187485Y-90651123D01*
X152282723Y-90460647D01*
X152282723Y-89698742D01*
X152187485Y-89508266D01*
X151997009Y-89413028D01*
X151616057Y-89413028D01*
X151425580Y-89508266D01*
X151330342Y-89698742D01*
X151330342Y-89889219D01*
X152282723Y-90079695D01*
X147997009Y-90746361D02*
X148949390Y-90746361D01*
X148949390Y-88746361D01*
X146377961Y-90746361D02*
X147330342Y-90746361D01*
X147330342Y-88746361D01*
X144568438Y-90555885D02*
X144663676Y-90651123D01*
X144949390Y-90746361D01*
X145139866Y-90746361D01*
X145425580Y-90651123D01*
X145616057Y-90460647D01*
X145711295Y-90270171D01*
X145806533Y-89889219D01*
X145806533Y-89603504D01*
X145711295Y-89222552D01*
X145616057Y-89032076D01*
X145425580Y-88841600D01*
X145139866Y-88746361D01*
X144949390Y-88746361D01*
X144663676Y-88841600D01*
X144568438Y-88936838D01*
X175997009Y-94146361D02*
X175997009Y-92146361D01*
X175520819Y-92146361D01*
X175235104Y-92241600D01*
X175044628Y-92432076D01*
X174949390Y-92622552D01*
X174854152Y-93003504D01*
X174854152Y-93289219D01*
X174949390Y-93670171D01*
X175044628Y-93860647D01*
X175235104Y-94051123D01*
X175520819Y-94146361D01*
X175997009Y-94146361D01*
X173235104Y-94051123D02*
X173425580Y-94146361D01*
X173806533Y-94146361D01*
X173997009Y-94051123D01*
X174092247Y-93860647D01*
X174092247Y-93098742D01*
X173997009Y-92908266D01*
X173806533Y-92813028D01*
X173425580Y-92813028D01*
X173235104Y-92908266D01*
X173139866Y-93098742D01*
X173139866Y-93289219D01*
X174092247Y-93479695D01*
X172377961Y-94051123D02*
X172187485Y-94146361D01*
X171806533Y-94146361D01*
X171616057Y-94051123D01*
X171520819Y-93860647D01*
X171520819Y-93765409D01*
X171616057Y-93574933D01*
X171806533Y-93479695D01*
X172092247Y-93479695D01*
X172282723Y-93384457D01*
X172377961Y-93193980D01*
X172377961Y-93098742D01*
X172282723Y-92908266D01*
X172092247Y-92813028D01*
X171806533Y-92813028D01*
X171616057Y-92908266D01*
X170663676Y-94146361D02*
X170663676Y-92813028D01*
X170663676Y-92146361D02*
X170758914Y-92241600D01*
X170663676Y-92336838D01*
X170568438Y-92241600D01*
X170663676Y-92146361D01*
X170663676Y-92336838D01*
X168854152Y-92813028D02*
X168854152Y-94432076D01*
X168949390Y-94622552D01*
X169044628Y-94717790D01*
X169235104Y-94813028D01*
X169520819Y-94813028D01*
X169711295Y-94717790D01*
X168854152Y-94051123D02*
X169044628Y-94146361D01*
X169425580Y-94146361D01*
X169616057Y-94051123D01*
X169711295Y-93955885D01*
X169806533Y-93765409D01*
X169806533Y-93193980D01*
X169711295Y-93003504D01*
X169616057Y-92908266D01*
X169425580Y-92813028D01*
X169044628Y-92813028D01*
X168854152Y-92908266D01*
X167901771Y-92813028D02*
X167901771Y-94146361D01*
X167901771Y-93003504D02*
X167806533Y-92908266D01*
X167616057Y-92813028D01*
X167330342Y-92813028D01*
X167139866Y-92908266D01*
X167044628Y-93098742D01*
X167044628Y-94146361D01*
X165330342Y-94051123D02*
X165520819Y-94146361D01*
X165901771Y-94146361D01*
X166092247Y-94051123D01*
X166187485Y-93860647D01*
X166187485Y-93098742D01*
X166092247Y-92908266D01*
X165901771Y-92813028D01*
X165520819Y-92813028D01*
X165330342Y-92908266D01*
X165235104Y-93098742D01*
X165235104Y-93289219D01*
X166187485Y-93479695D01*
X163520819Y-94146361D02*
X163520819Y-92146361D01*
X163520819Y-94051123D02*
X163711295Y-94146361D01*
X164092247Y-94146361D01*
X164282723Y-94051123D01*
X164377961Y-93955885D01*
X164473200Y-93765409D01*
X164473200Y-93193980D01*
X164377961Y-93003504D01*
X164282723Y-92908266D01*
X164092247Y-92813028D01*
X163711295Y-92813028D01*
X163520819Y-92908266D01*
X161044628Y-94146361D02*
X161044628Y-92146361D01*
X161044628Y-92908266D02*
X160854152Y-92813028D01*
X160473200Y-92813028D01*
X160282723Y-92908266D01*
X160187485Y-93003504D01*
X160092247Y-93193980D01*
X160092247Y-93765409D01*
X160187485Y-93955885D01*
X160282723Y-94051123D01*
X160473200Y-94146361D01*
X160854152Y-94146361D01*
X161044628Y-94051123D01*
X159425580Y-92813028D02*
X158949390Y-94146361D01*
X158473200Y-92813028D02*
X158949390Y-94146361D01*
X159139866Y-94622552D01*
X159235104Y-94717790D01*
X159425580Y-94813028D01*
X157711295Y-93955885D02*
X157616057Y-94051123D01*
X157711295Y-94146361D01*
X157806533Y-94051123D01*
X157711295Y-93955885D01*
X157711295Y-94146361D01*
X157711295Y-92908266D02*
X157616057Y-93003504D01*
X157711295Y-93098742D01*
X157806533Y-93003504D01*
X157711295Y-92908266D01*
X157711295Y-93098742D01*
X155235104Y-94146361D02*
X155235104Y-92146361D01*
X154758914Y-92146361D01*
X154473200Y-92241600D01*
X154282723Y-92432076D01*
X154187485Y-92622552D01*
X154092247Y-93003504D01*
X154092247Y-93289219D01*
X154187485Y-93670171D01*
X154282723Y-93860647D01*
X154473200Y-94051123D01*
X154758914Y-94146361D01*
X155235104Y-94146361D01*
X152377961Y-94146361D02*
X152377961Y-93098742D01*
X152473200Y-92908266D01*
X152663676Y-92813028D01*
X153044628Y-92813028D01*
X153235104Y-92908266D01*
X152377961Y-94051123D02*
X152568438Y-94146361D01*
X153044628Y-94146361D01*
X153235104Y-94051123D01*
X153330342Y-93860647D01*
X153330342Y-93670171D01*
X153235104Y-93479695D01*
X153044628Y-93384457D01*
X152568438Y-93384457D01*
X152377961Y-93289219D01*
X151616057Y-92813028D02*
X151139866Y-94146361D01*
X150663676Y-92813028D01*
X149901771Y-94146361D02*
X149901771Y-92813028D01*
X149901771Y-92146361D02*
X149997009Y-92241600D01*
X149901771Y-92336838D01*
X149806533Y-92241600D01*
X149901771Y-92146361D01*
X149901771Y-92336838D01*
X148092247Y-94146361D02*
X148092247Y-92146361D01*
X148092247Y-94051123D02*
X148282723Y-94146361D01*
X148663676Y-94146361D01*
X148854152Y-94051123D01*
X148949390Y-93955885D01*
X149044628Y-93765409D01*
X149044628Y-93193980D01*
X148949390Y-93003504D01*
X148854152Y-92908266D01*
X148663676Y-92813028D01*
X148282723Y-92813028D01*
X148092247Y-92908266D01*
X145901771Y-92146361D02*
X144758914Y-92146361D01*
X145330342Y-94146361D02*
X145330342Y-92146361D01*
X143806533Y-94146361D02*
X143997009Y-94051123D01*
X144092247Y-93955885D01*
X144187485Y-93765409D01*
X144187485Y-93193980D01*
X144092247Y-93003504D01*
X143997009Y-92908266D01*
X143806533Y-92813028D01*
X143520819Y-92813028D01*
X143330342Y-92908266D01*
X143235104Y-93003504D01*
X143139866Y-93193980D01*
X143139866Y-93765409D01*
X143235104Y-93955885D01*
X143330342Y-94051123D01*
X143520819Y-94146361D01*
X143806533Y-94146361D01*
X142282723Y-94146361D02*
X142282723Y-92813028D01*
X142282723Y-93003504D02*
X142187485Y-92908266D01*
X141997009Y-92813028D01*
X141711295Y-92813028D01*
X141520819Y-92908266D01*
X141425580Y-93098742D01*
X141425580Y-94146361D01*
X141425580Y-93098742D02*
X141330342Y-92908266D01*
X141139866Y-92813028D01*
X140854152Y-92813028D01*
X140663676Y-92908266D01*
X140568438Y-93098742D01*
X140568438Y-94146361D01*
X138758914Y-94146361D02*
X138758914Y-93098742D01*
X138854152Y-92908266D01*
X139044628Y-92813028D01*
X139425580Y-92813028D01*
X139616057Y-92908266D01*
X138758914Y-94051123D02*
X138949390Y-94146361D01*
X139425580Y-94146361D01*
X139616057Y-94051123D01*
X139711295Y-93860647D01*
X139711295Y-93670171D01*
X139616057Y-93479695D01*
X139425580Y-93384457D01*
X138949390Y-93384457D01*
X138758914Y-93289219D01*
X137901771Y-94051123D02*
X137711295Y-94146361D01*
X137330342Y-94146361D01*
X137139866Y-94051123D01*
X137044628Y-93860647D01*
X137044628Y-93765409D01*
X137139866Y-93574933D01*
X137330342Y-93479695D01*
X137616057Y-93479695D01*
X137806533Y-93384457D01*
X137901771Y-93193980D01*
X137901771Y-93098742D01*
X137806533Y-92908266D01*
X137616057Y-92813028D01*
X137330342Y-92813028D01*
X137139866Y-92908266D01*
X135330342Y-94051123D02*
X135520819Y-94146361D01*
X135901771Y-94146361D01*
X136092247Y-94051123D01*
X136187485Y-93955885D01*
X136282723Y-93765409D01*
X136282723Y-93193980D01*
X136187485Y-93003504D01*
X136092247Y-92908266D01*
X135901771Y-92813028D01*
X135520819Y-92813028D01*
X135330342Y-92908266D01*
X134473200Y-94146361D02*
X134473200Y-92146361D01*
X133616057Y-94146361D02*
X133616057Y-93098742D01*
X133711295Y-92908266D01*
X133901771Y-92813028D01*
X134187485Y-92813028D01*
X134377961Y-92908266D01*
X134473200Y-93003504D01*
X132663676Y-94146361D02*
X132663676Y-92813028D01*
X132663676Y-92146361D02*
X132758914Y-92241600D01*
X132663676Y-92336838D01*
X132568438Y-92241600D01*
X132663676Y-92146361D01*
X132663676Y-92336838D01*
X131711295Y-94146361D02*
X131711295Y-92146361D01*
X131520819Y-93384457D02*
X130949390Y-94146361D01*
X130949390Y-92813028D02*
X131711295Y-93574933D01*
X127997009Y-94908266D02*
X128092247Y-94813028D01*
X128282723Y-94527314D01*
X128377961Y-94336838D01*
X128473200Y-94051123D01*
X128568438Y-93574933D01*
X128568438Y-93193980D01*
X128473200Y-92717790D01*
X128377961Y-92432076D01*
X128282723Y-92241600D01*
X128092247Y-91955885D01*
X127997009Y-91860647D01*
X125997009Y-93193980D02*
X126092247Y-93098742D01*
X126282723Y-93003504D01*
X126473200Y-93003504D01*
X126663676Y-93098742D01*
X126758914Y-93193980D01*
X126854152Y-93384457D01*
X126854152Y-93574933D01*
X126758914Y-93765409D01*
X126663676Y-93860647D01*
X126473200Y-93955885D01*
X126282723Y-93955885D01*
X126092247Y-93860647D01*
X125997009Y-93765409D01*
X125997009Y-93003504D02*
X125997009Y-93765409D01*
X125901771Y-93860647D01*
X125806533Y-93860647D01*
X125616057Y-93765409D01*
X125520819Y-93574933D01*
X125520819Y-93098742D01*
X125711295Y-92813028D01*
X125997009Y-92622552D01*
X126377961Y-92527314D01*
X126758914Y-92622552D01*
X127044628Y-92813028D01*
X127235104Y-93098742D01*
X127330342Y-93479695D01*
X127235104Y-93860647D01*
X127044628Y-94146361D01*
X126758914Y-94336838D01*
X126377961Y-94432076D01*
X125997009Y-94336838D01*
X125711295Y-94146361D01*
X124663676Y-94146361D02*
X124663676Y-92146361D01*
X123997009Y-93574933D01*
X123330342Y-92146361D01*
X123330342Y-94146361D01*
X121520819Y-94146361D02*
X121520819Y-93098742D01*
X121616057Y-92908266D01*
X121806533Y-92813028D01*
X122187485Y-92813028D01*
X122377961Y-92908266D01*
X121520819Y-94051123D02*
X121711295Y-94146361D01*
X122187485Y-94146361D01*
X122377961Y-94051123D01*
X122473200Y-93860647D01*
X122473200Y-93670171D01*
X122377961Y-93479695D01*
X122187485Y-93384457D01*
X121711295Y-93384457D01*
X121520819Y-93289219D01*
X120854152Y-92813028D02*
X120092247Y-92813028D01*
X120568438Y-92146361D02*
X120568438Y-93860647D01*
X120473200Y-94051123D01*
X120282723Y-94146361D01*
X120092247Y-94146361D01*
X119425580Y-94146361D02*
X119425580Y-92813028D01*
X119425580Y-92146361D02*
X119520819Y-92241600D01*
X119425580Y-92336838D01*
X119330342Y-92241600D01*
X119425580Y-92146361D01*
X119425580Y-92336838D01*
X118473200Y-94146361D02*
X118473200Y-92813028D01*
X118473200Y-93193980D02*
X118377961Y-93003504D01*
X118282723Y-92908266D01*
X118092247Y-92813028D01*
X117901771Y-92813028D01*
X117425580Y-94908266D02*
X117330342Y-94813028D01*
X117139866Y-94527314D01*
X117044628Y-94336838D01*
X116949390Y-94051123D01*
X116854152Y-93574933D01*
X116854152Y-93193980D01*
X116949390Y-92717790D01*
X117044628Y-92432076D01*
X117139866Y-92241600D01*
X117330342Y-91955885D01*
X117425580Y-91860647D01*
X174854152Y-97546361D02*
X175520819Y-96593980D01*
X175997009Y-97546361D02*
X175997009Y-95546361D01*
X175235104Y-95546361D01*
X175044628Y-95641600D01*
X174949390Y-95736838D01*
X174854152Y-95927314D01*
X174854152Y-96213028D01*
X174949390Y-96403504D01*
X175044628Y-96498742D01*
X175235104Y-96593980D01*
X175997009Y-96593980D01*
X173235104Y-97451123D02*
X173425580Y-97546361D01*
X173806533Y-97546361D01*
X173997009Y-97451123D01*
X174092247Y-97260647D01*
X174092247Y-96498742D01*
X173997009Y-96308266D01*
X173806533Y-96213028D01*
X173425580Y-96213028D01*
X173235104Y-96308266D01*
X173139866Y-96498742D01*
X173139866Y-96689219D01*
X174092247Y-96879695D01*
X172473200Y-96213028D02*
X171997009Y-97546361D01*
X171520819Y-96213028D01*
X169425580Y-95546361D02*
X168187485Y-95546361D01*
X168854152Y-96308266D01*
X168568438Y-96308266D01*
X168377961Y-96403504D01*
X168282723Y-96498742D01*
X168187485Y-96689219D01*
X168187485Y-97165409D01*
X168282723Y-97355885D01*
X168377961Y-97451123D01*
X168568438Y-97546361D01*
X169139866Y-97546361D01*
X169330342Y-97451123D01*
X169425580Y-97355885D01*
M02*
