G04 #@! TF.GenerationSoftware,KiCad,Pcbnew,5.1.6~rc1+dfsg1-1+b1*
G04 #@! TF.CreationDate,2020-05-08T22:32:15-07:00*
G04 #@! TF.ProjectId,board,626f6172-642e-46b6-9963-61645f706362,rev?*
G04 #@! TF.SameCoordinates,Original*
G04 #@! TF.FileFunction,Paste,Top*
G04 #@! TF.FilePolarity,Positive*
%FSLAX46Y46*%
G04 Gerber Fmt 4.6, Leading zero omitted, Abs format (unit mm)*
G04 Created by KiCad (PCBNEW 5.1.6~rc1+dfsg1-1+b1) date 2020-05-08 22:32:15*
%MOMM*%
%LPD*%
G01*
G04 APERTURE LIST*
%ADD10R,0.600000X1.550000*%
%ADD11R,0.340000X0.600000*%
%ADD12R,0.600000X0.340000*%
%ADD13O,1.000000X0.250000*%
%ADD14O,0.250000X1.000000*%
%ADD15R,2.800000X2.800000*%
%ADD16R,0.700000X0.600000*%
%ADD17R,2.000000X1.350000*%
%ADD18R,0.700000X1.825000*%
%ADD19R,1.500000X2.000000*%
%ADD20R,1.650000X0.400000*%
%ADD21R,2.500000X1.430000*%
%ADD22R,2.400000X0.740000*%
%ADD23R,1.000000X3.150000*%
%ADD24R,1.000000X2.510000*%
%ADD25R,3.150000X1.000000*%
%ADD26R,1.060000X0.650000*%
%ADD27R,1.750000X0.450000*%
%ADD28R,2.000000X4.500000*%
%ADD29R,1.200000X2.500000*%
%ADD30R,2.500000X1.200000*%
G04 APERTURE END LIST*
G36*
G01*
X157856250Y-89240000D02*
X157343750Y-89240000D01*
G75*
G02*
X157125000Y-89021250I0J218750D01*
G01*
X157125000Y-88583750D01*
G75*
G02*
X157343750Y-88365000I218750J0D01*
G01*
X157856250Y-88365000D01*
G75*
G02*
X158075000Y-88583750I0J-218750D01*
G01*
X158075000Y-89021250D01*
G75*
G02*
X157856250Y-89240000I-218750J0D01*
G01*
G37*
G36*
G01*
X157856250Y-90815000D02*
X157343750Y-90815000D01*
G75*
G02*
X157125000Y-90596250I0J218750D01*
G01*
X157125000Y-90158750D01*
G75*
G02*
X157343750Y-89940000I218750J0D01*
G01*
X157856250Y-89940000D01*
G75*
G02*
X158075000Y-90158750I0J-218750D01*
G01*
X158075000Y-90596250D01*
G75*
G02*
X157856250Y-90815000I-218750J0D01*
G01*
G37*
G36*
G01*
X157856250Y-93250000D02*
X157343750Y-93250000D01*
G75*
G02*
X157125000Y-93031250I0J218750D01*
G01*
X157125000Y-92593750D01*
G75*
G02*
X157343750Y-92375000I218750J0D01*
G01*
X157856250Y-92375000D01*
G75*
G02*
X158075000Y-92593750I0J-218750D01*
G01*
X158075000Y-93031250D01*
G75*
G02*
X157856250Y-93250000I-218750J0D01*
G01*
G37*
G36*
G01*
X157856250Y-94825000D02*
X157343750Y-94825000D01*
G75*
G02*
X157125000Y-94606250I0J218750D01*
G01*
X157125000Y-94168750D01*
G75*
G02*
X157343750Y-93950000I218750J0D01*
G01*
X157856250Y-93950000D01*
G75*
G02*
X158075000Y-94168750I0J-218750D01*
G01*
X158075000Y-94606250D01*
G75*
G02*
X157856250Y-94825000I-218750J0D01*
G01*
G37*
D10*
X104444800Y-104190800D03*
X105714800Y-104190800D03*
X106984800Y-104190800D03*
X108254800Y-104190800D03*
X108254800Y-98790800D03*
X106984800Y-98790800D03*
X105714800Y-98790800D03*
X104444800Y-98790800D03*
D11*
X117960400Y-100914000D03*
X117960400Y-99314000D03*
X117460400Y-100914000D03*
X117460400Y-99314000D03*
X116960400Y-100914000D03*
X116960400Y-99314000D03*
X116460400Y-100914000D03*
X116460400Y-99314000D03*
X115960400Y-100914000D03*
X115960400Y-99314000D03*
X115460400Y-100914000D03*
X115460400Y-99314000D03*
X114960400Y-100914000D03*
X114960400Y-99314000D03*
X114460400Y-100914000D03*
X114460400Y-99314000D03*
D12*
X116256000Y-119872000D03*
X117856000Y-119872000D03*
X116256000Y-119372000D03*
X117856000Y-119372000D03*
X116256000Y-118872000D03*
X117856000Y-118872000D03*
X116256000Y-118372000D03*
X117856000Y-118372000D03*
X116256000Y-117872000D03*
X117856000Y-117872000D03*
X116256000Y-117372000D03*
X117856000Y-117372000D03*
X116256000Y-116872000D03*
X117856000Y-116872000D03*
X116256000Y-116372000D03*
X117856000Y-116372000D03*
X131318000Y-107765600D03*
X132918000Y-107765600D03*
X131318000Y-107265600D03*
X132918000Y-107265600D03*
X131318000Y-106765600D03*
X132918000Y-106765600D03*
X131318000Y-106265600D03*
X132918000Y-106265600D03*
X131318000Y-105765600D03*
X132918000Y-105765600D03*
X131318000Y-105265600D03*
X132918000Y-105265600D03*
X131318000Y-104765600D03*
X132918000Y-104765600D03*
X131318000Y-104265600D03*
X132918000Y-104265600D03*
D11*
X134896800Y-113017200D03*
X134896800Y-111417200D03*
X134396800Y-113017200D03*
X134396800Y-111417200D03*
X133896800Y-113017200D03*
X133896800Y-111417200D03*
X133396800Y-113017200D03*
X133396800Y-111417200D03*
X132896800Y-113017200D03*
X132896800Y-111417200D03*
X132396800Y-113017200D03*
X132396800Y-111417200D03*
X131896800Y-113017200D03*
X131896800Y-111417200D03*
X131396800Y-113017200D03*
X131396800Y-111417200D03*
D13*
X102680000Y-109526000D03*
X102680000Y-110026000D03*
X102680000Y-110526000D03*
X102680000Y-111026000D03*
X102680000Y-111526000D03*
X102680000Y-112026000D03*
X102680000Y-112526000D03*
X102680000Y-113026000D03*
X102680000Y-113526000D03*
X102680000Y-114026000D03*
X102680000Y-114526000D03*
X102680000Y-115026000D03*
X102680000Y-115526000D03*
X102680000Y-116026000D03*
D14*
X103430000Y-116776000D03*
X103930000Y-116776000D03*
X104430000Y-116776000D03*
X104930000Y-116776000D03*
X105430000Y-116776000D03*
X105930000Y-116776000D03*
X106430000Y-116776000D03*
X106930000Y-116776000D03*
X107430000Y-116776000D03*
X107930000Y-116776000D03*
X108430000Y-116776000D03*
X108930000Y-116776000D03*
X109430000Y-116776000D03*
X109930000Y-116776000D03*
D13*
X110680000Y-116026000D03*
X110680000Y-115526000D03*
X110680000Y-115026000D03*
X110680000Y-114526000D03*
X110680000Y-114026000D03*
X110680000Y-113526000D03*
X110680000Y-113026000D03*
X110680000Y-112526000D03*
X110680000Y-112026000D03*
X110680000Y-111526000D03*
X110680000Y-111026000D03*
X110680000Y-110526000D03*
X110680000Y-110026000D03*
X110680000Y-109526000D03*
D14*
X109930000Y-108776000D03*
X109430000Y-108776000D03*
X108930000Y-108776000D03*
X108430000Y-108776000D03*
X107930000Y-108776000D03*
X107430000Y-108776000D03*
X106930000Y-108776000D03*
X106430000Y-108776000D03*
X105930000Y-108776000D03*
X105430000Y-108776000D03*
X104930000Y-108776000D03*
X104430000Y-108776000D03*
X103930000Y-108776000D03*
X103430000Y-108776000D03*
D15*
X105180000Y-111276000D03*
X105180000Y-114276000D03*
X108180000Y-111276000D03*
X108180000Y-114276000D03*
G36*
G01*
X98786500Y-107439750D02*
X98786500Y-107952250D01*
G75*
G02*
X98567750Y-108171000I-218750J0D01*
G01*
X98130250Y-108171000D01*
G75*
G02*
X97911500Y-107952250I0J218750D01*
G01*
X97911500Y-107439750D01*
G75*
G02*
X98130250Y-107221000I218750J0D01*
G01*
X98567750Y-107221000D01*
G75*
G02*
X98786500Y-107439750I0J-218750D01*
G01*
G37*
G36*
G01*
X97211500Y-107439750D02*
X97211500Y-107952250D01*
G75*
G02*
X96992750Y-108171000I-218750J0D01*
G01*
X96555250Y-108171000D01*
G75*
G02*
X96336500Y-107952250I0J218750D01*
G01*
X96336500Y-107439750D01*
G75*
G02*
X96555250Y-107221000I218750J0D01*
G01*
X96992750Y-107221000D01*
G75*
G02*
X97211500Y-107439750I0J-218750D01*
G01*
G37*
G36*
G01*
X98786500Y-105915750D02*
X98786500Y-106428250D01*
G75*
G02*
X98567750Y-106647000I-218750J0D01*
G01*
X98130250Y-106647000D01*
G75*
G02*
X97911500Y-106428250I0J218750D01*
G01*
X97911500Y-105915750D01*
G75*
G02*
X98130250Y-105697000I218750J0D01*
G01*
X98567750Y-105697000D01*
G75*
G02*
X98786500Y-105915750I0J-218750D01*
G01*
G37*
G36*
G01*
X97211500Y-105915750D02*
X97211500Y-106428250D01*
G75*
G02*
X96992750Y-106647000I-218750J0D01*
G01*
X96555250Y-106647000D01*
G75*
G02*
X96336500Y-106428250I0J218750D01*
G01*
X96336500Y-105915750D01*
G75*
G02*
X96555250Y-105697000I218750J0D01*
G01*
X96992750Y-105697000D01*
G75*
G02*
X97211500Y-105915750I0J-218750D01*
G01*
G37*
G36*
G01*
X111779700Y-109019050D02*
X111779700Y-108506550D01*
G75*
G02*
X111998450Y-108287800I218750J0D01*
G01*
X112435950Y-108287800D01*
G75*
G02*
X112654700Y-108506550I0J-218750D01*
G01*
X112654700Y-109019050D01*
G75*
G02*
X112435950Y-109237800I-218750J0D01*
G01*
X111998450Y-109237800D01*
G75*
G02*
X111779700Y-109019050I0J218750D01*
G01*
G37*
G36*
G01*
X113354700Y-109019050D02*
X113354700Y-108506550D01*
G75*
G02*
X113573450Y-108287800I218750J0D01*
G01*
X114010950Y-108287800D01*
G75*
G02*
X114229700Y-108506550I0J-218750D01*
G01*
X114229700Y-109019050D01*
G75*
G02*
X114010950Y-109237800I-218750J0D01*
G01*
X113573450Y-109237800D01*
G75*
G02*
X113354700Y-109019050I0J218750D01*
G01*
G37*
G36*
G01*
X97186000Y-116329750D02*
X97186000Y-116842250D01*
G75*
G02*
X96967250Y-117061000I-218750J0D01*
G01*
X96529750Y-117061000D01*
G75*
G02*
X96311000Y-116842250I0J218750D01*
G01*
X96311000Y-116329750D01*
G75*
G02*
X96529750Y-116111000I218750J0D01*
G01*
X96967250Y-116111000D01*
G75*
G02*
X97186000Y-116329750I0J-218750D01*
G01*
G37*
G36*
G01*
X98761000Y-116329750D02*
X98761000Y-116842250D01*
G75*
G02*
X98542250Y-117061000I-218750J0D01*
G01*
X98104750Y-117061000D01*
G75*
G02*
X97886000Y-116842250I0J218750D01*
G01*
X97886000Y-116329750D01*
G75*
G02*
X98104750Y-116111000I218750J0D01*
G01*
X98542250Y-116111000D01*
G75*
G02*
X98761000Y-116329750I0J-218750D01*
G01*
G37*
G36*
G01*
X97160500Y-117853750D02*
X97160500Y-118366250D01*
G75*
G02*
X96941750Y-118585000I-218750J0D01*
G01*
X96504250Y-118585000D01*
G75*
G02*
X96285500Y-118366250I0J218750D01*
G01*
X96285500Y-117853750D01*
G75*
G02*
X96504250Y-117635000I218750J0D01*
G01*
X96941750Y-117635000D01*
G75*
G02*
X97160500Y-117853750I0J-218750D01*
G01*
G37*
G36*
G01*
X98735500Y-117853750D02*
X98735500Y-118366250D01*
G75*
G02*
X98516750Y-118585000I-218750J0D01*
G01*
X98079250Y-118585000D01*
G75*
G02*
X97860500Y-118366250I0J218750D01*
G01*
X97860500Y-117853750D01*
G75*
G02*
X98079250Y-117635000I218750J0D01*
G01*
X98516750Y-117635000D01*
G75*
G02*
X98735500Y-117853750I0J-218750D01*
G01*
G37*
G36*
G01*
X97538250Y-101250000D02*
X97025750Y-101250000D01*
G75*
G02*
X96807000Y-101031250I0J218750D01*
G01*
X96807000Y-100593750D01*
G75*
G02*
X97025750Y-100375000I218750J0D01*
G01*
X97538250Y-100375000D01*
G75*
G02*
X97757000Y-100593750I0J-218750D01*
G01*
X97757000Y-101031250D01*
G75*
G02*
X97538250Y-101250000I-218750J0D01*
G01*
G37*
G36*
G01*
X97538250Y-102825000D02*
X97025750Y-102825000D01*
G75*
G02*
X96807000Y-102606250I0J218750D01*
G01*
X96807000Y-102168750D01*
G75*
G02*
X97025750Y-101950000I218750J0D01*
G01*
X97538250Y-101950000D01*
G75*
G02*
X97757000Y-102168750I0J-218750D01*
G01*
X97757000Y-102606250D01*
G75*
G02*
X97538250Y-102825000I-218750J0D01*
G01*
G37*
G36*
G01*
X97025750Y-93542500D02*
X97538250Y-93542500D01*
G75*
G02*
X97757000Y-93761250I0J-218750D01*
G01*
X97757000Y-94198750D01*
G75*
G02*
X97538250Y-94417500I-218750J0D01*
G01*
X97025750Y-94417500D01*
G75*
G02*
X96807000Y-94198750I0J218750D01*
G01*
X96807000Y-93761250D01*
G75*
G02*
X97025750Y-93542500I218750J0D01*
G01*
G37*
G36*
G01*
X97025750Y-95117500D02*
X97538250Y-95117500D01*
G75*
G02*
X97757000Y-95336250I0J-218750D01*
G01*
X97757000Y-95773750D01*
G75*
G02*
X97538250Y-95992500I-218750J0D01*
G01*
X97025750Y-95992500D01*
G75*
G02*
X96807000Y-95773750I0J218750D01*
G01*
X96807000Y-95336250D01*
G75*
G02*
X97025750Y-95117500I218750J0D01*
G01*
G37*
G36*
G01*
X101449850Y-108590500D02*
X100937350Y-108590500D01*
G75*
G02*
X100718600Y-108371750I0J218750D01*
G01*
X100718600Y-107934250D01*
G75*
G02*
X100937350Y-107715500I218750J0D01*
G01*
X101449850Y-107715500D01*
G75*
G02*
X101668600Y-107934250I0J-218750D01*
G01*
X101668600Y-108371750D01*
G75*
G02*
X101449850Y-108590500I-218750J0D01*
G01*
G37*
G36*
G01*
X101449850Y-110165500D02*
X100937350Y-110165500D01*
G75*
G02*
X100718600Y-109946750I0J218750D01*
G01*
X100718600Y-109509250D01*
G75*
G02*
X100937350Y-109290500I218750J0D01*
G01*
X101449850Y-109290500D01*
G75*
G02*
X101668600Y-109509250I0J-218750D01*
G01*
X101668600Y-109946750D01*
G75*
G02*
X101449850Y-110165500I-218750J0D01*
G01*
G37*
G36*
G01*
X112773750Y-114878500D02*
X113286250Y-114878500D01*
G75*
G02*
X113505000Y-115097250I0J-218750D01*
G01*
X113505000Y-115534750D01*
G75*
G02*
X113286250Y-115753500I-218750J0D01*
G01*
X112773750Y-115753500D01*
G75*
G02*
X112555000Y-115534750I0J218750D01*
G01*
X112555000Y-115097250D01*
G75*
G02*
X112773750Y-114878500I218750J0D01*
G01*
G37*
G36*
G01*
X112773750Y-116453500D02*
X113286250Y-116453500D01*
G75*
G02*
X113505000Y-116672250I0J-218750D01*
G01*
X113505000Y-117109750D01*
G75*
G02*
X113286250Y-117328500I-218750J0D01*
G01*
X112773750Y-117328500D01*
G75*
G02*
X112555000Y-117109750I0J218750D01*
G01*
X112555000Y-116672250D01*
G75*
G02*
X112773750Y-116453500I218750J0D01*
G01*
G37*
G36*
G01*
X113710300Y-112270250D02*
X113710300Y-111757750D01*
G75*
G02*
X113929050Y-111539000I218750J0D01*
G01*
X114366550Y-111539000D01*
G75*
G02*
X114585300Y-111757750I0J-218750D01*
G01*
X114585300Y-112270250D01*
G75*
G02*
X114366550Y-112489000I-218750J0D01*
G01*
X113929050Y-112489000D01*
G75*
G02*
X113710300Y-112270250I0J218750D01*
G01*
G37*
G36*
G01*
X112135300Y-112270250D02*
X112135300Y-111757750D01*
G75*
G02*
X112354050Y-111539000I218750J0D01*
G01*
X112791550Y-111539000D01*
G75*
G02*
X113010300Y-111757750I0J-218750D01*
G01*
X113010300Y-112270250D01*
G75*
G02*
X112791550Y-112489000I-218750J0D01*
G01*
X112354050Y-112489000D01*
G75*
G02*
X112135300Y-112270250I0J218750D01*
G01*
G37*
G36*
G01*
X103680550Y-117926500D02*
X104193050Y-117926500D01*
G75*
G02*
X104411800Y-118145250I0J-218750D01*
G01*
X104411800Y-118582750D01*
G75*
G02*
X104193050Y-118801500I-218750J0D01*
G01*
X103680550Y-118801500D01*
G75*
G02*
X103461800Y-118582750I0J218750D01*
G01*
X103461800Y-118145250D01*
G75*
G02*
X103680550Y-117926500I218750J0D01*
G01*
G37*
G36*
G01*
X103680550Y-119501500D02*
X104193050Y-119501500D01*
G75*
G02*
X104411800Y-119720250I0J-218750D01*
G01*
X104411800Y-120157750D01*
G75*
G02*
X104193050Y-120376500I-218750J0D01*
G01*
X103680550Y-120376500D01*
G75*
G02*
X103461800Y-120157750I0J218750D01*
G01*
X103461800Y-119720250D01*
G75*
G02*
X103680550Y-119501500I218750J0D01*
G01*
G37*
G36*
G01*
X107588800Y-107291850D02*
X107588800Y-106779350D01*
G75*
G02*
X107807550Y-106560600I218750J0D01*
G01*
X108245050Y-106560600D01*
G75*
G02*
X108463800Y-106779350I0J-218750D01*
G01*
X108463800Y-107291850D01*
G75*
G02*
X108245050Y-107510600I-218750J0D01*
G01*
X107807550Y-107510600D01*
G75*
G02*
X107588800Y-107291850I0J218750D01*
G01*
G37*
G36*
G01*
X106013800Y-107291850D02*
X106013800Y-106779350D01*
G75*
G02*
X106232550Y-106560600I218750J0D01*
G01*
X106670050Y-106560600D01*
G75*
G02*
X106888800Y-106779350I0J-218750D01*
G01*
X106888800Y-107291850D01*
G75*
G02*
X106670050Y-107510600I-218750J0D01*
G01*
X106232550Y-107510600D01*
G75*
G02*
X106013800Y-107291850I0J218750D01*
G01*
G37*
G36*
G01*
X105480700Y-97081050D02*
X105480700Y-96568550D01*
G75*
G02*
X105699450Y-96349800I218750J0D01*
G01*
X106136950Y-96349800D01*
G75*
G02*
X106355700Y-96568550I0J-218750D01*
G01*
X106355700Y-97081050D01*
G75*
G02*
X106136950Y-97299800I-218750J0D01*
G01*
X105699450Y-97299800D01*
G75*
G02*
X105480700Y-97081050I0J218750D01*
G01*
G37*
G36*
G01*
X103905700Y-97081050D02*
X103905700Y-96568550D01*
G75*
G02*
X104124450Y-96349800I218750J0D01*
G01*
X104561950Y-96349800D01*
G75*
G02*
X104780700Y-96568550I0J-218750D01*
G01*
X104780700Y-97081050D01*
G75*
G02*
X104561950Y-97299800I-218750J0D01*
G01*
X104124450Y-97299800D01*
G75*
G02*
X103905700Y-97081050I0J218750D01*
G01*
G37*
G36*
G01*
X91764500Y-92240250D02*
X91764500Y-91727750D01*
G75*
G02*
X91983250Y-91509000I218750J0D01*
G01*
X92420750Y-91509000D01*
G75*
G02*
X92639500Y-91727750I0J-218750D01*
G01*
X92639500Y-92240250D01*
G75*
G02*
X92420750Y-92459000I-218750J0D01*
G01*
X91983250Y-92459000D01*
G75*
G02*
X91764500Y-92240250I0J218750D01*
G01*
G37*
G36*
G01*
X90189500Y-92240250D02*
X90189500Y-91727750D01*
G75*
G02*
X90408250Y-91509000I218750J0D01*
G01*
X90845750Y-91509000D01*
G75*
G02*
X91064500Y-91727750I0J-218750D01*
G01*
X91064500Y-92240250D01*
G75*
G02*
X90845750Y-92459000I-218750J0D01*
G01*
X90408250Y-92459000D01*
G75*
G02*
X90189500Y-92240250I0J218750D01*
G01*
G37*
G36*
G01*
X90240500Y-102872250D02*
X90240500Y-102359750D01*
G75*
G02*
X90459250Y-102141000I218750J0D01*
G01*
X90896750Y-102141000D01*
G75*
G02*
X91115500Y-102359750I0J-218750D01*
G01*
X91115500Y-102872250D01*
G75*
G02*
X90896750Y-103091000I-218750J0D01*
G01*
X90459250Y-103091000D01*
G75*
G02*
X90240500Y-102872250I0J218750D01*
G01*
G37*
G36*
G01*
X91815500Y-102872250D02*
X91815500Y-102359750D01*
G75*
G02*
X92034250Y-102141000I218750J0D01*
G01*
X92471750Y-102141000D01*
G75*
G02*
X92690500Y-102359750I0J-218750D01*
G01*
X92690500Y-102872250D01*
G75*
G02*
X92471750Y-103091000I-218750J0D01*
G01*
X92034250Y-103091000D01*
G75*
G02*
X91815500Y-102872250I0J218750D01*
G01*
G37*
G36*
G01*
X94485750Y-98343000D02*
X94998250Y-98343000D01*
G75*
G02*
X95217000Y-98561750I0J-218750D01*
G01*
X95217000Y-98999250D01*
G75*
G02*
X94998250Y-99218000I-218750J0D01*
G01*
X94485750Y-99218000D01*
G75*
G02*
X94267000Y-98999250I0J218750D01*
G01*
X94267000Y-98561750D01*
G75*
G02*
X94485750Y-98343000I218750J0D01*
G01*
G37*
G36*
G01*
X94485750Y-99918000D02*
X94998250Y-99918000D01*
G75*
G02*
X95217000Y-100136750I0J-218750D01*
G01*
X95217000Y-100574250D01*
G75*
G02*
X94998250Y-100793000I-218750J0D01*
G01*
X94485750Y-100793000D01*
G75*
G02*
X94267000Y-100574250I0J218750D01*
G01*
X94267000Y-100136750D01*
G75*
G02*
X94485750Y-99918000I218750J0D01*
G01*
G37*
G36*
G01*
X94485750Y-87711000D02*
X94998250Y-87711000D01*
G75*
G02*
X95217000Y-87929750I0J-218750D01*
G01*
X95217000Y-88367250D01*
G75*
G02*
X94998250Y-88586000I-218750J0D01*
G01*
X94485750Y-88586000D01*
G75*
G02*
X94267000Y-88367250I0J218750D01*
G01*
X94267000Y-87929750D01*
G75*
G02*
X94485750Y-87711000I218750J0D01*
G01*
G37*
G36*
G01*
X94485750Y-89286000D02*
X94998250Y-89286000D01*
G75*
G02*
X95217000Y-89504750I0J-218750D01*
G01*
X95217000Y-89942250D01*
G75*
G02*
X94998250Y-90161000I-218750J0D01*
G01*
X94485750Y-90161000D01*
G75*
G02*
X94267000Y-89942250I0J218750D01*
G01*
X94267000Y-89504750D01*
G75*
G02*
X94485750Y-89286000I218750J0D01*
G01*
G37*
G36*
G01*
X121787500Y-100586250D02*
X121787500Y-100073750D01*
G75*
G02*
X122006250Y-99855000I218750J0D01*
G01*
X122443750Y-99855000D01*
G75*
G02*
X122662500Y-100073750I0J-218750D01*
G01*
X122662500Y-100586250D01*
G75*
G02*
X122443750Y-100805000I-218750J0D01*
G01*
X122006250Y-100805000D01*
G75*
G02*
X121787500Y-100586250I0J218750D01*
G01*
G37*
G36*
G01*
X120212500Y-100586250D02*
X120212500Y-100073750D01*
G75*
G02*
X120431250Y-99855000I218750J0D01*
G01*
X120868750Y-99855000D01*
G75*
G02*
X121087500Y-100073750I0J-218750D01*
G01*
X121087500Y-100586250D01*
G75*
G02*
X120868750Y-100805000I-218750J0D01*
G01*
X120431250Y-100805000D01*
G75*
G02*
X120212500Y-100586250I0J218750D01*
G01*
G37*
G36*
G01*
X120212500Y-113032250D02*
X120212500Y-112519750D01*
G75*
G02*
X120431250Y-112301000I218750J0D01*
G01*
X120868750Y-112301000D01*
G75*
G02*
X121087500Y-112519750I0J-218750D01*
G01*
X121087500Y-113032250D01*
G75*
G02*
X120868750Y-113251000I-218750J0D01*
G01*
X120431250Y-113251000D01*
G75*
G02*
X120212500Y-113032250I0J218750D01*
G01*
G37*
G36*
G01*
X121787500Y-113032250D02*
X121787500Y-112519750D01*
G75*
G02*
X122006250Y-112301000I218750J0D01*
G01*
X122443750Y-112301000D01*
G75*
G02*
X122662500Y-112519750I0J-218750D01*
G01*
X122662500Y-113032250D01*
G75*
G02*
X122443750Y-113251000I-218750J0D01*
G01*
X122006250Y-113251000D01*
G75*
G02*
X121787500Y-113032250I0J218750D01*
G01*
G37*
G36*
G01*
X128733000Y-100073750D02*
X128733000Y-100586250D01*
G75*
G02*
X128514250Y-100805000I-218750J0D01*
G01*
X128076750Y-100805000D01*
G75*
G02*
X127858000Y-100586250I0J218750D01*
G01*
X127858000Y-100073750D01*
G75*
G02*
X128076750Y-99855000I218750J0D01*
G01*
X128514250Y-99855000D01*
G75*
G02*
X128733000Y-100073750I0J-218750D01*
G01*
G37*
G36*
G01*
X127158000Y-100073750D02*
X127158000Y-100586250D01*
G75*
G02*
X126939250Y-100805000I-218750J0D01*
G01*
X126501750Y-100805000D01*
G75*
G02*
X126283000Y-100586250I0J218750D01*
G01*
X126283000Y-100073750D01*
G75*
G02*
X126501750Y-99855000I218750J0D01*
G01*
X126939250Y-99855000D01*
G75*
G02*
X127158000Y-100073750I0J-218750D01*
G01*
G37*
G36*
G01*
X127132500Y-112519750D02*
X127132500Y-113032250D01*
G75*
G02*
X126913750Y-113251000I-218750J0D01*
G01*
X126476250Y-113251000D01*
G75*
G02*
X126257500Y-113032250I0J218750D01*
G01*
X126257500Y-112519750D01*
G75*
G02*
X126476250Y-112301000I218750J0D01*
G01*
X126913750Y-112301000D01*
G75*
G02*
X127132500Y-112519750I0J-218750D01*
G01*
G37*
G36*
G01*
X128707500Y-112519750D02*
X128707500Y-113032250D01*
G75*
G02*
X128488750Y-113251000I-218750J0D01*
G01*
X128051250Y-113251000D01*
G75*
G02*
X127832500Y-113032250I0J218750D01*
G01*
X127832500Y-112519750D01*
G75*
G02*
X128051250Y-112301000I218750J0D01*
G01*
X128488750Y-112301000D01*
G75*
G02*
X128707500Y-112519750I0J-218750D01*
G01*
G37*
G36*
G01*
X139567300Y-123751050D02*
X139567300Y-123238550D01*
G75*
G02*
X139786050Y-123019800I218750J0D01*
G01*
X140223550Y-123019800D01*
G75*
G02*
X140442300Y-123238550I0J-218750D01*
G01*
X140442300Y-123751050D01*
G75*
G02*
X140223550Y-123969800I-218750J0D01*
G01*
X139786050Y-123969800D01*
G75*
G02*
X139567300Y-123751050I0J218750D01*
G01*
G37*
G36*
G01*
X141142300Y-123751050D02*
X141142300Y-123238550D01*
G75*
G02*
X141361050Y-123019800I218750J0D01*
G01*
X141798550Y-123019800D01*
G75*
G02*
X142017300Y-123238550I0J-218750D01*
G01*
X142017300Y-123751050D01*
G75*
G02*
X141798550Y-123969800I-218750J0D01*
G01*
X141361050Y-123969800D01*
G75*
G02*
X141142300Y-123751050I0J218750D01*
G01*
G37*
G36*
G01*
X139567300Y-122176250D02*
X139567300Y-121663750D01*
G75*
G02*
X139786050Y-121445000I218750J0D01*
G01*
X140223550Y-121445000D01*
G75*
G02*
X140442300Y-121663750I0J-218750D01*
G01*
X140442300Y-122176250D01*
G75*
G02*
X140223550Y-122395000I-218750J0D01*
G01*
X139786050Y-122395000D01*
G75*
G02*
X139567300Y-122176250I0J218750D01*
G01*
G37*
G36*
G01*
X141142300Y-122176250D02*
X141142300Y-121663750D01*
G75*
G02*
X141361050Y-121445000I218750J0D01*
G01*
X141798550Y-121445000D01*
G75*
G02*
X142017300Y-121663750I0J-218750D01*
G01*
X142017300Y-122176250D01*
G75*
G02*
X141798550Y-122395000I-218750J0D01*
G01*
X141361050Y-122395000D01*
G75*
G02*
X141142300Y-122176250I0J218750D01*
G01*
G37*
G36*
G01*
X110359243Y-92927330D02*
X110359243Y-93439830D01*
G75*
G02*
X110140493Y-93658580I-218750J0D01*
G01*
X109702993Y-93658580D01*
G75*
G02*
X109484243Y-93439830I0J218750D01*
G01*
X109484243Y-92927330D01*
G75*
G02*
X109702993Y-92708580I218750J0D01*
G01*
X110140493Y-92708580D01*
G75*
G02*
X110359243Y-92927330I0J-218750D01*
G01*
G37*
G36*
G01*
X111934243Y-92927330D02*
X111934243Y-93439830D01*
G75*
G02*
X111715493Y-93658580I-218750J0D01*
G01*
X111277993Y-93658580D01*
G75*
G02*
X111059243Y-93439830I0J218750D01*
G01*
X111059243Y-92927330D01*
G75*
G02*
X111277993Y-92708580I218750J0D01*
G01*
X111715493Y-92708580D01*
G75*
G02*
X111934243Y-92927330I0J-218750D01*
G01*
G37*
D16*
X136194800Y-97840800D03*
X136194800Y-99240800D03*
X136194800Y-96650000D03*
X136194800Y-95250000D03*
G36*
G01*
X97810500Y-109930250D02*
X97810500Y-109017750D01*
G75*
G02*
X98054250Y-108774000I243750J0D01*
G01*
X98541750Y-108774000D01*
G75*
G02*
X98785500Y-109017750I0J-243750D01*
G01*
X98785500Y-109930250D01*
G75*
G02*
X98541750Y-110174000I-243750J0D01*
G01*
X98054250Y-110174000D01*
G75*
G02*
X97810500Y-109930250I0J243750D01*
G01*
G37*
G36*
G01*
X95935500Y-109930250D02*
X95935500Y-109017750D01*
G75*
G02*
X96179250Y-108774000I243750J0D01*
G01*
X96666750Y-108774000D01*
G75*
G02*
X96910500Y-109017750I0J-243750D01*
G01*
X96910500Y-109930250D01*
G75*
G02*
X96666750Y-110174000I-243750J0D01*
G01*
X96179250Y-110174000D01*
G75*
G02*
X95935500Y-109930250I0J243750D01*
G01*
G37*
G36*
G01*
X96032500Y-115010250D02*
X96032500Y-114097750D01*
G75*
G02*
X96276250Y-113854000I243750J0D01*
G01*
X96763750Y-113854000D01*
G75*
G02*
X97007500Y-114097750I0J-243750D01*
G01*
X97007500Y-115010250D01*
G75*
G02*
X96763750Y-115254000I-243750J0D01*
G01*
X96276250Y-115254000D01*
G75*
G02*
X96032500Y-115010250I0J243750D01*
G01*
G37*
G36*
G01*
X97907500Y-115010250D02*
X97907500Y-114097750D01*
G75*
G02*
X98151250Y-113854000I243750J0D01*
G01*
X98638750Y-113854000D01*
G75*
G02*
X98882500Y-114097750I0J-243750D01*
G01*
X98882500Y-115010250D01*
G75*
G02*
X98638750Y-115254000I-243750J0D01*
G01*
X98151250Y-115254000D01*
G75*
G02*
X97907500Y-115010250I0J243750D01*
G01*
G37*
G36*
G01*
X91491750Y-105079500D02*
X92404250Y-105079500D01*
G75*
G02*
X92648000Y-105323250I0J-243750D01*
G01*
X92648000Y-105810750D01*
G75*
G02*
X92404250Y-106054500I-243750J0D01*
G01*
X91491750Y-106054500D01*
G75*
G02*
X91248000Y-105810750I0J243750D01*
G01*
X91248000Y-105323250D01*
G75*
G02*
X91491750Y-105079500I243750J0D01*
G01*
G37*
G36*
G01*
X91491750Y-106954500D02*
X92404250Y-106954500D01*
G75*
G02*
X92648000Y-107198250I0J-243750D01*
G01*
X92648000Y-107685750D01*
G75*
G02*
X92404250Y-107929500I-243750J0D01*
G01*
X91491750Y-107929500D01*
G75*
G02*
X91248000Y-107685750I0J243750D01*
G01*
X91248000Y-107198250D01*
G75*
G02*
X91491750Y-106954500I243750J0D01*
G01*
G37*
D17*
X90493000Y-116009000D03*
X90493000Y-110529000D03*
D18*
X91243000Y-110309000D03*
X91243000Y-116259000D03*
D19*
X92543000Y-110409000D03*
X92563000Y-116159000D03*
D20*
X92443000Y-111959000D03*
X92443000Y-112609000D03*
X92443000Y-113259000D03*
X92443000Y-113909000D03*
X92443000Y-114559000D03*
D21*
X89293000Y-112299000D03*
X89293000Y-114219000D03*
D22*
X171379600Y-116103400D03*
X175279600Y-116103400D03*
X171379600Y-117373400D03*
X175279600Y-117373400D03*
X171379600Y-118643400D03*
X175279600Y-118643400D03*
X171379600Y-119913400D03*
X175279600Y-119913400D03*
X171379600Y-121183400D03*
X175279600Y-121183400D03*
D23*
X152882600Y-110043200D03*
X152882600Y-104993200D03*
X155422600Y-110043200D03*
X155422600Y-104993200D03*
X157962600Y-110043200D03*
X157962600Y-104993200D03*
X160502600Y-110043200D03*
X160502600Y-104993200D03*
X163042600Y-110043200D03*
X163042600Y-104993200D03*
X165582600Y-110043200D03*
X165582600Y-104993200D03*
X168122600Y-110043200D03*
X168122600Y-104993200D03*
X170662600Y-110043200D03*
X170662600Y-104993200D03*
X173202600Y-110043200D03*
X173202600Y-104993200D03*
X175742600Y-110043200D03*
X175742600Y-104993200D03*
D24*
X145364200Y-119638000D03*
X150444200Y-119638000D03*
X155524200Y-119638000D03*
X160604200Y-119638000D03*
X165684200Y-119638000D03*
X147904200Y-116328000D03*
X152984200Y-116328000D03*
X158064200Y-116328000D03*
X163144200Y-116328000D03*
D25*
X164505400Y-88569800D03*
X169555400Y-88569800D03*
X164505400Y-91109800D03*
X169555400Y-91109800D03*
X164505400Y-93649800D03*
X169555400Y-93649800D03*
X164505400Y-96189800D03*
X169555400Y-96189800D03*
X144998200Y-88442800D03*
X150048200Y-88442800D03*
X144998200Y-90982800D03*
X150048200Y-90982800D03*
X144998200Y-93522800D03*
X150048200Y-93522800D03*
X144998200Y-96062800D03*
X150048200Y-96062800D03*
G36*
G01*
X98761000Y-110995750D02*
X98761000Y-111508250D01*
G75*
G02*
X98542250Y-111727000I-218750J0D01*
G01*
X98104750Y-111727000D01*
G75*
G02*
X97886000Y-111508250I0J218750D01*
G01*
X97886000Y-110995750D01*
G75*
G02*
X98104750Y-110777000I218750J0D01*
G01*
X98542250Y-110777000D01*
G75*
G02*
X98761000Y-110995750I0J-218750D01*
G01*
G37*
G36*
G01*
X97186000Y-110995750D02*
X97186000Y-111508250D01*
G75*
G02*
X96967250Y-111727000I-218750J0D01*
G01*
X96529750Y-111727000D01*
G75*
G02*
X96311000Y-111508250I0J218750D01*
G01*
X96311000Y-110995750D01*
G75*
G02*
X96529750Y-110777000I218750J0D01*
G01*
X96967250Y-110777000D01*
G75*
G02*
X97186000Y-110995750I0J-218750D01*
G01*
G37*
G36*
G01*
X97160500Y-119377750D02*
X97160500Y-119890250D01*
G75*
G02*
X96941750Y-120109000I-218750J0D01*
G01*
X96504250Y-120109000D01*
G75*
G02*
X96285500Y-119890250I0J218750D01*
G01*
X96285500Y-119377750D01*
G75*
G02*
X96504250Y-119159000I218750J0D01*
G01*
X96941750Y-119159000D01*
G75*
G02*
X97160500Y-119377750I0J-218750D01*
G01*
G37*
G36*
G01*
X98735500Y-119377750D02*
X98735500Y-119890250D01*
G75*
G02*
X98516750Y-120109000I-218750J0D01*
G01*
X98079250Y-120109000D01*
G75*
G02*
X97860500Y-119890250I0J218750D01*
G01*
X97860500Y-119377750D01*
G75*
G02*
X98079250Y-119159000I218750J0D01*
G01*
X98516750Y-119159000D01*
G75*
G02*
X98735500Y-119377750I0J-218750D01*
G01*
G37*
G36*
G01*
X111943500Y-99464150D02*
X111943500Y-99976650D01*
G75*
G02*
X111724750Y-100195400I-218750J0D01*
G01*
X111287250Y-100195400D01*
G75*
G02*
X111068500Y-99976650I0J218750D01*
G01*
X111068500Y-99464150D01*
G75*
G02*
X111287250Y-99245400I218750J0D01*
G01*
X111724750Y-99245400D01*
G75*
G02*
X111943500Y-99464150I0J-218750D01*
G01*
G37*
G36*
G01*
X110368500Y-99464150D02*
X110368500Y-99976650D01*
G75*
G02*
X110149750Y-100195400I-218750J0D01*
G01*
X109712250Y-100195400D01*
G75*
G02*
X109493500Y-99976650I0J218750D01*
G01*
X109493500Y-99464150D01*
G75*
G02*
X109712250Y-99245400I218750J0D01*
G01*
X110149750Y-99245400D01*
G75*
G02*
X110368500Y-99464150I0J-218750D01*
G01*
G37*
G36*
G01*
X111943700Y-104239350D02*
X111943700Y-104751850D01*
G75*
G02*
X111724950Y-104970600I-218750J0D01*
G01*
X111287450Y-104970600D01*
G75*
G02*
X111068700Y-104751850I0J218750D01*
G01*
X111068700Y-104239350D01*
G75*
G02*
X111287450Y-104020600I218750J0D01*
G01*
X111724950Y-104020600D01*
G75*
G02*
X111943700Y-104239350I0J-218750D01*
G01*
G37*
G36*
G01*
X110368700Y-104239350D02*
X110368700Y-104751850D01*
G75*
G02*
X110149950Y-104970600I-218750J0D01*
G01*
X109712450Y-104970600D01*
G75*
G02*
X109493700Y-104751850I0J218750D01*
G01*
X109493700Y-104239350D01*
G75*
G02*
X109712450Y-104020600I218750J0D01*
G01*
X110149950Y-104020600D01*
G75*
G02*
X110368700Y-104239350I0J-218750D01*
G01*
G37*
G36*
G01*
X111068500Y-103177050D02*
X111068500Y-102664550D01*
G75*
G02*
X111287250Y-102445800I218750J0D01*
G01*
X111724750Y-102445800D01*
G75*
G02*
X111943500Y-102664550I0J-218750D01*
G01*
X111943500Y-103177050D01*
G75*
G02*
X111724750Y-103395800I-218750J0D01*
G01*
X111287250Y-103395800D01*
G75*
G02*
X111068500Y-103177050I0J218750D01*
G01*
G37*
G36*
G01*
X109493500Y-103177050D02*
X109493500Y-102664550D01*
G75*
G02*
X109712250Y-102445800I218750J0D01*
G01*
X110149750Y-102445800D01*
G75*
G02*
X110368500Y-102664550I0J-218750D01*
G01*
X110368500Y-103177050D01*
G75*
G02*
X110149750Y-103395800I-218750J0D01*
G01*
X109712250Y-103395800D01*
G75*
G02*
X109493500Y-103177050I0J218750D01*
G01*
G37*
G36*
G01*
X110368700Y-101038950D02*
X110368700Y-101551450D01*
G75*
G02*
X110149950Y-101770200I-218750J0D01*
G01*
X109712450Y-101770200D01*
G75*
G02*
X109493700Y-101551450I0J218750D01*
G01*
X109493700Y-101038950D01*
G75*
G02*
X109712450Y-100820200I218750J0D01*
G01*
X110149950Y-100820200D01*
G75*
G02*
X110368700Y-101038950I0J-218750D01*
G01*
G37*
G36*
G01*
X111943700Y-101038950D02*
X111943700Y-101551450D01*
G75*
G02*
X111724950Y-101770200I-218750J0D01*
G01*
X111287450Y-101770200D01*
G75*
G02*
X111068700Y-101551450I0J218750D01*
G01*
X111068700Y-101038950D01*
G75*
G02*
X111287450Y-100820200I218750J0D01*
G01*
X111724950Y-100820200D01*
G75*
G02*
X111943700Y-101038950I0J-218750D01*
G01*
G37*
G36*
G01*
X138918300Y-123238550D02*
X138918300Y-123751050D01*
G75*
G02*
X138699550Y-123969800I-218750J0D01*
G01*
X138262050Y-123969800D01*
G75*
G02*
X138043300Y-123751050I0J218750D01*
G01*
X138043300Y-123238550D01*
G75*
G02*
X138262050Y-123019800I218750J0D01*
G01*
X138699550Y-123019800D01*
G75*
G02*
X138918300Y-123238550I0J-218750D01*
G01*
G37*
G36*
G01*
X137343300Y-123238550D02*
X137343300Y-123751050D01*
G75*
G02*
X137124550Y-123969800I-218750J0D01*
G01*
X136687050Y-123969800D01*
G75*
G02*
X136468300Y-123751050I0J218750D01*
G01*
X136468300Y-123238550D01*
G75*
G02*
X136687050Y-123019800I218750J0D01*
G01*
X137124550Y-123019800D01*
G75*
G02*
X137343300Y-123238550I0J-218750D01*
G01*
G37*
G36*
G01*
X137343300Y-121663750D02*
X137343300Y-122176250D01*
G75*
G02*
X137124550Y-122395000I-218750J0D01*
G01*
X136687050Y-122395000D01*
G75*
G02*
X136468300Y-122176250I0J218750D01*
G01*
X136468300Y-121663750D01*
G75*
G02*
X136687050Y-121445000I218750J0D01*
G01*
X137124550Y-121445000D01*
G75*
G02*
X137343300Y-121663750I0J-218750D01*
G01*
G37*
G36*
G01*
X138918300Y-121663750D02*
X138918300Y-122176250D01*
G75*
G02*
X138699550Y-122395000I-218750J0D01*
G01*
X138262050Y-122395000D01*
G75*
G02*
X138043300Y-122176250I0J218750D01*
G01*
X138043300Y-121663750D01*
G75*
G02*
X138262050Y-121445000I218750J0D01*
G01*
X138699550Y-121445000D01*
G75*
G02*
X138918300Y-121663750I0J-218750D01*
G01*
G37*
G36*
G01*
X111934243Y-94705330D02*
X111934243Y-95217830D01*
G75*
G02*
X111715493Y-95436580I-218750J0D01*
G01*
X111277993Y-95436580D01*
G75*
G02*
X111059243Y-95217830I0J218750D01*
G01*
X111059243Y-94705330D01*
G75*
G02*
X111277993Y-94486580I218750J0D01*
G01*
X111715493Y-94486580D01*
G75*
G02*
X111934243Y-94705330I0J-218750D01*
G01*
G37*
G36*
G01*
X110359243Y-94705330D02*
X110359243Y-95217830D01*
G75*
G02*
X110140493Y-95436580I-218750J0D01*
G01*
X109702993Y-95436580D01*
G75*
G02*
X109484243Y-95217830I0J218750D01*
G01*
X109484243Y-94705330D01*
G75*
G02*
X109702993Y-94486580I218750J0D01*
G01*
X110140493Y-94486580D01*
G75*
G02*
X110359243Y-94705330I0J-218750D01*
G01*
G37*
G36*
G01*
X120212500Y-111508250D02*
X120212500Y-110995750D01*
G75*
G02*
X120431250Y-110777000I218750J0D01*
G01*
X120868750Y-110777000D01*
G75*
G02*
X121087500Y-110995750I0J-218750D01*
G01*
X121087500Y-111508250D01*
G75*
G02*
X120868750Y-111727000I-218750J0D01*
G01*
X120431250Y-111727000D01*
G75*
G02*
X120212500Y-111508250I0J218750D01*
G01*
G37*
G36*
G01*
X121787500Y-111508250D02*
X121787500Y-110995750D01*
G75*
G02*
X122006250Y-110777000I218750J0D01*
G01*
X122443750Y-110777000D01*
G75*
G02*
X122662500Y-110995750I0J-218750D01*
G01*
X122662500Y-111508250D01*
G75*
G02*
X122443750Y-111727000I-218750J0D01*
G01*
X122006250Y-111727000D01*
G75*
G02*
X121787500Y-111508250I0J218750D01*
G01*
G37*
G36*
G01*
X121087500Y-98549750D02*
X121087500Y-99062250D01*
G75*
G02*
X120868750Y-99281000I-218750J0D01*
G01*
X120431250Y-99281000D01*
G75*
G02*
X120212500Y-99062250I0J218750D01*
G01*
X120212500Y-98549750D01*
G75*
G02*
X120431250Y-98331000I218750J0D01*
G01*
X120868750Y-98331000D01*
G75*
G02*
X121087500Y-98549750I0J-218750D01*
G01*
G37*
G36*
G01*
X122662500Y-98549750D02*
X122662500Y-99062250D01*
G75*
G02*
X122443750Y-99281000I-218750J0D01*
G01*
X122006250Y-99281000D01*
G75*
G02*
X121787500Y-99062250I0J218750D01*
G01*
X121787500Y-98549750D01*
G75*
G02*
X122006250Y-98331000I218750J0D01*
G01*
X122443750Y-98331000D01*
G75*
G02*
X122662500Y-98549750I0J-218750D01*
G01*
G37*
G36*
G01*
X118293500Y-114297750D02*
X118293500Y-114810250D01*
G75*
G02*
X118074750Y-115029000I-218750J0D01*
G01*
X117637250Y-115029000D01*
G75*
G02*
X117418500Y-114810250I0J218750D01*
G01*
X117418500Y-114297750D01*
G75*
G02*
X117637250Y-114079000I218750J0D01*
G01*
X118074750Y-114079000D01*
G75*
G02*
X118293500Y-114297750I0J-218750D01*
G01*
G37*
G36*
G01*
X116718500Y-114297750D02*
X116718500Y-114810250D01*
G75*
G02*
X116499750Y-115029000I-218750J0D01*
G01*
X116062250Y-115029000D01*
G75*
G02*
X115843500Y-114810250I0J218750D01*
G01*
X115843500Y-114297750D01*
G75*
G02*
X116062250Y-114079000I218750J0D01*
G01*
X116499750Y-114079000D01*
G75*
G02*
X116718500Y-114297750I0J-218750D01*
G01*
G37*
G36*
G01*
X127132500Y-98498950D02*
X127132500Y-99011450D01*
G75*
G02*
X126913750Y-99230200I-218750J0D01*
G01*
X126476250Y-99230200D01*
G75*
G02*
X126257500Y-99011450I0J218750D01*
G01*
X126257500Y-98498950D01*
G75*
G02*
X126476250Y-98280200I218750J0D01*
G01*
X126913750Y-98280200D01*
G75*
G02*
X127132500Y-98498950I0J-218750D01*
G01*
G37*
G36*
G01*
X128707500Y-98498950D02*
X128707500Y-99011450D01*
G75*
G02*
X128488750Y-99230200I-218750J0D01*
G01*
X128051250Y-99230200D01*
G75*
G02*
X127832500Y-99011450I0J218750D01*
G01*
X127832500Y-98498950D01*
G75*
G02*
X128051250Y-98280200I218750J0D01*
G01*
X128488750Y-98280200D01*
G75*
G02*
X128707500Y-98498950I0J-218750D01*
G01*
G37*
G36*
G01*
X141525000Y-102006250D02*
X141525000Y-101493750D01*
G75*
G02*
X141743750Y-101275000I218750J0D01*
G01*
X142181250Y-101275000D01*
G75*
G02*
X142400000Y-101493750I0J-218750D01*
G01*
X142400000Y-102006250D01*
G75*
G02*
X142181250Y-102225000I-218750J0D01*
G01*
X141743750Y-102225000D01*
G75*
G02*
X141525000Y-102006250I0J218750D01*
G01*
G37*
G36*
G01*
X143100000Y-102006250D02*
X143100000Y-101493750D01*
G75*
G02*
X143318750Y-101275000I218750J0D01*
G01*
X143756250Y-101275000D01*
G75*
G02*
X143975000Y-101493750I0J-218750D01*
G01*
X143975000Y-102006250D01*
G75*
G02*
X143756250Y-102225000I-218750J0D01*
G01*
X143318750Y-102225000D01*
G75*
G02*
X143100000Y-102006250I0J218750D01*
G01*
G37*
G36*
G01*
X136349450Y-91318900D02*
X135836950Y-91318900D01*
G75*
G02*
X135618200Y-91100150I0J218750D01*
G01*
X135618200Y-90662650D01*
G75*
G02*
X135836950Y-90443900I218750J0D01*
G01*
X136349450Y-90443900D01*
G75*
G02*
X136568200Y-90662650I0J-218750D01*
G01*
X136568200Y-91100150D01*
G75*
G02*
X136349450Y-91318900I-218750J0D01*
G01*
G37*
G36*
G01*
X136349450Y-89743900D02*
X135836950Y-89743900D01*
G75*
G02*
X135618200Y-89525150I0J218750D01*
G01*
X135618200Y-89087650D01*
G75*
G02*
X135836950Y-88868900I218750J0D01*
G01*
X136349450Y-88868900D01*
G75*
G02*
X136568200Y-89087650I0J-218750D01*
G01*
X136568200Y-89525150D01*
G75*
G02*
X136349450Y-89743900I-218750J0D01*
G01*
G37*
G36*
G01*
X135887750Y-93491900D02*
X136400250Y-93491900D01*
G75*
G02*
X136619000Y-93710650I0J-218750D01*
G01*
X136619000Y-94148150D01*
G75*
G02*
X136400250Y-94366900I-218750J0D01*
G01*
X135887750Y-94366900D01*
G75*
G02*
X135669000Y-94148150I0J218750D01*
G01*
X135669000Y-93710650D01*
G75*
G02*
X135887750Y-93491900I218750J0D01*
G01*
G37*
G36*
G01*
X135887750Y-91916900D02*
X136400250Y-91916900D01*
G75*
G02*
X136619000Y-92135650I0J-218750D01*
G01*
X136619000Y-92573150D01*
G75*
G02*
X136400250Y-92791900I-218750J0D01*
G01*
X135887750Y-92791900D01*
G75*
G02*
X135669000Y-92573150I0J218750D01*
G01*
X135669000Y-92135650D01*
G75*
G02*
X135887750Y-91916900I218750J0D01*
G01*
G37*
D26*
X90764000Y-98872000D03*
X90764000Y-99822000D03*
X90764000Y-100772000D03*
X92964000Y-100772000D03*
X92964000Y-98872000D03*
X92964000Y-88240000D03*
X92964000Y-90140000D03*
X90764000Y-90140000D03*
X90764000Y-89190000D03*
X90764000Y-88240000D03*
D27*
X121070000Y-102048000D03*
X121070000Y-102698000D03*
X121070000Y-103348000D03*
X121070000Y-103998000D03*
X121070000Y-104648000D03*
X121070000Y-105298000D03*
X121070000Y-105948000D03*
X121070000Y-106598000D03*
X121070000Y-107248000D03*
X121070000Y-107898000D03*
X121070000Y-108548000D03*
X121070000Y-109198000D03*
X128270000Y-109198000D03*
X128270000Y-108548000D03*
X128270000Y-107898000D03*
X128270000Y-107248000D03*
X128270000Y-106598000D03*
X128270000Y-105948000D03*
X128270000Y-105298000D03*
X128270000Y-104648000D03*
X128270000Y-103998000D03*
X128270000Y-103348000D03*
X128270000Y-102698000D03*
X128270000Y-102048000D03*
X128270000Y-114524000D03*
X128270000Y-115174000D03*
X128270000Y-115824000D03*
X128270000Y-116474000D03*
X128270000Y-117124000D03*
X128270000Y-117774000D03*
X128270000Y-118424000D03*
X128270000Y-119074000D03*
X128270000Y-119724000D03*
X128270000Y-120374000D03*
X128270000Y-121024000D03*
X128270000Y-121674000D03*
X121070000Y-121674000D03*
X121070000Y-121024000D03*
X121070000Y-120374000D03*
X121070000Y-119724000D03*
X121070000Y-119074000D03*
X121070000Y-118424000D03*
X121070000Y-117774000D03*
X121070000Y-117124000D03*
X121070000Y-116474000D03*
X121070000Y-115824000D03*
X121070000Y-115174000D03*
X121070000Y-114524000D03*
D28*
X100838000Y-102548000D03*
X100838000Y-94048000D03*
G36*
G01*
X117187500Y-84993750D02*
X117187500Y-85506250D01*
G75*
G02*
X116968750Y-85725000I-218750J0D01*
G01*
X116531250Y-85725000D01*
G75*
G02*
X116312500Y-85506250I0J218750D01*
G01*
X116312500Y-84993750D01*
G75*
G02*
X116531250Y-84775000I218750J0D01*
G01*
X116968750Y-84775000D01*
G75*
G02*
X117187500Y-84993750I0J-218750D01*
G01*
G37*
G36*
G01*
X115612500Y-84993750D02*
X115612500Y-85506250D01*
G75*
G02*
X115393750Y-85725000I-218750J0D01*
G01*
X114956250Y-85725000D01*
G75*
G02*
X114737500Y-85506250I0J218750D01*
G01*
X114737500Y-84993750D01*
G75*
G02*
X114956250Y-84775000I218750J0D01*
G01*
X115393750Y-84775000D01*
G75*
G02*
X115612500Y-84993750I0J-218750D01*
G01*
G37*
G36*
G01*
X115612500Y-83243750D02*
X115612500Y-83756250D01*
G75*
G02*
X115393750Y-83975000I-218750J0D01*
G01*
X114956250Y-83975000D01*
G75*
G02*
X114737500Y-83756250I0J218750D01*
G01*
X114737500Y-83243750D01*
G75*
G02*
X114956250Y-83025000I218750J0D01*
G01*
X115393750Y-83025000D01*
G75*
G02*
X115612500Y-83243750I0J-218750D01*
G01*
G37*
G36*
G01*
X117187500Y-83243750D02*
X117187500Y-83756250D01*
G75*
G02*
X116968750Y-83975000I-218750J0D01*
G01*
X116531250Y-83975000D01*
G75*
G02*
X116312500Y-83756250I0J218750D01*
G01*
X116312500Y-83243750D01*
G75*
G02*
X116531250Y-83025000I218750J0D01*
G01*
X116968750Y-83025000D01*
G75*
G02*
X117187500Y-83243750I0J-218750D01*
G01*
G37*
G36*
G01*
X117187500Y-81493750D02*
X117187500Y-82006250D01*
G75*
G02*
X116968750Y-82225000I-218750J0D01*
G01*
X116531250Y-82225000D01*
G75*
G02*
X116312500Y-82006250I0J218750D01*
G01*
X116312500Y-81493750D01*
G75*
G02*
X116531250Y-81275000I218750J0D01*
G01*
X116968750Y-81275000D01*
G75*
G02*
X117187500Y-81493750I0J-218750D01*
G01*
G37*
G36*
G01*
X115612500Y-81493750D02*
X115612500Y-82006250D01*
G75*
G02*
X115393750Y-82225000I-218750J0D01*
G01*
X114956250Y-82225000D01*
G75*
G02*
X114737500Y-82006250I0J218750D01*
G01*
X114737500Y-81493750D01*
G75*
G02*
X114956250Y-81275000I218750J0D01*
G01*
X115393750Y-81275000D01*
G75*
G02*
X115612500Y-81493750I0J-218750D01*
G01*
G37*
G36*
G01*
X111562500Y-85506250D02*
X111562500Y-84993750D01*
G75*
G02*
X111781250Y-84775000I218750J0D01*
G01*
X112218750Y-84775000D01*
G75*
G02*
X112437500Y-84993750I0J-218750D01*
G01*
X112437500Y-85506250D01*
G75*
G02*
X112218750Y-85725000I-218750J0D01*
G01*
X111781250Y-85725000D01*
G75*
G02*
X111562500Y-85506250I0J218750D01*
G01*
G37*
G36*
G01*
X113137500Y-85506250D02*
X113137500Y-84993750D01*
G75*
G02*
X113356250Y-84775000I218750J0D01*
G01*
X113793750Y-84775000D01*
G75*
G02*
X114012500Y-84993750I0J-218750D01*
G01*
X114012500Y-85506250D01*
G75*
G02*
X113793750Y-85725000I-218750J0D01*
G01*
X113356250Y-85725000D01*
G75*
G02*
X113137500Y-85506250I0J218750D01*
G01*
G37*
G36*
G01*
X113137500Y-83756250D02*
X113137500Y-83243750D01*
G75*
G02*
X113356250Y-83025000I218750J0D01*
G01*
X113793750Y-83025000D01*
G75*
G02*
X114012500Y-83243750I0J-218750D01*
G01*
X114012500Y-83756250D01*
G75*
G02*
X113793750Y-83975000I-218750J0D01*
G01*
X113356250Y-83975000D01*
G75*
G02*
X113137500Y-83756250I0J218750D01*
G01*
G37*
G36*
G01*
X111562500Y-83756250D02*
X111562500Y-83243750D01*
G75*
G02*
X111781250Y-83025000I218750J0D01*
G01*
X112218750Y-83025000D01*
G75*
G02*
X112437500Y-83243750I0J-218750D01*
G01*
X112437500Y-83756250D01*
G75*
G02*
X112218750Y-83975000I-218750J0D01*
G01*
X111781250Y-83975000D01*
G75*
G02*
X111562500Y-83756250I0J218750D01*
G01*
G37*
G36*
G01*
X111562500Y-82006250D02*
X111562500Y-81493750D01*
G75*
G02*
X111781250Y-81275000I218750J0D01*
G01*
X112218750Y-81275000D01*
G75*
G02*
X112437500Y-81493750I0J-218750D01*
G01*
X112437500Y-82006250D01*
G75*
G02*
X112218750Y-82225000I-218750J0D01*
G01*
X111781250Y-82225000D01*
G75*
G02*
X111562500Y-82006250I0J218750D01*
G01*
G37*
G36*
G01*
X113137500Y-82006250D02*
X113137500Y-81493750D01*
G75*
G02*
X113356250Y-81275000I218750J0D01*
G01*
X113793750Y-81275000D01*
G75*
G02*
X114012500Y-81493750I0J-218750D01*
G01*
X114012500Y-82006250D01*
G75*
G02*
X113793750Y-82225000I-218750J0D01*
G01*
X113356250Y-82225000D01*
G75*
G02*
X113137500Y-82006250I0J218750D01*
G01*
G37*
D29*
X100500000Y-82000000D03*
X100500000Y-87500000D03*
X102500000Y-82000000D03*
X102500000Y-87500000D03*
X106500000Y-82000000D03*
X106500000Y-87500000D03*
X108500000Y-82000000D03*
X108500000Y-87500000D03*
X132750000Y-87250000D03*
X132750000Y-81750000D03*
X130750000Y-87250000D03*
X130750000Y-81750000D03*
X126750000Y-87250000D03*
X126750000Y-81750000D03*
X124750000Y-87250000D03*
X124750000Y-81750000D03*
G36*
G01*
X147012500Y-101493750D02*
X147012500Y-102006250D01*
G75*
G02*
X146793750Y-102225000I-218750J0D01*
G01*
X146356250Y-102225000D01*
G75*
G02*
X146137500Y-102006250I0J218750D01*
G01*
X146137500Y-101493750D01*
G75*
G02*
X146356250Y-101275000I218750J0D01*
G01*
X146793750Y-101275000D01*
G75*
G02*
X147012500Y-101493750I0J-218750D01*
G01*
G37*
G36*
G01*
X145437500Y-101493750D02*
X145437500Y-102006250D01*
G75*
G02*
X145218750Y-102225000I-218750J0D01*
G01*
X144781250Y-102225000D01*
G75*
G02*
X144562500Y-102006250I0J218750D01*
G01*
X144562500Y-101493750D01*
G75*
G02*
X144781250Y-101275000I218750J0D01*
G01*
X145218750Y-101275000D01*
G75*
G02*
X145437500Y-101493750I0J-218750D01*
G01*
G37*
G36*
G01*
X149506250Y-105225000D02*
X148993750Y-105225000D01*
G75*
G02*
X148775000Y-105006250I0J218750D01*
G01*
X148775000Y-104568750D01*
G75*
G02*
X148993750Y-104350000I218750J0D01*
G01*
X149506250Y-104350000D01*
G75*
G02*
X149725000Y-104568750I0J-218750D01*
G01*
X149725000Y-105006250D01*
G75*
G02*
X149506250Y-105225000I-218750J0D01*
G01*
G37*
G36*
G01*
X149506250Y-103650000D02*
X148993750Y-103650000D01*
G75*
G02*
X148775000Y-103431250I0J218750D01*
G01*
X148775000Y-102993750D01*
G75*
G02*
X148993750Y-102775000I218750J0D01*
G01*
X149506250Y-102775000D01*
G75*
G02*
X149725000Y-102993750I0J-218750D01*
G01*
X149725000Y-103431250D01*
G75*
G02*
X149506250Y-103650000I-218750J0D01*
G01*
G37*
D30*
X140000000Y-109750000D03*
X145500000Y-109750000D03*
X140000000Y-107250000D03*
X145500000Y-107250000D03*
X140000000Y-104750000D03*
X145500000Y-104750000D03*
M02*
